<svg viewBox="0 0 1429.72 549.02" xmlns="http://www.w3.org/2000/svg" xmlns:xlink="http://www.w3.org/1999/xlink"><linearGradient id="a" gradientTransform="matrix(1 0 0 -1 1729.93 3262.91)" gradientUnits="userSpaceOnUse" x1="-1261.48" x2="-1261.48" y1="2908.09" y2="2714.39"><stop offset="0" stop-color="#fff" stop-opacity="0"/><stop offset=".93" stop-color="#fff"/></linearGradient><path d="m529.79.5h165.14v100h-165.13z" fill="#fff" stroke="#333"/><path d="m575.44 37.27v-.45l8.35-4.1v.9l-7.1 3.4 7.1 3.45v.9" fill="#333"/><path d="m585.59 37.27v-.45l8.35-4.1v.9l-7.1 3.4 7.1 3.45v.9" fill="#333"/><path d="m597.09 38.82c0 3.2 2.6 4 5.2 3.15.05 1.25-1.5 1.25-2.75 1.25-2.8 0-4-1.6-4-4.4 0-3.8 3.1-4.9 6.55-4v2.3h-.5c-.25-.75-.2-1.55-1.15-1.75-2.35-.5-3.35 1.05-3.35 3.45" fill="#333"/><path d="m606 42.42 1.4.2v.38h-4.3v-.4l1.4-.2v-11.28l-1.4-.2v-.4h2.9z" fill="#333"/><path d="m609.39 34.87c2.05-.5 5.1-.7 5.1 2v5.6c.4.15 1.2-.1 1 .6h-2.25l-.2-.85c-1.15 1.5-5.15 1.5-4.65-1.45-.1-2.5 2.25-2.5 4.6-2.55.2-1.8-.25-3.5-2.1-2.8a6.89 6.89 0 0 0 -.8.3c-.2.35 0 1.15-.75 1zm.5 5.8c0 2 2.05 1.65 3.15 1.1v-3c-1.7 0-3.15 0-3.15 1.85" fill="#333"/><path d="m617.79 36.52c.35 2.4 4.3 1.15 4.3 4.2 0 2.8-3.45 2.85-5.6 2.05v-2c1 0 .45 1.45 1.55 1.55 1.75 1 3.85-1.3 2.05-2.5-1.35-.9-3.6-.65-3.6-3 0-2.5 2.9-2.6 5-2v1.8c-1 .05-.4-1.25-1.4-1.25-1.05-.35-2.5 0-2.3 1.15" fill="#333"/><path d="m624.79 36.52c.35 2.4 4.3 1.15 4.3 4.2 0 2.8-3.45 2.85-5.6 2.05v-2c1 0 .45 1.45 1.55 1.55 1.75 1 3.85-1.3 2.05-2.5-1.35-.9-3.6-.65-3.6-3 0-2.5 2.9-2.6 5-2v1.8c-1 .05-.4-1.25-1.4-1.25-1.05-.35-2.5 0-2.3 1.15" fill="#333"/><path d="m630.64 41.37v-.9l7.1-3.45-7.1-3.4v-.9l8.4 4.1v.45" fill="#333"/><path d="m640.79 41.37v-.9l7.1-3.45-7.1-3.4v-.9l8.4 4.1v.45" fill="#333"/><path d="m544.34 64.17v.45h-3.85v-.45l1.3-.25 4.05-11.2h1.65l4.15 11.2 1.5.25v.45h-4.95v-.45l1.55-.25-1.15-3.4h-4.65l-1.2 3.4zm1.9-10.17-2 5.7h4.1" fill="#333"/><path d="m556.09 57.37a6.08 6.08 0 0 1 3-1.25v2.25c-1 .05-.4-1.5-2-.85l-1 .3v6.18l1.45.2v.4h-3.95v-.4l1-.2v-7c-.4-.15-1.2.1-1-.6h2.41" fill="#333"/><path d="m565.89 57a3.05 3.05 0 0 1 -2.7 4.85 10.11 10.11 0 0 1 -1.35-.15l-.55 1.15c1.45 1.1 6.5-.7 6.2 2.6-.2 2.25-1.9 2.85-4.4 3-3.2.25-4.65-2.6-2-4a1.61 1.61 0 0 1 -1.2-1.45l1.4-1.55a2.54 2.54 0 0 1 -1.4-2.55c-.1-2.55 2.65-3.25 5-2.6l1.9-1 .35.4zm-2.8 10.8c1.75 0 3-.55 3-2.1 0-1.75-2.85-.85-4.45-1a2.43 2.43 0 0 0 -.85 1.7c.05 1.22 1 1.42 2.3 1.42zm-1.65-8.8c0 1.3.35 2.3 1.75 2.2s1.7-.8 1.75-2.2-.3-2.15-1.7-2.15-1.8.85-1.8 2.15" fill="#333"/><path d="m574 64c-1.75 1-4.9 1.4-4.9-1.6v-5.4c-.4-.15-1.2.1-1-.6h2.5v5.9c-.15 1.85 2.1 1.6 3.45 1.25v-6.55l-1.25-.2v-.4h2.7v7.6c.4.15 1.2-.1 1 .6h-2.4" fill="#333"/><path d="m583.14 58.72c.2-1.85-2.1-1.6-3.4-1.25v6.53l1.2.2v.4h-3.7c-.15-.65.65-.45 1-.6v-7c-.35-.15-1.15.05-1-.6h2.4l.05.65c1.1-.75 3.85-1.5 4.6.1 1.6-1.1 5.2-1.8 5.2 1.45v5.4c.4.15 1.2-.1 1 .6h-3.75v-.4l1.26-.2v-5.3c.15-1.95-2.25-1.55-3.6-1.2.35 1.85 0 4.4.15 6.5l1.25.2v.4h-3.9v-.4l1.2-.2v-5.3" fill="#333"/><path d="m595 56.12c2.45 0 3.3 1.65 3.15 4.35h-5.05c-.4 3 1.9 4 4.75 3.15v.5a5.33 5.33 0 0 1 -2.65.7c-2.7 0-3.7-1.65-3.7-4.4s1.14-4.3 3.5-4.3zm1.65 3.65c.6-2.85-2.85-4.1-3.45-1.2a8.3 8.3 0 0 0 -.1 1.2z" fill="#333"/><path d="m605 58.72c.2-1.85-2-1.7-3.4-1.3v6.58l1.15.2v.4h-3.6c-.15-.65.65-.45 1-.6v-7c-.35-.15-1.15.05-1-.6h2.35l.1.65c1.55-1.15 4.9-1.45 4.9 1.55v5.4c.35.15 1.15 0 1 .6h-3.6v-.4l1.1-.2v-5.3" fill="#333"/><path d="m610.49 62.72c0 1.25 1.2 1.3 2.2 1v.6c-1.35.8-3.65.75-3.65-1.45v-5.75h-1c-.1-.7.7-.5 1-.75l.9-1.9h.55v1.9h1.9v.75h-1.9z" fill="#333"/><path d="m615.54 64.62v-.45l1.9-.25v-10.35a24.94 24.94 0 0 0 -3.5.2l-.25 1.85h-.55v-2.8h10.35v2.8h-.6l-.25-1.85-3.5-.15v10.3l1.85.25v.45z" fill="#333"/><path d="m627 56.12c2.6 0 3.8 1.6 3.8 4.35s-1.2 4.35-3.85 4.35-3.75-1.7-3.75-4.35 1.19-4.35 3.8-4.35zm0 8c1.95 0 2.3-1.75 2.3-3.65s-.35-3.65-2.3-3.65-2.2 1.7-2.2 3.65.3 3.6 2.2 3.65" fill="#333"/><path d="m634.49 60.62 3.4-3.65c-.35-.15-1 0-.85-.6h2.9c.15.65-.65.45-1 .6l-2.35 2.4 3 4.65c.35.15 1 0 .9.6h-3.4c-.15-.6.45-.45.75-.6l-2.25-3.55-1.1 1.15v2.38c.35.15 1 0 .9.6h-3.39v-.4l1-.2v-11.28l-1.2-.2v-.4h2.65v8.5" fill="#333"/><path d="m644.69 56.12c2.45 0 3.3 1.65 3.15 4.35h-5.05c-.4 3 1.9 4 4.75 3.15v.5a5.33 5.33 0 0 1 -2.65.7c-2.7 0-3.7-1.65-3.7-4.4s1.1-4.3 3.5-4.3zm1.65 3.65c.6-2.85-2.85-4.1-3.45-1.2a8.3 8.3 0 0 0 -.1 1.2z" fill="#333"/><path d="m654.69 58.72c.2-1.85-2.05-1.7-3.4-1.3v6.58l1.15.2v.4h-3.6c-.15-.65.65-.45 1-.6v-7c-.35-.15-1.15.05-1-.6h2.35l.1.65c1.55-1.15 4.9-1.45 4.9 1.55v5.4c.35.15 1.15 0 1 .6h-3.6v-.4l1.1-.2v-5.3" fill="#333"/><path d="m659.79 54.62c-1.15 0-1.25-1.95 0-1.9.65 0 .9.35 1 1a1 1 0 0 1 -1 .9zm.9 9.4 1.4.2v.4h-4.25v-.4l1.4-.2v-7.02l-1.2-.2v-.4h2.65v7.6" fill="#333"/><path d="m662.94 64.62v-.4l4.5-7.15c-1.15.1-2.7-.2-3.5.3-.25.4 0 1.3-.7 1.2v-2.2h6.1v.4l-4.55 7.15c1.45-.1 3.25.15 4.3-.4l.45-1.75h.4l-.25 2.85z" fill="#333"/><path d="m674.59 56.12c2.45 0 3.3 1.65 3.15 4.35h-5c-.4 3 1.9 4 4.75 3.15v.5a5.33 5.33 0 0 1 -2.65.7c-2.7 0-3.7-1.65-3.7-4.4s1.05-4.3 3.45-4.3zm1.65 3.65c.6-2.85-2.85-4.1-3.45-1.2a8.3 8.3 0 0 0 -.1 1.2z" fill="#333"/><path d="m681.19 57.37a6.08 6.08 0 0 1 3-1.25v2.25c-1 .05-.4-1.5-2-.85l-1 .3v6.18l1.45.2v.4h-3.95v-.4l1-.2v-7c-.4-.15-1.2.1-1-.6h2.4" fill="#333"/><path d="m369.79.5h120v100h-120z" fill="#fff" stroke="#333"/><path d="m392.94 37.27v-.45l8.35-4.1v.9l-7.1 3.4 7.1 3.45v.9" fill="#333"/><path d="m403.09 37.27v-.45l8.35-4.1v.9l-7.1 3.4 7.1 3.45v.9" fill="#333"/><path d="m414.59 38.82c0 3.2 2.6 4 5.2 3.15 0 1.25-1.5 1.25-2.75 1.25-2.8 0-4-1.6-4-4.4 0-3.8 3.1-4.9 6.55-4v2.3h-.5c-.25-.75-.2-1.55-1.15-1.75-2.35-.5-3.35 1.05-3.35 3.45" fill="#333"/><path d="m423.54 42.42 1.4.2v.38h-4.3v-.4l1.4-.2v-11.28l-1.4-.2v-.4h2.9z" fill="#333"/><path d="m426.89 34.87c2.05-.5 5.1-.7 5.1 2v5.6c.4.15 1.2-.1 1.05.6h-2.25l-.2-.85c-1.15 1.5-5.15 1.5-4.65-1.45-.1-2.5 2.25-2.5 4.6-2.55.2-1.8-.25-3.5-2.1-2.8a6.89 6.89 0 0 0 -.8.3c-.2.35 0 1.15-.75 1zm.5 5.8c0 2 2.05 1.65 3.15 1.1v-3c-1.7 0-3.15 0-3.15 1.85" fill="#333"/><path d="m435.29 36.52c.35 2.4 4.3 1.15 4.3 4.2 0 2.8-3.45 2.85-5.6 2.05v-2c1 0 .45 1.45 1.55 1.55 1.75 1 3.85-1.3 2-2.5-1.35-.9-3.6-.65-3.6-3 0-2.5 2.9-2.6 5-2v1.8c-.95.05-.4-1.25-1.4-1.25-1-.35-2.5 0-2.3 1.15" fill="#333"/><path d="m442.29 36.52c.35 2.4 4.3 1.15 4.3 4.2 0 2.8-3.45 2.85-5.6 2.05v-2c1 0 .45 1.45 1.55 1.55 1.75 1 3.85-1.3 2-2.5-1.35-.9-3.6-.65-3.6-3 0-2.5 2.9-2.6 5-2v1.8c-.95.05-.4-1.25-1.4-1.25-1-.35-2.5 0-2.3 1.15" fill="#333"/><path d="m448.14 41.37v-.9l7.1-3.45-7.1-3.4v-.9l8.4 4.1v.45" fill="#333"/><path d="m458.29 41.37v-.9l7.1-3.45-7.1-3.4v-.9l8.4 4.1v.45" fill="#333"/><path d="m403.27 61.22c0 4-4.75 4.1-7.7 3v-2.7h.6c.05 1.75 1.1 2.6 3 2.6 2.5 0 3.45-2.9 1.65-4.1s-5.25-1-5.25-4.25 4.3-3.3 7.1-2.65v2.45h-.6l-.3-1.45c-1.55-1.35-6-.35-4.45 2.1 1.4 2.15 5.95 1.2 5.95 5" fill="#333"/><path d="m410.57 64c-1.75 1-4.9 1.4-4.9-1.6v-5.4c-.4-.15-1.2.1-1.05-.6h2.5v5.9c-.15 1.85 2.1 1.6 3.45 1.25v-6.55l-1.25-.2v-.4h2.68v7.6c.4.15 1.2-.1 1.05.6h-2.4" fill="#333"/><path d="m420.42 57a3.05 3.05 0 0 1 -2.7 4.85 10.11 10.11 0 0 1 -1.35-.15l-.55 1.15c1.45 1.1 6.5-.7 6.2 2.6-.2 2.25-1.9 2.85-4.4 3-3.2.25-4.65-2.6-2-4a1.61 1.61 0 0 1 -1.2-1.45l1.4-1.55a2.54 2.54 0 0 1 -1.4-2.55c-.1-2.55 2.65-3.25 5-2.6l1.9-1 .35.4zm-2.8 10.8c1.75 0 3.05-.55 3.05-2.1 0-1.75-2.85-.85-4.45-1a2.43 2.43 0 0 0 -.85 1.7c0 1.22.95 1.42 2.25 1.42zm-1.62-8.8c0 1.3.35 2.3 1.75 2.2s1.7-.8 1.75-2.2-.3-2.15-1.7-2.15-1.8.82-1.8 2.15" fill="#333"/><path d="m429.42 57a3.05 3.05 0 0 1 -2.7 4.85 10.11 10.11 0 0 1 -1.35-.15l-.55 1.15c1.45 1.1 6.5-.7 6.2 2.6-.2 2.25-1.9 2.85-4.4 3-3.2.25-4.65-2.6-2-4a1.61 1.61 0 0 1 -1.2-1.45l1.4-1.55a2.54 2.54 0 0 1 -1.4-2.55c-.1-2.55 2.65-3.25 5-2.6l1.9-1 .35.4zm-2.8 10.8c1.75 0 3.05-.55 3.05-2.1 0-1.75-2.85-.85-4.45-1a2.43 2.43 0 0 0 -.85 1.7c0 1.22.95 1.42 2.25 1.42zm-1.62-8.8c0 1.3.35 2.3 1.75 2.2s1.7-.8 1.75-2.2-.3-2.15-1.7-2.15-1.8.82-1.8 2.15" fill="#333"/><path d="m435.57 56.12c2.45 0 3.3 1.65 3.15 4.35h-5.05c-.4 3 1.9 4 4.75 3.15v.5a5.33 5.33 0 0 1 -2.65.7c-2.7 0-3.7-1.65-3.7-4.4s1.1-4.3 3.5-4.3zm1.65 3.65c.6-2.85-2.85-4.1-3.45-1.2a8.3 8.3 0 0 0 -.1 1.2z" fill="#333"/><path d="m441.37 58.12c.35 2.4 4.3 1.15 4.3 4.2 0 2.8-3.45 2.85-5.6 2.05v-2c1 0 .45 1.45 1.55 1.55 1.75 1 3.85-1.3 2.05-2.5-1.35-.9-3.6-.65-3.6-3 0-2.5 2.9-2.6 5-2v1.8c-.95.05-.4-1.25-1.4-1.25-1.05-.35-2.5 0-2.3 1.15" fill="#333"/><path d="m449 62.72c0 1.25 1.2 1.3 2.2 1v.6c-1.35.8-3.65.75-3.65-1.45v-5.75h-1.05c-.1-.7.7-.5 1.05-.75l.9-1.9h.55v1.9h1.9v.75h-1.9z" fill="#333"/><path d="m455.52 56.12c2.45 0 3.3 1.65 3.15 4.35h-5.05c-.4 3 1.9 4 4.75 3.15v.5a5.33 5.33 0 0 1 -2.65.7c-2.7 0-3.7-1.65-3.7-4.4s1.1-4.3 3.5-4.3zm1.65 3.65c.6-2.85-2.85-4.1-3.45-1.2a8.3 8.3 0 0 0 -.1 1.2z" fill="#333"/><path d="m462.12 57.37a6.08 6.08 0 0 1 3-1.25v2.25c-.95.05-.4-1.5-2-.85l-1 .3v6.18l1.45.2v.4h-3.95v-.4l1.05-.2v-7c-.4-.15-1.2.1-1.05-.6h2.38" fill="#333"/><path d="m429.79 101.5v446.5" fill="none"/><path d="m429.79 101.5v5m0 5v9.92m0 5v9.93m0 5v9.9m0 5v9.75m0 5v9.92m0 5v9.93m0 5v9.92m0 5v9.93m0 5v9.92m0 5v9.92m0 5v9.93m0 4.95v9.92m0 5v9.92m0 5v9.94m0 5v9.92m0 5v9.93m0 5v9.92m0 4.95v9.92m0 5v9.92m0 5v9.92m0 5v9.32m0 5v9.9m0 5v9.92m0 5v9.92m0 5v9.92m0 5v9.93m0 5v9.93m0 5v9.9m0 5v9.92m0 5v5" fill="none" stroke="#333"/><path d="m430.29 101.5h-1v-.5h1zm0 447h-1v-.5h1z" fill="#333"/><path d="m612.36 101.5v446.5" fill="none"/><path d="m612.36 101.5v5m0 5v9.92m0 5v9.93m0 5v9.9m0 5v9.75m0 5v9.92m0 5v9.93m0 5v9.92m0 5v9.93m0 5v9.92m0 5v9.92m0 5v9.93m0 4.95v9.92m0 5v9.92m0 5v9.94m0 5v9.92m0 5v9.93m0 5v9.92m0 4.95v9.92m0 5v9.92m0 5v9.92m0 5v9.32m0 5v9.9m0 5v9.92m0 5v9.92m0 5v9.92m0 5v9.93m0 5v9.93m0 5v9.9m0 5v9.92m0 5v5" fill="none" stroke="#333"/><path d="m612.86 101.5h-1v-.5h1zm0 447h-1v-.5h1z" fill="#333"/><path d="m87.44 95h40v420h-40z" fill="#fff" stroke="#333"/><path d="m107.44 100.5v-5.5" fill="none"/><path d="m107.44 100.5v-5.5" fill="none" stroke="#333"/><path d="m107.94 101h-1v-.5h1z" fill="#333"/><path d="m107.44 95v-.5" fill="none" stroke="#333"/><path d="m29.79.5h155.3v100h-155.3z" fill="#fff" stroke="#333"/><path d="m46.37 53.67a1 1 0 0 1 1.05 1 1 1 0 0 1 -1.05 1.05 1 1 0 0 1 -1.1-1.05 1 1 0 0 1 1.1-1zm0-6.6a1 1 0 0 1 1.05 1 1 1 0 0 1 -1.05 1.1 1 1 0 0 1 -1.1-1.1 1 1 0 0 1 1.1-1" fill="#333"/><path d="m57.77 52.12c0 4-4.75 4.1-7.7 3v-2.7h.6c0 1.75 1.1 2.6 3 2.6 2.5 0 3.45-2.9 1.65-4.1-2-1.2-5.25-1-5.25-4.25s4.3-3.3 7.1-2.65v2.45h-.6l-.3-1.47c-1.55-1.35-6.05-.35-4.45 2.1 1.4 2.15 6 1.2 6 5" fill="#333"/><path d="m65.07 54.87c-1.75 1.05-4.9 1.4-4.9-1.6v-5.4c-.4-.15-1.2.1-1.05-.6h2.5v5.9c-.15 1.85 2.1 1.6 3.45 1.25v-6.55l-1.25-.2v-.4h2.7v7.65c.4.15 1.2-.1 1 .6h-2.4" fill="#333"/><path d="m74.92 47.92a3.05 3.05 0 0 1 -2.7 4.85 10.11 10.11 0 0 1 -1.35-.15l-.55 1.15c1.45 1.1 6.5-.7 6.2 2.6-.2 2.25-1.9 2.85-4.4 3.05-3.2.25-4.65-2.6-2-4a1.61 1.61 0 0 1 -1.2-1.42l1.4-1.55a2.54 2.54 0 0 1 -1.4-2.55c-.1-2.55 2.65-3.25 5-2.6l1.9-1 .35.4zm-2.8 10.8c1.75 0 3-.55 3-2.1 0-1.75-2.85-.85-4.45-1a2.43 2.43 0 0 0 -.85 1.7c.05 1.2 1 1.4 2.3 1.4zm-1.65-8.85c0 1.3.35 2.3 1.75 2.2s1.7-.8 1.75-2.2-.3-2.15-1.7-2.15-1.8.85-1.8 2.15" fill="#333"/><path d="m83.92 47.92a3.05 3.05 0 0 1 -2.7 4.85 10.11 10.11 0 0 1 -1.35-.15l-.55 1.15c1.45 1.1 6.5-.7 6.2 2.6-.2 2.25-1.9 2.85-4.4 3.05-3.2.25-4.65-2.6-2-4a1.61 1.61 0 0 1 -1.2-1.42l1.4-1.55a2.54 2.54 0 0 1 -1.4-2.55c-.1-2.55 2.65-3.25 5-2.6l1.9-1 .35.4zm-2.8 10.8c1.75 0 3-.55 3-2.1 0-1.75-2.85-.85-4.45-1a2.43 2.43 0 0 0 -.85 1.7c.05 1.2 1 1.4 2.3 1.4zm-1.65-8.85c0 1.3.35 2.3 1.75 2.2s1.7-.8 1.75-2.2-.3-2.15-1.7-2.15-1.8.85-1.8 2.15" fill="#333"/><path d="m90.07 47c2.45 0 3.3 1.65 3.15 4.35h-5c-.4 3 1.9 4 4.75 3.15v.5a5.33 5.33 0 0 1 -2.65.7c-2.7 0-3.7-1.65-3.7-4.4s1.05-4.3 3.45-4.3zm1.65 3.65c.6-2.85-2.85-4.1-3.45-1.2a8.3 8.3 0 0 0 -.1 1.2z" fill="#333"/><path d="m95.87 49c.35 2.4 4.3 1.15 4.3 4.2 0 2.8-3.45 2.85-5.6 2.05v-2c1 0 .45 1.45 1.55 1.55 1.75 1 3.85-1.3 2-2.5-1.35-.9-3.6-.65-3.6-3 0-2.5 2.9-2.6 5-2v1.8c-.95.05-.4-1.25-1.4-1.25-1-.35-2.5 0-2.3 1.15" fill="#333"/><path d="m103.52 53.62c0 1.25 1.2 1.3 2.2 1v.6c-1.35.8-3.65.75-3.65-1.45v-5.77h-1c-.1-.7.7-.5 1-.75l.9-1.9h.55v1.9h1.9v.75h-1.9v5.6" fill="#333"/><path d="m108.17 45.52c-1.15 0-1.25-2 0-1.9.65 0 .9.35 1 1a1 1 0 0 1 -1 .9zm.9 9.4 1.4.2v.4h-4.25v-.4l1.4-.2v-7.05l-1.2-.2v-.4h2.65z" fill="#333"/><path d="m115.32 47c2.6 0 3.8 1.6 3.8 4.35s-1.2 4.35-3.85 4.35-3.75-1.7-3.75-4.35 1.2-4.35 3.8-4.35zm0 8c2 0 2.3-1.75 2.3-3.65s-.35-3.65-2.3-3.65-2.2 1.7-2.2 3.65.3 3.6 2.2 3.65" fill="#333"/><path d="m126.07 49.62c.2-1.85-2-1.7-3.4-1.3v6.6l1.15.2v.4h-3.6c-.15-.65.65-.45 1-.6v-7.05c-.35-.15-1.15.05-1-.6h2.35l.1.65c1.55-1.15 4.9-1.45 4.9 1.55v5.45c.35.15 1.15-.05 1 .6h-3.57v-.4l1.1-.2v-5.3" fill="#333"/><path d="m134.37 44.22-1.8.2v10.35a32.79 32.79 0 0 0 5.05-.2l.55-2.45h.55l-.15 3.4h-9.25v-.45l1.55-.25v-10.4l-1.55-.2v-.5h5.05z" fill="#333"/><path d="m144.27 47c2.6 0 3.8 1.6 3.8 4.35s-1.2 4.35-3.85 4.35-3.75-1.7-3.75-4.35 1.2-4.35 3.8-4.35zm-.05 8c1.95 0 2.3-1.75 2.3-3.65s-.35-3.65-2.3-3.65-2.2 1.7-2.2 3.65.3 3.6 2.2 3.65" fill="#333"/><path d="m155.82 47.92a3.05 3.05 0 0 1 -2.7 4.85 10.11 10.11 0 0 1 -1.35-.15l-.55 1.15c1.45 1.1 6.5-.7 6.2 2.6-.2 2.25-1.9 2.85-4.4 3.05-3.2.25-4.65-2.6-2-4a1.61 1.61 0 0 1 -1.2-1.45l1.4-1.55a2.54 2.54 0 0 1 -1.4-2.55c-.1-2.55 2.65-3.25 5-2.6l1.9-1 .35.4zm-2.82 10.8c1.75 0 3-.55 3-2.1 0-1.75-2.85-.85-4.45-1a2.43 2.43 0 0 0 -.85 1.7c.07 1.2 1.02 1.4 2.3 1.4zm-1.65-8.85c0 1.3.35 2.3 1.75 2.2s1.7-.8 1.75-2.2-.3-2.15-1.7-2.15-1.8.85-1.8 2.15" fill="#333"/><path d="m160.12 45.52c-1.15 0-1.25-2 0-1.9.65 0 .9.35 1 1a1 1 0 0 1 -1 .9zm.9 9.4 1.4.2v.4h-4.25v-.4l1.4-.2v-7.05l-1.2-.2v-.4h2.63v7.65" fill="#333"/><path d="m165 51.32c0 3.2 2.6 4 5.2 3.15.05 1.25-1.5 1.25-2.75 1.25-2.8 0-4-1.6-4-4.4 0-3.8 3.1-4.9 6.55-4v2.3h-.5c-.25-.75-.2-1.55-1.15-1.75-2.35-.5-3.35 1.05-3.35 3.45" fill="#333"/><path d="m941 10.8h281.9v537.47h-281.9z" fill="none"/><path d="m969.19 10.8h-28.19v537.47h28.2" fill="none" stroke="#333"/><path d="m970.12 19c-3.1 0-3.9 2.15-3.9 5.3s.8 5.4 3.9 5.4 3.9-2.25 3.9-5.4-.8-5.3-3.9-5.3zm0 11.4c-3.85 0-5.75-2.15-5.75-6.1s1.85-6 5.75-6 5.75 2.1 5.75 6-1.9 6.1-5.75 6.1" fill="#333"/><path d="m979.22 29.5c2.9.6 4.1-.75 4.1-3.65 0-2.6-1.75-3.85-4.1-2.9zm1.8.9a8.93 8.93 0 0 1 -3.25-.65v-11.45l-1.2-.2v-.4h2.65l-.05 4.7c2.4-1.65 5.7-.2 5.7 3.45 0 2.85-1.15 4.55-3.85 4.55" fill="#333"/><path d="m988.07 18.3c1.4 0 1.1 1.9 0 1.9-.5-.1-1-.35-1-.95s.4-.9 1-.95zm-2.35 14.8c1.2.75 1.75-.5 1.75-2.1v-8.45l-1.25-.2v-.35h2.7v8.6c.2 2.55-1.4 4.05-3.85 3.3v-1.8c.65-.1.45.65.65 1" fill="#333"/><path d="m994.77 21.7c2.45 0 3.3 1.65 3.15 4.35h-5c-.4 3 1.9 4 4.75 3.15v.5a5.33 5.33 0 0 1 -2.65.7c-2.7 0-3.7-1.65-3.7-4.4s1.05-4.3 3.45-4.3zm1.65 3.65c.6-2.85-2.85-4.1-3.45-1.2a8.3 8.3 0 0 0 -.1 1.2z" fill="#333"/><path d="m1000.77 26c0 3.2 2.6 4 5.2 3.15 0 1.25-1.5 1.25-2.75 1.25-2.8 0-4-1.6-4-4.4 0-3.8 3.1-4.9 6.55-4v2.3h-.5c-.25-.75-.2-1.55-1.15-1.75-2.35-.5-3.35 1.05-3.35 3.45" fill="#333"/><path d="m1009.17 28.3c0 1.25 1.2 1.3 2.2 1v.6c-1.35.8-3.65.75-3.65-1.45v-5.75h-1.05c-.1-.7.7-.5 1.05-.75l.9-1.9h.55v1.95h1.9v.75h-1.9v5.6" fill="#333"/><path d="m1013.52 23.7c.35 2.4 4.3 1.15 4.3 4.2 0 2.8-3.45 2.85-5.6 2.05v-1.95c1 0 .45 1.45 1.55 1.55 1.75.95 3.85-1.3 2.05-2.5-1.35-.9-3.6-.65-3.6-2.95 0-2.5 2.9-2.6 5-2.05v1.8c-1 .05-.4-1.25-1.4-1.25-1.05-.35-2.5-.05-2.3 1.15" fill="#333"/><path d="m1025.32 20.2c-1.15 0-1.25-1.95 0-1.9.65 0 .9.35 1 .95a1 1 0 0 1 -1 .95zm.9 9.4 1.4.2v.4h-4.25v-.4l1.4-.2v-7l-1.2-.2v-.4h2.65z" fill="#333"/><path d="m1034.22 24.3c.2-1.85-2-1.7-3.4-1.3v6.6l1.15.2v.4h-3.6c-.15-.65.65-.45 1-.6v-7c-.35-.15-1.15.05-1-.6h2.35l.1.65c1.55-1.15 4.9-1.45 4.9 1.55v5.4c.35.15 1.15-.05 1 .6h-3.6v-.4l1.1-.2z" fill="#333"/><path d="m1050.37 26.8c0 3.95-4.75 4.1-7.7 2.95v-2.7h.6c0 1.75 1.1 2.6 3 2.6 2.5 0 3.45-2.9 1.65-4.1-2-1.2-5.25-1.05-5.25-4.25 0-3.35 4.3-3.3 7.1-2.65v2.45h-.6l-.3-1.45c-1.55-1.35-6-.35-4.45 2.1 1.4 2.15 5.95 1.2 5.95 5.05" fill="#333"/><path d="m1057.67 29.55c-1.75 1.05-4.9 1.4-4.9-1.6v-5.4c-.4-.15-1.2.1-1-.6h2.5v5.9c-.15 1.85 2.1 1.6 3.45 1.25v-6.55l-1.25-.2v-.35h2.7v7.6c.4.15 1.2-.1 1.05.6h-2.4" fill="#333"/><path d="m1067.52 22.6a3.05 3.05 0 0 1 -2.7 4.85 10.11 10.11 0 0 1 -1.35-.15l-.55 1.15c1.45 1.1 6.5-.7 6.2 2.6-.2 2.25-1.9 2.85-4.4 3.05-3.2.25-4.65-2.6-2-4a1.61 1.61 0 0 1 -1.2-1.45l1.4-1.55a2.54 2.54 0 0 1 -1.4-2.55c-.1-2.55 2.65-3.25 5-2.6l1.9-1 .35.4zm-2.8 10.8c1.75 0 3-.55 3-2.1 0-1.75-2.85-.85-4.45-1.05a2.43 2.43 0 0 0 -.85 1.7c.05 1.25 1 1.45 2.3 1.45zm-1.65-8.85c0 1.3.35 2.3 1.75 2.2s1.7-.8 1.75-2.2-.3-2.15-1.7-2.15-1.8.85-1.8 2.15" fill="#333"/><path d="m1076.52 22.6a3.05 3.05 0 0 1 -2.7 4.85 10.11 10.11 0 0 1 -1.35-.15l-.55 1.15c1.45 1.1 6.5-.7 6.2 2.6-.2 2.25-1.9 2.85-4.4 3.05-3.2.25-4.65-2.6-2-4a1.61 1.61 0 0 1 -1.2-1.45l1.4-1.55a2.54 2.54 0 0 1 -1.4-2.55c-.1-2.55 2.65-3.25 5-2.6l1.9-1 .35.4zm-2.8 10.8c1.75 0 3-.55 3-2.1 0-1.75-2.85-.85-4.45-1.05a2.43 2.43 0 0 0 -.85 1.7c.05 1.25 1 1.45 2.3 1.45zm-1.65-8.85c0 1.3.35 2.3 1.75 2.2s1.7-.8 1.75-2.2-.3-2.15-1.7-2.15-1.8.85-1.8 2.15" fill="#333"/><path d="m1082.67 21.7c2.45 0 3.3 1.65 3.15 4.35h-5c-.4 3 1.9 4 4.75 3.15v.5a5.33 5.33 0 0 1 -2.65.7c-2.7 0-3.7-1.65-3.7-4.4s1.05-4.3 3.45-4.3zm1.65 3.65c.6-2.85-2.85-4.1-3.45-1.2a8.3 8.3 0 0 0 -.1 1.2z" fill="#333"/><path d="m1088.47 23.7c.35 2.4 4.3 1.15 4.3 4.2 0 2.8-3.45 2.85-5.6 2.05v-1.95c1 0 .45 1.45 1.55 1.55 1.75.95 3.85-1.3 2-2.5-1.35-.9-3.6-.65-3.6-2.95 0-2.5 2.9-2.6 5-2.05v1.8c-1 .05-.4-1.25-1.4-1.25-1-.35-2.5-.05-2.3 1.15" fill="#333"/><path d="m1096.12 28.3c0 1.25 1.2 1.3 2.2 1v.6c-1.35.8-3.65.75-3.65-1.45v-5.75h-1.05c-.1-.7.7-.5 1.05-.75l.9-1.9h.55v1.95h1.9v.75h-1.9v5.6" fill="#333"/><path d="m1100.77 20.2c-1.15 0-1.25-1.95 0-1.9.65 0 .9.35 1 .95a1 1 0 0 1 -1 .95zm.9 9.4 1.4.2v.4h-4.25v-.4l1.4-.2v-7l-1.2-.2v-.4h2.65z" fill="#333"/><path d="m1107.92 21.7c2.6 0 3.8 1.6 3.8 4.35s-1.2 4.35-3.85 4.35-3.75-1.7-3.75-4.35 1.2-4.35 3.8-4.35zm-.05 8c2 0 2.3-1.75 2.3-3.65s-.35-3.65-2.3-3.65-2.2 1.7-2.2 3.65.3 3.6 2.2 3.65" fill="#333"/><path d="m1118.67 24.3c.2-1.85-2.05-1.7-3.4-1.3v6.6l1.15.2v.4h-3.6c-.15-.65.65-.45 1-.6v-7c-.35-.15-1.15.05-1-.6h2.35l.1.65c1.55-1.15 4.9-1.45 4.9 1.55v5.4c.35.15 1.15-.05 1 .6h-3.6v-.4l1.1-.2z" fill="#333"/><path d="m1127 18.9-1.8.2v10.35a32.79 32.79 0 0 0 5-.2l.55-2.45h.55l-.15 3.4h-9.25v-.45l1.55-.25v-10.4l-1.55-.2v-.5h5v.5" fill="#333"/><path d="m1136.87 21.7c2.6 0 3.8 1.6 3.8 4.35s-1.2 4.35-3.85 4.35-3.75-1.7-3.75-4.35 1.2-4.35 3.8-4.35zm0 8c2 0 2.3-1.75 2.3-3.65s-.35-3.65-2.3-3.65-2.2 1.7-2.2 3.65.3 3.6 2.2 3.65" fill="#333"/><path d="m1148.42 22.6a3.05 3.05 0 0 1 -2.7 4.85 10.11 10.11 0 0 1 -1.35-.15l-.55 1.15c1.45 1.1 6.5-.7 6.2 2.6-.2 2.25-1.9 2.85-4.4 3.05-3.2.25-4.65-2.6-2-4a1.61 1.61 0 0 1 -1.2-1.45l1.4-1.55a2.54 2.54 0 0 1 -1.4-2.55c-.1-2.55 2.65-3.25 5-2.6l1.9-1 .35.4zm-2.8 10.8c1.75 0 3.05-.55 3.05-2.1 0-1.75-2.85-.85-4.45-1.05a2.43 2.43 0 0 0 -.85 1.7c0 1.25.95 1.45 2.25 1.45zm-1.62-8.85c0 1.3.35 2.3 1.75 2.2s1.7-.8 1.75-2.2-.3-2.15-1.7-2.15-1.8.85-1.8 2.15" fill="#333"/><path d="m1152.72 20.2c-1.15 0-1.25-1.95 0-1.9.65 0 .9.35 1 .95a1 1 0 0 1 -1 .95zm.9 9.4 1.4.2v.4h-4.25v-.4l1.4-.2v-7l-1.2-.2v-.4h2.65z" fill="#333"/><path d="m1157.62 26c0 3.2 2.6 4 5.2 3.15 0 1.25-1.5 1.25-2.75 1.25-2.8 0-4-1.6-4-4.4 0-3.8 3.1-4.9 6.55-4v2.3h-.5c-.25-.75-.2-1.55-1.15-1.75-2.35-.5-3.35 1.05-3.35 3.45" fill="#333"/><path d="m1169.87 23.7c.35 2.4 4.3 1.15 4.3 4.2 0 2.8-3.45 2.85-5.6 2.05v-1.95c1 0 .45 1.45 1.55 1.55 1.75.95 3.85-1.3 2.05-2.5-1.35-.9-3.6-.65-3.6-2.95 0-2.5 2.9-2.6 5-2.05v1.8c-1 .05-.4-1.25-1.4-1.25-1.05-.35-2.5-.05-2.3 1.15" fill="#333"/><path d="m1177.07 26c0 3.2 2.6 4 5.2 3.15 0 1.25-1.5 1.25-2.75 1.25-2.8 0-4-1.6-4-4.4 0-3.8 3.1-4.9 6.55-4v2.3h-.5c-.25-.75-.2-1.55-1.15-1.75-2.35-.5-3.35 1.05-3.35 3.45" fill="#333"/><path d="m1187.27 21.7c2.6 0 3.8 1.6 3.8 4.35s-1.2 4.35-3.85 4.35-3.75-1.7-3.75-4.35 1.2-4.35 3.8-4.35zm0 8c2 0 2.3-1.75 2.3-3.65s-.35-3.65-2.3-3.65-2.2 1.7-2.2 3.65.3 3.6 2.2 3.65" fill="#333"/><path d="m1200.07 26c.15 3.35-2.2 5.1-5.55 4.25v3.2l1.45.2v.45h-4v-.5l1-.2v-10.85c-.35-.15-1.1.05-.95-.6h2.3v.45a3.77 3.77 0 0 1 2.25-.7c2.55.1 3.43 1.8 3.5 4.3zm-5.5 3.6c2.65.7 4.15-.7 3.9-3.6.35-2.65-1.65-3.95-3.9-3z" fill="#333"/><path d="m1205 21.7c2.45 0 3.3 1.65 3.15 4.35h-5c-.4 3 1.9 4 4.75 3.15v.5a5.33 5.33 0 0 1 -2.65.7c-2.7 0-3.7-1.65-3.7-4.4s1.02-4.3 3.45-4.3zm1.65 3.65c.6-2.85-2.85-4.1-3.45-1.2a8.3 8.3 0 0 0 -.1 1.2z" fill="#333"/><path d="m965.22 43.65c2-.5 5.1-.7 5.1 2v5.6c.4.15 1.2-.1 1 .6h-2.25l-.2-.85c-1.15 1.5-5.15 1.5-4.65-1.45-.1-2.5 2.25-2.5 4.6-2.55.2-1.8-.25-3.5-2.1-2.8a6.89 6.89 0 0 0 -.8.3c-.2.35 0 1.15-.75 1zm.5 5.8c0 2 2 1.65 3.15 1.1v-2.95c-1.7 0-3.15-.05-3.15 1.85" fill="#333"/><path d="m976.72 40c-2-.75-1.75 1.6-1.7 3.55h2.2v.75h-2.22v6.8l1.75.3v.4h-4.45v-.4l1.25-.3v-6.8h-1.45v-.45l1.45-.35c-.3-3 1.15-5 4-4.2v1.8c-.75.1-.6-.7-.85-1.1" fill="#333"/><path d="m980.22 49.9c-.05 1.25 1.2 1.3 2.2 1v.6c-1.35.8-3.65.75-3.65-1.45v-5.75h-1c-.1-.7.7-.5 1-.75l.9-1.9h.55v1.9h1.9v.75h-1.9z" fill="#333"/><path d="m986.72 43.3c2.45 0 3.3 1.65 3.15 4.35h-5c-.4 3 1.9 4 4.75 3.15v.5a5.33 5.33 0 0 1 -2.65.7c-2.7 0-3.7-1.65-3.7-4.4s1.05-4.3 3.45-4.3zm1.65 3.7c.6-2.85-2.85-4.1-3.45-1.2a8.3 8.3 0 0 0 -.1 1.2z" fill="#333"/><path d="m993.32 44.55a6.08 6.08 0 0 1 3-1.25v2.25c-1 .05-.4-1.5-2-.85l-1 .3v6.2l1.45.2v.4h-3.95v-.4l1-.2v-7.05c-.4-.15-1.2.1-1-.6h2.4" fill="#333"/><path d="m1005.12 43.3c2.45 0 3.3 1.65 3.15 4.35h-5c-.4 3 1.9 4 4.75 3.15v.5a5.33 5.33 0 0 1 -2.65.7c-2.7 0-3.7-1.65-3.7-4.4s1.05-4.3 3.45-4.3zm1.65 3.65c.6-2.85-2.85-4.1-3.45-1.2a8.3 8.3 0 0 0 -.1 1.2z" fill="#333"/><path d="m1016.67 51.2c.35.15 1.15-.05 1 .6h-3.75v-.4l1.1-.2-1.9-2.9-2.25 2.9 1.15.2v.4h-3v-.4l1-.15 2.75-3.55-2.4-3.55c-.35-.15-1.15.05-1-.6h3.75v.45l-1.1.2 1.6 2.4 1.85-2.4-1.15-.2v-.4h3v.4l-1 .15-2.3 3" fill="#333"/><path d="m1022.07 43.3c2.45 0 3.3 1.65 3.15 4.35h-5.05c-.4 3 1.9 4 4.75 3.15v.5a5.33 5.33 0 0 1 -2.65.7c-2.7 0-3.7-1.65-3.7-4.4s1.1-4.3 3.5-4.3zm1.65 3.65c.6-2.85-2.85-4.1-3.45-1.2a8.3 8.3 0 0 0 -.1 1.2z" fill="#333"/><path d="m1028.07 47.6c0 3.2 2.6 4 5.2 3.15 0 1.25-1.5 1.25-2.75 1.25-2.8 0-4-1.6-4-4.4 0-3.8 3.1-4.9 6.55-4v2.3h-.5c-.25-.75-.2-1.55-1.15-1.75-2.35-.5-3.35 1.05-3.35 3.45" fill="#333"/><path d="m1040 51.15c-1.75 1.05-4.9 1.4-4.9-1.6v-5.4c-.4-.15-1.2.1-1-.6h2.5v5.9c-.15 1.85 2.1 1.6 3.45 1.25v-6.55l-1.25-.2v-.4h2.7v7.65c.4.15 1.2-.1 1 .6h-2.4" fill="#333"/><path d="m1045.47 49.9c0 1.25 1.2 1.3 2.2 1v.6c-1.35.8-3.65.75-3.65-1.45v-5.75h-1c-.1-.7.7-.5 1-.75l.9-1.9h.55v1.9h1.9v.75h-1.9z" fill="#333"/><path d="m1050.12 41.8c-1.15 0-1.25-1.95 0-1.9.65 0 .9.35 1 1a1 1 0 0 1 -1 .9zm.9 9.4 1.4.2v.4h-4.25v-.4l1.4-.2v-7.05l-1.2-.2v-.4h2.63v7.65" fill="#333"/><path d="m1057.27 43.3c2.6 0 3.8 1.6 3.8 4.35s-1.2 4.35-3.85 4.35-3.75-1.7-3.75-4.35 1.2-4.35 3.8-4.35zm0 8c2 0 2.3-1.75 2.3-3.65s-.35-3.65-2.3-3.65-2.2 1.7-2.2 3.65.3 3.6 2.2 3.65" fill="#333"/><path d="m1068 45.9c.2-1.85-2-1.7-3.4-1.3v6.6l1.15.2v.4h-3.6c-.15-.65.65-.45 1-.6v-7.05c-.35-.15-1.15.05-1-.6h2.35l.1.65c1.55-1.15 4.9-1.45 4.9 1.55v5.45c.35.15 1.15-.05 1 .6h-3.6v-.4l1.1-.2z" fill="#333"/><path d="m953.35 74.5h275.18v134h-275.17z" fill="#fff" stroke="#333"/><path d="m953.35 112.1h275.18m-275.17 59.2h275.18" fill="none" stroke="#333"/><g fill="#333"><path d="m966.53 92.91c0 3.2 2.6 4 5.2 3.15 0 1.25-1.5 1.25-2.75 1.25-2.8 0-4-1.6-4-4.4 0-3.8 3.1-4.9 6.55-4v2.3h-.53c-.25-.75-.2-1.55-1.15-1.75-2.35-.5-3.35 1.05-3.35 3.45"/><path d="m976.73 88.61c2.6 0 3.8 1.6 3.8 4.35s-1.2 4.35-3.85 4.35-3.75-1.7-3.75-4.35 1.2-4.35 3.8-4.35zm-.05 8c2 0 2.3-1.75 2.3-3.65s-.35-3.65-2.3-3.65-2.2 1.7-2.2 3.65.3 3.6 2.2 3.65"/><path d="m987.53 91.21c.2-1.85-2.1-1.6-3.4-1.25v6.55l1.2.2v.4h-3.7c-.15-.65.65-.45 1-.6v-7.05c-.35-.15-1.15.05-1-.6h2.37l.05.65c1.1-.75 3.85-1.5 4.6.1 1.6-1.1 5.2-1.8 5.2 1.45v5.45c.4.15 1.2-.1 1 .6h-3.75v-.4l1.25-.2v-5.3c.15-1.95-2.25-1.55-3.6-1.2.35 1.85 0 4.4.15 6.5l1.25.2v.4h-3.9v-.4l1.2-.2v-5.3"/><path d="m1001.53 91.21c.2-1.85-2.1-1.6-3.4-1.25v6.55l1.2.2v.4h-3.7c-.15-.65.65-.45 1-.6v-7.05c-.35-.15-1.15.05-1-.6h2.37l.05.65c1.1-.75 3.85-1.5 4.6.1 1.6-1.1 5.2-1.8 5.2 1.45v5.45c.4.15 1.2-.1 1 .6h-3.75v-.4l1.25-.2v-5.3c.15-1.95-2.25-1.55-3.6-1.2.35 1.85 0 4.4.15 6.5l1.25.2v.4h-3.9v-.4l1.2-.2v-5.3"/><path d="m1010.83 89c2-.5 5.1-.7 5.1 2v5.6c.4.15 1.2-.1 1.05.6h-2.25l-.2-.85c-1.15 1.5-5.15 1.5-4.65-1.45-.1-2.5 2.25-2.5 4.6-2.55.2-1.8-.25-3.5-2.1-2.8a6.89 6.89 0 0 0 -.8.3c-.2.35 0 1.15-.75 1zm.5 5.8c0 2 2 1.65 3.15 1.1v-3c-1.7 0-3.15 0-3.15 1.85"/><path d="m1023.43 91.21c.2-1.85-2-1.7-3.4-1.3v6.6l1.15.2v.4h-3.6c-.15-.65.65-.45 1-.6v-7.05c-.35-.15-1.15.05-1-.6h2.35l.1.65c1.55-1.15 4.9-1.45 4.9 1.55v5.45c.35.15 1.15-.05 1 .6h-3.6v-.4l1.1-.2z"/><path d="m1026.83 93.06c0-3.55 2.3-5 5.7-4.25v-3.6l-1.4-.2v-.4h2.85v11.9c.4.15 1.2-.1 1 .6h-2.35l-.1-.6c-2.35 1.75-5.7.55-5.7-3.45zm3.85-3.7c-1.85 0-2.2 1.65-2.25 3.7 0 1.9.45 3.3 2.25 3.3a4.61 4.61 0 0 0 1.8-.35v-6.5c-.5-.05-1.2-.15-1.8-.15"/><path d="m1037.93 97.11v-.45l1.9-.25v-10.35a24.94 24.94 0 0 0 -3.5.2l-.25 1.85h-.55v-2.8h10.35v2.8h-.6l-.25-1.85-3.5-.15v10.3l1.85.25v.45z"/><path d="m1049.38 88.61c2.6 0 3.8 1.6 3.8 4.35s-1.2 4.35-3.85 4.35-3.75-1.7-3.75-4.35 1.2-4.35 3.8-4.35zm-.05 8c2 0 2.3-1.75 2.3-3.65s-.35-3.65-2.3-3.65-2.2 1.7-2.2 3.65.3 3.6 2.2 3.65"/><path d="m1056.88 93.11 3.4-3.65c-.35-.15-1 0-.85-.6h2.9c.15.65-.65.45-1 .6l-2.35 2.4 3 4.65c.35.15 1-.05.9.6h-3.4c-.15-.6.45-.45.75-.6l-2.23-3.51-1.1 1.15v2.4c.35.15 1-.05.9.6h-3.4v-.4l1-.2v-11.34l-1.2-.2v-.4h2.65v8.5"/><path d="m1067.08 88.61c2.45 0 3.3 1.65 3.15 4.35h-5c-.4 3 1.9 4 4.75 3.15v.5a5.33 5.33 0 0 1 -2.65.7c-2.7 0-3.7-1.65-3.7-4.4s1.05-4.3 3.45-4.3zm1.65 3.65c.6-2.85-2.85-4.1-3.45-1.2a8.3 8.3 0 0 0 -.1 1.2z"/><path d="m1077.08 91.21c.2-1.85-2-1.7-3.4-1.3v6.6l1.15.2v.4h-3.6c-.15-.65.65-.45 1-.6v-7.05c-.35-.15-1.15.05-1-.6h2.35l.1.65c1.55-1.15 4.9-1.45 4.9 1.55v5.45c.35.15 1.15-.05 1 .6h-3.58v-.4l1.1-.2v-5.3"/><path d="m1081.88 90.61c.35 2.4 4.3 1.15 4.3 4.2 0 2.8-3.45 2.85-5.6 2v-2c1 0 .45 1.45 1.55 1.55 1.75 1 3.85-1.3 2-2.5-1.35-.9-3.6-.65-3.6-3 0-2.5 2.9-2.6 5-2v1.8c-.95.05-.4-1.25-1.4-1.25-1-.35-2.5 0-2.3 1.15"/><path d="m1089.33 95.26a1 1 0 0 1 1.05 1 1 1 0 0 1 -1.05 1 1 1 0 0 1 -1.1-1 1 1 0 0 1 1.1-1zm0-6.6a1 1 0 0 1 1.05 1 1 1 0 0 1 -1.05 1.1 1 1 0 0 1 -1.1-1.1 1 1 0 0 1 1.1-1"/><path d="m1094.43 91.36c0 4.65 4 6.5 7.5 4.35l.35-1.75h.55v2.75a14.54 14.54 0 0 1 -4.15.6c-3.8 0-5.85-2-6.05-6-.25-5.65 4.85-7 10.05-5.7v2.55h-.6l-.25-1.5a6.45 6.45 0 0 0 -3.1-.8c-3.3 0-4.3 2-4.3 5.45"/><path d="m1108.33 88.61c2.6 0 3.8 1.6 3.8 4.35s-1.2 4.35-3.85 4.35-3.75-1.7-3.75-4.35 1.2-4.35 3.8-4.35zm0 8c2 0 2.3-1.75 2.3-3.65s-.35-3.65-2.3-3.65-2.2 1.7-2.2 3.65.3 3.6 2.2 3.65"/><path d="m1119.13 91.21c.2-1.85-2.1-1.6-3.4-1.25v6.55l1.2.2v.4h-3.7c-.15-.65.65-.45 1-.6v-7.05c-.35-.15-1.15.05-1-.6h2.4v.65c1.1-.75 3.85-1.5 4.6.1 1.6-1.1 5.2-1.8 5.2 1.45v5.45c.4.15 1.2-.1 1 .6h-3.75v-.4l1.25-.2v-5.3c.15-1.95-2.25-1.55-3.6-1.2.35 1.85 0 4.4.15 6.5l1.25.2v.4h-3.9v-.4l1.2-.2v-5.3"/><path d="m1133.13 91.21c.2-1.85-2.1-1.6-3.4-1.25v6.55l1.2.2v.4h-3.7c-.15-.65.65-.45 1-.6v-7.05c-.35-.15-1.15.05-1-.6h2.4v.65c1.1-.75 3.85-1.5 4.6.1 1.6-1.1 5.2-1.8 5.2 1.45v5.45c.4.15 1.2-.1 1 .6h-3.75v-.4l1.25-.2v-5.3c.15-1.95-2.25-1.55-3.6-1.2.35 1.85 0 4.4.15 6.5l1.25.2v.4h-3.9v-.4l1.2-.2v-5.3"/><path d="m1142.43 89c2-.5 5.1-.7 5.1 2v5.6c.4.15 1.2-.1 1 .6h-2.25l-.2-.85c-1.15 1.5-5.15 1.5-4.65-1.45-.1-2.5 2.25-2.5 4.6-2.55.2-1.8-.25-3.5-2.1-2.8a6.89 6.89 0 0 0 -.8.3c-.2.35 0 1.15-.75 1zm.5 5.8c0 2 2 1.65 3.15 1.1v-3c-1.7 0-3.15 0-3.15 1.85"/><path d="m1155 91.21c.2-1.85-2-1.7-3.4-1.3v6.6l1.15.2v.4h-3.6c-.15-.65.65-.45 1-.6v-7.05c-.35-.15-1.15.05-1-.6h2.35l.1.65c1.55-1.15 4.9-1.45 4.9 1.55v5.45c.35.15 1.15-.05 1 .6h-3.6v-.4l1.1-.2z"/><path d="m1158.43 93.06c0-3.55 2.3-5 5.7-4.25l-.05-3.6-1.4-.2v-.4h2.85v11.9c.4.15 1.2-.1 1 .6h-2.35l-.1-.6c-2.3 1.75-5.65.55-5.65-3.45zm3.85-3.7c-1.85 0-2.2 1.65-2.25 3.7 0 1.9.45 3.3 2.25 3.3a4.61 4.61 0 0 0 1.8-.35v-6.5c-.5-.05-1.2-.15-1.8-.15"/><path d="m1169.53 97.11v-.45l1.9-.25v-10.35a24.94 24.94 0 0 0 -3.5.2l-.25 1.85h-.55v-2.8h10.35v2.8h-.6l-.25-1.85-3.5-.15v10.3l1.85.25v.45z"/><path d="m1181 88.61c2.6 0 3.8 1.6 3.8 4.35s-1.2 4.35-3.85 4.35-3.75-1.7-3.75-4.35 1.18-4.35 3.8-4.35zm0 8c2 0 2.3-1.75 2.3-3.65s-.35-3.65-2.3-3.65-2.2 1.7-2.2 3.65.3 3.6 2.2 3.65"/><path d="m1188.48 93.11 3.4-3.65c-.35-.15-1 0-.85-.6h2.9c.15.65-.65.45-1 .6l-2.35 2.4 3 4.65c.35.15 1.05-.05.9.6h-3.4c-.15-.6.45-.45.75-.6l-2.25-3.51-1.1 1.15v2.4c.35.15 1-.05.9.6h-3.38v-.4l1-.2v-11.34l-1.2-.2v-.4h2.65v8.5"/><path d="m1198.68 88.61c2.45 0 3.3 1.65 3.15 4.35h-5c-.4 3 1.9 4 4.75 3.15v.5a5.33 5.33 0 0 1 -2.65.7c-2.7 0-3.7-1.65-3.7-4.4s1.05-4.3 3.45-4.3zm1.65 3.65c.6-2.85-2.85-4.1-3.45-1.2a8.3 8.3 0 0 0 -.1 1.2z"/><path d="m1208.68 91.21c.2-1.85-2-1.7-3.4-1.3v6.6l1.15.2v.4h-3.6c-.15-.65.65-.45 1-.6v-7.05c-.35-.15-1.15.05-1-.6h2.35l.1.65c1.55-1.15 4.9-1.45 4.9 1.55v5.45c.35.15 1.15-.05 1 .6h-3.6v-.4l1.1-.2z"/><path d="m1213.48 90.61c.35 2.4 4.3 1.15 4.3 4.2 0 2.8-3.45 2.85-5.6 2v-2c1 0 .45 1.45 1.55 1.55 1.75 1 3.85-1.3 2-2.5-1.35-.9-3.6-.65-3.6-3 0-2.5 2.9-2.6 5-2v1.8c-1 .05-.4-1.25-1.4-1.25-1-.35-2.5 0-2.3 1.15"/><path d="m963.38 98.63h255.95v.88h-255.95z"/><path d="m970.9 129.36v3.75h-.9v-3.75h-3.7v-.85h3.7v-3.75h.95v3.75h3.7v.85h-3.7"/><path d="m982.25 130.71c0 3.2 2.6 4 5.2 3.15 0 1.25-1.5 1.25-2.75 1.25-2.8 0-4-1.6-4-4.4 0-3.8 3.1-4.9 6.55-4v2.29h-.5c-.25-.75-.2-1.55-1.15-1.75-2.35-.5-3.35 1-3.35 3.45"/><path d="m992.45 126.41c2.6 0 3.8 1.6 3.8 4.35s-1.2 4.35-3.85 4.35-3.75-1.7-3.75-4.35 1.2-4.35 3.8-4.35zm-.05 8c2 0 2.3-1.75 2.3-3.65s-.35-3.65-2.3-3.65-2.2 1.7-2.2 3.65.3 3.6 2.2 3.65"/><path d="m1003.25 129c.2-1.85-2.1-1.6-3.4-1.25v6.55l1.2.2v.4h-3.7c-.15-.65.65-.45 1-.6v-7c-.35-.15-1.15 0-1-.6h2.4v.65c1.1-.75 3.85-1.5 4.6.1 1.6-1.1 5.2-1.8 5.2 1.45v5.45c.4.15 1.2-.1 1 .6h-3.75v-.4l1.25-.2v-5.35c.15-1.95-2.25-1.55-3.6-1.2.35 1.85.05 4.4.15 6.5l1.25.2v.4h-3.9v-.4l1.2-.2v-5.3"/><path d="m1017.25 129c.2-1.85-2.1-1.6-3.4-1.25v6.55l1.2.2v.4h-3.7c-.15-.65.65-.45 1-.6v-7c-.35-.15-1.15 0-1-.6h2.4v.65c1.1-.75 3.85-1.5 4.6.1 1.6-1.1 5.2-1.8 5.2 1.45v5.45c.4.15 1.2-.1 1.05.6h-3.75v-.4l1.25-.2v-5.35c.15-1.95-2.25-1.55-3.6-1.2.35 1.85.05 4.4.15 6.5l1.25.2v.4h-3.9v-.4l1.2-.2v-5.3"/><path d="m1026.55 126.76c2-.5 5.1-.7 5.1 2v5.6c.4.15 1.2-.1 1 .6h-2.25l-.2-.85c-1.15 1.5-5.15 1.5-4.65-1.45-.1-2.5 2.25-2.5 4.6-2.55.2-1.8-.25-3.5-2.1-2.8a6.89 6.89 0 0 0 -.8.3c-.2.35 0 1.15-.75 1zm.5 5.8c0 2.05 2 1.65 3.15 1.1v-2.95c-1.7 0-3.15-.05-3.15 1.85"/><path d="m1039.15 129c.2-1.85-2.05-1.7-3.4-1.3v6.6l1.15.2v.4h-3.6c-.15-.65.65-.45 1-.6v-7c-.35-.15-1.15 0-1-.6h2.35l.1.65c1.55-1.15 4.9-1.45 4.9 1.55v5.45c.35.15 1.15-.05 1 .6h-3.6v-.4l1.1-.2z"/><path d="m1042.55 130.86c0-3.55 2.3-5.05 5.7-4.25v-3.6l-1.4-.2v-.4h2.85v11.9c.4.15 1.2-.1 1 .6h-2.35l-.1-.6c-2.35 1.75-5.7.55-5.7-3.45zm3.85-3.7c-1.85 0-2.2 1.65-2.25 3.7 0 1.9.45 3.3 2.25 3.3a4.61 4.61 0 0 0 1.8-.35v-6.5c-.5 0-1.2-.15-1.8-.15"/><path d="m1066.85 123.81-3.85 11.35h-.5l-3-8.1-3.15 8.1h-.45l-3.9-11.35-1-.2v-.5h4.5v.5l-1.7.2 2.8 8.3 3.15-8.15h.4l3 8.15 2.7-8.3-1.85-.2v-.5h3.9v.5"/><path d="m1070.9 126.41c2.6 0 3.8 1.6 3.8 4.35s-1.2 4.35-3.85 4.35-3.75-1.7-3.75-4.35 1.2-4.35 3.8-4.35zm-.05 8c2 0 2.3-1.75 2.3-3.65s-.35-3.65-2.3-3.65-2.2 1.7-2.2 3.65.3 3.6 2.2 3.65"/><path d="m1078.25 127.66a6.08 6.08 0 0 1 3-1.25v2.25c-1 .05-.4-1.5-2-.85l-1 .3v6.2l1.45.2v.4h-4v-.4l1-.2v-7c-.4-.15-1.2.1-1-.6h2.4"/><path d="m1082 130.86c0-3.55 2.3-5.05 5.7-4.25v-3.6l-1.4-.2v-.4h2.85v11.9c.4.15 1.2-.1 1.05.6h-2.35l-.1-.6c-2.4 1.75-5.75.55-5.75-3.45zm3.85-3.7c-1.85 0-2.2 1.65-2.25 3.7 0 1.9.45 3.3 2.25 3.3a4.61 4.61 0 0 0 1.8-.35v-6.5c-.5 0-1.2-.15-1.8-.15"/><path d="m1104.1 130.31v.85h-8.35v-.85zm0-3.65v.9h-8.35v-.9z"/><path d="m1114 123.11h1.75l-.55 4.25h-.65zm-3.4 0h1.75l-.55 4.25h-.65"/><path d="m1122 123.11c-2-.75-1.75 1.6-1.7 3.55h2.2v.75h-2.2v6.8l1.75.3v.4h-4.45v-.4l1.25-.3v-6.8h-1.45v-.41l1.45-.35c-.3-3 1.15-5 4-4.2v1.8c-.75.1-.6-.7-.85-1.1"/><path d="m1125.1 124.91c-1.15 0-1.25-2 0-1.9.65 0 .9.35 1 .95a1 1 0 0 1 -1 .95zm.9 9.4 1.4.2v.4h-4.25v-.4l1.4-.2v-7l-1.2-.2v-.4h2.65v7.65"/><path d="m1134 129c.2-1.85-2-1.7-3.4-1.3v6.6l1.15.2v.4h-3.6c-.15-.65.65-.45 1-.6v-7c-.35-.15-1.15 0-1-.6h2.35l.1.65c1.55-1.15 4.9-1.45 4.9 1.55v5.45c.35.15 1.15-.05 1 .6h-3.6v-.4l1.1-.2z"/><path d="m1137.4 130.86c0-3.55 2.3-5.05 5.7-4.25v-3.6l-1.4-.2v-.4h2.85v11.9c.4.15 1.2-.1 1 .6h-2.35l-.1-.6c-2.35 1.75-5.7.55-5.7-3.45zm3.85-3.7c-1.85 0-2.2 1.65-2.25 3.7 0 1.9.45 3.3 2.25 3.3a4.61 4.61 0 0 0 1.8-.35v-6.5c-.5 0-1.2-.15-1.8-.15"/><path d="m1154.05 130.66c.15 3.35-2.2 5.1-5.55 4.25v3.2l1.45.2v.45h-4v-.45l1-.2v-10.85c-.35-.15-1.1 0-.95-.6h2.3v.45a3.77 3.77 0 0 1 2.25-.7c2.55.1 3.45 1.8 3.5 4.25zm-5.5 3.6c2.65.7 4.15-.7 3.9-3.6.35-2.65-1.65-4-3.9-3z"/><path d="m1159 126.41c2.45 0 3.3 1.65 3.15 4.35h-5c-.4 3 1.9 4 4.75 3.15v.5a5.33 5.33 0 0 1 -2.65.7c-2.7 0-3.7-1.65-3.7-4.4s1-4.3 3.45-4.3zm1.65 3.65c.6-2.85-2.85-4.1-3.45-1.2a8.3 8.3 0 0 0 -.1 1.2z"/><path d="m1165.55 127.66a6.08 6.08 0 0 1 3-1.25v2.25c-1 .05-.4-1.5-2-.85l-1 .3v6.2l1.45.2v.4h-4v-.4l1-.2v-7c-.4-.15-1.2.1-1-.6h2.4"/><path d="m1170.7 128.41c.35 2.4 4.3 1.15 4.3 4.2 0 2.8-3.45 2.85-5.6 2v-2c1 0 .45 1.45 1.55 1.55 1.75.95 3.85-1.3 2-2.5-1.35-.9-3.6-.65-3.6-3 0-2.5 2.9-2.6 5-2v1.8c-1 .05-.4-1.25-1.4-1.25-1-.35-2.5-.05-2.3 1.15"/><path d="m1180.15 126.41c2.6 0 3.8 1.6 3.8 4.35s-1.2 4.35-3.85 4.35-3.75-1.7-3.75-4.35 1.2-4.35 3.8-4.35zm-.05 8c2 0 2.3-1.75 2.3-3.65s-.35-3.65-2.3-3.65-2.2 1.7-2.2 3.65.3 3.6 2.2 3.65"/><path d="m1190.9 129c.2-1.85-2.05-1.7-3.4-1.3v6.6l1.15.2v.4h-3.6c-.15-.65.65-.45 1-.6v-7c-.35-.15-1.15 0-1-.6h2.35l.1.65c1.55-1.15 4.9-1.45 4.9 1.55v5.45c.35.15 1.15-.05 1 .6h-3.6v-.4l1.1-.2z"/><path d="m1202.65 123.11h1.75l-.55 4.25h-.65zm-3.4 0h1.75l-.55 4.25h-.65"/><path d="m970.9 151v3.75h-.9v-3.75h-3.7v-.85h3.7v-3.75h.95v3.75h3.7v.85h-3.7"/><path d="m981.6 148.36c2-.5 5.1-.7 5.1 1.95v5.6c.4.15 1.2-.1 1 .6h-2.2l-.2-.85c-1.15 1.5-5.15 1.5-4.65-1.45-.1-2.5 2.25-2.5 4.6-2.55.2-1.8-.25-3.5-2.1-2.8a6.89 6.89 0 0 0 -.8.3c-.2.35 0 1.15-.75 1zm.5 5.8c0 2.05 2 1.65 3.15 1.1v-2.95c-1.7.05-3.15-.05-3.15 1.85"/><path d="m990.8 149.26a6.08 6.08 0 0 1 3-1.25v2.25c-.95.05-.4-1.5-2-.85l-1 .3v6.2l1.45.2v.4h-4v-.4l1.05-.2v-7c-.4-.15-1.2.1-1.05-.6h2.4"/><path d="m1000.6 148.91a3.05 3.05 0 0 1 -2.7 4.85 10.11 10.11 0 0 1 -1.35-.15l-.55 1.15c1.45 1.1 6.5-.7 6.2 2.6-.2 2.25-1.9 2.85-4.4 3-3.2.25-4.65-2.6-2-4a1.61 1.61 0 0 1 -1.2-1.45l1.4-1.55a2.54 2.54 0 0 1 -1.4-2.55c-.1-2.55 2.65-3.25 5-2.6l1.9-1 .35.4zm-2.8 10.8c1.75 0 3.05-.55 3.05-2.1 0-1.75-2.85-.85-4.45-1.05a2.43 2.43 0 0 0 -.85 1.7c0 1.25.95 1.45 2.25 1.45zm-1.65-8.85c.05 1.3.35 2.3 1.75 2.2s1.7-.8 1.75-2.2-.3-2.15-1.7-2.15-1.8.85-1.8 2.15"/><path d="m1008.75 155.86c-1.75 1-4.9 1.4-4.9-1.6v-5.4c-.4-.15-1.2.1-1.05-.6h2.5v5.9c-.15 1.85 2.1 1.6 3.45 1.25v-6.55l-1.25-.2v-.4h2.7v7.65c.4.15 1.2-.1 1 .6h-2.4"/><path d="m1017.85 150.61c.2-1.85-2.1-1.6-3.4-1.25v6.55l1.2.2v.4h-3.65c-.15-.65.65-.45 1-.6v-7c-.35-.15-1.15 0-1-.6h2.4v.65c1.1-.75 3.85-1.5 4.6.1 1.6-1.1 5.2-1.8 5.2 1.45v5.45c.4.15 1.2-.1 1 .6h-3.75v-.4l1.25-.2v-5.3c.15-2-2.25-1.55-3.6-1.2.35 1.85.05 4.4.15 6.5l1.25.2v.4h-3.9v-.4l1.2-.2v-5.3"/><path d="m1029.75 148c2.45 0 3.3 1.65 3.15 4.35h-5.05c-.4 3 1.9 4 4.75 3.15v.5a5.33 5.33 0 0 1 -2.65.7c-2.7 0-3.7-1.65-3.7-4.4s1.1-4.3 3.5-4.3zm1.65 3.65c.6-2.85-2.85-4.1-3.45-1.2a8.3 8.3 0 0 0 -.1 1.2z"/><path d="m1039.75 150.61c.2-1.85-2-1.7-3.4-1.3v6.6l1.15.2v.4h-3.6c-.15-.65.65-.45 1-.6v-7c-.35-.15-1.15 0-1-.6h2.35l.1.65c1.55-1.15 4.9-1.45 4.9 1.55v5.45c.35.15 1.15 0 1 .6h-3.6v-.4l1.1-.2v-5.3"/><path d="m1045.2 154.61c0 1.25 1.2 1.3 2.2 1v.6c-1.35.8-3.65.75-3.65-1.45v-5.76h-1c-.1-.7.7-.5 1-.75l.9-1.9h.55v1.9h1.9v.75h-1.9v5.6"/><path d="m1049.55 150c.35 2.4 4.3 1.15 4.3 4.2 0 2.8-3.45 2.85-5.6 2v-2c1 0 .45 1.45 1.55 1.55 1.75.95 3.85-1.3 2-2.5-1.35-.9-3.6-.65-3.6-2.95 0-2.5 2.9-2.6 5-2.05v1.8c-1 0-.4-1.25-1.4-1.25-1-.35-2.5-.05-2.3 1.15"/><path d="m1068.25 151.91v.85h-8.35v-.85zm0-3.65v.9h-8.35v-.9z"/><path d="m1078.15 144.71h1.75l-.55 4.25h-.65zm-3.4 0h1.75l-.5 4.29h-.65"/><path d="m1087.2 150.61c.2-1.85-2-1.7-3.4-1.3v6.6l1.15.2v.4h-3.6c-.15-.65.65-.45 1-.6v-7c-.35-.15-1.15 0-1-.6h2.35l.1.65c1.55-1.15 4.9-1.45 4.9 1.55v5.45c.35.15 1.15 0 1 .6h-3.6v-.4l1.1-.2v-5.3"/><path d="m1090.85 156.71h-.9l4.15-12.05h.85"/><path d="m1099.45 144.71h1.75l-.55 4.25h-.65zm-3.4 0h1.75l-.55 4.25h-.65"/></g><path d="m1237.72 237.6h191.5v113h-191.5z" fill="#fff" stroke="#333"/><path d="m1237.72 275.2h191.5m-191.5 37.6h191.5" fill="none" stroke="#333"/><path d="m1251.2 254.8c2.4.15 3.8-.6 3.8-2.9s-1.4-2.85-3.8-2.7zm5.55-2.9c0 3-2.3 3.9-5.55 3.7v3.9l1.85.25v.45h-5v-.45l1.4-.25v-10.4l-1.55-.2v-.5c4 0 8.9-.7 8.8 3.5" fill="#333"/><path d="m1267.4 251.55a3.27 3.27 0 0 1 -2.45 3.25l3.2 4.7 1.3.25v.45h-2.85l-3.3-5.15h-2.1v4.45l1.75.25v.45h-4.85v-.45l1.4-.25v-10.4l-1.55-.2v-.5c4.05.2 9.5-1 9.45 3.15zm-6.2 2.7c2.5.1 4.45-.05 4.45-2.55s-2-2.6-4.45-2.5z" fill="#333"/><path d="m1270 259.75 1.55-.25v-10.4l-1.55-.2v-.5h8.85v2.85h-.55l-.3-1.9a36.51 36.51 0 0 0 -4.75-.15v4.6h3.15l.3-1.4h.55v3.65h-.55l-.3-1.45h-3.15v4.8l5.25-.15.5-2.15h.6l-.15 3.1h-9.45z" fill="#333"/><path d="m1284.15 254.9v4.6l1.95.25v.45h-5v-.45l1.4-.25v-10.4l-1.55-.2v-.5h8.85v2.85h-.55l-.3-1.9a36.51 36.51 0 0 0 -4.75-.15v4.9h3.45l.25-1.4h.55v3.65h-.55l-.25-1.45h-3.45" fill="#333"/><path d="m1294.25 259.5 1.5.25v.45h-4.7v-.45l1.5-.25v-10.4l-1.5-.2v-.5h4.7v.5l-1.5.2z" fill="#333"/><path d="m1299.15 259.5 1.45.25v.45h-3.85v-.45l1.3-.25 4-5.35-3.4-5.05-1.35-.2v-.5h4.85v.5l-1.5.2 2.45 3.65 2.75-3.65-1.45-.2v-.5h3.85v.5l-1.3.2-3.3 4.4 4 6 1.3.25v.45h-4.85v-.45l1.5-.25-3.1-4.55" fill="#333"/><path d="m1309.15 262.5v-.9h9.3v.9z" fill="#333"/><path d="m1328.45 249.1-1.6-.2v-.5h4.05v.5l-1.55.2v11.1h-.85l-7.25-10.6v9.9l1.6.25v.45h-4v-.45l1.55-.25v-10.4l-1.55-.2v-.5h3.6l6 8.75v-8" fill="#333"/><path d="m1335.3 259.75v.45h-3.85v-.45l1.3-.25 4-11.2h1.65l4.15 11.2 1.5.25v.45h-4.95v-.45l1.55-.25-1.15-3.4h-4.65l-1.2 3.4zm1.9-10.15-2 5.7h4.1" fill="#333"/><path d="m1351.8 260.2h-.35l-4.3-10.15v9.45l1.6.25v.45h-4v-.45l1.55-.25v-10.4l-1.55-.2v-.5h3.6l3.8 9 4.2-9h3.4v.5l-1.55.2v10.4l1.55.25v.45h-4.8v-.45l1.6-.25v-9.45" fill="#333"/><path d="m1360.7 259.75 1.55-.25v-10.4l-1.55-.2v-.5h8.85v2.85h-.55l-.3-1.9a36.51 36.51 0 0 0 -4.75-.15v4.6h3.15l.3-1.4h.55v3.65h-.55l-.3-1.45h-3.1v4.8l5.25-.15.5-2.15h.6l-.15 3.1h-9.45v-.45" fill="#333"/><path d="m1373.65 258.35a1 1 0 0 1 1 1 1 1 0 0 1 -1 1.05 1 1 0 0 1 -1.1-1.05 1 1 0 0 1 1.1-1zm0-6.6a1 1 0 0 1 1 1.05 1 1 0 0 1 -1 1.1 1 1 0 0 1 -1.1-1.1 1 1 0 0 1 1.1-1.05" fill="#333"/><path d="m1379.9 254.8c2.4.15 3.8-.6 3.8-2.9s-1.4-2.85-3.8-2.7zm5.55-2.9c0 3-2.3 3.9-5.55 3.7v3.9l1.85.25v.45h-5v-.45l1.4-.25v-10.4l-1.55-.2v-.5c4 0 8.9-.7 8.8 3.5" fill="#333"/><path d="m1389 253a6.08 6.08 0 0 1 3-1.25v2.25c-1 .05-.4-1.5-2-.85l-1 .3v6.2l1.45.2v.4h-4v-.4l1-.2v-7.05c-.4-.15-1.2.1-1-.6h2.4" fill="#333"/><path d="m1396.3 251.7c2.45 0 3.3 1.65 3.15 4.35h-5c-.4 3 1.9 4 4.75 3.15v.5a5.33 5.33 0 0 1 -2.65.7c-2.7 0-3.7-1.65-3.7-4.4s1.05-4.3 3.45-4.3zm1.65 3.65c.6-2.85-2.85-4.1-3.45-1.2a8.3 8.3 0 0 0 -.1 1.2h3.6" fill="#333"/><path d="m1405.2 248.4c-2-.75-1.75 1.6-1.7 3.55h2.2v.75h-2.2v6.8l1.75.3v.4h-4.45v-.4l1.25-.3v-6.8h-1.45v-.45l1.45-.35c-.3-3 1.15-5 4-4.2v1.8c-.75.1-.6-.7-.85-1.1" fill="#333"/><path d="m1408.35 250.2c-1.15 0-1.25-1.95 0-1.9.65 0 .9.35 1 .95a1 1 0 0 1 -1 .95zm.9 9.4 1.4.2v.4h-4.25v-.4l1.4-.2v-7.05l-1.2-.2v-.35h2.65v7.65" fill="#333"/><path d="m1418.8 259.6c.35.15 1.15-.05 1 .6h-3.75v-.4l1.1-.2-1.9-2.9-2.25 2.9 1.15.2v.4h-3v-.4l.95-.15 2.75-3.55-2.4-3.55c-.35-.15-1.15 0-1-.6h3.75v.4l-1.1.2 1.6 2.4 1.85-2.4-1.15-.2v-.35h2.95v.4l-.95.15-2.3 3" fill="#333"/><path d="m1246.55 261.72h174.35v.88h-174.35z" fill="#333"/><path d="m1250.38 294.25v-1.35h4.7v1.35z" fill="#333"/><path d="m1268.48 293.55c.15 3.35-2.2 5.1-5.55 4.25v3.2l1.45.2v.45h-4v-.45l1-.2v-10.85c-.35-.15-1.1.05-1-.6h2.3v.45a3.77 3.77 0 0 1 2.25-.7c2.6.1 3.45 1.8 3.55 4.25zm-5.5 3.6c2.65.7 4.15-.7 3.9-3.6.35-2.65-1.65-3.95-3.9-3z" fill="#333"/><path d="m1272 290.55a6.08 6.08 0 0 1 3-1.25v2.25c-1 .05-.4-1.5-2-.85l-1 .3v6.2l1.45.2v.4h-4v-.4l1-.2v-7.05c-.4-.15-1.2.1-1-.6h2.4" fill="#333"/><path d="m1279.33 289.3c2.45 0 3.3 1.65 3.15 4.35h-5c-.4 3 1.9 4 4.75 3.15v.5a5.33 5.33 0 0 1 -2.65.7c-2.7 0-3.7-1.65-3.7-4.4s1.05-4.3 3.45-4.3zm1.67 3.7c.6-2.85-2.85-4.1-3.45-1.2a8.3 8.3 0 0 0 -.1 1.2z" fill="#333"/><path d="m1288.23 286c-2-.75-1.75 1.6-1.7 3.55h2.2v.75h-2.2v6.8l1.75.3v.4h-4.45v-.4l1.25-.3v-6.8h-1.45v-.45l1.45-.35c-.3-2.95 1.15-5 4-4.2v1.8c-.75.1-.6-.7-.85-1.1" fill="#333"/><path d="m1291.38 287.8c-1.15 0-1.25-1.95 0-1.9.65 0 .9.35 1 1a1 1 0 0 1 -1 .9zm.9 9.4 1.4.2v.4h-4.25v-.4l1.4-.2v-7.05l-1.2-.2v-.4h2.65z" fill="#333"/><path d="m1301.83 297.2c.35.15 1.15-.05 1 .6h-3.75v-.4l1.1-.2-1.9-2.9-2.25 2.9 1.15.2v.4h-3v-.4l1-.15 2.75-3.55-2.4-3.55c-.35-.15-1.15.05-1-.6h3.75v.4l-1.1.2 1.6 2.4 1.85-2.4-1.15-.2v-.4h3v.4l-1 .15-2.3 3" fill="#333"/><path d="m1316.78 293.2v.85h-8.35v-.85zm0-3.65v.9h-8.35v-.9z" fill="#333"/><path d="m1326.68 286h1.75l-.55 4.25h-.65zm-3.4 0h1.72l-.55 4.25h-.65" fill="#333"/><path d="m1335.73 291.9c.2-1.85-2-1.7-3.4-1.3v6.6l1.15.2v.4h-3.6c-.15-.65.65-.45 1-.6v-7.05c-.35-.15-1.15.05-1-.6h2.35l.1.65c1.55-1.15 4.9-1.45 4.9 1.55v5.45c.35.15 1.15-.05 1 .6h-3.6v-.4l1.1-.2z" fill="#333"/><path d="m1339.38 298h-.9l4.15-12.05h.85" fill="#333"/><path d="m1348 286h1.75l-.55 4.25h-.65zm-3.4 0h1.75l-.55 4.25h-.65" fill="#333"/><path d="m953.22 270.13h218.22v49.67h-218.2z" fill="#fff" stroke="#333"/><path d="m986.59 295.91c.15 3.35-2.2 5.1-5.55 4.25l.05 3.2 1.45.2v.44h-3.95v-.45l1-.2v-10.84c-.35-.15-1.1.05-.95-.6h2.36v.45a3.77 3.77 0 0 1 2.25-.7c2.39.1 3.24 1.8 3.34 4.25zm-5.5 3.6c2.65.7 4.15-.7 3.9-3.6.35-2.65-1.65-4-3.9-3z"/><path d="m990.14 292.91a6.08 6.08 0 0 1 3-1.25v2.25c-.95 0-.4-1.5-2-.85l-1 .3v6.2l1.45.2v.4h-4v-.4l1.05-.2v-7.05c-.4-.15-1.2.1-1.05-.6h2.41"/><path d="m997.44 291.66c2.45 0 3.3 1.65 3.15 4.35h-5.05c-.4 3 1.9 4 4.75 3.15v.5a5.33 5.33 0 0 1 -2.65.7c-2.7 0-3.7-1.65-3.7-4.4s1.06-4.3 3.5-4.3zm1.65 3.65c.6-2.85-2.85-4.1-3.45-1.2a8.3 8.3 0 0 0 -.1 1.2z"/><path d="m1006.34 288.36c-2-.75-1.75 1.6-1.7 3.55h2.2v.75h-2.2v6.8l1.75.3v.4h-4.45v-.4l1.25-.3v-6.8h-1.45v-.45l1.45-.35c-.3-2.95 1.15-5 4-4.2v1.8c-.75.1-.6-.7-.85-1.1"/><path d="m1009.49 290.16c-1.15 0-1.25-2 0-1.9.65 0 .9.35 1 .95a1 1 0 0 1 -1 .95zm.9 9.4 1.4.2v.4h-4.25v-.4l1.4-.2v-7.05l-1.2-.2v-.4h2.65z"/><path d="m1019.94 299.56c.35.15 1.15-.05 1 .6h-3.75v-.4l1.1-.2-1.9-2.9-2.25 2.9 1.15.2v.4h-3v-.4l1-.15 2.75-3.55-2.4-3.55c-.35-.15-1.15.05-1-.6h3.75v.4l-1.1.2 1.6 2.4 1.85-2.4-1.15-.2v-.4h3v.4l-1 .15-2.3 3"/><path d="m1026.69 288.86-1.8.2v10.35a32.79 32.79 0 0 0 5-.2l.55-2.45h.55l-.15 3.4h-9.25v-.45l1.55-.25v-10.4l-1.55-.2v-.5h5.05v.5"/><path d="m1034.44 290.16c-1.15 0-1.25-2 0-1.9.65 0 .9.35 1 .95a1 1 0 0 1 -1 .95zm.9 9.4 1.4.2v.4h-4.25v-.4l1.4-.2v-7.05l-1.2-.2v-.4h2.65z"/><path d="m1039.14 293.66c.35 2.4 4.3 1.15 4.3 4.2 0 2.8-3.45 2.85-5.6 2.05v-2c1 0 .45 1.45 1.55 1.55 1.75 1 3.85-1.3 2-2.5-1.35-.9-3.6-.65-3.6-2.95 0-2.5 2.9-2.6 5-2.05v1.8c-.95.05-.4-1.25-1.4-1.25-1-.35-2.5-.05-2.3 1.15"/><path d="m1046.79 298.26c0 1.25 1.2 1.3 2.2 1v.6c-1.35.8-3.65.75-3.65-1.45v-5.75h-1c-.1-.7.7-.5 1-.75l.9-1.9h.55v1.9h1.9v.75h-1.9z"/><path d="m1051.59 298.31a1 1 0 0 1 1.05 1.05 1 1 0 0 1 -1.05 1.05 1 1 0 0 1 -1.1-1.05 1 1 0 0 1 1.1-1.05zm0-6.6a1 1 0 0 1 1.05 1.05 1 1 0 0 1 -1.05 1.1 1 1 0 0 1 -1.1-1.1 1 1 0 0 1 1.1-1.05"/><path d="m1059.64 288.86-1.8.2v10.35a32.79 32.79 0 0 0 5.05-.2l.55-2.45h.55l-.15 3.4h-9.25v-.45l1.55-.25v-10.4l-1.55-.2v-.5h5.05z"/><path d="m1067.39 290.16c-1.15 0-1.25-2 0-1.9.65 0 .9.35 1 .95a1 1 0 0 1 -1 .95zm.9 9.4 1.4.2v.4h-4.25v-.4l1.4-.2v-7.05l-1.2-.2v-.4h2.65z"/><path d="m1072.09 293.66c.35 2.4 4.3 1.15 4.3 4.2 0 2.8-3.45 2.85-5.6 2.05v-2c1 0 .45 1.45 1.55 1.55 1.75 1 3.85-1.3 2.05-2.5-1.35-.9-3.6-.65-3.6-2.95 0-2.5 2.9-2.6 5-2.05v1.8c-1 .05-.4-1.25-1.4-1.25-1.05-.35-2.5-.05-2.3 1.15"/><path d="m1079.74 298.26c0 1.25 1.2 1.3 2.2 1v.6c-1.35.8-3.65.75-3.65-1.45v-5.75h-1c-.1-.7.7-.5 1-.75l.9-1.9h.55v1.9h1.9v.75h-1.9z"/><path d="m1082.94 294.41v-.41l8.35-4.1v.9l-7.1 3.4 7.1 3.45v.9"/><path d="m1095.94 294.76c2.4.15 3.8-.6 3.8-2.9s-1.4-2.85-3.8-2.7zm5.55-2.9c0 3-2.3 3.9-5.55 3.7v3.9l1.85.25v.45h-5v-.45l1.4-.25v-10.4l-1.55-.2v-.5c4 .05 8.9-.7 8.8 3.5"/><path d="m1105 292.91a6.08 6.08 0 0 1 3-1.25v2.25c-1 0-.4-1.5-2-.85l-1 .3v6.2l1.45.2v.4h-4v-.4l1-.2v-7.05c-.4-.15-1.2.1-1-.6h2.4"/><path d="m1112.34 291.66c2.45 0 3.3 1.65 3.15 4.35h-5c-.4 3 1.9 4 4.75 3.15v.5a5.33 5.33 0 0 1 -2.65.7c-2.7 0-3.7-1.65-3.7-4.4s1.05-4.3 3.45-4.3zm1.65 3.65c.6-2.85-2.85-4.1-3.45-1.2a8.3 8.3 0 0 0 -.1 1.2h3.56"/><path d="m1121.24 288.36c-2-.75-1.75 1.6-1.7 3.55h2.2v.75h-2.2v6.8l1.75.3v.4h-4.45v-.4l1.25-.3v-6.8h-1.45v-.45l1.45-.35c-.3-2.95 1.15-5 4-4.2v1.8c-.75.1-.6-.7-.85-1.1"/><path d="m1124.39 290.16c-1.15 0-1.25-2 0-1.9.65 0 .9.35 1 .95a1 1 0 0 1 -1 .95zm.9 9.4 1.4.2v.4h-4.25v-.4l1.4-.2v-7.05l-1.2-.2v-.4h2.65z"/><path d="m1134.84 299.56c.35.15 1.15-.05 1 .6h-3.75v-.4l1.1-.2-1.9-2.9-2.25 2.9 1.15.2v.4h-3v-.4l1-.15 2.75-3.55-2.4-3.55c-.35-.15-1.15.05-1-.6h3.75v.4l-1.1.2 1.6 2.4 1.85-2.4-1.15-.2v-.4h3v.4l-1 .15-2.3 3"/><path d="m1136.94 298.51v-.9l7.1-3.45-7.1-3.4v-.9l8.4 4.1v.45"/><path d="m977.39 301.68h169.7v.88h-169.7z"/><path d="m1202.32 295h1.84a.44.44 0 0 0 .43-.43.44.44 0 0 1 .42-.43h31.7" fill="none" stroke="#333"/><path d="m1202.65 295-15.15 14.85-14.85-14.85 14.85-14.85z" fill="#fff"/><path d="m1203.36 295-15.87 15.56-15.55-15.56 15.55-15.55zm-30 0 14.14 14.15 14.43-14.15-14.42-14.14zm63.86-.36h-.5v-1h.5z" fill="#333"/><path d="m952.62 445.35h218.2v49.65h-218.2z" fill="#fff" stroke="#333"/><path d="m962.77 467.22c2.05-.5 5.1-.7 5.1 1.95v5.6c.4.15 1.2-.1 1 .6h-2.25l-.2-.85c-1.15 1.5-5.15 1.5-4.65-1.45-.1-2.5 2.25-2.5 4.6-2.55.2-1.8-.25-3.5-2.1-2.8a6.89 6.89 0 0 0 -.8.3c-.2.35 0 1.15-.75 1zm.5 5.8c0 2.05 2.05 1.65 3.15 1.1v-2.95c-1.7.05-3.15-.05-3.15 1.85"/><path d="m972 468.12a6.08 6.08 0 0 1 3-1.25v2.25c-1 .05-.4-1.5-2-.85l-1 .3v6.2l1.45.2v.4h-3.95v-.37l1-.2v-7c-.4-.15-1.2.1-1-.6h2.4"/><path d="m981.77 467.77a3.05 3.05 0 0 1 -2.7 4.85 10.11 10.11 0 0 1 -1.35-.15l-.55 1.15c1.45 1.1 6.5-.7 6.2 2.6-.2 2.25-1.9 2.85-4.4 3-3.2.25-4.65-2.6-2-4a1.61 1.61 0 0 1 -1.2-1.45l1.4-1.55a2.54 2.54 0 0 1 -1.4-2.55c-.1-2.55 2.65-3.25 5-2.6l1.9-1 .35.4zm-2.8 10.8c1.75 0 3-.55 3-2.1 0-1.75-2.85-.85-4.45-1.05a2.43 2.43 0 0 0 -.85 1.7c.05 1.25 1 1.45 2.33 1.45zm-1.65-8.85c0 1.3.35 2.3 1.75 2.2s1.7-.8 1.75-2.2-.3-2.15-1.7-2.15-1.8.85-1.8 2.15"/><path d="m989.92 474.72c-1.75 1-4.9 1.4-4.9-1.6v-5.4c-.4-.15-1.2.1-1-.6h2.5v5.88c-.15 1.85 2.1 1.6 3.45 1.25v-6.55l-1.25-.2v-.4h2.7v7.65c.4.15 1.2-.1 1 .6h-2.42"/><path d="m999 469.47c.2-1.85-2.1-1.6-3.4-1.25v6.55l1.2.2v.4h-3.7c-.15-.65.65-.45 1-.6v-7c-.35-.15-1.15 0-1-.6h2.4l.05.65c1.1-.75 3.85-1.5 4.6.1 1.6-1.1 5.2-1.8 5.2 1.45v5.45c.4.15 1.2-.1 1 .6h-3.75v-.42l1.25-.2v-5.3c.15-2-2.25-1.55-3.6-1.2.35 1.85 0 4.4.15 6.5l1.25.2v.4h-3.9v-.4l1.2-.2v-5.3"/><path d="m1010.92 466.87c2.45 0 3.3 1.65 3.15 4.35h-5.07c-.4 3 1.9 4 4.75 3.15v.5a5.33 5.33 0 0 1 -2.65.7c-2.7 0-3.7-1.65-3.7-4.4s1.12-4.3 3.52-4.3zm1.65 3.65c.6-2.85-2.85-4.1-3.45-1.2a8.3 8.3 0 0 0 -.1 1.2z"/><path d="m1020.92 469.47c.2-1.85-2-1.7-3.4-1.3v6.6l1.15.2v.4h-3.6c-.15-.65.65-.45 1-.6v-7c-.35-.15-1.15 0-1-.6h2.35l.1.65c1.55-1.15 4.9-1.45 4.9 1.55v5.45c.35.15 1.15 0 1 .6h-3.6v-.42l1.1-.2v-5.3"/><path d="m1026.37 473.47c0 1.25 1.2 1.3 2.2 1v.6c-1.35.8-3.65.75-3.65-1.45v-5.75h-1.05c-.1-.7.7-.5 1.05-.75l.9-1.9h.55v1.9h1.9v.75h-1.9z"/><path d="m1034.22 464.07-1.8.2v10.35a32.79 32.79 0 0 0 5-.2l.58-2.42h.55l-.15 3.4h-9.25v-.45l1.55-.25v-10.4l-1.55-.2v-.5h5v.5"/><path d="m1042 465.37c-1.15 0-1.25-1.95 0-1.9.65 0 .9.35 1 .95a1 1 0 0 1 -1 .95zm.9 9.4 1.4.2v.4h-4.3v-.37l1.4-.2v-7l-1.2-.2v-.4h2.65v7.65"/><path d="m1046.67 468.87c.35 2.4 4.3 1.15 4.3 4.2 0 2.8-3.45 2.85-5.6 2.05v-2c1 0 .45 1.45 1.55 1.55 1.75.95 3.85-1.3 2-2.5-1.35-.9-3.6-.65-3.6-2.95 0-2.5 2.9-2.6 5-2.05v1.83c-.95 0-.4-1.25-1.4-1.25-1-.35-2.5-.05-2.3 1.15"/><path d="m1054.32 473.47c0 1.25 1.2 1.3 2.2 1v.6c-1.35.8-3.65.75-3.65-1.45v-5.75h-1c-.1-.7.7-.5 1-.75l.9-1.9h.55v1.9h1.9v.75h-1.9z"/><path d="m1059.12 473.52a1 1 0 0 1 1.05 1.05 1 1 0 0 1 -1.05 1.05 1 1 0 0 1 -1.1-1.05 1 1 0 0 1 1.1-1.05zm0-6.6a1 1 0 0 1 1.05 1.05 1 1 0 0 1 -1.05 1.1 1 1 0 0 1 -1.1-1.1 1 1 0 0 1 1.1-1.05"/><path d="m1065.67 474.92v.45h-3.85v-.45l1.3-.25 4.05-11.2h1.65l4.15 11.2 1.5.25v.45h-5v-.45l1.55-.25-1.15-3.4h-4.65l-1.2 3.4zm1.9-10.15-2 5.7h4.1"/><path d="m1077.42 468.12a6.08 6.08 0 0 1 3-1.25v2.25c-1 .05-.4-1.5-2-.85l-1 .3v6.2l1.45.2v.4h-3.95v-.37l1-.2v-7c-.4-.15-1.2.1-1-.6h2.4"/><path d="m1087.22 467.77a3.05 3.05 0 0 1 -2.7 4.85 10.11 10.11 0 0 1 -1.35-.15l-.55 1.15c1.45 1.1 6.5-.7 6.2 2.6-.2 2.25-1.9 2.85-4.4 3-3.2.25-4.65-2.6-2-4a1.61 1.61 0 0 1 -1.2-1.45l1.4-1.55a2.54 2.54 0 0 1 -1.4-2.55c-.1-2.55 2.65-3.25 5-2.6l1.9-1 .35.4zm-2.8 10.8c1.75 0 3-.55 3-2.1 0-1.75-2.85-.85-4.45-1.05a2.43 2.43 0 0 0 -.85 1.7c.05 1.25 1 1.45 2.3 1.45zm-1.65-8.85c0 1.3.35 2.3 1.75 2.2s1.7-.8 1.75-2.2-.3-2.15-1.7-2.15-1.8.85-1.8 2.15"/><path d="m1095.37 474.72c-1.75 1-4.9 1.4-4.9-1.6v-5.4c-.4-.15-1.2.1-1-.6h2.5v5.88c-.15 1.85 2.1 1.6 3.45 1.25v-6.55l-1.25-.2v-.4h2.7v7.65c.4.15 1.2-.1 1 .6h-2.4"/><path d="m1104.47 469.47c.2-1.85-2.1-1.6-3.4-1.25v6.55l1.2.2v.4h-3.7c-.15-.65.65-.45 1-.6v-7c-.35-.15-1.15 0-1-.6h2.4v.65c1.1-.75 3.85-1.5 4.6.1 1.6-1.1 5.2-1.8 5.2 1.45v5.45c.4.15 1.2-.1 1 .6h-3.75v-.42l1.25-.2v-5.3c.15-2-2.25-1.55-3.6-1.2.35 1.85 0 4.4.15 6.5l1.25.2v.4h-3.9v-.4l1.2-.2v-5.3"/><path d="m1116.37 466.87c2.45 0 3.3 1.65 3.15 4.35h-5c-.4 3 1.9 4 4.75 3.15v.5a5.33 5.33 0 0 1 -2.65.7c-2.7 0-3.7-1.65-3.7-4.4s1.08-4.3 3.45-4.3zm1.65 3.65c.6-2.85-2.85-4.1-3.45-1.2a8.3 8.3 0 0 0 -.1 1.2h3.53"/><path d="m1126.37 469.47c.2-1.85-2-1.7-3.4-1.3v6.6l1.15.2v.4h-3.6c-.15-.65.65-.45 1-.6v-7c-.35-.15-1.15 0-1-.6h2.35l.1.65c1.55-1.15 4.9-1.45 4.9 1.55v5.45c.35.15 1.15 0 1 .6h-3.6v-.42l1.1-.2v-5.3"/><path d="m1131.82 473.47c0 1.25 1.2 1.3 2.2 1v.6c-1.35.8-3.65.75-3.65-1.45v-5.75h-1c-.1-.7.7-.5 1-.75l.9-1.9h.55v1.9h1.9v.75h-1.9z"/><path d="m1139.67 464.07-1.8.2v10.35a32.79 32.79 0 0 0 5.05-.2l.55-2.45h.55l-.15 3.4h-9.25v-.45l1.55-.25v-10.4l-1.55-.2v-.5h5.05z"/><path d="m1147.42 465.37c-1.15 0-1.25-1.95 0-1.9.65 0 .9.35 1 .95a1 1 0 0 1 -1 .95zm.9 9.4 1.4.2v.4h-4.25v-.37l1.4-.2v-7l-1.2-.2v-.4h2.65v7.65"/><path d="m1152.12 468.87c.35 2.4 4.3 1.15 4.3 4.2 0 2.8-3.45 2.85-5.6 2.05v-2c1 0 .45 1.45 1.55 1.55 1.75.95 3.85-1.3 2.05-2.5-1.35-.9-3.6-.65-3.6-2.95 0-2.5 2.9-2.6 5-2.05v1.83c-1 0-.4-1.25-1.4-1.25-1.05-.35-2.5-.05-2.3 1.15"/><path d="m1159.77 473.47c0 1.25 1.2 1.3 2.2 1v.6c-1.35.8-3.65.75-3.65-1.45v-5.75h-1c-.1-.7.7-.5 1-.75l.9-1.9h.55v1.9h1.9v.75h-1.9z"/><path d="m960.27 476.89h202.73v.88h-202.73z"/><path d="m1201.7 470.18h7.9a.06.06 0 0 1 .05.06 0 0 0 0 0 0 .05h37.77" fill="none" stroke="#333"/><path d="m1202 470.18-15.12 14.82-14.88-14.82 14.86-14.85z" fill="#fff"/><path d="m1202.75 470.18-15.87 15.56-15.55-15.56 15.56-15.55zm-30 0 14.14 14.15 14.43-14.15-14.43-14.18zm75.22.62h-.5v-1h.5z" fill="#333"/><path d="m1248.47 413.8h169.66v113h-169.65z" fill="#fff" stroke="#333"/><path d="m1248.47 451.4h169.66m-169.65 37.6h169.66" fill="none" stroke="#333"/><path d="m1259.75 434.54a1 1 0 0 1 1 1 1 1 0 0 1 -1 1.05 1 1 0 0 1 -1.1-1.05 1 1 0 0 1 1.1-1zm0-6.6a1 1 0 0 1 1 1.05 1 1 0 0 1 -1 1.1 1 1 0 0 1 -1.1-1.1 1 1 0 0 1 1.1-1.05" fill="#333"/><path d="m1264.85 430.64c0 4.65 4 6.5 7.5 4.35l.35-1.75h.55v2.75a14.54 14.54 0 0 1 -4.15.6c-3.8 0-5.85-2-6-5.95-.25-5.65 4.85-7.05 10-5.7v2.55h-.6l-.25-1.5a6.45 6.45 0 0 0 -3.1-.8c-3.3 0-4.3 2.05-4.3 5.45" fill="#333"/><path d="m1278.75 427.89c2.6 0 3.8 1.6 3.8 4.35s-1.2 4.35-3.85 4.35-3.75-1.7-3.75-4.35 1.2-4.35 3.8-4.35zm0 8c2 0 2.3-1.75 2.3-3.65s-.35-3.65-2.3-3.65-2.2 1.7-2.2 3.65.3 3.6 2.2 3.65" fill="#333"/><path d="m1289.55 430.49c.2-1.85-2.1-1.6-3.4-1.25v6.55l1.2.2v.4h-3.7c-.15-.65.65-.45 1-.6v-7.05c-.35-.15-1.15.05-1-.6h2.4v.65c1.1-.75 3.85-1.5 4.6.1 1.6-1.1 5.2-1.8 5.2 1.45v5.45c.4.15 1.2-.1 1 .6h-3.75v-.39l1.25-.2v-5.3c.15-1.95-2.25-1.55-3.6-1.2.35 1.85.05 4.4.15 6.5l1.25.2v.4h-3.9v-.4l1.2-.2v-5.3" fill="#333"/><path d="m1303.55 430.49c.2-1.85-2.1-1.6-3.4-1.25v6.55l1.2.2v.4h-3.7c-.15-.65.65-.45 1-.6v-7.05c-.35-.15-1.15.05-1-.6h2.4v.65c1.1-.75 3.85-1.5 4.6.1 1.6-1.1 5.2-1.8 5.2 1.45v5.45c.4.15 1.2-.1 1 .6h-3.75v-.39l1.25-.2v-5.3c.15-1.95-2.25-1.55-3.6-1.2.35 1.85.05 4.4.15 6.5l1.25.2v.4h-3.9v-.4l1.2-.2v-5.3" fill="#333"/><path d="m1312.85 428.24c2.05-.5 5.1-.7 5.1 1.95v5.6c.4.15 1.2-.1 1 .6h-2.25l-.2-.85c-1.15 1.5-5.15 1.5-4.65-1.45-.1-2.5 2.25-2.5 4.6-2.55.2-1.8-.25-3.5-2.1-2.8a6.89 6.89 0 0 0 -.8.3c-.2.35 0 1.15-.75 1zm.5 5.8c0 2 2.05 1.65 3.15 1.1v-2.95c-1.7.05-3.15-.05-3.15 1.85" fill="#333"/><path d="m1325.45 430.49c.2-1.85-2-1.7-3.4-1.3v6.6l1.15.2v.4h-3.6c-.15-.65.65-.45 1-.6v-7.05c-.35-.15-1.15.05-1-.6h2.4l.1.65c1.55-1.15 4.9-1.45 4.9 1.55v5.45c.35.15 1.15-.05 1 .6h-3.6v-.39l1.1-.2v-5.3" fill="#333"/><path d="m1328.85 432.34c0-3.55 2.3-5 5.7-4.25v-3.6l-1.4-.2v-.4h2.85v11.9c.4.15 1.2-.1 1 .6h-2.35l-.1-.6c-2.35 1.75-5.7.55-5.7-3.45zm3.85-3.7c-1.85.05-2.2 1.65-2.25 3.7s.45 3.3 2.25 3.3a4.61 4.61 0 0 0 1.8-.35v-6.5c-.5-.05-1.2-.15-1.8-.15" fill="#333"/><path d="m1341.25 435.94v.45h-3.85v-.45l1.3-.25 4-11.2h1.65l4.15 11.2 1.5.25v.45h-5v-.45l1.55-.25-1.15-3.4h-4.65l-1.2 3.4zm1.9-10.15-2.05 5.7h4.1" fill="#333"/><path d="m1353 429.14a6.08 6.08 0 0 1 3-1.25v2.25c-1 .05-.4-1.5-2-.85l-1 .3v6.2l1.45.2v.4h-4v-.39l1-.2v-7.05c-.4-.15-1.2.1-1-.6h2.4" fill="#333"/><path d="m1362.8 428.79a3.05 3.05 0 0 1 -2.7 4.85 10.11 10.11 0 0 1 -1.35-.15l-.55 1.15c1.45 1.1 6.5-.7 6.2 2.6-.2 2.25-1.9 2.85-4.4 3.05-3.2.25-4.65-2.6-2-4a1.61 1.61 0 0 1 -1.2-1.45l1.4-1.55a2.54 2.54 0 0 1 -1.4-2.55c-.1-2.55 2.65-3.25 5-2.6l1.9-1 .35.4zm-2.8 10.8c1.75 0 3-.55 3-2.1 0-1.75-2.85-.85-4.45-1.05a2.43 2.43 0 0 0 -.85 1.7c.05 1.25 1 1.45 2.3 1.45zm-1.65-8.85c.05 1.3.35 2.3 1.75 2.2s1.7-.8 1.75-2.2-.3-2.15-1.7-2.15-1.8.85-1.8 2.15" fill="#333"/><path d="m1371 435.74c-1.75 1.05-4.9 1.4-4.9-1.6v-5.4c-.4-.15-1.2.1-1-.6h2.5v5.86c-.15 1.85 2.1 1.6 3.45 1.25v-6.55l-1.25-.2v-.4h2.7v7.65c.4.15 1.2-.1 1 .6h-2.4" fill="#333"/><path d="m1380.05 430.49c.2-1.85-2.1-1.6-3.4-1.25v6.55l1.2.2v.4h-3.7c-.15-.65.65-.45 1-.6v-7.05c-.35-.15-1.15.05-1-.6h2.4v.65c1.1-.75 3.85-1.5 4.6.1 1.6-1.1 5.2-1.8 5.2 1.45v5.45c.4.15 1.2-.1 1 .6h-3.75v-.39l1.25-.2v-5.3c.15-1.95-2.25-1.55-3.6-1.2.35 1.85.05 4.4.15 6.5l1.25.2v.4h-3.9v-.4l1.2-.2v-5.3" fill="#333"/><path d="m1392 427.89c2.45 0 3.3 1.65 3.15 4.35h-5c-.4 3 1.9 4 4.75 3.15v.5a5.33 5.33 0 0 1 -2.65.7c-2.7 0-3.7-1.65-3.7-4.4s1-4.3 3.45-4.3zm1.65 3.65c.6-2.85-2.85-4.1-3.45-1.2a8.3 8.3 0 0 0 -.1 1.2z" fill="#333"/><path d="m1402 430.49c.2-1.85-2-1.7-3.4-1.3v6.6l1.15.2v.4h-3.6c-.15-.65.65-.45 1-.6v-7.05c-.35-.15-1.15.05-1-.6h2.35l.1.65c1.55-1.15 4.9-1.45 4.9 1.55v5.45c.35.15 1.15-.05 1 .6h-3.6v-.39l1.1-.2v-5.3" fill="#333"/><path d="m1407.4 434.49c-.05 1.25 1.2 1.3 2.2 1v.6c-1.35.8-3.65.75-3.65-1.45v-5.75h-1c-.1-.7.7-.5 1-.75l.9-1.9h.55v1.9h1.9v.75h-1.9z" fill="#333"/><path d="m1256.35 437.91h154.25v.88h-154.25z" fill="#333"/><path d="m1261.12 470.44v-1.35h4.7v1.35z" fill="#333"/><path d="m1279.12 466.29-3.3 7.9h-.65l-3.4-7.85c-.35-.15-1 0-.85-.6h3.85v.4l-1.3.2 2.4 5.75 2.3-5.75-1.3-.2v-.4h3.05v.4" fill="#333"/><path d="m1281.52 465.84c2-.5 5.1-.7 5.1 2v5.6c.4.15 1.2-.1 1.05.6h-2.25l-.2-.85c-1.15 1.5-5.15 1.5-4.65-1.45-.1-2.5 2.25-2.5 4.6-2.55.2-1.8-.25-3.5-2.1-2.8a6.89 6.89 0 0 0 -.8.3c-.2.35 0 1.15-.75 1zm.5 5.8c0 2.05 2 1.65 3.15 1.1v-2.95c-1.7 0-3.15-.05-3.15 1.85" fill="#333"/><path d="m1291.12 473.39 1.4.2v.4h-4.3v-.4l1.4-.2v-11.3l-1.4-.2v-.4h2.9z" fill="#333"/><path d="m1299.07 473.34c-1.75 1.05-4.9 1.4-4.9-1.6v-5.4c-.4-.15-1.2.1-1.05-.6h2.5v5.9c-.15 1.85 2.1 1.6 3.45 1.25v-6.55l-1.25-.2v-.4h2.7v7.65c.4.15 1.2-.1 1 .6h-2.4" fill="#333"/><path d="m1306.07 465.49c2.45 0 3.3 1.65 3.15 4.35h-5c-.4 3 1.9 4 4.75 3.15v.5a5.33 5.33 0 0 1 -2.65.7c-2.7 0-3.7-1.65-3.7-4.4s1.05-4.3 3.45-4.3zm1.65 3.65c.6-2.85-2.85-4.1-3.45-1.2a8.3 8.3 0 0 0 -.1 1.2z" fill="#333"/><path d="m1323.57 469.39v.85h-8.35v-.85zm0-3.65v.9h-8.35v-.9z" fill="#333"/><path d="m1333.47 462.19h1.75l-.55 4.25h-.67zm-3.4 0h1.75l-.55 4.25h-.65" fill="#333"/><path d="m1340.77 462.19h1.75l-.55 4.25h-.65zm-3.4 0h1.75l-.55 4.25h-.65" fill="#333"/><path d="m1333.3 412.8v-30.5a.09.09 0 0 1 .1-.1.09.09 0 0 0 .08-.1v-14.6" fill="none" stroke="#333"/><path d="m1333.8 413.3h-1v-.52h1zm4.32-46.3h-9.28l4.64-14.28z" fill="#333"/><path d="m1338.8 367.5h-10.64l5.32-16.4zm-9.27-1h7.9l-3.94-12.16z" fill="#333"/><path d="m1349.78 361.71c.15 3.35-2.2 5.1-5.55 4.25v3.2l1.45.2v.45h-4v-.45l1-.2v-10.85c-.35-.15-1.1.05-.95-.6h2.3v.45a3.77 3.77 0 0 1 2.25-.7c2.55.1 3.4 1.8 3.5 4.25zm-5.5 3.6c2.65.7 4.15-.7 3.9-3.6.35-2.65-1.65-3.95-3.9-3z" fill="#333"/><path d="m1353.33 358.71a6.08 6.08 0 0 1 3-1.25v2.25c-.95.05-.4-1.5-2-.85l-1 .3v6.2l1.45.2v.4h-4v-.4l1.05-.2v-7.05c-.4-.15-1.2.1-1.05-.6h2.4" fill="#333"/><path d="m1360.63 357.46c2.45 0 3.3 1.65 3.15 4.35h-5c-.4 3 1.9 4 4.75 3.15v.5a5.33 5.33 0 0 1 -2.65.7c-2.7 0-3.7-1.65-3.7-4.4s1.05-4.3 3.45-4.3zm1.65 3.65c.6-2.85-2.85-4.1-3.45-1.2a8.3 8.3 0 0 0 -.1 1.2z" fill="#333"/><path d="m1369.53 354.16c-2-.75-1.75 1.6-1.7 3.55h2.2v.75h-2.2v6.8l1.75.3v.4h-4.45v-.4l1.25-.3v-6.8h-1.45v-.46l1.45-.35c-.3-3 1.15-5 4-4.2v1.8c-.75.1-.6-.7-.85-1.1" fill="#333"/><path d="m1372.68 356c-1.15 0-1.25-1.95 0-1.9.65 0 .9.35 1 .95a1 1 0 0 1 -1 .95zm.9 9.4 1.4.2v.4h-4.25v-.4l1.4-.2v-7.05l-1.2-.2v-.4h2.65z" fill="#333"/><path d="m1383.13 365.36c.35.15 1.15-.05 1 .6h-3.75v-.4l1.1-.2-1.9-2.9-2.25 2.9 1.15.2v.4h-3v-.4l1-.15 2.75-3.55-2.4-3.55c-.35-.15-1.15.05-1-.6h3.75v.4l-1.1.2 1.6 2.4 1.85-2.4-1.15-.2v-.4h3v.4l-1 .15-2.3 3" fill="#333"/><path d="m409.79 140.5h40v60h-40z" fill="#fff" stroke="#333"/><path d="m408.79 200.55h-140a.14.14 0 0 1 -.14-.14.14.14 0 0 0 -.15-.13h-124.19" fill="none"/><path d="m408.79 200.55h-5.2m-5.18 0h-10.41m-5.2 0h-10.34m-5.2 0h-10.36m-5.2 0h-10.36m-5.2 0h-10.36m-5.2 0h-10.36m-5.2 0h-10.36m-5.18 0h-10.38m-5.18 0h-5.2-.1v-.1-.1h-.1-5.17m-5.17 0h-10.42m-5.17 0h-10.36m-5.17 0h-10.35m-5.17 0h-10.35m-5.17 0h-10.35m-5.17 0h-10.33m-5.18 0h-10.35m-5.18 0h-5.17" fill="none" stroke="#333"/><path d="m409.29 201h3v.08h-3.52v-1h.52z" fill="#333"/><path d="m129.55 200.27 14.27-4.63v9.27z" fill="#333" stroke="#333"/><path d="m241.52 184.82c.15 3.35-2.2 5.1-5.55 4.25l.05 3.2 1.45.2v.45h-3.95v-.45l1-.2v-10.85c-.35-.15-1.1.05-.95-.6h2.3l.05.45a3.77 3.77 0 0 1 2.25-.7c2.4.1 3.25 1.8 3.35 4.25zm-5.5 3.6c2.65.7 4.15-.7 3.9-3.6.35-2.65-1.65-3.95-3.9-3z" fill="#333"/><path d="m245.07 181.82a6.08 6.08 0 0 1 3-1.25v2.25c-.95.05-.4-1.5-2-.85l-1 .3v6.2l1.45.2v.4h-4v-.4l1.05-.2v-7.05c-.4-.15-1.2.1-1.05-.6h2.48" fill="#333"/><path d="m252.37 180.57c2.45 0 3.3 1.65 3.15 4.35h-5.05c-.4 3 1.9 4 4.75 3.15v.5a5.33 5.33 0 0 1 -2.65.7c-2.7 0-3.7-1.65-3.7-4.4s1.13-4.3 3.5-4.3zm1.65 3.65c.6-2.85-2.85-4.1-3.45-1.2a8.3 8.3 0 0 0 -.1 1.2h3.53" fill="#333"/><path d="m261.27 177.27c-1.95-.75-1.75 1.6-1.7 3.55h2.2v.75h-2.2v6.8l1.75.3v.4h-4.45v-.4l1.25-.3v-6.8h-1.45v-.45l1.45-.35c-.3-3 1.15-5 4-4.2v1.8c-.75.1-.6-.7-.85-1.1" fill="#333"/><path d="m264.42 179.07c-1.15 0-1.25-1.95 0-1.9.65 0 .9.35 1 1a1 1 0 0 1 -1 .9zm.9 9.4 1.4.2v.4h-4.25v-.4l1.4-.2v-7.05l-1.2-.2v-.4h2.65z" fill="#333"/><path d="m274.87 188.47c.35.15 1.15-.05 1 .6h-3.75v-.4l1.1-.2-1.9-2.9-2.25 2.9 1.15.2v.4h-3v-.4l.95-.15 2.75-3.55-2.4-3.55c-.35-.15-1.15.05-1-.6h3.75v.4l-1.1.2 1.6 2.4 1.85-2.4-1.15-.2v-.4h2.95v.4l-.95.15-2.3 3" fill="#333"/><path d="m281.62 177.77-1.8.2v10.35a32.79 32.79 0 0 0 5.05-.2l.55-2.45h.58l-.15 3.4h-9.25v-.45l1.55-.25v-10.37l-1.55-.2v-.5h5.05v.5" fill="#333"/><path d="m289.37 179.07c-1.15 0-1.25-1.95 0-1.9.65 0 .9.35 1 1a1 1 0 0 1 -1 .9zm.9 9.4 1.4.2v.4h-4.25v-.4l1.4-.2v-7.05l-1.2-.2v-.4h2.65z" fill="#333"/><path d="m294.07 182.57c.35 2.4 4.3 1.15 4.3 4.2 0 2.8-3.45 2.85-5.6 2v-2c1 0 .45 1.45 1.55 1.55 1.75.95 3.85-1.3 2.05-2.5-1.35-.9-3.6-.65-3.6-3 0-2.5 2.9-2.6 5-2v1.8c-.95.05-.4-1.25-1.4-1.25-1.05-.35-2.5 0-2.3 1.15" fill="#333"/><path d="m301.72 187.17c-.05 1.25 1.2 1.3 2.2 1v.6c-1.35.8-3.65.75-3.65-1.45v-5.75h-1c-.1-.7.7-.5 1-.75l.9-1.9h.55v1.9h1.9v.75h-1.9z" fill="#333"/><path d="m128.44 140.58h264.46m-264.45 0h-.45" fill="none" stroke="#333"/><path d="m407.67 140.58-14.27 4.63v-9.21z" fill="#333"/><path d="m409.29 140.58-16.4 5.32v-10.65zm-15.4 3.95 12.16-3.95-12.15-4z" fill="#333"/><path d="m146.14 121.78a3.05 3.05 0 0 1 -2.7 4.85 10.11 10.11 0 0 1 -1.35-.15l-.55 1.15c1.45 1.1 6.5-.7 6.2 2.6-.2 2.25-1.9 2.85-4.4 3.05-3.2.25-4.65-2.6-2-4a1.61 1.61 0 0 1 -1.2-1.45l1.4-1.55a2.54 2.54 0 0 1 -1.4-2.55c-.1-2.55 2.65-3.25 5-2.6l1.9-1 .35.4zm-2.8 10.8c1.75 0 3-.55 3-2.1 0-1.75-2.85-.85-4.45-1a2.43 2.43 0 0 0 -.85 1.7c.05 1.2.96 1.4 2.3 1.4zm-1.65-8.85c.05 1.3.35 2.3 1.75 2.2s1.7-.8 1.75-2.2-.3-2.15-1.7-2.15-1.8.85-1.8 2.15" fill="#333"/><path d="m152.29 120.88c2.45 0 3.3 1.65 3.15 4.35h-5.05c-.4 3 1.9 4 4.75 3.15v.5a5.33 5.33 0 0 1 -2.65.7c-2.7 0-3.7-1.65-3.7-4.4s1.1-4.3 3.5-4.3zm1.65 3.65c.6-2.85-2.85-4.1-3.45-1.2a8.3 8.3 0 0 0 -.1 1.2z" fill="#333"/><path d="m158.74 127.48c-.05 1.25 1.2 1.3 2.2 1v.6c-1.35.8-3.65.75-3.65-1.45v-5.75h-1c-.1-.7.7-.5 1-.75l.9-1.9h.55v1.9h1.9v.75h-1.9z" fill="#333"/><path d="m163.64 123.63c0 4.65 4 6.5 7.5 4.35l.35-1.75h.51v2.75a14.54 14.54 0 0 1 -4.15.6c-3.8 0-5.85-2.05-6.05-6-.25-5.65 4.85-7 10.05-5.7v2.55h-.6l-.25-1.43a6.45 6.45 0 0 0 -3.1-.8c-3.3 0-4.3 2-4.3 5.45" fill="#333"/><path d="m177.54 120.88c2.6 0 3.8 1.6 3.8 4.35s-1.2 4.35-3.85 4.35-3.75-1.7-3.75-4.35 1.2-4.35 3.8-4.35zm0 8c1.95 0 2.3-1.75 2.3-3.65s-.35-3.65-2.3-3.65-2.2 1.7-2.2 3.65.3 3.6 2.2 3.65" fill="#333"/><path d="m188.34 123.48c.2-1.85-2.1-1.6-3.4-1.25v6.55l1.2.2v.4h-3.7c-.15-.65.65-.45 1-.6v-7c-.35-.15-1.15 0-1-.6h2.4v.65c1.1-.75 3.85-1.5 4.6.1 1.6-1.1 5.2-1.8 5.2 1.45v5.45c.4.15 1.2-.1 1.05.6h-3.69v-.43l1.25-.2v-5.3c.15-2-2.25-1.55-3.6-1.2.35 1.85.05 4.4.15 6.5l1.25.2v.4h-3.9v-.4l1.2-.2v-5.3" fill="#333"/><path d="m202.34 123.48c.2-1.85-2.1-1.6-3.4-1.25v6.55l1.2.2v.4h-3.7c-.15-.65.65-.45 1-.6v-7c-.35-.15-1.15 0-1-.6h2.4v.65c1.1-.75 3.85-1.5 4.6.1 1.6-1.1 5.2-1.8 5.2 1.45v5.45c.4.15 1.2-.1 1.05.6h-3.69v-.43l1.25-.2v-5.3c.15-2-2.25-1.55-3.6-1.2.35 1.85.05 4.4.15 6.5l1.25.2v.4h-3.9v-.4l1.2-.2v-5.3" fill="#333"/><path d="m211.64 121.23c2.05-.5 5.1-.7 5.1 2v5.6c.4.15 1.2-.1 1 .6h-2.25l-.2-.85c-1.15 1.5-5.15 1.5-4.65-1.45-.1-2.5 2.25-2.5 4.6-2.55.2-1.8-.25-3.5-2.1-2.8a6.89 6.89 0 0 0 -.8.3c-.2.35 0 1.15-.75 1zm.5 5.8c0 2.05 2.05 1.65 3.15 1.1v-2.95c-1.7 0-3.15-.05-3.15 1.85" fill="#333"/><path d="m224.24 123.48c.2-1.85-2.05-1.7-3.4-1.3v6.6l1.15.2v.4h-3.6c-.15-.65.65-.45 1-.6v-7c-.35-.15-1.15 0-1-.6h2.35l.1.65c1.55-1.15 4.9-1.45 4.9 1.55v5.45c.35.15 1.15-.05 1 .6h-3.6v-.43l1.1-.2v-5.3" fill="#333"/><path d="m227.64 125.33c0-3.55 2.3-5 5.7-4.25l-.05-3.6-1.4-.2v-.4h2.85v11.9c.4.15 1.2-.1 1 .6h-2.35l-.1-.6c-2.29 1.75-5.65.55-5.65-3.45zm3.85-3.7c-1.85.05-2.2 1.65-2.25 3.7s.45 3.3 2.25 3.3a4.61 4.61 0 0 0 1.8-.35v-6.5c-.5 0-1.2-.15-1.8-.15" fill="#333"/><path d="m239.74 124c2.4.15 3.8-.6 3.8-2.9s-1.4-2.85-3.8-2.7zm5.55-2.9c0 3-2.3 3.9-5.55 3.7v3.9l1.85.25v.45h-5v-.45l1.4-.25v-10.4l-1.55-.2v-.5c4 0 8.9-.7 8.8 3.5" fill="#333"/><path d="m248.84 122.13a6.08 6.08 0 0 1 3-1.25v2.25c-1 .05-.4-1.5-2-.85l-1 .3v6.2l1.45.2v.4h-3.95v-.38l1-.2v-7c-.4-.15-1.2.1-1-.6h2.4" fill="#333"/><path d="m256.14 120.88c2.45 0 3.3 1.65 3.15 4.35h-5.05c-.4 3 1.9 4 4.75 3.15v.5a5.33 5.33 0 0 1 -2.65.7c-2.7 0-3.7-1.65-3.7-4.4s1.1-4.3 3.5-4.3zm1.65 3.65c.6-2.85-2.85-4.1-3.45-1.2a8.3 8.3 0 0 0 -.1 1.2z" fill="#333"/><path d="m265 117.58c-2-.75-1.75 1.6-1.7 3.55h2.2v.75h-2.2v6.8l1.75.3v.4h-4.45v-.38l1.25-.3v-6.8h-1.45v-.45l1.45-.35c-.3-3 1.15-5 4-4.2v1.8c-.75.1-.6-.7-.85-1.1" fill="#333"/><path d="m268.19 119.38c-1.15 0-1.25-1.95 0-1.9.65 0 .9.35 1 1a1 1 0 0 1 -1 .9zm.9 9.4 1.4.2v.4h-4.25v-.38l1.4-.2v-7l-1.2-.2v-.4h2.65v7.65" fill="#333"/><path d="m278.64 128.78c.35.15 1.15-.05 1 .6h-3.75v-.38l1.1-.2-1.9-2.9-2.25 2.9 1.15.2v.4h-3v-.4l.95-.15 2.75-3.55-2.4-3.55c-.35-.15-1.15 0-1-.6h3.71v.4l-1.1.2 1.6 2.4 1.85-2.4-1.15-.2v-.4h2.95v.4l-.95.15-2.3 3" fill="#333"/><path d="m284 120.88c2.45 0 3.3 1.65 3.15 4.35h-5.05c-.4 3 1.9 4 4.75 3.15v.5a5.33 5.33 0 0 1 -2.65.7c-2.7 0-3.7-1.65-3.7-4.4s1.14-4.3 3.5-4.3zm1.65 3.65c.6-2.85-2.85-4.1-3.45-1.2a8.3 8.3 0 0 0 -.1 1.2z" fill="#333"/><path d="m289.84 122.88c.35 2.4 4.3 1.15 4.3 4.2 0 2.8-3.45 2.85-5.6 2v-2c1 0 .45 1.45 1.55 1.55 1.75.95 3.85-1.3 2.05-2.5-1.35-.9-3.6-.65-3.6-3 0-2.5 2.9-2.6 5-2v1.87c-1 0-.4-1.25-1.4-1.25-1.05-.35-2.5 0-2.3 1.15" fill="#333"/><path d="m300.19 117.63c-2.6 1.4-3.1 4.75-2.9 8.9.15 2.8 1 4.85 2.9 5.95v.75c-5.05-1.4-6.25-11.5-2.05-15a10.4 10.4 0 0 1 2.05-1.35z" fill="#333"/><path d="m305.24 117.58h1.76l-.55 4.25h-.65zm-3.4 0h1.75l-.55 4.25h-.65" fill="#333"/><path d="m313.19 117.58c-1.95-.75-1.75 1.6-1.7 3.55h2.2v.75h-2.2v6.8l1.75.3v.4h-4.45v-.38l1.25-.3v-6.8h-1.45v-.45l1.45-.35c-.3-3 1.15-5 4-4.2v1.8c-.75.1-.6-.7-.85-1.1" fill="#333"/><path d="m316.34 119.38c-1.15 0-1.25-1.95 0-1.9.65 0 .9.35 1 1a1 1 0 0 1 -1 .9zm.9 9.4 1.4.2v.4h-4.25v-.38l1.4-.2v-7l-1.2-.2v-.4h2.65v7.65" fill="#333"/><path d="m325.24 123.48c.2-1.85-2.05-1.7-3.4-1.3v6.6l1.15.2v.4h-3.6c-.15-.65.65-.45 1-.6v-7c-.35-.15-1.15 0-1-.6h2.35l.1.65c1.55-1.15 4.9-1.45 4.9 1.55v5.45c.35.15 1.15-.05 1 .6h-3.6v-.43l1.1-.2v-5.3" fill="#333"/><path d="m328.64 125.33c0-3.55 2.3-5 5.7-4.25v-3.6l-1.4-.2v-.4h2.85v11.9c.4.15 1.2-.1 1.05.6h-2.35l-.1-.6c-2.39 1.75-5.75.55-5.75-3.45zm3.85-3.7c-1.85.05-2.2 1.65-2.25 3.7s.45 3.3 2.25 3.3a4.61 4.61 0 0 0 1.8-.35v-6.5c-.5 0-1.2-.15-1.8-.15" fill="#333"/><path d="m345.29 125.13c.15 3.35-2.2 5.1-5.55 4.25l.05 3.2 1.45.2v.45h-3.95v-.45l1-.2v-10.85c-.35-.15-1.1 0-.95-.6h2.3l.05.45a3.77 3.77 0 0 1 2.25-.7c2.4.12 3.25 1.8 3.35 4.25zm-5.5 3.6c2.65.7 4.15-.7 3.9-3.6.35-2.65-1.65-3.95-3.9-3z" fill="#333"/><path d="m350.19 120.88c2.45 0 3.3 1.65 3.15 4.35h-5c-.4 3 1.9 4 4.75 3.15v.5a5.33 5.33 0 0 1 -2.65.7c-2.7 0-3.7-1.65-3.7-4.4s1.05-4.3 3.45-4.3zm1.65 3.65c.6-2.85-2.85-4.1-3.45-1.2a8.3 8.3 0 0 0 -.1 1.2z" fill="#333"/><path d="m356.79 122.13a6.08 6.08 0 0 1 3-1.25v2.25c-1 .05-.4-1.5-2-.85l-1 .3v6.2l1.45.2v.4h-3.95v-.38l1-.2v-7c-.4-.15-1.2.1-1-.6h2.4" fill="#333"/><path d="m361.94 122.88c.35 2.4 4.3 1.15 4.3 4.2 0 2.8-3.45 2.85-5.6 2v-2c1 0 .45 1.45 1.55 1.55 1.75.95 3.85-1.3 2.05-2.5-1.35-.9-3.6-.65-3.6-3 0-2.5 2.9-2.6 5-2v1.87c-.95 0-.4-1.25-1.4-1.25-1.05-.35-2.5 0-2.3 1.15" fill="#333"/><path d="m371.39 120.88c2.6 0 3.8 1.6 3.8 4.35s-1.2 4.35-3.85 4.35-3.75-1.7-3.75-4.35 1.2-4.35 3.8-4.35zm-.05 8c2 0 2.3-1.75 2.3-3.65s-.35-3.65-2.3-3.65-2.2 1.7-2.2 3.65.3 3.6 2.2 3.65" fill="#333"/><path d="m382.14 123.48c.2-1.85-2.05-1.7-3.4-1.3v6.6l1.15.2v.4h-3.6c-.15-.65.65-.45 1-.6v-7c-.35-.15-1.15 0-1-.6h2.35l.1.65c1.55-1.15 4.9-1.45 4.9 1.55v5.45c.35.15 1.15-.05 1 .6h-3.64v-.43l1.1-.2v-5.3" fill="#333"/><path d="m389.39 117.58h1.75l-.55 4.25h-.65zm-3.4 0h1.75l-.55 4.25h-.65" fill="#333"/><path d="m392.79 116.88c5 1.4 6.25 11.55 2 15a10.13 10.13 0 0 1 -2 1.4v-.75c2.2-1.25 2.9-3.9 2.9-7.45s-.65-6.15-2.9-7.4v-.75" fill="#333"/><path d="m592.36 260.5h40v60h-40z" fill="#fff" stroke="#333"/><path d="m591.36 321h-231.12a.33.33 0 0 0 -.34.34.34.34 0 0 1 -.34.35h-215.24" fill="none"/><path d="m591.36 321h-5.14m-5.13 0h-10.27m-5.14 0h-10.27m-5.15 0h-10.26m-5.14 0h-10.28m-5.13 0h-10.28m-5.17 0h-10.23m-5.14 0h-10.27m-5.14 0h-10.22m-5.14 0h-10.31m-5.13 0h-10.28m-5.14 0h-10.27m-5.14 0h-10.27m-5.13 0h-10.27m-5.14 0h-10.27m-5.15 0h-5.13l-.24.1-.1.24-.1.25-.24.1h-5.13m-5.1 0h-10.26m-5.13 0h-10.24m-5.12 0h-10.25m-5.13 0h-10.25m-5.13 0h-10.26m-5.12 0h-10.25m-5.13 0h-10.25m-5.13 0h-10.25m-5.12 0h-10.25m-5.13 0h-10.25m-5.12 0h-10.25m-5.13 0h-10.25m-5.12 0h-10.25m-5.13 0h-5.12" fill="none" stroke="#333"/><path d="m591.86 321h3v.5h-3.5v-1h.5z" fill="#333"/><path d="m129.55 321.65 14.27-4.65v9.28z" fill="#333" stroke="#333"/><path d="m313.75 301.62c2.05-.5 5.1-.7 5.1 1.95v5.6c.4.15 1.2-.1 1 .6h-2.25l-.2-.85c-1.15 1.5-5.15 1.5-4.65-1.45-.1-2.5 2.25-2.5 4.6-2.55.2-1.8-.25-3.5-2.1-2.8a6.89 6.89 0 0 0 -.8.3c-.2.35 0 1.15-.75 1zm.5 5.8c0 2.05 2.05 1.65 3.15 1.1v-2.95c-1.7.05-3.15-.05-3.15 1.85" fill="#333"/><path d="m323 302.52a6.08 6.08 0 0 1 3-1.25v2.25c-.95.05-.4-1.5-2-.85l-1 .3v6.2l1.45.2v.4h-3.95v-.4l1.05-.2v-7.05c-.4-.15-1.2.1-1.05-.6h2.4" fill="#333"/><path d="m332.75 302.17a3.05 3.05 0 0 1 -2.7 4.85 10.11 10.11 0 0 1 -1.35-.15l-.55 1.15c1.45 1.1 6.5-.7 6.2 2.6-.2 2.25-1.9 2.85-4.4 3.05-3.2.25-4.65-2.6-2-4a1.61 1.61 0 0 1 -1.2-1.45l1.4-1.55a2.54 2.54 0 0 1 -1.4-2.55c-.1-2.55 2.65-3.25 5-2.6l1.9-1 .35.4zm-2.75 10.83c1.75 0 3.05-.55 3.05-2.1 0-1.75-2.85-.85-4.45-1.05a2.43 2.43 0 0 0 -.85 1.7c-.05 1.22.9 1.45 2.25 1.45zm-1.65-8.85c.05 1.3.35 2.3 1.75 2.2s1.7-.8 1.75-2.2-.3-2.15-1.7-2.15-1.8.85-1.8 2.15" fill="#333"/><path d="m340.9 309.12c-1.75 1.05-4.9 1.4-4.9-1.6v-5.4c-.4-.15-1.2.1-1.05-.6h2.5v5.9c-.15 1.85 2.1 1.6 3.45 1.25v-6.55l-1.25-.2v-.4h2.7v7.65c.4.15 1.2-.1 1 .6h-2.35" fill="#333"/><path d="m350 303.87c.2-1.85-2.1-1.6-3.4-1.25v6.55l1.2.2v.4h-3.7c-.15-.65.65-.45 1-.6v-7.05c-.35-.15-1.15.05-1-.6h2.4l.05.65c1.1-.75 3.85-1.5 4.6.1 1.6-1.1 5.2-1.8 5.2 1.45v5.45c.4.15 1.2-.1 1 .6h-3.75v-.4l1.25-.2v-5.3c.15-1.95-2.25-1.55-3.6-1.2.35 1.85.05 4.4.15 6.5l1.25.2v.4h-3.9v-.4l1.2-.2v-5.3" fill="#333"/><path d="m361.9 301.27c2.45 0 3.3 1.65 3.15 4.35h-5.05c-.4 3 1.9 4 4.75 3.15v.5a5.33 5.33 0 0 1 -2.65.7c-2.7 0-3.7-1.65-3.7-4.4s1.1-4.3 3.5-4.3zm1.65 3.65c.6-2.85-2.85-4.1-3.45-1.2a8.3 8.3 0 0 0 -.1 1.2z" fill="#333"/><path d="m371.9 303.87c.2-1.85-2-1.7-3.4-1.3v6.6l1.15.2v.4h-3.6c-.15-.65.65-.45 1-.6v-7.05c-.35-.15-1.15.05-1-.6h2.35l.1.65c1.55-1.15 4.9-1.45 4.9 1.55v5.45c.35.15 1.15-.05 1 .6h-3.6v-.4l1.1-.2z" fill="#333"/><path d="m377.35 307.87c-.05 1.25 1.2 1.3 2.2 1v.6c-1.35.8-3.65.75-3.65-1.45v-5.75h-1c-.1-.7.7-.5 1-.75l.9-1.9h.55v1.9h1.9v.75h-1.9z" fill="#333"/><path d="m385.2 298.47-1.8.2v10.33a32.79 32.79 0 0 0 5.05-.2l.55-2.45h.55l-.15 3.4h-9.25v-.45l1.55-.25v-10.4l-1.55-.2v-.45h5.05v.5" fill="#333"/><path d="m393 299.77c-1.15 0-1.25-1.95 0-1.9.65 0 .9.35 1 .95a1 1 0 0 1 -1 .95zm.9 9.4 1.4.2v.4h-4.3v-.4l1.4-.2v-7.05l-1.2-.2v-.4h2.65v7.65" fill="#333"/><path d="m397.65 303.27c.35 2.4 4.3 1.15 4.3 4.2 0 2.8-3.45 2.85-5.6 2v-2c1 0 .45 1.45 1.55 1.55 1.75.95 3.85-1.3 2.05-2.5-1.35-.9-3.6-.65-3.6-2.95 0-2.5 2.9-2.6 5-2.05v1.8c-1 .05-.4-1.25-1.4-1.25-1.05-.35-2.5-.05-2.3 1.15" fill="#333"/><path d="m405.3 307.87c-.05 1.25 1.2 1.3 2.2 1v.6c-1.35.8-3.65.75-3.65-1.45v-5.75h-1.05c-.1-.7.7-.5 1.05-.75l.9-1.9h.55v1.9h1.9v.75h-1.9z" fill="#333"/><path d="m833.92 312h-184.68" fill="none"/><path d="m833.92 312h-5.12m-5.13 0h-10.26m-5.14 0h-10.27m-5.13 0h-10.24m-5.12 0h-10.26m-5.13 0h-10.27m-5.13 0h-10.26m-5.13 0h-10.25m-5.08 0h-10.31m-5.13 0h-10.26m-5.13 0h-10.26m-5.13 0h-10.27m-5.13 0h-5.13" fill="none" stroke="#333"/><path d="m834.42 312.52h-.5v-1h.5zm-185.68 4.13-14.26-4.65 14.26-4.64z" fill="#333"/><path d="m649.24 317.34-16.38-5.34 16.38-5.32zm-13.14-5.34 12.14 4v-7.9z" fill="#333"/><path d="m854.92 303.42v244.58" fill="none"/><path d="m854.92 303.42v5.1m0 5.1v10.2m0 5.08v10.2m0 5.1v10.18m0 5.1v10.2m0 5.08v10.24m0 5.1v10.18m0 5.1v10.2m0 5.1v10.18m0 5.1v10.14m0 5.1v10.2m0 5.1v10.18m0 5.1v10.22m0 5.08v10.2m0 5.1v10.18m0 5.1v10.2m0 5.1v5.04" fill="none" stroke="#333"/><path d="m855.42 303.43h-1v-.5h1zm0 245.09h-1v-.52h1z" fill="#333"/><path d="m834.92 292h40v20h-40z" fill="#fff" stroke="#333"/><path d="m794.92 262h120v40.4h-120z" fill="#fff" stroke="#333"/><path d="m804.71 284.82a1 1 0 0 1 1 1.05 1 1 0 0 1 -1 1.05 1 1 0 0 1 -1.1-1.05 1 1 0 0 1 1.1-1.05zm0-6.6a1 1 0 0 1 1 1 1 1 0 0 1 -1 1.1 1 1 0 0 1 -1.1-1.1 1 1 0 0 1 1.1-1" fill="#333"/><path d="m811.26 286.22v.45h-3.85v-.45l1.3-.25 4-11.2h1.65l4.15 11.2 1.5.25v.45h-4.95v-.45l1.55-.25-1.15-3.4h-4.65l-1.2 3.4zm1.9-10.15-2 5.7h4.1" fill="#333"/><path d="m823 279.42a6.08 6.08 0 0 1 3-1.25v2.25c-1 .05-.4-1.5-2-.85l-1 .3v6.2l1.45.2v.4h-4v-.4l1-.2v-7.07c-.4-.15-1.2.1-1-.6h2.4" fill="#333"/><path d="m832.81 279.07a3.05 3.05 0 0 1 -2.7 4.85 10.11 10.11 0 0 1 -1.35-.15l-.55 1.15c1.45 1.1 6.5-.7 6.2 2.6-.2 2.25-1.9 2.85-4.4 3.05-3.2.25-4.65-2.6-2-4a1.61 1.61 0 0 1 -1.2-1.45l1.4-1.55a2.54 2.54 0 0 1 -1.4-2.55c-.1-2.55 2.65-3.25 5-2.6l1.9-1 .35.4zm-2.8 10.8c1.75 0 3-.55 3-2.1 0-1.75-2.85-.85-4.45-1a2.43 2.43 0 0 0 -.85 1.7c.05 1.2 1 1.4 2.29 1.4zm-1.65-8.87c0 1.3.35 2.3 1.75 2.2s1.7-.8 1.75-2.2-.3-2.15-1.7-2.15-1.8.85-1.8 2.15" fill="#333"/><path d="m841 286c-1.75 1.05-4.9 1.4-4.9-1.6v-5.4c-.4-.15-1.2.1-1-.6h2.5v5.9c-.15 1.85 2.1 1.6 3.45 1.25v-6.55l-1.25-.2v-.4h2.7v7.65c.4.15 1.2-.1 1.05.6h-2.4" fill="#333"/><path d="m850.06 280.77c.2-1.85-2.1-1.6-3.4-1.25v6.55l1.2.2v.4h-3.7c-.15-.65.65-.45 1-.6v-7.07c-.35-.15-1.15.05-1-.6h2.4l.05.65c1.1-.75 3.85-1.5 4.6.1 1.6-1.1 5.2-1.8 5.2 1.45v5.45c.4.15 1.2-.1 1.05.6h-3.75v-.4l1.25-.2v-5.3c.15-1.95-2.25-1.55-3.6-1.2.35 1.85 0 4.4.15 6.5l1.25.2v.4h-3.9v-.4l1.2-.2v-5.3" fill="#333"/><path d="m862 278.17c2.45 0 3.3 1.65 3.15 4.35h-5.05c-.4 3 1.9 4 4.75 3.15v.5a5.33 5.33 0 0 1 -2.65.7c-2.7 0-3.7-1.65-3.7-4.4s1.06-4.3 3.5-4.3zm1.65 3.65c.6-2.85-2.85-4.1-3.45-1.2a8.3 8.3 0 0 0 -.1 1.2z" fill="#333"/><path d="m872 280.77c.2-1.85-2.05-1.7-3.4-1.3v6.6l1.15.2v.4h-3.6c-.15-.65.65-.45 1-.6v-7.07c-.35-.15-1.15.05-1-.6h2.35l.1.65c1.55-1.15 4.9-1.45 4.9 1.55v5.45c.35.15 1.15-.05 1 .6h-3.6v-.4l1.1-.2v-5.3" fill="#333"/><path d="m877.41 284.77c0 1.25 1.2 1.3 2.2 1v.6c-1.35.8-3.65.75-3.65-1.45v-5.75h-1.05c-.1-.7.7-.5 1.05-.75l.9-1.9h.55v1.9h1.9v.75h-1.9z" fill="#333"/><path d="m885.26 275.37-1.8.2v10.35a32.79 32.79 0 0 0 5-.2l.55-2.45h.55l-.15 3.4h-9.25v-.45l1.55-.25v-10.4l-1.55-.2v-.5h5v.5" fill="#333"/><path d="m893 276.67c-1.15 0-1.25-1.95 0-1.9.65 0 .9.35 1 1a1 1 0 0 1 -1 .9zm.9 9.4 1.4.2v.4h-4.25v-.4l1.4-.2v-7.07l-1.2-.2v-.4h2.65v7.65" fill="#333"/><path d="m897.71 280.17c.35 2.4 4.3 1.15 4.3 4.2 0 2.8-3.45 2.85-5.6 2.05v-2c1 0 .45 1.45 1.55 1.55 1.75.95 3.85-1.3 2-2.5-1.35-.9-3.6-.65-3.6-3 0-2.5 2.9-2.6 5-2v1.8c-.95.05-.4-1.25-1.4-1.25-1-.35-2.5 0-2.3 1.15" fill="#333"/><path d="m905.36 284.77c-.05 1.25 1.2 1.3 2.2 1v.6c-1.35.8-3.65.75-3.65-1.45v-5.75h-1c-.1-.7.7-.5 1-.75l.9-1.9h.55v1.9h1.9v.75h-1.9z" fill="#333"/><path d="m128.44 259.44h231.22a.28.28 0 0 1 .28.28.29.29 0 0 0 .28.28h215.34m-447.11-.56h-.45" fill="none" stroke="#333"/><path d="m590.32 260-14.26 4.63v-9.27z" fill="#333"/><path d="m592 260h-.1l-16.3 5.3v-10.62zm-15.45 4 12.16-4-12.16-3.95z" fill="#333"/><path d="m219.52 239.74c2.6 0 3.8 1.6 3.8 4.35s-1.2 4.35-3.85 4.35-3.75-1.7-3.75-4.35 1.2-4.35 3.8-4.35zm-.05 8c1.95 0 2.3-1.75 2.3-3.65s-.35-3.65-2.3-3.65-2.2 1.7-2.2 3.65.3 3.6 2.2 3.65" fill="#333"/><path d="m226.87 241a6.08 6.08 0 0 1 3-1.25v2.25c-1 0-.4-1.5-2-.85l-1 .3v6.2l1.45.2v.4h-3.95v-.4l1-.2v-7c-.4-.15-1.2.1-1-.6h2.4" fill="#333"/><path d="m230.62 244.19c0-3.55 2.3-5.05 5.7-4.25v-3.6l-1.4-.2v-.4h2.85v11.9c.4.15 1.2-.1 1.05.6h-2.35l-.1-.6c-2.37 1.75-5.75.55-5.75-3.45zm3.85-3.7c-1.85 0-2.2 1.65-2.25 3.7 0 1.9.45 3.3 2.25 3.3a4.61 4.61 0 0 0 1.8-.35v-6.5c-.5 0-1.2-.15-1.8-.15" fill="#333"/><path d="m243.17 239.74c2.45 0 3.3 1.65 3.15 4.35h-5c-.4 3 1.9 4 4.75 3.15v.5a5.33 5.33 0 0 1 -2.65.7c-2.7 0-3.7-1.65-3.7-4.4s1.05-4.3 3.45-4.3zm1.65 3.65c.6-2.85-2.85-4.1-3.45-1.2a8.3 8.3 0 0 0 -.1 1.2z" fill="#333"/><path d="m249.77 241a6.08 6.08 0 0 1 3-1.25v2.25c-1 0-.4-1.5-2-.85l-1 .3v6.2l1.45.2v.4h-3.95v-.4l1-.2v-7c-.4-.15-1.2.1-1-.6h2.4" fill="#333"/><path d="m257.07 239.74c2.45 0 3.3 1.65 3.15 4.35h-5.05c-.4 3 1.9 4 4.75 3.15v.5a5.33 5.33 0 0 1 -2.65.7c-2.7 0-3.7-1.65-3.7-4.4s1.1-4.3 3.5-4.3zm1.65 3.65c.6-2.85-2.85-4.1-3.45-1.2a8.3 8.3 0 0 0 -.1 1.2z" fill="#333"/><path d="m261.47 244.19c0-3.55 2.3-5.05 5.7-4.25l-.05-3.6-1.4-.2v-.4h2.85v11.9c.4.15 1.2-.1 1.05.6h-2.35l-.1-.6c-2.35 1.75-5.7.55-5.7-3.45zm3.85-3.7c-1.85 0-2.2 1.65-2.25 3.7 0 1.9.45 3.3 2.25 3.3a4.61 4.61 0 0 0 1.8-.35v-6.5c-.5 0-1.2-.15-1.8-.15" fill="#333"/><path d="m272.57 248.24v-.45l1.9-.25v-10.35a24.94 24.94 0 0 0 -3.5.2l-.25 1.85h-.55v-2.8h10.35v2.8h-.6l-.25-1.85-3.5-.15v10.3l1.85.25v.45z" fill="#333"/><path d="m284 239.74c2.6 0 3.8 1.6 3.8 4.35s-1.2 4.35-3.85 4.35-3.75-1.7-3.75-4.35 1.22-4.35 3.8-4.35zm0 8c1.95 0 2.3-1.75 2.3-3.65s-.35-3.65-2.3-3.65-2.2 1.7-2.2 3.65.3 3.6 2.2 3.65" fill="#333"/><path d="m291.52 244.24 3.4-3.65c-.35-.15-1 0-.85-.6h2.93c.15.65-.65.45-1 .6l-2.35 2.4 3 4.65c.35.15 1.05 0 .9.6h-3.4c-.15-.6.45-.45.75-.6l-2.25-3.55-1.1 1.15v2.4c.35.15 1.05 0 .9.6h-3.45v-.4l1.05-.2v-11.3l-1.2-.2v-.4h2.65v8.5" fill="#333"/><path d="m301.72 239.74c2.45 0 3.3 1.65 3.15 4.35h-5.05c-.4 3 1.9 4 4.75 3.15v.5a5.33 5.33 0 0 1 -2.65.7c-2.7 0-3.7-1.65-3.7-4.4s1.1-4.3 3.5-4.3zm1.65 3.65c.6-2.85-2.85-4.1-3.45-1.2a8.3 8.3 0 0 0 -.1 1.2z" fill="#333"/><path d="m311.72 242.34c.2-1.85-2.05-1.7-3.4-1.3v6.6l1.15.2v.4h-3.6c-.15-.65.65-.45 1-.6v-7c-.35-.15-1.15 0-1-.6h2.35l.1.65c1.55-1.15 4.9-1.45 4.9 1.55v5.45c.35.15 1.15 0 1 .6h-3.6v-.4l1.1-.2v-5.3" fill="#333"/><path d="m316.82 238.24c-1.15 0-1.25-2 0-1.9.65 0 .9.35 1 .95a1 1 0 0 1 -1 .95zm.9 9.4 1.4.2v.4h-4.25v-.4l1.4-.2v-7l-1.2-.2v-.44h2.65v7.65" fill="#333"/><path d="m320 248.24v-.4l4.5-7.15c-1.15.1-2.7-.2-3.5.3-.25.4 0 1.3-.7 1.2v-2.19h6.1v.4l-4.55 7.15c1.45-.1 3.25.15 4.3-.4l.45-1.75h.4l-.25 2.85h-6.75" fill="#333"/><path d="m331.62 239.74c2.45 0 3.3 1.65 3.15 4.35h-5c-.4 3 1.9 4 4.75 3.15v.5a5.33 5.33 0 0 1 -2.65.7c-2.7 0-3.7-1.65-3.7-4.4s1.05-4.3 3.45-4.3zm1.65 3.65c.6-2.85-2.85-4.1-3.45-1.2a8.3 8.3 0 0 0 -.1 1.2z" fill="#333"/><path d="m340.77 236.49c-2.6 1.4-3.1 4.75-2.9 8.9.15 2.8 1.05 4.85 2.9 6v.75c-5-1.4-6.25-11.5-2-15a10.4 10.4 0 0 1 2-1.35v.75" fill="#333"/><path d="m345.82 236.44h1.75l-.55 4.25h-.65zm-3.4 0h1.75l-.55 4.25h-.62" fill="#333"/><path d="m354.87 242.34c.2-1.85-2.05-1.7-3.4-1.3v6.6l1.15.2v.4h-3.62c-.15-.65.65-.45 1-.6v-7c-.35-.15-1.15 0-1-.6h2.35l.1.65c1.55-1.15 4.9-1.45 4.9 1.55v5.45c.35.15 1.15 0 1 .6h-3.6v-.4l1.1-.2v-5.3" fill="#333"/><path d="m358.52 248.44h-.9l4.15-12.05h.85" fill="#333"/><path d="m367.12 236.44h1.75l-.55 4.25h-.65zm-3.4 0h1.75l-.55 4.25h-.65" fill="#333"/><path d="m372 246.39c2.15 0 1.15 3.7-.2 4.05a5.38 5.38 0 0 1 -1.2.55v-.65c.85-.25 1.45-.7 1.55-1.5-.15-.7-1.25-.55-1.2-1.5a1 1 0 0 1 1-1" fill="#333"/><path d="m387.22 244c.15 3.35-2.2 5.1-5.55 4.25l.05 3.2 1.45.2v.45h-3.95v-.45l1-.2v-10.86c-.35-.15-1.1 0-.95-.6h2.3l.05.45a3.77 3.77 0 0 1 2.25-.7c2.4.1 3.25 1.8 3.35 4.26zm-5.5 3.6c2.65.7 4.15-.7 3.9-3.6.35-2.65-1.65-4-3.9-3z" fill="#333"/><path d="m390.77 241a6.08 6.08 0 0 1 3-1.25v2.25c-.95 0-.4-1.5-2-.85l-1 .3v6.2l1.45.2v.4h-4v-.4l1.05-.2v-7c-.4-.15-1.2.1-1.05-.6h2.4" fill="#333"/><path d="m398.07 239.74c2.45 0 3.3 1.65 3.15 4.35h-5.05c-.4 3 1.9 4 4.75 3.15v.5a5.33 5.33 0 0 1 -2.65.7c-2.7 0-3.7-1.65-3.7-4.4s1.1-4.3 3.5-4.3zm1.65 3.65c.6-2.85-2.85-4.1-3.45-1.2a8.3 8.3 0 0 0 -.1 1.2z" fill="#333"/><path d="m407 236.44c-2-.75-1.75 1.6-1.7 3.55h2.2v.75h-2.2v6.8l1.75.3v.4h-4.45v-.4l1.25-.3v-6.8h-1.45v-.45l1.45-.35c-.3-2.95 1.15-5 4-4.2v1.8c-.75.1-.6-.7-.85-1.1" fill="#333"/><path d="m410.12 238.24c-1.15 0-1.25-2 0-1.9.65 0 .9.35 1 .95a1 1 0 0 1 -1 .95zm.9 9.4 1.4.2v.4h-4.25v-.4l1.4-.2v-7l-1.2-.2v-.44h2.63v7.65" fill="#333"/><path d="m420.57 247.64c.35.15 1.15 0 1 .6h-3.75v-.4l1.1-.2-1.9-2.9-2.25 2.9 1.15.2v.4h-3v-.4l.95-.15 2.75-3.55-2.4-3.55c-.35-.15-1.15 0-1-.6h3.78v.4l-1.1.2 1.6 2.4 1.85-2.4-1.15-.2v-.39h2.95v.4l-.95.15-2.3 3" fill="#333"/><path d="m427.32 236.94-1.8.2v10.35a32.79 32.79 0 0 0 5.05-.2l.55-2.45h.55l-.15 3.4h-9.25v-.45l1.55-.25v-10.4l-1.55-.2v-.5h5.05z" fill="#333"/><path d="m435.07 238.24c-1.15 0-1.25-2 0-1.9.65 0 .9.35 1 .95a1 1 0 0 1 -1 .95zm.9 9.4 1.4.2v.4h-4.25v-.4l1.4-.2v-7l-1.2-.2v-.44h2.68v7.65" fill="#333"/><path d="m439.77 241.74c.35 2.4 4.3 1.15 4.3 4.2 0 2.8-3.45 2.85-5.6 2.05v-2c1 0 .45 1.45 1.55 1.55 1.75 1 3.85-1.3 2.05-2.5-1.35-.9-3.6-.65-3.6-2.95 0-2.5 2.9-2.6 5-2.05v1.8c-1 0-.4-1.25-1.4-1.25-1.05-.35-2.5-.05-2.3 1.15" fill="#333"/><path d="m447.42 246.34c-.05 1.25 1.2 1.3 2.2 1v.6c-1.35.8-3.65.75-3.65-1.45v-5.75h-1.05c-.1-.7.7-.5 1.05-.75l.9-1.9h.55v1.91h1.9v.75h-1.9v5.6" fill="#333"/><path d="m450.32 235.74c5.05 1.4 6.25 11.55 2 14.95a10.13 10.13 0 0 1 -2 1.4v-.75c2.2-1.25 2.9-3.9 2.9-7.45s-.65-6.15-2.9-7.4z" fill="#333"/><path d="m633.36 282.22h144.7" fill="none" stroke="#333"/><path d="m633.37 282.72h-.5v-1h.5zm159.45-.5-14.27 4.63v-9.27z" fill="#333"/><path d="m794.42 282.22-16.37 5.32v-10.64zm-15.37 3.95 12.15-3.95-12.15-4z" fill="#333"/><path d="m661.52 270.57v.43h-3.85v-.45l1.3-.25 4-11.2h1.65l4.15 11.2 1.5.25v.45h-5v-.45l1.55-.25-1.15-3.4h-4.65l-1.2 3.4zm1.9-10.15-2 5.7h4.1" fill="#333"/><path d="m673.27 263.77a6.08 6.08 0 0 1 3-1.25v2.25c-.95.05-.4-1.5-2-.85l-1 .3v6.2l1.45.2v.4h-4v-.4l1.05-.2v-7.05c-.4-.15-1.2.1-1.05-.6h2.4" fill="#333"/><path d="m683.07 263.42a3.05 3.05 0 0 1 -2.7 4.85 10.11 10.11 0 0 1 -1.35-.15l-.55 1.15c1.45 1.1 6.5-.7 6.2 2.6-.2 2.25-1.9 2.85-4.4 3.05-3.2.25-4.65-2.6-2-4a1.61 1.61 0 0 1 -1.2-1.45l1.4-1.55a2.54 2.54 0 0 1 -1.4-2.55c-.1-2.55 2.65-3.25 5-2.6l1.9-1 .35.4zm-2.8 10.8c1.75 0 3.05-.55 3.05-2.1 0-1.75-2.85-.85-4.45-1.05a2.43 2.43 0 0 0 -.85 1.7c-.02 1.23.98 1.45 2.25 1.45zm-1.65-8.85c0 1.3.35 2.3 1.75 2.2s1.7-.8 1.75-2.2-.3-2.15-1.7-2.15-1.8.85-1.8 2.15" fill="#333"/><path d="m691.22 270.37c-1.75 1.05-4.9 1.4-4.9-1.6v-5.4c-.4-.15-1.2.1-1.05-.6h2.5v5.9c-.15 1.85 2.1 1.6 3.45 1.25v-6.55l-1.25-.2v-.4h2.7v7.65c.4.15 1.2-.1 1.05.6h-2.4" fill="#333"/><path d="m700.32 265.12c.2-1.85-2.1-1.6-3.4-1.25v6.55l1.2.2v.4h-3.7c-.15-.65.65-.45 1-.6v-7.05c-.35-.15-1.15.05-1-.6h2.4v.65c1.1-.75 3.85-1.5 4.6.1 1.6-1.1 5.2-1.8 5.2 1.45v5.45c.4.15 1.2-.1 1.05.6h-3.67v-.4l1.25-.2v-5.3c.15-1.95-2.25-1.55-3.6-1.2.35 1.85 0 4.4.15 6.5l1.25.2v.4h-3.9v-.4l1.2-.2v-5.3" fill="#333"/><path d="m712.22 262.52c2.45 0 3.3 1.65 3.15 4.35h-5c-.4 3 1.9 4 4.75 3.15v.5a5.33 5.33 0 0 1 -2.65.7c-2.7 0-3.7-1.65-3.7-4.4s1.05-4.3 3.45-4.3zm1.65 3.65c.6-2.85-2.85-4.1-3.45-1.2a8.3 8.3 0 0 0 -.1 1.2z" fill="#333"/><path d="m722.22 265.12c.2-1.85-2.05-1.7-3.4-1.3v6.6l1.15.2v.4h-3.6c-.15-.65.65-.45 1-.6v-7.05c-.35-.15-1.15.05-1-.6h2.35l.1.65c1.55-1.15 4.9-1.45 4.9 1.55v5.45c.35.15 1.15-.05 1 .6h-3.6v-.4l1.1-.2z" fill="#333"/><path d="m727.67 269.12c0 1.25 1.2 1.3 2.2 1v.6c-1.35.8-3.65.75-3.65-1.45v-5.75h-1.05c-.1-.7.7-.5 1.05-.75l.9-1.9h.55v1.9h1.9v.75h-1.9z" fill="#333"/><path d="m735.52 259.72-1.8.2v10.35a32.79 32.79 0 0 0 5-.2l.55-2.45h.55l-.15 3.4h-9.25v-.45l1.55-.25v-10.4l-1.55-.2v-.5h5v.5" fill="#333"/><path d="m743.27 261c-1.15 0-1.25-1.95 0-1.9.65 0 .9.35 1 .95a1 1 0 0 1 -1 .95zm.9 9.4 1.4.2v.4h-4.25v-.4l1.4-.2v-7.05l-1.2-.2v-.4h2.65z" fill="#333"/><path d="m748 264.52c.35 2.4 4.3 1.15 4.3 4.2 0 2.8-3.45 2.85-5.6 2v-2c1 0 .45 1.45 1.55 1.55 1.75.95 3.85-1.3 2-2.5-1.35-.9-3.6-.65-3.6-2.95 0-2.5 2.9-2.6 5-2.05v1.8c-.95.05-.4-1.25-1.4-1.25-1-.35-2.5-.05-2.3 1.15" fill="#333"/><path d="m755.62 269.12c0 1.25 1.2 1.3 2.2 1v.6c-1.35.8-3.65.75-3.65-1.45v-5.75h-1c-.1-.7.7-.5 1-.75l.9-1.9h.55v1.9h1.9v.75h-1.9z" fill="#333"/><path d="m763.32 259.27c-2.6 1.4-3.1 4.75-2.9 8.9.15 2.8 1.05 4.85 2.9 5.95v.75c-5.05-1.4-6.25-11.5-2.05-15a10.4 10.4 0 0 1 2.05-1.35z" fill="#333"/><path d="m764.47 258.52c5 1.4 6.25 11.55 2 15a10.13 10.13 0 0 1 -2 1.4v-.75c2.2-1.25 2.9-3.9 2.9-7.45s-.65-6.15-2.9-7.4v-.75" fill="#333"/><path d="m.5 354.82h935.9v193.7h-935.9z" fill="url(#a)"/></svg>
