<svg viewBox="0 0 1284.85 602.6" xmlns="http://www.w3.org/2000/svg" xmlns:xlink="http://www.w3.org/1999/xlink"><linearGradient id="a" gradientTransform="matrix(1 0 0 -1 1730.12 3303.05)" gradientUnits="userSpaceOnUse" x1="-1338.8" x2="-1338.8" y1="2894.65" y2="2700.95"><stop offset="0" stop-color="#fff" stop-opacity="0"/><stop offset=".93" stop-color="#fff"/></linearGradient><path d="m326.32.5h120v100h-120z" fill="#fff" stroke="#333"/><path d="m349.47 37.27v-.45l8.35-4.1v.9l-7.1 3.4 7.1 3.45v.9" fill="#333"/><path d="m359.62 37.27v-.45l8.35-4.1v.9l-7.1 3.4 7.1 3.45v.9" fill="#333"/><path d="m371.12 38.82c0 3.2 2.6 4 5.2 3.15.05 1.25-1.5 1.25-2.75 1.25-2.8 0-4-1.6-4-4.4 0-3.8 3.1-4.9 6.55-4v2.3h-.5c-.25-.75-.2-1.55-1.15-1.75-2.35-.5-3.35 1.05-3.35 3.45" fill="#333"/><path d="m380.07 42.42 1.4.2v.38h-4.3v-.4l1.4-.2v-11.28l-1.4-.2v-.4h2.9z" fill="#333"/><path d="m383.42 34.87c2.05-.5 5.1-.7 5.1 2v5.6c.4.15 1.2-.1 1.05.6h-2.25l-.2-.85c-1.15 1.5-5.15 1.5-4.65-1.45-.1-2.5 2.25-2.5 4.6-2.55.2-1.8-.25-3.5-2.1-2.8a6.89 6.89 0 0 0 -.8.3c-.2.35 0 1.15-.75 1zm.5 5.8c0 2 2.05 1.65 3.15 1.1v-3c-1.7 0-3.15 0-3.15 1.85" fill="#333"/><path d="m391.82 36.52c.35 2.4 4.3 1.15 4.3 4.2 0 2.8-3.45 2.85-5.6 2.05v-2c1 0 .45 1.45 1.55 1.55 1.75 1 3.85-1.3 2.05-2.5-1.35-.9-3.6-.65-3.6-3 0-2.5 2.9-2.6 5-2v1.8c-.95.05-.4-1.25-1.4-1.25-1.05-.35-2.5 0-2.3 1.15" fill="#333"/><path d="m398.82 36.52c.35 2.4 4.3 1.15 4.3 4.2 0 2.8-3.45 2.85-5.6 2.05v-2c1 0 .45 1.45 1.55 1.55 1.75 1 3.85-1.3 2.05-2.5-1.35-.9-3.6-.65-3.6-3 0-2.5 2.9-2.6 5-2v1.8c-.95.05-.4-1.25-1.4-1.25-1.05-.35-2.5 0-2.3 1.15" fill="#333"/><path d="m404.67 41.37v-.9l7.1-3.45-7.1-3.4v-.9l8.4 4.1v.45" fill="#333"/><path d="m414.82 41.37v-.9l7.1-3.45-7.1-3.4v-.9l8.4 4.1v.45" fill="#333"/><path d="m359.8 61.22c0 4-4.75 4.1-7.7 3v-2.7h.6c.05 1.75 1.1 2.6 3 2.6 2.5 0 3.45-2.9 1.65-4.1-2-1.2-5.25-1-5.25-4.25s4.3-3.3 7.1-2.65v2.45h-.6l-.3-1.45c-1.55-1.35-6.05-.35-4.45 2.1 1.4 2.15 5.95 1.2 5.95 5" fill="#333"/><path d="m367.1 64c-1.75 1-4.9 1.4-4.9-1.6v-5.4c-.4-.15-1.2.1-1.05-.6h2.5v5.9c-.15 1.85 2.1 1.6 3.45 1.25v-6.55l-1.25-.2v-.4h2.7v7.6c.4.15 1.2-.1 1.05.6h-2.4" fill="#333"/><path d="m377 57a3.05 3.05 0 0 1 -2.7 4.85 10.11 10.11 0 0 1 -1.35-.15l-.55 1.15c1.45 1.1 6.5-.7 6.2 2.6-.2 2.25-1.9 2.85-4.4 3-3.2.25-4.65-2.6-2-4a1.61 1.61 0 0 1 -1.2-1.45l1.4-1.55a2.54 2.54 0 0 1 -1.4-2.45c-.1-2.55 2.65-3.25 5-2.6l1.9-1 .35.4zm-2.8 10.8c1.75 0 3.05-.55 3.05-2.1 0-1.75-2.85-.85-4.45-1a2.43 2.43 0 0 0 -.85 1.7c-.05 1.22.9 1.42 2.2 1.42zm-1.7-8.8c.05 1.3.35 2.3 1.75 2.2s1.7-.8 1.75-2.2-.3-2.15-1.7-2.15-1.8.85-1.8 2.15" fill="#333"/><path d="m386 57a3.05 3.05 0 0 1 -2.7 4.85 10.11 10.11 0 0 1 -1.35-.15l-.55 1.15c1.45 1.1 6.5-.7 6.2 2.6-.2 2.25-1.9 2.85-4.4 3-3.2.25-4.65-2.6-2-4a1.61 1.61 0 0 1 -1.2-1.45l1.4-1.55a2.54 2.54 0 0 1 -1.4-2.45c-.1-2.55 2.65-3.25 5-2.6l1.9-1 .35.4zm-2.8 10.8c1.75 0 3.05-.55 3.05-2.1 0-1.75-2.85-.85-4.45-1a2.43 2.43 0 0 0 -.85 1.7c-.05 1.22.9 1.42 2.2 1.42zm-1.7-8.8c.05 1.3.35 2.3 1.75 2.2s1.7-.8 1.75-2.2-.3-2.15-1.7-2.15-1.8.85-1.8 2.15" fill="#333"/><path d="m392.1 56.12c2.45 0 3.3 1.65 3.15 4.35h-5.05c-.4 3 1.9 4 4.75 3.15v.5a5.33 5.33 0 0 1 -2.65.7c-2.7 0-3.7-1.65-3.7-4.4s1.1-4.3 3.5-4.3zm1.65 3.65c.6-2.85-2.85-4.1-3.45-1.2a8.3 8.3 0 0 0 -.1 1.2z" fill="#333"/><path d="m397.9 58.12c.35 2.4 4.3 1.15 4.3 4.2 0 2.8-3.45 2.85-5.6 2.05v-2c1 0 .45 1.45 1.55 1.55 1.75 1 3.85-1.3 2.05-2.5-1.35-.9-3.6-.65-3.6-3 0-2.5 2.9-2.6 5-2v1.8c-1 .05-.4-1.25-1.4-1.25-1.05-.35-2.5 0-2.3 1.15" fill="#333"/><path d="m405.55 62.72c-.05 1.25 1.2 1.3 2.2 1v.6c-1.35.8-3.65.75-3.65-1.45v-5.75h-1.05c-.1-.7.7-.5 1.05-.75l.9-1.9h.55v1.9h1.9v.75h-1.9z" fill="#333"/><path d="m412.05 56.12c2.45 0 3.3 1.65 3.15 4.35h-5.05c-.4 3 1.9 4 4.75 3.15v.5a5.33 5.33 0 0 1 -2.65.7c-2.7 0-3.7-1.65-3.7-4.4s1.1-4.3 3.5-4.3zm1.65 3.65c.6-2.85-2.85-4.1-3.45-1.2a8.3 8.3 0 0 0 -.1 1.2z" fill="#333"/><path d="m418.65 57.37a6.08 6.08 0 0 1 3-1.25v2.25c-.95.05-.4-1.5-2-.85l-1 .3v6.18l1.45.2v.4h-4v-.4l1.05-.2v-7c-.4-.15-1.2.1-1.05-.6h2.4" fill="#333"/><path d="m386.32 101.5 5 500.1" fill="none"/><path d="m386.32 101.5.05 5m.05 5 .1 10.1m.06 5 .1 10.1m.05 5.06.1 10.1m.06 5.05.1 10.1m.05 5.06.1 10.1m.06 5.05.1 10.1m.05 5.05.1 10.1m.06 5 .1 10.1m.06 5.06.1 10.1m.05 5 .1 10.1m.05 5.06.1 10.1m.05 5.06.1 10.1m0 5.05.1 10.1m.05 5.06.1 10.1m.05 5.05.1 10.1m.06 5.06.1 10.1m.05 5.05.1 10.1m0 5.05.1 10.1m.05 5.05.1 10.1m.05 5.06.1 10.1m.05 5.05.1 10.1m.05 5.07.1 10.1m.06 5.05.1 10.1m.05 5 .1 10.1m0 5.06.1 10.1m.05 5 .1 10.1m0 5.06.1 10.1m0 5 .1 10.1m0 5 .1 10.1m.06 5.05.1 10.1m.05 5.06.1 10.1m.05 5 .1 10.1m0 5.07.05 5.05" fill="none" stroke="#333"/><path d="m386.82 101.5h-1v-.5h1zm5 500.6h-1v-.5h1z" fill="#333"/><path d="m84 101.5v493.78" fill="none"/><path d="m84 101.5v5m0 5v10m0 5v10m0 5v10m0 5v10m0 5v10m0 5v10m0 5v10m0 5v10m0 5v10m0 5v10m0 5v10m0 5v10m0 5v10m0 5v10m0 5v10m0 5v10m0 5v10m0 5v10m0 5v10m0 5v10m0 5v10m0 5v10m0 5v10m0 5v10m0 5v10m0 5v10m0 5v10m0 5v10m0 5v10m0 5v10m0 5v10m0 5v10m0 5v5" fill="none" stroke="#333"/><path d="m84.47 101.51h-1v-.51h1zm0 494.27h-1v-.5h1z" fill="#333"/><path d="m64 80.88h40v514.4h-40z" fill="#fff" stroke="#333"/><path d="m6.32.5h155.3v100h-155.3z" fill="#fff" stroke="#333"/><path d="m22.9 53.67a1 1 0 0 1 1.05 1 1 1 0 0 1 -1.05 1.05 1 1 0 0 1 -1.1-1.05 1 1 0 0 1 1.1-1zm0-6.6a1 1 0 0 1 1.05 1 1 1 0 0 1 -1.05 1.1 1 1 0 0 1 -1.1-1.1 1 1 0 0 1 1.1-1" fill="#333"/><path d="m34.3 52.12c0 4-4.75 4.1-7.7 3v-2.7h.6c.05 1.75 1.1 2.6 3 2.6 2.5 0 3.45-2.9 1.65-4.1-2-1.2-5.25-1-5.25-4.25s4.3-3.3 7.1-2.65v2.45h-.6l-.3-1.47c-1.55-1.35-6-.35-4.45 2.1 1.4 2.15 5.95 1.2 5.95 5" fill="#333"/><path d="m41.6 54.87c-1.75 1.05-4.9 1.4-4.9-1.6v-5.4c-.4-.15-1.2.1-1.05-.6h2.5v5.9c-.15 1.85 2.1 1.6 3.45 1.25v-6.55l-1.25-.2v-.4h2.7v7.65c.4.15 1.2-.1 1.05.6h-2.4" fill="#333"/><path d="m51.45 47.92a3.05 3.05 0 0 1 -2.7 4.85 10.11 10.11 0 0 1 -1.35-.15l-.55 1.15c1.45 1.1 6.5-.7 6.2 2.6-.2 2.25-1.9 2.85-4.4 3.05-3.2.25-4.65-2.6-2-4a1.61 1.61 0 0 1 -1.2-1.42l1.4-1.55a2.54 2.54 0 0 1 -1.4-2.55c-.1-2.55 2.65-3.25 5-2.6l1.9-1 .35.4zm-2.8 10.8c1.75 0 3.05-.55 3.05-2.1 0-1.75-2.85-.85-4.45-1a2.43 2.43 0 0 0 -.85 1.7c0 1.2.95 1.4 2.25 1.4zm-1.65-8.85c0 1.3.35 2.3 1.75 2.2s1.7-.8 1.75-2.2-.3-2.15-1.7-2.15-1.8.85-1.8 2.15" fill="#333"/><path d="m60.45 47.92a3.05 3.05 0 0 1 -2.7 4.85 10.11 10.11 0 0 1 -1.35-.15l-.55 1.15c1.45 1.1 6.5-.7 6.2 2.6-.2 2.25-1.9 2.85-4.4 3.05-3.2.25-4.65-2.6-2-4a1.61 1.61 0 0 1 -1.2-1.42l1.4-1.55a2.54 2.54 0 0 1 -1.4-2.55c-.1-2.55 2.65-3.25 5-2.6l1.9-1 .35.4zm-2.8 10.8c1.75 0 3.05-.55 3.05-2.1 0-1.75-2.85-.85-4.45-1a2.43 2.43 0 0 0 -.85 1.7c0 1.2.95 1.4 2.25 1.4zm-1.65-8.85c0 1.3.35 2.3 1.75 2.2s1.7-.8 1.75-2.2-.3-2.15-1.7-2.15-1.8.85-1.8 2.15" fill="#333"/><path d="m66.6 47c2.45 0 3.3 1.65 3.15 4.35h-5c-.4 3 1.9 4 4.75 3.15v.5a5.33 5.33 0 0 1 -2.65.7c-2.7 0-3.7-1.65-3.7-4.4s1.05-4.3 3.45-4.3zm1.65 3.65c.6-2.85-2.85-4.1-3.45-1.2a8.3 8.3 0 0 0 -.1 1.2z" fill="#333"/><path d="m72.4 49c.35 2.4 4.3 1.15 4.3 4.2 0 2.8-3.45 2.85-5.6 2.05v-2c1 0 .45 1.45 1.55 1.55 1.75 1 3.85-1.3 2-2.5-1.35-.9-3.6-.65-3.6-3 0-2.5 2.9-2.6 5-2v1.8c-.95.05-.4-1.25-1.4-1.25-1-.35-2.5 0-2.3 1.15" fill="#333"/><path d="m80.05 53.62c0 1.25 1.2 1.3 2.2 1v.6c-1.35.8-3.65.75-3.65-1.45v-5.77h-1c-.1-.7.7-.5 1-.75l.9-1.9h.55v1.9h1.95v.75h-1.9v5.6" fill="#333"/><path d="m84.7 45.52c-1.15 0-1.25-2 0-1.9.65 0 .9.35 1 1a1 1 0 0 1 -1 .9zm.9 9.4 1.4.2v.4h-4.25v-.4l1.4-.2v-7.05l-1.2-.2v-.4h2.65z" fill="#333"/><path d="m91.85 47c2.6 0 3.8 1.6 3.8 4.35s-1.2 4.35-3.85 4.35-3.75-1.7-3.75-4.35 1.2-4.35 3.8-4.35zm0 8c2 0 2.3-1.75 2.3-3.65s-.35-3.65-2.3-3.65-2.2 1.7-2.2 3.65.25 3.65 2.15 3.65" fill="#333"/><path d="m102.6 49.62c.2-1.85-2-1.7-3.4-1.3v6.6l1.15.2v.4h-3.6c-.15-.65.65-.45 1-.6v-7.05c-.35-.15-1.15.05-1-.6h2.35l.1.65c1.55-1.15 4.9-1.45 4.9 1.55v5.45c.35.15 1.15-.05 1 .6h-3.6v-.4l1.1-.2z" fill="#333"/><path d="m110.9 44.22-1.8.2v10.35a32.79 32.79 0 0 0 5.05-.2l.55-2.45h.55l-.15 3.4h-9.25v-.45l1.55-.25v-10.4l-1.55-.2v-.5h5.05z" fill="#333"/><path d="m120.8 47c2.6 0 3.8 1.6 3.8 4.35s-1.2 4.35-3.85 4.35-3.75-1.7-3.75-4.33 1.2-4.37 3.8-4.37zm0 8c2 0 2.3-1.75 2.3-3.65s-.35-3.65-2.3-3.65-2.2 1.7-2.2 3.65.3 3.6 2.2 3.65" fill="#333"/><path d="m132.35 47.92a3.05 3.05 0 0 1 -2.7 4.85 10.11 10.11 0 0 1 -1.35-.15l-.55 1.15c1.45 1.1 6.5-.7 6.2 2.6-.2 2.25-1.9 2.85-4.4 3.05-3.2.25-4.65-2.6-2-4a1.61 1.61 0 0 1 -1.2-1.45l1.4-1.55a2.54 2.54 0 0 1 -1.4-2.55c-.1-2.55 2.65-3.25 5-2.6l1.9-1 .35.4zm-2.8 10.8c1.75 0 3-.55 3-2.1 0-1.75-2.85-.85-4.45-1a2.43 2.43 0 0 0 -.85 1.7c.05 1.2 1 1.4 2.3 1.4zm-1.65-8.85c0 1.3.35 2.3 1.75 2.2s1.7-.8 1.75-2.2-.3-2.15-1.7-2.15-1.8.85-1.8 2.15" fill="#333"/><path d="m136.65 45.52c-1.15 0-1.25-2 0-1.9.65 0 .9.35 1 1a1 1 0 0 1 -1 .9zm.9 9.4 1.4.2v.4h-4.25v-.4l1.4-.2v-7.05l-1.2-.2v-.4h2.65z" fill="#333"/><path d="m141.55 51.32c0 3.2 2.6 4 5.2 3.15.05 1.25-1.5 1.25-2.75 1.25-2.8 0-4-1.6-4-4.4 0-3.8 3.1-4.9 6.55-4v2.3h-.5c-.25-.75-.2-1.55-1.15-1.75-2.35-.5-3.35 1.05-3.35 3.45" fill="#333"/><path d="m366.32 140.5h40v80h-40z" fill="#fff" stroke="#333"/><path d="m696 185.48v415.08" fill="none"/><path d="m696 185.48v5m0 4.95v9.88m0 4.94v9.88m0 4.94v9.9m0 4.93v9.88m0 4.94v9.87m0 4.94v9.9m0 4.94v9.88m0 4.94v9.81m0 5v9.87m0 4.94v9.9m0 4.93v9.9m0 4.93v9.88m0 4.94v9.88m0 4.94v9.89m0 4.93v9.88m0 4.95v9.88m0 4.95v9.88m0 4.94v9.88m0 4.94v9.9m0 4.93v9.88m0 4.94v9.88m0 4.95v9.88m0 4.94v9.88m0 4.94v9.9m0 4.93v9.82m0 4.94v9.87m0 4.94v9.9m0 4.94v4.94" fill="none" stroke="#333"/><path d="m696.48 185.51h-1v-.51h1z" fill="#333"/><path d="m696 600.55v.5" fill="none" stroke="#333"/><path d="m677.08 174.68h40v25h-40z" fill="#fff" stroke="#333"/><path d="m605.78 144.88h180.4v39.6h-180.4z" fill="#fff" stroke="#333"/><path d="m619.41 167.44a1 1 0 0 1 1.05 1.05 1 1 0 0 1 -1.05 1 1 1 0 0 1 -1.1-1 1 1 0 0 1 1.1-1.05zm0-6.6a1 1 0 0 1 1.05 1 1 1 0 0 1 -1.05 1.1 1 1 0 0 1 -1.1-1.1 1 1 0 0 1 1.1-1" fill="#333"/><path d="m625.66 164v4.6l2 .25v.45h-5.05v-.45l1.4-.25v-10.4l-1.55-.2v-.5h8.85v2.85h-.55l-.3-1.9a36.51 36.51 0 0 0 -4.75-.15v4.9h3.45l.25-1.4h.55v3.65h-.55l-.25-1.45h-3.45" fill="#333"/><path d="m634.26 159.29c-1.15 0-1.25-1.95 0-1.9.65 0 .9.35 1 1a1 1 0 0 1 -1 .9zm.9 9.4 1.4.2v.4h-4.25v-.4l1.4-.2v-7.05l-1.2-.2v-.44h2.65v7.65" fill="#333"/><path d="m643.16 163.39c.2-1.85-2-1.7-3.4-1.3v6.6l1.15.2v.4h-3.6c-.15-.65.65-.45 1-.6v-7.05c-.35-.15-1.15.05-1-.6h2.35l.1.65c1.55-1.15 4.9-1.45 4.9 1.55v5.45c.35.15 1.15-.05 1 .6h-3.6v-.4l1.1-.2z" fill="#333"/><path d="m646.56 165.24c0-3.55 2.3-5.05 5.7-4.25v-3.6l-1.4-.2v-.4h2.85v11.9c.4.15 1.2-.1 1.05.6h-2.35l-.1-.6c-2.4 1.75-5.75.55-5.75-3.45zm3.85-3.7c-1.85.05-2.2 1.65-2.25 3.7 0 1.9.45 3.3 2.25 3.3a4.61 4.61 0 0 0 1.8-.35v-6.5c-.5-.05-1.2-.15-1.8-.15" fill="#333"/><path d="m658.66 163.89c2.4.15 3.8-.6 3.8-2.9s-1.4-2.85-3.8-2.7zm5.55-2.9c-.05 3-2.3 3.9-5.55 3.7v3.9l1.85.25v.45h-5v-.45l1.4-.25v-10.4l-1.55-.2v-.5c4.05 0 8.9-.7 8.8 3.5" fill="#333"/><path d="m669.11 160.79c2.45 0 3.3 1.65 3.15 4.35h-5c-.4 3 1.9 4 4.75 3.15v.5a5.33 5.33 0 0 1 -2.65.7c-2.7 0-3.7-1.65-3.7-4.4s1.05-4.3 3.45-4.3zm1.65 3.65c.6-2.85-2.85-4.1-3.45-1.2a8.3 8.3 0 0 0 -.1 1.2z" fill="#333"/><path d="m675.71 162a6.08 6.08 0 0 1 3-1.25v2.25c-1 .05-.4-1.5-2-.85l-1 .3v6.2l1.45.2v.4h-3.95v-.4l1-.2v-7.05c-.4-.15-1.2.1-1-.6h2.4" fill="#333"/><path d="m680.86 162.79c.35 2.4 4.3 1.15 4.3 4.2 0 2.8-3.45 2.85-5.6 2v-2c1 0 .45 1.45 1.55 1.55 1.75.95 3.85-1.3 2-2.5-1.35-.9-3.6-.65-3.6-3 0-2.5 2.9-2.6 5-2v1.8c-.95.05-.4-1.25-1.4-1.25-1-.35-2.5 0-2.3 1.15" fill="#333"/><path d="m690.31 160.79c2.6 0 3.8 1.6 3.8 4.35s-1.2 4.35-3.85 4.35-3.75-1.7-3.75-4.35 1.2-4.35 3.8-4.35zm0 8c2 0 2.3-1.75 2.3-3.65s-.35-3.65-2.3-3.65-2.2 1.7-2.2 3.65.3 3.6 2.2 3.65" fill="#333"/><path d="m701.06 163.39c.2-1.85-2-1.7-3.4-1.3v6.6l1.15.2v.4h-3.6c-.15-.65.65-.45 1-.6v-7.05c-.35-.15-1.15.05-1-.6h2.35l.1.65c1.55-1.15 4.9-1.45 4.9 1.55v5.45c.35.15 1.15-.05 1 .6h-3.56v-.4l1.1-.2v-5.3" fill="#333"/><path d="m712.71 165.89c0 4-4.75 4.1-7.7 3v-2.7h.6c0 1.75 1.1 2.6 3 2.6 2.5 0 3.45-2.9 1.65-4.1-2-1.2-5.25-1-5.25-4.25s4.3-3.3 7.1-2.65v2.45h-.6l-.3-1.45c-1.55-1.35-6.05-.35-4.45 2.1 1.4 2.15 6 1.2 6 5" fill="#333"/><path d="m720 168.64c-1.75 1.05-4.9 1.4-4.9-1.6v-5.4c-.4-.15-1.2.1-1.05-.6h2.5v5.9c-.15 1.85 2.1 1.6 3.45 1.25v-6.55l-1.25-.2v-.44h2.7v7.65c.4.15 1.2-.1 1 .6h-2.4" fill="#333"/><path d="m729.86 161.69a3.05 3.05 0 0 1 -2.7 4.85 10.11 10.11 0 0 1 -1.35-.15l-.55 1.15c1.45 1.1 6.5-.7 6.2 2.6-.2 2.25-1.9 2.85-4.4 3.05-3.2.25-4.65-2.6-2-4a1.61 1.61 0 0 1 -1.2-1.45l1.4-1.55a2.54 2.54 0 0 1 -1.4-2.55c-.1-2.55 2.65-3.25 5-2.6l1.9-1 .35.4zm-2.8 10.8c1.75 0 3.05-.55 3.05-2.1 0-1.75-2.85-.85-4.45-1a2.43 2.43 0 0 0 -.85 1.7c0 1.2.95 1.4 2.25 1.4zm-1.65-8.85c.05 1.3.35 2.3 1.75 2.2s1.7-.8 1.75-2.2-.3-2.15-1.7-2.15-1.8.85-1.8 2.15" fill="#333"/><path d="m738.86 161.69a3.05 3.05 0 0 1 -2.7 4.85 10.11 10.11 0 0 1 -1.35-.15l-.55 1.15c1.45 1.1 6.5-.7 6.2 2.6-.2 2.25-1.9 2.85-4.4 3.05-3.2.25-4.65-2.6-2-4a1.61 1.61 0 0 1 -1.2-1.45l1.4-1.55a2.54 2.54 0 0 1 -1.4-2.55c-.1-2.55 2.65-3.25 5-2.6l1.9-1 .35.4zm-2.8 10.8c1.75 0 3.05-.55 3.05-2.1 0-1.75-2.85-.85-4.45-1a2.43 2.43 0 0 0 -.85 1.7c0 1.2.95 1.4 2.25 1.4zm-1.65-8.85c.05 1.3.35 2.3 1.75 2.2s1.7-.8 1.75-2.2-.3-2.15-1.7-2.15-1.8.85-1.8 2.15" fill="#333"/><path d="m745 160.79c2.45 0 3.3 1.65 3.15 4.35h-5c-.4 3 1.9 4 4.75 3.15v.5a5.33 5.33 0 0 1 -2.65.7c-2.7 0-3.7-1.65-3.7-4.4s1.06-4.3 3.45-4.3zm1.65 3.65c.6-2.85-2.85-4.1-3.45-1.2a8.3 8.3 0 0 0 -.1 1.2z" fill="#333"/><path d="m750.81 162.79c.35 2.4 4.3 1.15 4.3 4.2 0 2.8-3.45 2.85-5.6 2v-2c1 0 .45 1.45 1.55 1.55 1.75.95 3.85-1.3 2.05-2.5-1.35-.9-3.6-.65-3.6-3 0-2.5 2.9-2.6 5-2v1.8c-1 .05-.4-1.25-1.4-1.25-1.05-.35-2.5 0-2.3 1.15" fill="#333"/><path d="m758.46 167.39c-.05 1.25 1.2 1.3 2.2 1v.6c-1.35.8-3.65.75-3.65-1.45v-5.75h-1c-.1-.7.7-.5 1-.75l.9-1.9h.55v1.86h1.9v.75h-1.9v5.6" fill="#333"/><path d="m765 160.79c2.45 0 3.3 1.65 3.15 4.35h-5.05c-.4 3 1.9 4 4.75 3.15v.5a5.33 5.33 0 0 1 -2.65.7c-2.7 0-3.7-1.65-3.7-4.4s1.06-4.3 3.5-4.3zm1.65 3.65c.6-2.85-2.85-4.1-3.45-1.2a8.3 8.3 0 0 0 -.1 1.2z" fill="#333"/><path d="m771.56 162a6.08 6.08 0 0 1 3-1.25v2.25c-.95.05-.4-1.5-2-.85l-1 .3v6.2l1.45.2v.4h-4v-.4l1.05-.2v-7.05c-.4-.15-1.2.1-1.05-.6h2.4" fill="#333"/><path d="m676.08 200.2h-134a.39.39 0 0 0 -.38.38.39.39 0 0 1 -.38.38h-118.12" fill="none"/><path d="m676.08 200.2h-5m-5 0h-9.93m-5 0h-9.93m-5 0h-9.93m-5 0h-9.92m-5 0h-9.92m-5 0h-9.93m-5 0h-9.92m-5 0h-9.6m-5 0h-5l-.27.1-.12.28-.1.27-.28.1h-4.92m-4.92 0h-9.85m-4.9 0h-9.85m-4.79.05h-9.9m-4.92 0h-9.84m-4.92 0h-9.85m-4.92 0h-9.84m-4.93 0h-9.88m-4.92 0h-4.92" fill="none" stroke="#333"/><path d="m676.58 200.23h3v.47h-3.5v-1h.5zm-253.88 5.37-14.26-4.6 14.26-4.63z" fill="#333"/><path d="m423.2 206.28-16.38-5.28 16.38-5.32zm-13.15-5.28 12.15 3.95v-7.95z" fill="#333"/><path d="m105 139.61h129.8a.38.38 0 0 1 .37.37.38.38 0 0 0 .38.37h113.9m-244.45-.74h-.5" fill="none" stroke="#333"/><path d="m364.2 140.35-14.27 4.65v-9.26z" fill="#333"/><path d="m365.82 140.35-16.4 5.33v-10.68zm-15.4 4 12.16-4-12.15-3.94z" fill="#333"/><path d="m128.93 124.21c0 3.2 2.6 4 5.2 3.15.05 1.25-1.5 1.25-2.75 1.25-2.8 0-4-1.6-4-4.4 0-3.8 3.1-4.9 6.55-4v2.3h-.5c-.25-.75-.2-1.55-1.15-1.75-2.35-.5-3.35 1-3.35 3.45" fill="#333"/><path d="m137.48 121.16a6.08 6.08 0 0 1 3-1.25v2.25c-.95 0-.4-1.5-2-.85l-1 .3v6.2l1.45.2v.4h-4v-.41l1.05-.2v-7c-.4-.15-1.2.1-1.05-.6h2.4" fill="#333"/><path d="m144.78 119.91c2.45 0 3.3 1.65 3.15 4.35h-5.05c-.4 3 1.9 4 4.75 3.15v.5a5.33 5.33 0 0 1 -2.65.7c-2.7 0-3.7-1.65-3.7-4.4s1.1-4.3 3.5-4.3zm1.65 3.65c.6-2.85-2.85-4.1-3.45-1.2a8.3 8.3 0 0 0 -.1 1.2z" fill="#333"/><path d="m150.13 120.26c2.05-.5 5.1-.7 5.1 1.95v5.6c.4.15 1.2-.1 1.05.6h-2.28l-.2-.85c-1.15 1.5-5.15 1.5-4.65-1.45-.1-2.5 2.25-2.5 4.6-2.55.2-1.8-.25-3.5-2.1-2.8a6.89 6.89 0 0 0 -.8.3c-.2.35 0 1.15-.75 1zm.5 5.8c0 2.05 2.05 1.65 3.15 1.1v-3c-1.7.05-3.15 0-3.15 1.85" fill="#333"/><path d="m159.18 126.51c-.05 1.25 1.2 1.3 2.2 1v.6c-1.35.8-3.65.75-3.65-1.45v-5.75h-1c-.1-.7.7-.5 1-.75l.9-1.9h.55v1.9h1.9v.75h-1.9z" fill="#333"/><path d="m165.68 119.91c2.45 0 3.3 1.65 3.15 4.35h-5.05c-.4 3 1.9 4 4.75 3.15v.5a5.33 5.33 0 0 1 -2.65.7c-2.7 0-3.7-1.65-3.7-4.4s1.1-4.3 3.5-4.3zm1.65 3.65c.6-2.85-2.85-4.1-3.45-1.2a8.3 8.3 0 0 0 -.1 1.2z" fill="#333"/><path d="m178.33 125c0 4-4.75 4.1-7.7 2.95v-2.7h.6c.05 1.75 1.1 2.6 3 2.6 2.5 0 3.45-2.9 1.65-4.1s-5.25-1.05-5.25-4.25c0-3.35 4.3-3.3 7.1-2.65v2.45h-.6l-.3-1.45c-1.55-1.35-6.05-.35-4.45 2.1 1.4 2.15 6 1.2 6 5.05" fill="#333"/><path d="m185.63 127.76c-1.75 1-4.9 1.4-4.9-1.6v-5.4c-.4-.15-1.2.1-1-.6h2.5v5.9c-.15 1.85 2.1 1.6 3.45 1.25v-6.55l-1.25-.2v-.4h2.7v7.65c.4.15 1.2-.1 1 .6h-2.4" fill="#333"/><path d="m195.48 120.81a3.05 3.05 0 0 1 -2.7 4.85 10.11 10.11 0 0 1 -1.35-.15l-.55 1.15c1.45 1.1 6.5-.7 6.2 2.6-.2 2.25-1.9 2.85-4.4 3.05-3.2.25-4.65-2.6-2-4a1.61 1.61 0 0 1 -1.2-1.45l1.4-1.55a2.54 2.54 0 0 1 -1.4-2.55c-.1-2.55 2.65-3.25 5-2.6l1.9-1 .35.4zm-2.8 10.8c1.75 0 3-.55 3-2.1 0-1.75-2.85-.85-4.45-1a2.43 2.43 0 0 0 -.85 1.7c.05 1.2 1 1.4 2.3 1.4zm-1.68-8.85c.05 1.3.35 2.3 1.75 2.2s1.7-.8 1.75-2.2-.3-2.15-1.7-2.15-1.8.85-1.8 2.15" fill="#333"/><path d="m204.48 120.81a3.05 3.05 0 0 1 -2.7 4.85 10.11 10.11 0 0 1 -1.35-.15l-.55 1.15c1.45 1.1 6.5-.7 6.2 2.6-.2 2.25-1.9 2.85-4.4 3.05-3.2.25-4.65-2.6-2-4a1.61 1.61 0 0 1 -1.2-1.45l1.4-1.55a2.54 2.54 0 0 1 -1.4-2.55c-.1-2.55 2.65-3.25 5-2.6l1.9-1 .35.4zm-2.8 10.8c1.75 0 3-.55 3-2.1 0-1.75-2.85-.85-4.45-1a2.43 2.43 0 0 0 -.85 1.7c.05 1.2 1 1.4 2.3 1.4zm-1.68-8.85c.05 1.3.35 2.3 1.75 2.2s1.7-.8 1.75-2.2-.3-2.15-1.7-2.15-1.8.85-1.8 2.15" fill="#333"/><path d="m210.63 119.91c2.45 0 3.3 1.65 3.15 4.35h-5.05c-.4 3 1.9 4 4.75 3.15v.5a5.33 5.33 0 0 1 -2.65.7c-2.7 0-3.7-1.65-3.7-4.4s1.1-4.3 3.5-4.3zm1.65 3.65c.6-2.85-2.85-4.1-3.45-1.2a8.3 8.3 0 0 0 -.1 1.2z" fill="#333"/><path d="m216.43 121.91c.35 2.4 4.3 1.15 4.3 4.2 0 2.8-3.45 2.85-5.6 2v-2c1 0 .45 1.45 1.55 1.55 1.75 1 3.85-1.3 2-2.5-1.35-.9-3.6-.65-3.6-2.95 0-2.5 2.9-2.6 5-2.05v1.84c-.95 0-.4-1.25-1.4-1.25-1-.35-2.5-.05-2.3 1.15" fill="#333"/><path d="m224.08 126.51c-.05 1.25 1.2 1.3 2.2 1v.6c-1.35.8-3.65.75-3.65-1.45v-5.75h-1c-.1-.7.7-.5 1-.75l.9-1.9h.55v1.9h1.92v.75h-1.9v5.6" fill="#333"/><path d="m230.58 119.91c2.45 0 3.3 1.65 3.15 4.35h-5c-.4 3 1.9 4 4.75 3.15v.5a5.33 5.33 0 0 1 -2.65.7c-2.7 0-3.7-1.65-3.7-4.4s1.05-4.3 3.45-4.3zm1.65 3.65c.6-2.85-2.85-4.1-3.45-1.2a8.3 8.3 0 0 0 -.1 1.2z" fill="#333"/><path d="m237.18 121.16a6.08 6.08 0 0 1 3-1.25v2.25c-1 0-.4-1.5-2-.85l-1 .3v6.2l1.45.2v.4h-3.95v-.41l1-.2v-7c-.4-.15-1.2.1-1-.6h2.4" fill="#333"/><path d="m245.68 116.66c-2.6 1.4-3.1 4.75-2.9 8.9.15 2.8 1.05 4.85 2.9 5.95v.75c-5.05-1.4-6.25-11.5-2.05-15a10.4 10.4 0 0 1 2.05-1.35z" fill="#333"/><path d="m250.73 116.61h1.75l-.55 4.25h-.65zm-3.4 0h1.75l-.55 4.25h-.65" fill="#333"/><path d="m258.68 116.61c-1.95-.75-1.75 1.6-1.7 3.55h2.2v.75h-2.18v6.8l1.75.3v.4h-4.45v-.41l1.25-.3v-6.8h-1.45v-.45l1.45-.35c-.3-3 1.15-5 4-4.2v1.8c-.75.1-.6-.7-.85-1.1" fill="#333"/><path d="m261.83 118.41c-1.15 0-1.25-2 0-1.9.65 0 .9.35 1 .95a1 1 0 0 1 -1 .95zm.9 9.4 1.4.2v.4h-4.25v-.41l1.4-.2v-7l-1.2-.2v-.4h2.65v7.65" fill="#333"/><path d="m270.73 122.51c.2-1.85-2.05-1.7-3.4-1.3v6.6l1.15.2v.4h-3.6c-.15-.65.65-.45 1-.6v-7c-.35-.15-1.15 0-1-.6h2.35l.1.65c1.55-1.15 4.9-1.45 4.9 1.55v5.45c.35.15 1.15 0 1 .6h-3.6v-.46l1.1-.2v-5.3" fill="#333"/><path d="m274.13 124.36c0-3.55 2.3-5 5.7-4.25l-.05-3.6-1.4-.2v-.4h2.85v11.9c.4.15 1.2-.1 1 .6h-2.35l-.1-.6c-2.3 1.75-5.65.55-5.65-3.45zm3.85-3.7c-1.85 0-2.2 1.65-2.25 3.7s.45 3.3 2.25 3.3a4.61 4.61 0 0 0 1.8-.35v-6.5c-.5 0-1.2-.15-1.8-.15" fill="#333"/><path d="m290.78 124.16c.15 3.35-2.2 5.1-5.55 4.25v3.2l1.45.2v.45h-4v-.45l1.05-.2v-10.85c-.35-.15-1.1 0-.95-.6h2.3l.05.45a3.77 3.77 0 0 1 2.25-.7c2.45.09 3.3 1.8 3.4 4.25zm-5.5 3.6c2.65.7 4.15-.7 3.9-3.6.35-2.65-1.65-4-3.9-3z" fill="#333"/><path d="m295.68 119.91c2.45 0 3.3 1.65 3.15 4.35h-5.05c-.4 3 1.9 4 4.75 3.15v.5a5.33 5.33 0 0 1 -2.65.7c-2.7 0-3.7-1.65-3.7-4.4s1.1-4.3 3.5-4.3zm1.65 3.65c.6-2.85-2.85-4.1-3.45-1.2a8.3 8.3 0 0 0 -.1 1.2z" fill="#333"/><path d="m302.28 121.16a6.08 6.08 0 0 1 3-1.25v2.25c-.95 0-.4-1.5-2-.85l-1 .3v6.2l1.45.2v.4h-4v-.41l1.05-.2v-7c-.4-.15-1.2.1-1.05-.6h2.4" fill="#333"/><path d="m307.43 121.91c.35 2.4 4.3 1.15 4.3 4.2 0 2.8-3.45 2.85-5.6 2v-2c1 0 .45 1.45 1.55 1.55 1.75 1 3.85-1.3 2.05-2.5-1.35-.9-3.6-.65-3.6-2.95 0-2.5 2.9-2.6 5-2.05v1.84c-.95 0-.4-1.25-1.4-1.25-1.05-.35-2.5-.05-2.3 1.15" fill="#333"/><path d="m316.88 119.91c2.6 0 3.8 1.6 3.8 4.35s-1.2 4.35-3.85 4.35-3.75-1.7-3.75-4.35 1.2-4.35 3.8-4.35zm-.05 8c1.95 0 2.3-1.75 2.3-3.65s-.35-3.65-2.3-3.65-2.2 1.7-2.2 3.65.3 3.6 2.2 3.65" fill="#333"/><path d="m327.63 122.51c.2-1.85-2.05-1.7-3.4-1.3v6.6l1.15.2v.4h-3.6c-.15-.65.65-.45 1-.6v-7c-.35-.15-1.15 0-1-.6h2.35l.1.65c1.55-1.15 4.9-1.45 4.9 1.55v5.45c.35.15 1.15 0 1 .6h-3.6v-.46l1.1-.2v-5.3" fill="#333"/><path d="m334.88 116.61h1.75l-.55 4.25h-.65zm-3.4 0h1.75l-.55 4.25h-.68" fill="#333"/><path d="m338.28 115.91c5.05 1.4 6.25 11.55 2 15a10.13 10.13 0 0 1 -2 1.4v-.75c2.2-1.25 2.9-3.9 2.9-7.45s-.65-6.15-2.9-7.4v-.75" fill="#333"/><path d="m365.32 221h-244.48" fill="none"/><path d="m365.32 221h-4.82m-4.82 0h-9.68m-4.8 0h-9.65m-4.82 0h-9.64m-4.84 0h-9.64m-4.82 0h-9.64m-4.82 0h-9.65m-4.83 0h-9.64m-4.82 0h-9.63m-4.76 0h-9.58m-4.76 0h-9.53m-4.76 0h-9.5m-4.77 0h-9.53m-4.76 0h-9.52m-4.77 0h-9.52m-4.76 0h-9.53m-4.76 0h-9.52m-4.76 0h-4.77" fill="none" stroke="#333"/><path d="m365.82 221h3v.5h-3.5v-1h.5z" fill="#333"/><path d="m106.09 221 14.26-4.64v9.27z" fill="#333" stroke="#333"/><path d="m203.27 203.3c.35 2.4 4.3 1.15 4.3 4.2 0 2.8-3.45 2.85-5.6 2.05v-2c1 0 .45 1.45 1.55 1.55 1.75 1 3.85-1.3 2-2.5-1.35-.9-3.6-.65-3.6-2.95 0-2.5 2.9-2.6 5-2.05v1.8c-.95 0-.4-1.25-1.4-1.25-1-.35-2.5-.05-2.3 1.15" fill="#333"/><path d="m214.42 209.15c-1.75 1-4.9 1.4-4.9-1.6v-5.4c-.4-.15-1.2.1-1.05-.6h2.53v5.9c-.15 1.85 2.1 1.6 3.45 1.25v-6.55l-1.25-.2v-.4h2.7v7.65c.4.15 1.2-.1 1 .6h-2.4" fill="#333"/><path d="m224.27 202.2a3.05 3.05 0 0 1 -2.7 4.85 10.11 10.11 0 0 1 -1.35-.15l-.55 1.15c1.45 1.1 6.5-.7 6.2 2.6-.2 2.25-1.9 2.85-4.4 3-3.2.25-4.65-2.6-2-4a1.61 1.61 0 0 1 -1.2-1.45l1.4-1.55a2.54 2.54 0 0 1 -1.4-2.55c-.1-2.55 2.65-3.25 5-2.6l1.9-1 .35.4zm-2.8 10.8c1.75 0 3.05-.55 3.05-2.1 0-1.75-2.85-.85-4.45-1.05a2.43 2.43 0 0 0 -.85 1.7c0 1.25.95 1.45 2.25 1.45zm-1.65-8.85c.05 1.3.35 2.3 1.75 2.2s1.7-.8 1.75-2.2-.3-2.15-1.7-2.15-1.8.85-1.8 2.15" fill="#333"/><path d="m233.27 202.2a3.05 3.05 0 0 1 -2.7 4.85 10.11 10.11 0 0 1 -1.35-.15l-.55 1.15c1.45 1.1 6.5-.7 6.2 2.6-.2 2.25-1.9 2.85-4.4 3-3.2.25-4.65-2.6-2-4a1.61 1.61 0 0 1 -1.2-1.45l1.4-1.55a2.54 2.54 0 0 1 -1.4-2.55c-.1-2.55 2.65-3.25 5-2.6l1.9-1 .35.4zm-2.8 10.8c1.75 0 3.05-.55 3.05-2.1 0-1.75-2.85-.85-4.45-1.05a2.43 2.43 0 0 0 -.85 1.7c0 1.25.95 1.45 2.25 1.45zm-1.65-8.85c.05 1.3.35 2.3 1.75 2.2s1.7-.8 1.75-2.2-.3-2.15-1.7-2.15-1.8.85-1.8 2.15" fill="#333"/><path d="m239.42 201.3c2.45 0 3.3 1.65 3.15 4.35h-5c-.4 3 1.9 4 4.75 3.15v.5a5.33 5.33 0 0 1 -2.65.7c-2.7 0-3.7-1.65-3.7-4.4s1.03-4.3 3.45-4.3zm1.65 3.65c.6-2.85-2.85-4.1-3.45-1.2a8.3 8.3 0 0 0 -.1 1.2z" fill="#333"/><path d="m245.22 203.3c.35 2.4 4.3 1.15 4.3 4.2 0 2.8-3.45 2.85-5.6 2.05v-2c1 0 .45 1.45 1.55 1.55 1.75 1 3.85-1.3 2.05-2.5-1.35-.9-3.6-.65-3.6-2.95 0-2.5 2.9-2.6 5-2.05v1.8c-.95 0-.4-1.25-1.4-1.25-1.05-.35-2.5-.05-2.3 1.15" fill="#333"/><path d="m252.87 207.9c-.05 1.25 1.2 1.3 2.2 1v.6c-1.35.8-3.65.75-3.65-1.45v-5.75h-1c-.1-.7.7-.5 1-.75l.9-1.9h.55v1.9h1.9v.75h-1.9z" fill="#333"/><path d="m259.37 201.3c2.45 0 3.3 1.65 3.15 4.35h-5c-.4 3 1.9 4 4.75 3.15v.5a5.33 5.33 0 0 1 -2.65.7c-2.7 0-3.7-1.65-3.7-4.4s1.08-4.3 3.45-4.3zm1.63 3.7c.6-2.85-2.85-4.1-3.45-1.2a8.3 8.3 0 0 0 -.1 1.2z" fill="#333"/><path d="m266 202.55a6.08 6.08 0 0 1 3-1.25v2.25c-1 0-.4-1.5-2-.85l-1 .3v6.2l1.45.2v.4h-3.95v-.4l1-.2v-7c-.4-.15-1.2.1-1-.6h2.4" fill="#333"/><path d="m407.32 164.68h181.57" fill="none" stroke="#333"/><path d="m407.32 165.18h-.5v-1h.5zm196.34-.5-14.27 4.65v-9.27z" fill="#333"/><path d="m605.28 164.68-16.4 5.32v-10.63zm-15.4 4 12.12-3.99-12.15-3.94z" fill="#333"/><path d="m427.47 148.19v4.6l1.95.25v.45h-5.05v-.49l1.4-.25v-10.4l-1.55-.2v-.5h8.85v2.85h-.55l-.3-1.9a36.51 36.51 0 0 0 -4.75-.15v4.9h3.45l.25-1.4h.55v3.65h-.55l-.25-1.45h-3.45" fill="#333"/><path d="m436.07 143.49c-1.15 0-1.25-2 0-1.9.65 0 .9.35 1 .95a1 1 0 0 1 -1 .95zm.9 9.4 1.4.2v.4h-4.25v-.4l1.4-.2v-7l-1.2-.2v-.4h2.68v7.65" fill="#333"/><path d="m445 147.59c.2-1.85-2.05-1.7-3.4-1.3v6.6l1.15.2v.4h-3.6c-.15-.65.65-.45 1-.6v-7c-.35-.15-1.15 0-1-.6h2.35l.1.65c1.55-1.15 4.9-1.45 4.9 1.55v5.45c.35.15 1.15 0 1 .6h-3.6v-.4l1.1-.2v-5.3" fill="#333"/><path d="m448.37 149.44c0-3.55 2.3-5.05 5.7-4.25l-.05-3.6-1.4-.2v-.39h2.85v11.9c.4.15 1.2-.1 1 .6h-2.35l-.1-.6c-2.3 1.74-5.65.54-5.65-3.46zm3.85-3.7c-1.85 0-2.2 1.65-2.25 3.7 0 1.9.45 3.3 2.25 3.3a4.61 4.61 0 0 0 1.8-.35v-6.5c-.5 0-1.2-.15-1.8-.15" fill="#333"/><path d="m460.47 148.09c2.4.15 3.8-.6 3.8-2.9s-1.4-2.85-3.8-2.7zm5.55-2.9c0 3-2.3 3.9-5.55 3.7v3.9l1.85.25v.45h-4.95v-.49l1.4-.25v-10.4l-1.55-.2v-.5c4 .05 8.9-.7 8.8 3.5" fill="#333"/><path d="m470.92 145c2.45 0 3.3 1.65 3.15 4.35h-5.07c-.4 3 1.9 4 4.75 3.15v.5a5.33 5.33 0 0 1 -2.65.7c-2.7 0-3.7-1.65-3.7-4.4s1.12-4.3 3.52-4.3zm1.65 3.65c.6-2.85-2.85-4.1-3.45-1.2a8.3 8.3 0 0 0 -.1 1.2z" fill="#333"/><path d="m477.52 146.24a6.08 6.08 0 0 1 3-1.25v2.25c-.95 0-.4-1.5-2-.85l-1 .3v6.2l1.45.2v.4h-4v-.4l1.05-.2v-7c-.4-.15-1.2.1-1.05-.6h2.4" fill="#333"/><path d="m482.67 147c.35 2.4 4.3 1.15 4.3 4.2 0 2.8-3.45 2.85-5.6 2.05v-2c1 0 .45 1.45 1.55 1.55 1.75 1 3.85-1.3 2.05-2.5-1.35-.9-3.6-.65-3.6-2.95 0-2.5 2.9-2.6 5-2.05v1.8c-.95 0-.4-1.25-1.4-1.25-1.05-.35-2.5-.05-2.3 1.15" fill="#333"/><path d="m492.12 145c2.6 0 3.8 1.6 3.8 4.35s-1.2 4.35-3.85 4.35-3.75-1.7-3.75-4.35 1.2-4.35 3.8-4.35zm-.05 8c1.95 0 2.3-1.75 2.3-3.65s-.35-3.65-2.3-3.65-2.2 1.7-2.2 3.65.3 3.6 2.2 3.65" fill="#333"/><path d="m502.87 147.59c.2-1.85-2.05-1.7-3.4-1.3v6.6l1.15.2v.4h-3.62c-.15-.65.65-.45 1-.6v-7c-.35-.15-1.15 0-1-.6h2.35l.1.65c1.55-1.15 4.9-1.45 4.9 1.55v5.45c.35.15 1.15 0 1 .6h-3.6v-.4l1.1-.2v-5.3" fill="#333"/><path d="m514.52 150.09c0 3.95-4.75 4.1-7.7 2.95v-2.7h.6c.05 1.75 1.1 2.6 3 2.6 2.5 0 3.45-2.9 1.65-4.1-2-1.2-5.25-1.05-5.25-4.25 0-3.35 4.3-3.3 7.1-2.65v2.45h-.6l-.3-1.45c-1.55-1.35-6-.35-4.45 2.1 1.4 2.15 5.95 1.2 5.95 5.05" fill="#333"/><path d="m521.82 152.84c-1.75 1-4.9 1.4-4.9-1.6v-5.4c-.4-.15-1.2.1-1-.6h2.5v5.9c-.15 1.85 2.1 1.6 3.45 1.25v-6.55l-1.25-.2v-.4h2.7v7.65c.4.15 1.2-.1 1.05.6h-2.4" fill="#333"/><path d="m531.67 145.89a3.05 3.05 0 0 1 -2.7 4.85 10.11 10.11 0 0 1 -1.35-.15l-.55 1.15c1.45 1.1 6.5-.7 6.2 2.6-.2 2.25-1.9 2.85-4.4 3-3.2.25-4.65-2.6-2-4a1.61 1.61 0 0 1 -1.2-1.45l1.4-1.55a2.54 2.54 0 0 1 -1.4-2.55c-.1-2.55 2.65-3.25 5-2.6l1.9-1 .35.4zm-2.8 10.8c1.75 0 3-.55 3-2.1 0-1.75-2.85-.85-4.45-1.05a2.43 2.43 0 0 0 -.85 1.7c.05 1.25 1 1.45 2.3 1.45zm-1.65-8.85c0 1.3.35 2.3 1.75 2.2s1.7-.8 1.75-2.2-.3-2.15-1.7-2.15-1.8.85-1.8 2.15" fill="#333"/><path d="m540.67 145.89a3.05 3.05 0 0 1 -2.7 4.85 10.11 10.11 0 0 1 -1.35-.15l-.55 1.15c1.45 1.1 6.5-.7 6.2 2.6-.2 2.25-1.9 2.85-4.4 3-3.2.25-4.65-2.6-2-4a1.61 1.61 0 0 1 -1.2-1.45l1.4-1.55a2.54 2.54 0 0 1 -1.4-2.55c-.1-2.55 2.65-3.25 5-2.6l1.9-1 .35.4zm-2.8 10.8c1.75 0 3-.55 3-2.1 0-1.75-2.85-.85-4.45-1.05a2.43 2.43 0 0 0 -.85 1.7c.05 1.25 1 1.45 2.3 1.45zm-1.65-8.85c0 1.3.35 2.3 1.75 2.2s1.7-.8 1.75-2.2-.3-2.15-1.7-2.15-1.8.85-1.8 2.15" fill="#333"/><path d="m546.82 145c2.45 0 3.3 1.65 3.15 4.35h-5.05c-.4 3 1.9 4 4.75 3.15v.5a5.33 5.33 0 0 1 -2.65.7c-2.7 0-3.7-1.65-3.7-4.4s1.1-4.3 3.5-4.3zm1.65 3.65c.6-2.85-2.85-4.1-3.45-1.2a8.3 8.3 0 0 0 -.1 1.2z" fill="#333"/><path d="m552.62 147c.35 2.4 4.3 1.15 4.3 4.2 0 2.8-3.45 2.85-5.6 2.05v-2c1 0 .45 1.45 1.55 1.55 1.75 1 3.85-1.3 2-2.5-1.35-.9-3.6-.65-3.6-2.95 0-2.5 2.9-2.6 5-2.05v1.8c-1 0-.4-1.25-1.4-1.25-1-.35-2.5-.05-2.3 1.15" fill="#333"/><path d="m560.27 151.59c0 1.25 1.2 1.3 2.2 1v.6c-1.35.8-3.65.75-3.65-1.45v-5.74h-1.05c-.1-.7.7-.5 1.05-.75l.9-1.9h.55v1.9h1.9v.75h-1.9v5.6" fill="#333"/><path d="m566.77 145c2.45 0 3.3 1.65 3.15 4.35h-5c-.4 3 1.9 4 4.75 3.15v.5a5.33 5.33 0 0 1 -2.65.7c-2.7 0-3.7-1.65-3.7-4.4s1.05-4.3 3.45-4.3zm1.65 3.65c.6-2.85-2.85-4.1-3.45-1.2a8.3 8.3 0 0 0 -.1 1.2z" fill="#333"/><path d="m573.37 146.24a6.08 6.08 0 0 1 3-1.25v2.25c-1 0-.4-1.5-2-.85l-1 .3v6.2l1.45.2v.4h-4v-.4l1-.2v-7c-.4-.15-1.2.1-1-.6h2.4" fill="#333"/><path d="m581.87 141.74c-2.6 1.4-3.1 4.75-2.9 8.9.15 2.8 1 4.85 2.9 6v.75c-5-1.4-6.25-11.5-2-15a10.4 10.4 0 0 1 2-1.35v.75" fill="#333"/><path d="m583 141c5.05 1.4 6.25 11.55 2 14.95a10.13 10.13 0 0 1 -2 1.4v-.75c2.2-1.25 2.9-3.9 2.9-7.45s-.65-6.15-2.9-7.4z" fill="#333"/><path d="m796.12.6h281.88v600h-281.88z" fill="none"/><path d="m824.32.6h-28.2v600h28.2" fill="none" stroke="#333"/><path d="m825.24 8.8c-3.1 0-3.9 2.15-3.9 5.3s.8 5.4 3.9 5.4 3.9-2.25 3.9-5.4-.8-5.3-3.9-5.3zm0 11.4c-3.85 0-5.75-2.15-5.75-6.1s1.85-6 5.75-6 5.75 2.1 5.75 6-1.9 6.1-5.75 6.1" fill="#333"/><path d="m834.34 19.3c2.9.6 4.1-.75 4.1-3.65 0-2.6-1.75-3.85-4.1-2.9zm1.8.9a8.93 8.93 0 0 1 -3.25-.65v-11.45l-1.2-.2v-.4h2.65l-.05 4.7c2.4-1.65 5.7-.2 5.7 3.45 0 2.85-1.15 4.55-3.85 4.55" fill="#333"/><path d="m843.19 8.1c1.4 0 1.1 1.9 0 1.9-.5-.1-1-.35-1-.95s.4-.9 1-.95zm-2.35 14.8c1.2.75 1.75-.5 1.75-2.1v-8.45l-1.25-.2v-.4h2.66v8.6c.2 2.55-1.4 4-3.85 3.3v-1.75c.65-.1.45.65.65 1" fill="#333"/><path d="m849.89 11.5c2.45 0 3.3 1.65 3.15 4.35h-5c-.4 3 1.9 4 4.75 3.15v.5a5.33 5.33 0 0 1 -2.65.7c-2.7 0-3.7-1.65-3.7-4.4s1.05-4.3 3.45-4.3zm1.65 3.65c.6-2.85-2.85-4.1-3.45-1.2a8.3 8.3 0 0 0 -.1 1.2z" fill="#333"/><path d="m855.89 15.8c0 3.2 2.6 4 5.2 3.15 0 1.25-1.5 1.25-2.75 1.25-2.8 0-4-1.6-4-4.4 0-3.8 3.1-4.9 6.55-4v2.3h-.5c-.25-.75-.2-1.55-1.15-1.75-2.35-.5-3.35 1.05-3.35 3.45" fill="#333"/><path d="m864.29 18.1c0 1.25 1.2 1.3 2.2 1v.6c-1.35.8-3.65.75-3.65-1.45v-5.75h-1.05c-.1-.7.7-.5 1.05-.75l.9-1.9h.55v1.9h1.9v.75h-1.9z" fill="#333"/><path d="m868.64 13.5c.35 2.4 4.3 1.15 4.3 4.2 0 2.8-3.45 2.85-5.6 2.05v-2c1 0 .45 1.45 1.55 1.55 1.75.95 3.85-1.3 2.05-2.5-1.35-.9-3.6-.65-3.6-3 0-2.5 2.9-2.6 5-2v1.8c-1 .05-.4-1.25-1.4-1.25-1.05-.35-2.5 0-2.3 1.15" fill="#333"/><path d="m880.44 10c-1.15 0-1.25-1.95 0-1.9.65 0 .9.35 1 1a1 1 0 0 1 -1 .9zm.9 9.4 1.4.2v.4h-4.25v-.4l1.4-.2v-7l-1.2-.2v-.4h2.65z" fill="#333"/><path d="m889.34 14.1c.2-1.85-2.05-1.7-3.4-1.3v6.6l1.15.2v.4h-3.6c-.15-.65.65-.45 1-.6v-7c-.35-.15-1.15.05-1-.6h2.35l.1.65c1.55-1.15 4.9-1.45 4.9 1.55v5.4c.35.15 1.15 0 1 .6h-3.6v-.4l1.1-.2z" fill="#333"/><path d="m905.49 16.6c0 3.95-4.75 4.1-7.7 2.95v-2.7h.6c.05 1.75 1.1 2.6 3 2.6 2.5 0 3.45-2.9 1.65-4.1s-5.25-1-5.25-4.25 4.3-3.3 7.1-2.65v2.45h-.6l-.29-1.45c-1.55-1.35-6-.35-4.45 2.1 1.4 2.15 6 1.2 6 5.05" fill="#333"/><path d="m912.79 19.35c-1.75 1-4.9 1.4-4.9-1.6v-5.4c-.4-.15-1.2.1-1-.6h2.5v5.9c-.15 1.85 2.1 1.6 3.45 1.25v-6.55l-1.25-.2v-.4h2.7v7.65c.4.15 1.2-.1 1 .6h-2.4" fill="#333"/><path d="m922.64 12.4a3.05 3.05 0 0 1 -2.7 4.85 10.11 10.11 0 0 1 -1.35-.15l-.59 1.15c1.45 1.1 6.5-.7 6.2 2.6-.2 2.25-1.9 2.85-4.4 3-3.2.25-4.65-2.6-2-4a1.61 1.61 0 0 1 -1.2-1.45l1.4-1.5a2.54 2.54 0 0 1 -1.4-2.55c-.1-2.55 2.65-3.25 5-2.6l1.9-1 .35.4zm-2.8 10.8c1.75 0 3-.55 3-2.1 0-1.75-2.85-.85-4.45-1.05a2.43 2.43 0 0 0 -.85 1.7c.05 1.25 1 1.45 2.3 1.45zm-1.65-8.85c0 1.3.35 2.3 1.75 2.2s1.7-.8 1.75-2.2-.3-2.15-1.7-2.15-1.8.85-1.8 2.15" fill="#333"/><path d="m931.64 12.4a3.05 3.05 0 0 1 -2.7 4.85 10.11 10.11 0 0 1 -1.35-.15l-.59 1.15c1.45 1.1 6.5-.7 6.2 2.6-.2 2.25-1.9 2.85-4.4 3-3.2.25-4.65-2.6-2-4a1.61 1.61 0 0 1 -1.2-1.45l1.4-1.5a2.54 2.54 0 0 1 -1.4-2.55c-.1-2.55 2.65-3.25 5-2.6l1.9-1 .35.4zm-2.8 10.8c1.75 0 3-.55 3-2.1 0-1.75-2.85-.85-4.45-1.05a2.43 2.43 0 0 0 -.85 1.7c.05 1.25 1 1.45 2.3 1.45zm-1.65-8.85c0 1.3.35 2.3 1.75 2.2s1.7-.8 1.75-2.2-.3-2.15-1.7-2.15-1.8.85-1.8 2.15" fill="#333"/><path d="m937.79 11.5c2.45 0 3.3 1.65 3.15 4.35h-5.05c-.4 3 1.9 4 4.75 3.15v.5a5.33 5.33 0 0 1 -2.65.7c-2.7 0-3.7-1.65-3.7-4.4s1.1-4.3 3.5-4.3zm1.65 3.65c.6-2.85-2.85-4.1-3.45-1.2a8.3 8.3 0 0 0 -.1 1.2z" fill="#333"/><path d="m943.59 13.5c.35 2.4 4.3 1.15 4.3 4.2 0 2.8-3.45 2.85-5.6 2.05v-2c1 0 .45 1.45 1.55 1.55 1.75.95 3.85-1.3 2-2.5-1.35-.9-3.6-.65-3.6-3 0-2.5 2.9-2.6 5-2v1.8c-.95.05-.4-1.25-1.4-1.25-1-.35-2.5 0-2.3 1.15" fill="#333"/><path d="m951.24 18.1c0 1.25 1.2 1.3 2.2 1v.6c-1.35.8-3.65.75-3.65-1.45v-5.75h-1c-.1-.7.7-.5 1-.75l.9-1.9h.55v1.9h1.9v.75h-1.9z" fill="#333"/><path d="m955.89 10c-1.15 0-1.25-1.95 0-1.9.65 0 .9.35 1 1a1 1 0 0 1 -1 .9zm.9 9.4 1.4.2v.4h-4.25v-.4l1.4-.2v-7l-1.2-.2v-.4h2.65z" fill="#333"/><path d="m963 11.5c2.6 0 3.8 1.6 3.8 4.35s-1.2 4.35-3.85 4.35-3.75-1.7-3.75-4.35 1.24-4.35 3.8-4.35zm0 8c2 0 2.3-1.75 2.3-3.65s-.35-3.65-2.3-3.65-2.2 1.7-2.2 3.65.3 3.6 2.2 3.65" fill="#333"/><path d="m973.79 14.1c.2-1.85-2-1.7-3.4-1.3v6.6l1.15.2v.4h-3.6c-.15-.65.65-.45 1-.6v-7c-.35-.15-1.15.05-1-.6h2.35l.1.65c1.55-1.15 4.9-1.45 4.9 1.55v5.4c.35.15 1.15 0 1 .6h-3.6v-.4l1.1-.2z" fill="#333"/><path d="m982.09 8.7-1.8.2v10.35a32.79 32.79 0 0 0 5.05-.2l.55-2.45h.55l-.15 3.4h-9.29v-.45l1.55-.25v-10.4l-1.55-.2v-.5h5.05v.5" fill="#333"/><path d="m992 11.5c2.6 0 3.8 1.6 3.8 4.35s-1.2 4.35-3.85 4.35-3.75-1.7-3.75-4.35 1.19-4.35 3.8-4.35zm0 8c1.95 0 2.3-1.75 2.3-3.65s-.35-3.65-2.3-3.65-2.2 1.7-2.2 3.65.3 3.6 2.2 3.65" fill="#333"/><path d="m1003.54 12.4a3.05 3.05 0 0 1 -2.7 4.85 10.11 10.11 0 0 1 -1.35-.15l-.55 1.15c1.45 1.1 6.5-.7 6.2 2.6-.2 2.25-1.9 2.85-4.4 3-3.2.25-4.65-2.6-2-4a1.61 1.61 0 0 1 -1.2-1.45l1.4-1.55a2.54 2.54 0 0 1 -1.4-2.55c-.1-2.55 2.65-3.25 5-2.6l1.9-1 .35.4zm-2.8 10.8c1.75 0 3-.55 3-2.1 0-1.75-2.85-.85-4.45-1.05a2.43 2.43 0 0 0 -.85 1.7c.05 1.25 1 1.45 2.3 1.45zm-1.65-8.85c0 1.3.35 2.3 1.75 2.2s1.7-.8 1.75-2.2-.3-2.15-1.7-2.15-1.8.85-1.8 2.15" fill="#333"/><path d="m1007.84 10c-1.15 0-1.25-1.95 0-1.9.65 0 .9.35 1 1a1 1 0 0 1 -1 .9zm.9 9.4 1.4.2v.4h-4.25v-.4l1.4-.2v-7l-1.2-.2v-.4h2.65z" fill="#333"/><path d="m1012.74 15.8c0 3.2 2.6 4 5.2 3.15 0 1.25-1.5 1.25-2.75 1.25-2.8 0-4-1.6-4-4.4 0-3.8 3.1-4.9 6.55-4v2.3h-.5c-.25-.75-.2-1.55-1.15-1.75-2.35-.5-3.35 1.05-3.35 3.45" fill="#333"/><path d="m1025 13.5c.35 2.4 4.3 1.15 4.3 4.2 0 2.8-3.45 2.85-5.6 2.05v-2c1 0 .45 1.45 1.55 1.55 1.75.95 3.85-1.3 2-2.5-1.35-.9-3.6-.65-3.6-3 0-2.5 2.9-2.6 5-2v1.8c-1 .05-.4-1.25-1.4-1.25-1-.35-2.5 0-2.3 1.15" fill="#333"/><path d="m1032.19 15.8c0 3.2 2.6 4 5.2 3.15 0 1.25-1.5 1.25-2.75 1.25-2.8 0-4-1.6-4-4.4 0-3.8 3.1-4.9 6.55-4v2.3h-.5c-.25-.75-.2-1.55-1.15-1.75-2.35-.5-3.35 1.05-3.35 3.45" fill="#333"/><path d="m1042.39 11.5c2.6 0 3.8 1.6 3.8 4.35s-1.2 4.35-3.85 4.35-3.75-1.7-3.75-4.35 1.2-4.35 3.8-4.35zm-.05 8c2 0 2.3-1.75 2.3-3.65s-.35-3.65-2.3-3.65-2.2 1.7-2.2 3.65.3 3.6 2.2 3.65" fill="#333"/><path d="m1055.19 15.75c.15 3.35-2.2 5.1-5.55 4.25v3.2l1.45.2v.45h-4v-.45l1-.2v-10.85c-.35-.15-1.1.05-1-.6h2.3l.05.45a3.77 3.77 0 0 1 2.25-.7c2.55.1 3.4 1.8 3.5 4.25zm-5.5 3.6c2.65.7 4.15-.7 3.9-3.6.35-2.65-1.65-3.95-3.9-3z" fill="#333"/><path d="m1060.09 11.5c2.45 0 3.3 1.65 3.15 4.35h-5c-.4 3 1.9 4 4.75 3.15v.5a5.33 5.33 0 0 1 -2.65.7c-2.7 0-3.7-1.65-3.7-4.4s1.05-4.3 3.45-4.3zm1.65 3.65c.6-2.85-2.85-4.1-3.45-1.2a8.3 8.3 0 0 0 -.1 1.2z" fill="#333"/><path d="m820.34 33.45c2-.5 5.1-.7 5.1 1.95v5.6c.4.15 1.2-.1 1 .6h-2.25l-.2-.85c-1.15 1.5-5.15 1.5-4.65-1.45-.1-2.5 2.25-2.5 4.6-2.55.2-1.8-.25-3.5-2.1-2.8a6.89 6.89 0 0 0 -.8.3c-.2.35 0 1.15-.75 1zm.5 5.8c0 2 2 1.65 3.15 1.1v-3c-1.7.05-3.15 0-3.15 1.85" fill="#333"/><path d="m831.84 29.8c-2-.75-1.75 1.6-1.7 3.55h2.2v.75h-2.2v6.8l1.75.3v.4h-4.45v-.4l1.25-.3v-6.8h-1.45v-.45l1.45-.35c-.3-2.95 1.15-5 4-4.2v1.8c-.75.1-.6-.7-.85-1.1" fill="#333"/><path d="m835.34 39.7c-.05 1.25 1.2 1.3 2.2 1v.6c-1.35.8-3.65.75-3.65-1.45v-5.75h-1c-.1-.7.7-.5 1-.75l.9-1.9h.55v1.9h1.9v.75h-1.9z" fill="#333"/><path d="m841.84 33.1c2.45 0 3.3 1.65 3.15 4.35h-5c-.4 3 1.9 4 4.75 3.15v.5a5.33 5.33 0 0 1 -2.65.7c-2.7 0-3.7-1.65-3.7-4.4s1.05-4.3 3.45-4.3zm1.65 3.65c.6-2.85-2.85-4.1-3.45-1.2a8.3 8.3 0 0 0 -.1 1.2z" fill="#333"/><path d="m848.44 34.35a6.08 6.08 0 0 1 3-1.25v2.25c-1 0-.4-1.5-2-.85l-1 .3v6.2l1.45.2v.4h-3.95v-.4l1-.2v-7c-.4-.15-1.2.1-1-.6h2.4" fill="#333"/><path d="m860.24 33.1c2.45 0 3.3 1.65 3.15 4.35h-5c-.4 3 1.9 4 4.75 3.15v.5a5.33 5.33 0 0 1 -2.65.7c-2.7 0-3.7-1.65-3.7-4.4s1.05-4.3 3.45-4.3zm1.65 3.65c.6-2.85-2.85-4.1-3.45-1.2a8.3 8.3 0 0 0 -.1 1.2z" fill="#333"/><path d="m871.79 41c.35.15 1.15 0 1 .6h-3.79v-.4l1.1-.2-1.9-2.9-2.2 2.9 1.15.2v.4h-3v-.4l1-.15 2.75-3.55-2.46-3.5c-.35-.15-1.15 0-1-.6h3.75v.4l-1.1.2 1.6 2.4 1.85-2.4-1.15-.2v-.4h3v.4l-1 .15-2.3 3" fill="#333"/><path d="m877.19 33.1c2.45 0 3.3 1.65 3.15 4.35h-5.05c-.4 3 1.9 4 4.75 3.15v.5a5.33 5.33 0 0 1 -2.65.7c-2.7 0-3.7-1.65-3.7-4.4s1.1-4.3 3.5-4.3zm1.65 3.65c.6-2.85-2.85-4.1-3.45-1.2a8.3 8.3 0 0 0 -.1 1.2z" fill="#333"/><path d="m883.19 37.4c0 3.2 2.6 4 5.2 3.15.05 1.25-1.5 1.25-2.75 1.25-2.8 0-4-1.6-4-4.4 0-3.8 3.1-4.9 6.55-4v2.3h-.5c-.25-.75-.2-1.55-1.15-1.75-2.35-.5-3.35 1-3.35 3.45" fill="#333"/><path d="m895.09 41c-1.75 1-4.9 1.4-4.9-1.6v-5.4c-.4-.15-1.2.1-1.05-.6h2.5v5.9c-.15 1.85 2.1 1.6 3.45 1.25v-6.55l-1.25-.2v-.4h2.7v7.6c.4.15 1.2-.1 1.05.6h-2.4" fill="#333"/><path d="m900.59 39.7c-.05 1.25 1.2 1.3 2.2 1v.6c-1.35.8-3.65.75-3.65-1.45v-5.75h-1c-.1-.7.7-.5 1-.75l.9-1.9h.55v1.9h1.9v.75h-1.9z" fill="#333"/><path d="m905.24 31.6c-1.15 0-1.25-2 0-1.9.65 0 .9.35 1 .95a1 1 0 0 1 -1 .95zm.9 9.4 1.4.2v.4h-4.25v-.4l1.4-.2v-7l-1.2-.2v-.4h2.65z" fill="#333"/><path d="m912.39 33.1c2.6 0 3.8 1.6 3.8 4.35s-1.2 4.35-3.85 4.35-3.75-1.7-3.75-4.35 1.2-4.35 3.8-4.35zm0 8c1.95 0 2.3-1.75 2.3-3.65s-.35-3.65-2.3-3.65-2.2 1.7-2.2 3.65.3 3.6 2.2 3.65" fill="#333"/><path d="m923.14 35.7c.2-1.85-2-1.7-3.4-1.3v6.6l1.15.2v.4h-3.6c-.15-.65.65-.45 1-.6v-7c-.35-.15-1.15 0-1-.6h2.35l.1.65c1.55-1.15 4.9-1.45 4.9 1.55v5.4c.35.15 1.15 0 1 .6h-3.64v-.4l1.1-.2v-5.3" fill="#333"/><path d="m808.47 64.32h275.18v134h-275.18z" fill="#fff" stroke="#333"/><path d="m808.47 101.92h275.18m-275.18 59.2h275.18" fill="none" stroke="#333"/><g fill="#333"><path d="m821.65 82.72c0 3.2 2.6 4 5.2 3.15 0 1.25-1.5 1.25-2.75 1.25-2.8 0-4-1.6-4-4.4 0-3.8 3.1-4.9 6.55-4v2.28h-.5c-.25-.75-.2-1.55-1.15-1.75-2.35-.5-3.35 1-3.35 3.45"/><path d="m831.85 78.42c2.6 0 3.8 1.6 3.8 4.35s-1.2 4.35-3.85 4.35-3.75-1.7-3.75-4.35 1.2-4.35 3.8-4.35zm-.05 8c2 0 2.3-1.75 2.3-3.65s-.35-3.65-2.3-3.65-2.2 1.7-2.2 3.65.3 3.6 2.2 3.65"/><path d="m842.65 81c.2-1.85-2.1-1.6-3.4-1.25v6.55l1.2.2v.4h-3.7c-.15-.65.65-.45 1-.6v-7c-.35-.15-1.15 0-1-.6h2.4l.05.65c1.1-.75 3.85-1.5 4.6.1 1.6-1.1 5.2-1.8 5.2 1.45v5.45c.4.15 1.2-.1 1 .6h-3.7v-.4l1.25-.2v-5.35c.15-2-2.25-1.55-3.6-1.2.35 1.85 0 4.4.15 6.5l1.25.2v.4h-3.9v-.4l1.2-.2z"/><path d="m856.65 81c.2-1.85-2.1-1.6-3.4-1.25v6.55l1.2.2v.4h-3.7c-.15-.65.65-.45 1-.6v-7c-.35-.15-1.15 0-1-.6h2.4l.05.65c1.1-.75 3.85-1.5 4.6.1 1.6-1.1 5.2-1.8 5.2 1.45v5.45c.4.15 1.2-.1 1 .6h-3.7v-.4l1.25-.2v-5.35c.15-2-2.25-1.55-3.6-1.2.35 1.85 0 4.4.15 6.5l1.25.2v.4h-3.9v-.4l1.2-.2z"/><path d="m866 78.77c2-.5 5.1-.7 5.1 2v5.6c.4.15 1.2-.1 1.05.6h-2.25l-.2-.85c-1.15 1.5-5.15 1.5-4.65-1.45-.1-2.5 2.25-2.5 4.6-2.55.2-1.8-.25-3.5-2.1-2.8a6.89 6.89 0 0 0 -.8.3c-.2.35 0 1.15-.75 1zm.5 5.8c0 2.05 2 1.65 3.15 1.1v-3c-1.7 0-3.15 0-3.15 1.85"/><path d="m878.55 81c.2-1.85-2-1.7-3.4-1.3v6.6l1.15.2v.4h-3.6c-.15-.65.65-.45 1-.6v-7c-.35-.15-1.15 0-1-.6h2.35l.1.65c1.55-1.15 4.9-1.45 4.9 1.55v5.45c.35.15 1.15 0 1 .6h-3.6v-.4l1.1-.2z"/><path d="m882 82.87c0-3.55 2.3-5.05 5.7-4.25v-3.6l-1.4-.2v-.4h2.85v11.9c.4.15 1.2-.1 1.05.6h-2.35l-.1-.6c-2.45 1.75-5.75.55-5.75-3.45zm3.85-3.7c-1.85 0-2.2 1.65-2.25 3.7 0 1.9.45 3.3 2.25 3.3a4.61 4.61 0 0 0 1.8-.35v-6.5c-.5 0-1.2-.15-1.8-.15"/><path d="m893.05 86.92v-.45l1.9-.25v-10.35a24.94 24.94 0 0 0 -3.5.2l-.25 1.85h-.55v-2.8h10.35v2.8h-.6l-.25-1.85-3.5-.15v10.3l1.85.25v.45z"/><path d="m904.5 78.42c2.6 0 3.8 1.6 3.8 4.35s-1.2 4.35-3.85 4.35-3.75-1.7-3.75-4.35 1.2-4.35 3.8-4.35zm0 8c1.95 0 2.3-1.75 2.3-3.65s-.35-3.65-2.3-3.65-2.2 1.7-2.2 3.65.3 3.6 2.2 3.65"/><path d="m912 82.92 3.4-3.65c-.35-.15-1 0-.85-.6h2.9c.15.65-.65.45-1 .6l-2.35 2.4 3 4.65c.35.15 1 0 .9.6h-3.4c-.15-.6.45-.45.75-.6l-2.25-3.55-1.1 1.15v2.4c.35.15 1 0 .9.6h-3.4v-.4l1-.2v-11.32l-1.2-.2v-.4h2.7v8.5"/><path d="m922.2 78.42c2.45 0 3.3 1.65 3.15 4.35h-5.05c-.4 3 1.9 4 4.75 3.15v.5a5.33 5.33 0 0 1 -2.65.7c-2.7 0-3.7-1.65-3.7-4.4s1.1-4.3 3.5-4.3zm1.65 3.65c.6-2.85-2.85-4.1-3.45-1.2a8.3 8.3 0 0 0 -.1 1.2z"/><path d="m932.2 81c.2-1.85-2.05-1.7-3.4-1.3v6.6l1.15.2v.4h-3.6c-.15-.65.65-.45 1-.6v-7c-.35-.15-1.15 0-1-.6h2.35l.1.65c1.55-1.15 4.9-1.45 4.9 1.55v5.45c.35.15 1.15 0 1 .6h-3.6v-.4l1.1-.2z"/><path d="m937 80.42c.35 2.4 4.3 1.15 4.3 4.2 0 2.8-3.45 2.85-5.6 2v-2c1 0 .45 1.45 1.55 1.55 1.75 1 3.85-1.3 2-2.5-1.35-.9-3.6-.65-3.6-3 0-2.5 2.9-2.6 5-2v1.8c-1 0-.4-1.25-1.4-1.25-1-.35-2.5 0-2.3 1.15"/><path d="m944.45 85.07a1 1 0 0 1 1 1.05 1 1 0 0 1 -1 1 1 1 0 0 1 -1.1-1 1 1 0 0 1 1.1-1.05zm0-6.6a1 1 0 0 1 1 1 1 1 0 0 1 -1 1.1 1 1 0 0 1 -1.1-1.1 1 1 0 0 1 1.1-1"/><path d="m949.55 81.17c0 4.65 4 6.5 7.5 4.35l.35-1.75h.6l-.05 2.75a14.54 14.54 0 0 1 -4.15.6c-3.8 0-5.85-2.05-6-6-.25-5.65 4.85-7 10-5.7v2.55h-.6l-.25-1.5a6.45 6.45 0 0 0 -3.1-.8c-3.3 0-4.3 2-4.3 5.45"/><path d="m963.45 78.42c2.6 0 3.8 1.6 3.8 4.35s-1.2 4.35-3.85 4.35-3.75-1.7-3.75-4.35 1.2-4.35 3.8-4.35zm-.05 8c2 0 2.3-1.75 2.3-3.65s-.35-3.65-2.3-3.65-2.2 1.7-2.2 3.65.3 3.6 2.2 3.65"/><path d="m974.25 81c.2-1.85-2.1-1.6-3.4-1.25v6.55l1.2.2v.4h-3.7c-.15-.65.65-.45 1-.6v-7c-.35-.15-1.15 0-1-.6h2.4v.65c1.1-.75 3.85-1.5 4.6.1 1.6-1.1 5.2-1.8 5.2 1.45v5.45c.4.15 1.2-.1 1 .6h-3.65v-.4l1.25-.2v-5.35c.15-2-2.25-1.55-3.6-1.2.35 1.85.05 4.4.15 6.5l1.25.2v.4h-3.9v-.4l1.2-.2z"/><path d="m988.25 81c.2-1.85-2.1-1.6-3.4-1.25v6.55l1.2.2v.4h-3.7c-.15-.65.65-.45 1-.6v-7c-.35-.15-1.15 0-1-.6h2.4v.65c1.1-.75 3.85-1.5 4.6.1 1.6-1.1 5.2-1.8 5.2 1.45v5.45c.4.15 1.2-.1 1 .6h-3.65v-.4l1.25-.2v-5.35c.15-2-2.25-1.55-3.6-1.2.35 1.85.05 4.4.15 6.5l1.25.2v.4h-3.9v-.4l1.2-.2z"/><path d="m997.55 78.77c2.05-.5 5.1-.7 5.1 2v5.6c.4.15 1.2-.1 1.05.6h-2.25l-.2-.85c-1.15 1.5-5.15 1.5-4.65-1.45-.1-2.5 2.25-2.5 4.6-2.55.2-1.8-.25-3.5-2.1-2.8a6.89 6.89 0 0 0 -.8.3c-.2.35 0 1.15-.75 1zm.5 5.8c0 2.05 2.05 1.65 3.15 1.1v-3c-1.7 0-3.15 0-3.15 1.85"/><path d="m1010.15 81c.2-1.85-2-1.7-3.4-1.3v6.6l1.15.2v.4h-3.6c-.15-.65.65-.45 1-.6v-7c-.35-.15-1.15 0-1-.6h2.35l.1.65c1.55-1.15 4.9-1.45 4.9 1.55v5.45c.35.15 1.15 0 1 .6h-3.6v-.4l1.1-.2z"/><path d="m1013.55 82.87c0-3.55 2.3-5.05 5.7-4.25v-3.6l-1.4-.2v-.4h2.85v11.9c.4.15 1.2-.1 1.05.6h-2.35l-.1-.6c-2.4 1.75-5.75.55-5.75-3.45zm3.85-3.7c-1.85 0-2.2 1.65-2.25 3.7 0 1.9.45 3.3 2.25 3.3a4.61 4.61 0 0 0 1.8-.35v-6.5c-.5 0-1.2-.15-1.8-.15"/><path d="m1024.65 86.92v-.45l1.9-.25v-10.35a24.94 24.94 0 0 0 -3.5.2l-.25 1.85h-.55v-2.8h10.35v2.8h-.6l-.25-1.85-3.5-.15v10.3l1.85.25v.45z"/><path d="m1036.1 78.42c2.6 0 3.8 1.6 3.8 4.35s-1.2 4.35-3.85 4.35-3.75-1.7-3.75-4.35 1.2-4.35 3.8-4.35zm0 8c2 0 2.3-1.75 2.3-3.65s-.35-3.65-2.3-3.65-2.2 1.7-2.2 3.65.3 3.6 2.2 3.65"/><path d="m1043.6 82.92 3.4-3.65c-.35-.15-1 0-.85-.6h2.9c.15.65-.65.45-1 .6l-2.35 2.4 3 4.65c.35.15 1 0 .9.6h-3.4c-.15-.6.45-.45.75-.6l-2.25-3.55-1.1 1.15v2.4c.35.15 1.05 0 .9.6h-3.4v-.4l1.05-.2v-11.32l-1.2-.2v-.4h2.65v8.5"/><path d="m1053.8 78.42c2.45 0 3.3 1.65 3.15 4.35h-5c-.4 3 1.9 4 4.75 3.15v.5a5.33 5.33 0 0 1 -2.65.7c-2.7 0-3.7-1.65-3.7-4.4s1.05-4.3 3.45-4.3zm1.65 3.65c.6-2.85-2.85-4.1-3.45-1.2a8.3 8.3 0 0 0 -.1 1.2z"/><path d="m1063.8 81c.2-1.85-2-1.7-3.4-1.3v6.6l1.15.2v.4h-3.55c-.15-.65.65-.45 1-.6v-7c-.35-.15-1.15 0-1-.6h2.35l.1.65c1.55-1.15 4.9-1.45 4.9 1.55v5.45c.35.15 1.15 0 1 .6h-3.6v-.4l1.1-.2v-5.35"/><path d="m1068.6 80.42c.35 2.4 4.3 1.15 4.3 4.2 0 2.8-3.45 2.85-5.6 2v-2c1 0 .45 1.45 1.55 1.55 1.75 1 3.85-1.3 2.05-2.5-1.35-.9-3.6-.65-3.6-3 0-2.5 2.9-2.6 5-2v1.8c-1 0-.4-1.25-1.4-1.25-1.05-.35-2.5 0-2.3 1.15"/><path d="m818.5 88.44h256v.88h-256z"/><path d="m826 119.17v3.75h-.95v-3.75h-3.7v-.85h3.7v-3.75h.95v3.75h3.7v.85z"/><path d="m837.37 120.52c0 3.2 2.6 4 5.2 3.15 0 1.25-1.5 1.25-2.75 1.25-2.8 0-4-1.6-4-4.4 0-3.8 3.1-4.9 6.55-4v2.3h-.5c-.25-.75-.2-1.55-1.15-1.75-2.35-.5-3.35 1.05-3.35 3.45"/><path d="m847.57 116.22c2.6 0 3.8 1.6 3.8 4.35s-1.2 4.35-3.85 4.35-3.75-1.7-3.75-4.35 1.23-4.35 3.8-4.35zm-.05 8c2 0 2.3-1.75 2.3-3.65s-.35-3.65-2.3-3.65-2.2 1.7-2.2 3.65.3 3.6 2.2 3.65"/><path d="m858.37 118.82c.2-1.85-2.1-1.6-3.4-1.25v6.55l1.2.2v.4h-3.7c-.15-.65.65-.45 1-.6v-7.05c-.35-.15-1.15.05-1-.6h2.4v.65c1.1-.75 3.85-1.5 4.6.1 1.6-1.1 5.2-1.8 5.2 1.45v5.45c.4.15 1.2-.1 1 .6h-3.67v-.4l1.25-.2v-5.3c.15-1.95-2.25-1.55-3.6-1.2.35 1.85.05 4.4.15 6.5l1.25.2v.4h-3.9v-.4l1.2-.2v-5.3"/><path d="m872.37 118.82c.2-1.85-2.1-1.6-3.4-1.25v6.55l1.2.2v.4h-3.7c-.15-.65.65-.45 1-.6v-7.05c-.35-.15-1.15.05-1-.6h2.4v.65c1.1-.75 3.85-1.5 4.6.1 1.6-1.1 5.2-1.8 5.2 1.45v5.45c.4.15 1.2-.1 1 .6h-3.67v-.4l1.25-.2v-5.3c.15-1.95-2.25-1.55-3.6-1.2.35 1.85.05 4.4.15 6.5l1.25.2v.4h-3.9v-.4l1.2-.2v-5.3"/><path d="m881.67 116.57c2.05-.5 5.1-.7 5.1 2v5.6c.4.15 1.2-.1 1.05.6h-2.25l-.2-.85c-1.15 1.5-5.15 1.5-4.65-1.45-.1-2.5 2.25-2.5 4.6-2.55.2-1.8-.25-3.5-2.1-2.8a6.89 6.89 0 0 0 -.8.3c-.2.35 0 1.15-.75 1zm.5 5.8c0 2 2.05 1.65 3.15 1.1v-3c-1.7 0-3.15 0-3.15 1.85"/><path d="m894.27 118.82c.2-1.85-2-1.7-3.4-1.3v6.6l1.15.2v.4h-3.6c-.15-.65.65-.45 1-.6v-7.05c-.35-.15-1.15.05-1-.6h2.35l.1.65c1.55-1.15 4.9-1.45 4.9 1.55v5.45c.35.15 1.15-.05 1 .6h-3.6v-.4l1.1-.2z"/><path d="m897.67 120.67c0-3.55 2.3-5 5.7-4.25v-3.6l-1.4-.2v-.4h2.85v11.9c.4.15 1.2-.1 1.05.6h-2.35l-.1-.6c-2.42 1.75-5.75.55-5.75-3.45zm3.85-3.7c-1.85 0-2.2 1.65-2.25 3.7 0 1.9.45 3.3 2.25 3.3a4.61 4.61 0 0 0 1.8-.35v-6.5c-.5-.05-1.2-.15-1.8-.15"/><path d="m922 113.62-3.88 11.38h-.5l-3-8.1-3.15 8.1h-.47l-3.9-11.35-1.05-.2v-.5h4.5v.5l-1.7.2 2.8 8.3 3.15-8.15h.4l3.05 8.15 2.7-8.3-1.85-.2v-.5h3.9v.5"/><path d="m926 116.22c2.6 0 3.8 1.6 3.8 4.35s-1.2 4.35-3.85 4.35-3.75-1.7-3.75-4.35 1.22-4.35 3.8-4.35zm0 8c1.95 0 2.3-1.75 2.3-3.65s-.35-3.65-2.3-3.65-2.2 1.7-2.2 3.65.3 3.6 2.2 3.65"/><path d="m933.37 117.47a6.08 6.08 0 0 1 3-1.25v2.25c-1 0-.4-1.5-2-.85l-1 .3v6.2l1.45.2v.4h-4v-.4l1-.2v-7.05c-.4-.15-1.2.1-1-.6h2.4"/><path d="m937.12 120.67c0-3.55 2.3-5 5.7-4.25l-.05-3.6-1.4-.2v-.4h2.85v11.9c.4.15 1.2-.1 1 .6h-2.35l-.1-.6c-2.3 1.75-5.65.55-5.65-3.45zm3.88-3.67c-1.85 0-2.2 1.65-2.25 3.7 0 1.9.45 3.3 2.25 3.3a4.61 4.61 0 0 0 1.8-.35v-6.5c-.5-.05-1.2-.15-1.8-.15"/><path d="m959.22 120.12v.88h-8.35v-.85zm0-3.65v.9h-8.35v-.9z"/><path d="m969.12 112.92h1.75l-.55 4.25h-.65zm-3.4 0h1.75l-.55 4.25h-.65"/><path d="m977.07 112.92c-2-.75-1.75 1.6-1.7 3.55h2.2v.75h-2.2v6.78l1.75.3v.4h-4.45v-.4l1.25-.3v-6.8h-1.45v-.45l1.45-.35c-.3-3 1.15-5 4-4.2v1.8c-.75.1-.6-.7-.85-1.1"/><path d="m980.22 114.72c-1.15 0-1.25-2 0-1.9.65 0 .9.35 1 1a1 1 0 0 1 -1 .9zm.9 9.4 1.4.2v.4h-4.25v-.4l1.4-.2v-7.05l-1.2-.2v-.4h2.65z"/><path d="m989.12 118.82c.2-1.85-2-1.7-3.4-1.3v6.6l1.15.2v.4h-3.6c-.15-.65.65-.45 1-.6v-7.05c-.35-.15-1.15.05-1-.6h2.35l.1.65c1.55-1.15 4.9-1.45 4.9 1.55v5.45c.35.15 1.15-.05 1 .6h-3.62v-.4l1.1-.2v-5.3"/><path d="m992.52 120.67c0-3.55 2.3-5 5.7-4.25l-.05-3.6-1.4-.2v-.4h2.85v11.9c.4.15 1.2-.1 1 .6h-2.35l-.1-.6c-2.3 1.75-5.65.55-5.65-3.45zm3.85-3.7c-1.85 0-2.2 1.65-2.25 3.7 0 1.9.45 3.3 2.25 3.3a4.61 4.61 0 0 0 1.8-.35v-6.5c-.5-.05-1.2-.15-1.8-.15"/><path d="m1009.17 120.47c.15 3.35-2.2 5.1-5.55 4.25v3.2l1.45.2v.45h-4v-.45l1.05-.2v-10.85c-.35-.15-1.1.05-1-.6h2.3v.45a3.77 3.77 0 0 1 2.25-.7c2.55.1 3.4 1.78 3.5 4.25zm-5.5 3.6c2.65.7 4.15-.7 3.9-3.6.35-2.65-1.65-4-3.9-3z"/><path d="m1014.07 116.22c2.45 0 3.3 1.65 3.15 4.35h-5.05c-.4 3 1.9 4 4.75 3.15v.5a5.33 5.33 0 0 1 -2.65.7c-2.7 0-3.7-1.65-3.7-4.4s1.1-4.3 3.5-4.3zm1.65 3.65c.6-2.85-2.85-4.1-3.45-1.2a8.3 8.3 0 0 0 -.1 1.2z"/><path d="m1020.67 117.47a6.08 6.08 0 0 1 3-1.25v2.25c-.95 0-.4-1.5-2-.85l-1 .3v6.2l1.45.2v.4h-4v-.4l1.05-.2v-7.05c-.4-.15-1.2.1-1.05-.6h2.4"/><path d="m1025.82 118.22c.35 2.4 4.3 1.15 4.3 4.2 0 2.8-3.45 2.85-5.6 2v-2c1 0 .45 1.45 1.55 1.55 1.75 1 3.85-1.3 2-2.5-1.35-.9-3.6-.65-3.6-3 0-2.5 2.9-2.6 5-2v1.8c-1 .05-.4-1.25-1.4-1.25-1-.35-2.5 0-2.3 1.15"/><path d="m1035.27 116.22c2.6 0 3.8 1.6 3.8 4.35s-1.2 4.35-3.85 4.35-3.75-1.7-3.75-4.35 1.2-4.35 3.8-4.35zm0 8c2 0 2.3-1.75 2.3-3.65s-.35-3.65-2.3-3.65-2.2 1.7-2.2 3.65.3 3.6 2.2 3.65"/><path d="m1046 118.82c.2-1.85-2-1.7-3.4-1.3v6.6l1.15.2v.4h-3.6c-.15-.65.65-.45 1-.6v-7.05c-.35-.15-1.15.05-1-.6h2.35l.1.65c1.55-1.15 4.9-1.45 4.9 1.55v5.45c.35.15 1.15-.05 1 .6h-3.6v-.4l1.1-.2z"/><path d="m1057.77 112.92h1.75l-.55 4.25h-.65zm-3.4 0h1.75l-.55 4.25h-.65"/><path d="m826 140.77v3.75h-.95v-3.75h-3.7v-.85h3.7v-3.75h.95v3.75h3.7v.85z"/><path d="m836.72 138.17c2-.5 5.1-.7 5.1 2v5.6c.4.15 1.2-.1 1 .6h-2.25l-.2-.85c-1.15 1.5-5.15 1.5-4.65-1.45-.1-2.5 2.25-2.5 4.6-2.55.2-1.8-.25-3.5-2.1-2.8a6.89 6.89 0 0 0 -.8.3c-.2.35 0 1.15-.75 1zm.5 5.8c0 2.05 2 1.65 3.15 1.1v-2.95c-1.7 0-3.15-.05-3.15 1.85"/><path d="m845.92 139.07a6.08 6.08 0 0 1 3-1.25v2.25c-.95.05-.4-1.5-2-.85l-1 .3v6.2l1.45.2v.4h-4v-.4l1.05-.2v-7.05c-.4-.15-1.2.1-1.05-.6h2.4"/><path d="m855.72 138.72a3.05 3.05 0 0 1 -2.7 4.85 10.11 10.11 0 0 1 -1.35-.15l-.55 1.15c1.45 1.1 6.5-.7 6.2 2.6-.2 2.25-1.9 2.85-4.4 3.05-3.2.25-4.65-2.6-2-4a1.61 1.61 0 0 1 -1.2-1.45l1.4-1.55a2.54 2.54 0 0 1 -1.4-2.55c-.1-2.55 2.65-3.25 5-2.6l1.9-1 .35.4zm-2.8 10.8c1.75 0 3.05-.55 3.05-2.1 0-1.75-2.85-.85-4.45-1a2.43 2.43 0 0 0 -.85 1.7c0 1.2.95 1.4 2.25 1.4zm-1.65-8.85c.05 1.3.35 2.3 1.75 2.2s1.7-.8 1.75-2.2-.3-2.15-1.7-2.15-1.8.85-1.8 2.15"/><path d="m863.87 145.67c-1.75 1.05-4.9 1.4-4.9-1.6v-5.4c-.4-.15-1.2.1-1.05-.6h2.5v5.93c-.15 1.85 2.1 1.6 3.45 1.25v-6.55l-1.25-.2v-.4h2.7v7.65c.4.15 1.2-.1 1 .6h-2.32"/><path d="m873 140.42c.2-1.85-2.1-1.6-3.4-1.25v6.55l1.2.2v.4h-3.7c-.15-.65.65-.45 1-.6v-7.05c-.35-.15-1.15.05-1-.6h2.4v.65c1.1-.75 3.85-1.5 4.6.1 1.6-1.1 5.2-1.8 5.2 1.45v5.45c.4.15 1.2-.1 1 .6h-3.75v-.4l1.25-.2v-5.3c.15-1.95-2.25-1.55-3.6-1.2.35 1.85.05 4.4.15 6.5l1.25.2v.4h-3.9v-.4l1.2-.2v-5.3"/><path d="m884.87 137.82c2.45 0 3.3 1.65 3.15 4.35h-5c-.4 3 1.9 4 4.75 3.15v.5a5.33 5.33 0 0 1 -2.65.7c-2.7 0-3.7-1.65-3.7-4.4s1.05-4.3 3.45-4.3zm1.65 3.65c.6-2.85-2.85-4.1-3.45-1.2a8.3 8.3 0 0 0 -.1 1.2z"/><path d="m894.87 140.42c.2-1.85-2-1.7-3.4-1.3v6.6l1.15.2v.4h-3.62c-.15-.65.65-.45 1-.6v-7.05c-.35-.15-1.15.05-1-.6h2.35l.1.65c1.55-1.15 4.9-1.45 4.9 1.55v5.45c.35.15 1.15-.05 1 .6h-3.6v-.4l1.1-.2v-5.3"/><path d="m900.32 144.42c-.05 1.25 1.2 1.3 2.2 1v.6c-1.35.8-3.65.75-3.65-1.45v-5.75h-1c-.1-.7.7-.5 1-.75l.9-1.9h.55v1.9h1.9v.75h-1.9z"/><path d="m904.67 139.82c.35 2.4 4.3 1.15 4.3 4.2 0 2.8-3.45 2.85-5.6 2v-2c1 0 .45 1.45 1.55 1.55 1.75.95 3.85-1.3 2.05-2.5-1.35-.9-3.6-.65-3.6-3 0-2.5 2.9-2.6 5-2v1.8c-1 .05-.4-1.25-1.4-1.25-1.05-.35-2.5 0-2.3 1.15"/><path d="m923.37 141.72v.85h-8.37v-.85zm0-3.65v.9h-8.37v-.9h8.35"/><path d="m933.27 134.52h1.73l-.55 4.25h-.65zm-3.4 0h1.75l-.55 4.25h-.65"/><path d="m942.32 140.42c.2-1.85-2.05-1.7-3.4-1.3v6.6l1.15.2v.4h-3.6c-.15-.65.65-.45 1-.6v-7.05c-.35-.15-1.15.05-1-.6h2.35l.1.65c1.55-1.15 4.9-1.45 4.9 1.55v5.45c.35.15 1.15-.05 1 .6h-3.6v-.4l1.1-.2z"/><path d="m946 146.52h-.9l4.15-12.05h.85"/><path d="m954.57 134.52h1.75l-.55 4.25h-.65zm-3.4 0h1.75l-.55 4.25h-.65"/></g><path d="m1092.85 227.41h191.5v113h-191.5z" fill="#fff" stroke="#333"/><path d="m1092.85 265h191.5m-191.5 37.6h191.5" fill="none" stroke="#333"/><path d="m1106.32 244.61c2.4.15 3.8-.6 3.8-2.9s-1.4-2.85-3.8-2.7zm5.55-2.9c0 3-2.3 3.9-5.55 3.7v3.9l1.85.25v.44h-5v-.45l1.4-.25v-10.4l-1.55-.2v-.5c4 0 8.9-.7 8.8 3.5" fill="#333"/><path d="m1122.52 241.36a3.27 3.27 0 0 1 -2.45 3.25l3.2 4.7 1.3.25v.44h-2.85l-3.3-5.15h-2.1v4.45l1.75.25v.45h-4.85v-.45l1.4-.25v-10.4l-1.55-.2v-.5c4 .21 9.5-.99 9.45 3.16zm-6.2 2.7c2.5.1 4.45-.05 4.45-2.55s-2-2.6-4.45-2.5z" fill="#333"/><path d="m1125.07 249.56 1.55-.25v-10.4l-1.55-.2v-.5h8.85v2.85h-.55l-.3-1.9a36.51 36.51 0 0 0 -4.75-.15v4.6h3.15l.3-1.4h.55v3.65h-.55l-.3-1.45h-3.15v4.8l5.25-.15.5-2.15h.6l-.15 3.1h-9.45z" fill="#333"/><path d="m1139.27 244.71v4.6l2 .25v.44h-5v-.45l1.4-.25v-10.4l-1.55-.2v-.5h8.85v2.85h-.55l-.3-1.9a36.51 36.51 0 0 0 -4.75-.15v4.9h3.45l.25-1.4h.55v3.65h-.62l-.25-1.45h-3.45" fill="#333"/><path d="m1149.37 249.31 1.5.25v.44h-4.7v-.45l1.5-.25v-10.4l-1.5-.2v-.5h4.7v.5l-1.5.2v10.4" fill="#333"/><path d="m1154.27 249.31 1.45.25v.44h-3.85v-.45l1.3-.25 4-5.35-3.4-5.05-1.35-.2v-.5h4.85v.5l-1.5.2 2.45 3.65 2.75-3.65-1.45-.2v-.5h3.85v.5l-1.3.2-3.3 4.4 4 6 1.3.25v.45h-4.85v-.45l1.5-.25-3.1-4.55" fill="#333"/><path d="m1164.27 252.31v-.9h9.3v.9z" fill="#333"/><path d="m1183.57 238.91-1.6-.2v-.5h4v.5l-1.55.2v11.09h-.85l-7.25-10.6v9.9l1.6.25v.45h-4v-.45l1.55-.25v-10.4l-1.55-.2v-.5h3.6l6 8.75v-8.05" fill="#333"/><path d="m1190.42 249.56v.44h-3.85v-.45l1.3-.25 4.05-11.2h1.65l4.15 11.2 1.5.25v.45h-5v-.45l1.55-.25-1.15-3.4h-4.62l-1.2 3.4zm1.9-10.15-2 5.7h4.1" fill="#333"/><path d="m1206.92 250h-.35l-4.3-10.15v9.45l1.6.25v.45h-4v-.45l1.55-.25v-10.4l-1.55-.2v-.5h3.6l3.8 9 4.2-9h3.4v.5l-1.55.2v10.4l1.55.25v.45h-4.87v-.45l1.6-.25v-9.45" fill="#333"/><path d="m1215.82 249.56 1.55-.25v-10.4l-1.55-.2v-.5h8.85v2.85h-.55l-.3-1.9a36.51 36.51 0 0 0 -4.75-.15v4.6h3.15l.3-1.4h.55v3.65h-.55l-.3-1.45h-3.15v4.8l5.25-.15.5-2.15h.6l-.15 3.1h-9.45z" fill="#333"/><path d="m1228.77 248.16a1 1 0 0 1 1 1.05 1 1 0 0 1 -1 1 1 1 0 0 1 -1.1-1 1 1 0 0 1 1.1-1.05zm0-6.6a1 1 0 0 1 1 1.05 1 1 0 0 1 -1 1.1 1 1 0 0 1 -1.1-1.1 1 1 0 0 1 1.1-1.05" fill="#333"/><path d="m1235 244.61c2.4.15 3.8-.6 3.8-2.9s-1.4-2.85-3.8-2.7zm5.55-2.9c0 3-2.3 3.9-5.55 3.7v3.9l1.85.25v.44h-4.95v-.45l1.4-.25v-10.4l-1.55-.2v-.5c4 0 8.9-.7 8.8 3.5" fill="#333"/><path d="m1244.12 242.76a6.08 6.08 0 0 1 3-1.25v2.25c-.95.05-.4-1.5-2-.85l-1 .3v6.2l1.45.2v.4h-4v-.4l1.05-.2v-7c-.4-.15-1.2.1-1.05-.6h2.4" fill="#333"/><path d="m1251.42 241.51c2.45 0 3.3 1.65 3.15 4.35h-5c-.4 3 1.9 4 4.75 3.15v.5a5.33 5.33 0 0 1 -2.65.7c-2.7 0-3.7-1.65-3.7-4.4s1.03-4.3 3.45-4.3zm1.65 3.65c.6-2.85-2.85-4.1-3.45-1.2a8.3 8.3 0 0 0 -.1 1.2z" fill="#333"/><path d="m1260.32 238.21c-2-.75-1.75 1.6-1.7 3.55h2.2v.75h-2.2v6.8l1.75.3v.4h-4.45v-.4l1.25-.3v-6.8h-1.45v-.45l1.45-.35c-.3-3 1.15-5 4-4.2v1.8c-.75.1-.6-.7-.85-1.1" fill="#333"/><path d="m1263.47 240c-1.15 0-1.25-1.95 0-1.9.65 0 .9.35 1 .95a1 1 0 0 1 -1 .95zm.9 9.4 1.4.2v.4h-4.25v-.4l1.4-.2v-7l-1.2-.2v-.4h2.65v7.65" fill="#333"/><path d="m1273.92 249.41c.35.15 1.15 0 1 .6h-3.75v-.4l1.1-.2-1.9-2.9-2.25 2.9 1.15.2v.4h-3v-.4l1-.15 2.75-3.55-2.4-3.55c-.35-.15-1.15 0-1-.6h3.75v.4l-1.1.2 1.6 2.4 1.85-2.4-1.15-.2v-.4h3v.4l-1 .15-2.3 3" fill="#333"/><path d="m1101.67 251.53h174.33v.88h-174.33z" fill="#333"/><path d="m1105.5 284.06v-1.35h4.7v1.35z" fill="#333"/><path d="m1123.6 283.36c.15 3.35-2.2 5.1-5.55 4.25v3.2l1.45.2v.45h-4v-.46l1.05-.2v-10.8c-.35-.15-1.1.05-1-.6h2.3v.45a3.77 3.77 0 0 1 2.25-.7c2.55.06 3.4 1.76 3.5 4.21zm-5.5 3.6c2.65.7 4.15-.7 3.9-3.6.35-2.65-1.65-3.95-3.9-3v6.64" fill="#333"/><path d="m1127.15 280.36a6.08 6.08 0 0 1 3-1.25v2.25c-1 .05-.4-1.5-2-.85l-1 .3v6.19l1.45.2v.4h-3.95v-.4l1-.2v-7c-.4-.15-1.2.1-1-.6h2.4" fill="#333"/><path d="m1134.45 279.11c2.45 0 3.3 1.65 3.15 4.35h-5c-.4 3 1.9 4 4.75 3.15v.5a5.33 5.33 0 0 1 -2.65.7c-2.7 0-3.7-1.65-3.7-4.4s1.05-4.3 3.45-4.3zm1.65 3.65c.6-2.85-2.85-4.1-3.45-1.2a8.3 8.3 0 0 0 -.1 1.2z" fill="#333"/><path d="m1143.35 275.81c-1.95-.75-1.75 1.6-1.7 3.55h2.2v.75h-2.2v6.8l1.75.3v.4h-4.4v-.4l1.25-.3v-6.8h-1.45v-.45l1.45-.35c-.3-2.95 1.15-5 4-4.2v1.8c-.75.1-.6-.7-.85-1.1" fill="#333"/><path d="m1146.5 277.61c-1.15 0-1.25-1.95 0-1.9.65 0 .9.35 1 1a1 1 0 0 1 -1 .9zm.9 9.4 1.4.2v.4h-4.25v-.4l1.4-.2v-7.01l-1.2-.2v-.4h2.65v7.6" fill="#333"/><path d="m1157 287c.35.15 1.15-.05 1 .6h-3.75v-.4l1.1-.2-1.9-2.9-2.25 2.9 1.15.2v.4h-3v-.4l1-.15 2.75-3.55-2.4-3.55c-.35-.15-1.15.05-1-.6h3.75v.4l-1.1.2 1.6 2.4 1.85-2.4-1.15-.2v-.4h3v.4l-1 .15-2.3 3" fill="#333"/><path d="m1171.9 283v.85h-8.35v-.85zm0-3.65v.9h-8.35v-.9z" fill="#333"/><path d="m1181.8 275.81h1.75l-.55 4.25h-.65zm-3.4 0h1.75l-.55 4.25h-.6" fill="#333"/><path d="m1190.85 281.71c.2-1.85-2-1.7-3.4-1.3v6.59l1.15.2v.4h-3.6c-.15-.65.65-.45 1-.6v-7c-.35-.15-1.15.05-1-.6h2.35l.1.65c1.55-1.15 4.9-1.45 4.9 1.55v5.4c.35.15 1.15-.05 1 .6h-3.6v-.4l1.1-.2v-5.3" fill="#333"/><path d="m1194.5 287.81h-.9l4.15-12.05h.85" fill="#333"/><path d="m1203.1 275.81h1.75l-.55 4.25h-.65zm-3.4 0h1.75l-.55 4.25h-.65" fill="#333"/><path d="m808.35 259.94h218.2v49.66h-218.2z" fill="#fff" stroke="#333"/><path d="m841.71 285.71c.15 3.35-2.2 5.1-5.55 4.25l.05 3.2 1.45.2v.45h-3.95v-.45l1-.2v-10.85c-.35-.15-1.1.05-1-.6h2.3v.45a3.77 3.77 0 0 1 2.25-.7c2.5.1 3.35 1.8 3.45 4.25zm-5.5 3.6c2.65.7 4.15-.7 3.9-3.6.35-2.65-1.65-3.95-3.9-3z"/><path d="m845.26 282.71a6.08 6.08 0 0 1 3-1.25v2.25c-1 .05-.4-1.5-2-.85l-1 .3v6.2l1.45.2v.4h-4v-.4l1-.2v-7.05c-.4-.15-1.2.1-1-.6h2.4"/><path d="m852.56 281.46c2.45 0 3.3 1.65 3.15 4.35h-5.05c-.4 3 1.9 4 4.75 3.15v.5a5.33 5.33 0 0 1 -2.65.7c-2.7 0-3.7-1.65-3.7-4.4s1.1-4.3 3.5-4.3zm1.65 3.65c.6-2.85-2.85-4.1-3.45-1.2a8.3 8.3 0 0 0 -.1 1.2z"/><path d="m861.46 278.16c-2-.75-1.75 1.6-1.7 3.55h2.24v.75h-2.2v6.8l1.75.3v.4h-4.45v-.4l1.25-.3v-6.8h-1.45v-.46l1.45-.35c-.3-3 1.15-5 4-4.2v1.8c-.75.1-.6-.7-.85-1.1"/><path d="m864.61 280c-1.15 0-1.25-1.95 0-1.9.65 0 .9.35 1 .95a1 1 0 0 1 -1 .95zm.9 9.4 1.4.2v.4h-4.25v-.4l1.4-.2v-7.05l-1.2-.2v-.4h2.65z"/><path d="m875.06 289.36c.35.15 1.15-.05 1 .6h-3.75v-.4l1.1-.2-1.9-2.9-2.25 2.9 1.15.2v.4h-3v-.4l1-.15 2.75-3.55-2.4-3.55c-.35-.15-1.15.05-1-.6h3.75v.4l-1.1.2 1.6 2.4 1.85-2.4-1.15-.2v-.4h3v.4l-1 .15-2.3 3"/><path d="m881.81 278.66-1.8.2v10.35a32.79 32.79 0 0 0 5-.2l.55-2.45h.55l-.11 3.44h-9.25v-.45l1.55-.25v-10.4l-1.55-.2v-.5h5v.5"/><path d="m889.56 280c-1.15 0-1.25-1.95 0-1.9.65 0 .9.35 1 .95a1 1 0 0 1 -1 .95zm.9 9.4 1.4.2v.4h-4.25v-.4l1.4-.2v-7.05l-1.2-.2v-.4h2.65z"/><path d="m894.26 283.46c.35 2.4 4.3 1.15 4.3 4.2 0 2.8-3.45 2.85-5.6 2v-2c1 0 .45 1.45 1.55 1.55 1.75.95 3.85-1.3 2-2.5-1.35-.9-3.6-.65-3.6-2.95 0-2.5 2.9-2.6 5-2.05v1.8c-1 .05-.4-1.25-1.4-1.25-1-.35-2.5-.05-2.3 1.15"/><path d="m901.91 288.06c0 1.25 1.2 1.3 2.2 1v.6c-1.35.8-3.65.75-3.65-1.45v-5.75h-1.05c-.1-.7.7-.5 1.05-.75l.9-1.9h.55v1.9h1.9v.75h-1.9z"/><path d="m906.71 288.11a1 1 0 0 1 1 1.05 1 1 0 0 1 -1 1 1 1 0 0 1 -1.1-1 1 1 0 0 1 1.1-1.05zm0-6.6a1 1 0 0 1 1 1.05 1 1 0 0 1 -1 1.1 1 1 0 0 1 -1.1-1.1 1 1 0 0 1 1.1-1.05"/><path d="m914.76 278.66-1.8.2v10.35a32.79 32.79 0 0 0 5-.2l.55-2.45h.55l-.06 3.44h-9.25v-.45l1.55-.25v-10.4l-1.55-.2v-.5h5v.5"/><path d="m922.51 280c-1.15 0-1.25-1.95 0-1.9.65 0 .9.35 1 .95a1 1 0 0 1 -1 .95zm.9 9.4 1.4.2v.4h-4.25v-.4l1.4-.2v-7.05l-1.2-.2v-.4h2.65z"/><path d="m927.21 283.46c.35 2.4 4.3 1.15 4.3 4.2 0 2.8-3.45 2.85-5.6 2v-2c1 0 .45 1.45 1.55 1.55 1.75.95 3.85-1.3 2-2.5-1.35-.9-3.6-.65-3.6-2.95 0-2.5 2.9-2.6 5-2.05v1.8c-.95.05-.4-1.25-1.4-1.25-1-.35-2.5-.05-2.3 1.15"/><path d="m934.86 288.06c-.05 1.25 1.2 1.3 2.2 1v.6c-1.35.8-3.65.75-3.65-1.45v-5.75h-1c-.1-.7.7-.5 1-.75l.9-1.9h.55v1.9h1.9v.75h-1.9z"/><path d="m938.06 284.21v-.45l8.35-4.1v.9l-7.1 3.4 7.1 3.45v.9"/><path d="m951.06 284.56c2.4.15 3.8-.6 3.8-2.9s-1.4-2.85-3.8-2.7zm5.55-2.9c-.05 3-2.3 3.9-5.55 3.7v3.9l1.85.25v.49h-4.91v-.45l1.4-.25v-10.4l-1.55-.2v-.5c4.05 0 8.9-.7 8.8 3.5"/><path d="m960.16 282.71a6.08 6.08 0 0 1 3-1.25v2.25c-.95.05-.4-1.5-2-.85l-1 .3v6.2l1.45.2v.4h-4v-.4l1.05-.2v-7.05c-.4-.15-1.2.1-1.05-.6h2.4"/><path d="m967.46 281.46c2.45 0 3.3 1.65 3.15 4.35h-5.05c-.4 3 1.9 4 4.75 3.15v.5a5.33 5.33 0 0 1 -2.65.7c-2.7 0-3.7-1.65-3.7-4.4s1.1-4.3 3.5-4.3zm1.65 3.65c.6-2.85-2.85-4.1-3.45-1.2a8.3 8.3 0 0 0 -.1 1.2z"/><path d="m976.36 278.16c-2-.75-1.75 1.6-1.7 3.55h2.2v.75h-2.2v6.8l1.75.3v.4h-4.41v-.4l1.25-.3v-6.8h-1.45v-.46l1.45-.35c-.3-3 1.15-5 4-4.2v1.8c-.75.1-.6-.7-.85-1.1"/><path d="m979.51 280c-1.15 0-1.25-1.95 0-1.9.65 0 .9.35 1 .95a1 1 0 0 1 -1 .95zm.9 9.4 1.4.2v.4h-4.25v-.4l1.4-.2v-7.05l-1.2-.2v-.4h2.65z"/><path d="m990 289.36c.35.15 1.15-.05 1 .6h-3.75v-.4l1.1-.2-1.9-2.9-2.25 2.9 1.15.2v.4h-3v-.4l1-.15 2.75-3.55-2.4-3.55c-.35-.15-1.15.05-1-.6h3.75v.4l-1.1.2 1.6 2.4 1.85-2.4-1.15-.2v-.4h3v.4l-1 .15-2.3 3"/><path d="m992.06 288.31v-.9l7.1-3.45-7.1-3.4v-.9l8.4 4.1v.45"/><path d="m832.51 291.48h169.7v.88h-169.7z"/><path d="m1057.44 284.78h1.84a.43.43 0 0 0 .42-.44.44.44 0 0 1 .43-.43h31.73" fill="none" stroke="#333"/><path d="m1057.77 284.78-15.15 14.83-14.85-14.85 14.85-14.86z" fill="#fff"/><path d="m1058.48 284.78-15.86 15.53-15.56-15.55 15.55-15.56zm-30 0 14.14 14.14 14.43-14.15-14.43-14.15zm63.87-.37h-.5v-1h.5z" fill="#333"/><path d="m807.74 435.16h218.2v49.66h-218.2z" fill="#fff" stroke="#333"/><path d="m817.89 457c2.05-.5 5.1-.7 5.1 2v5.6c.4.15 1.2-.1 1 .6h-2.25l-.2-.85c-1.15 1.5-5.15 1.5-4.65-1.45-.1-2.5 2.25-2.5 4.6-2.55.2-1.8-.25-3.5-2.1-2.8a6.89 6.89 0 0 0 -.8.3c-.2.35 0 1.15-.75 1zm.5 5.8c0 2.05 2.05 1.65 3.15 1.1v-2.9c-1.7 0-3.15-.05-3.15 1.85"/><path d="m827.09 457.93a6.08 6.08 0 0 1 3-1.25v2.25c-1 .05-.4-1.5-2-.85l-1 .3v6.2l1.45.2v.4h-3.95v-.4l1-.2v-7.05c-.4-.15-1.2.1-1-.6h2.41"/><path d="m836.89 457.58a3.05 3.05 0 0 1 -2.7 4.85 10.11 10.11 0 0 1 -1.35-.15l-.55 1.15c1.45 1.1 6.5-.7 6.2 2.6-.2 2.25-1.9 2.85-4.4 3.05-3.2.25-4.65-2.6-2-4a1.61 1.61 0 0 1 -1.2-1.45l1.4-1.55a2.54 2.54 0 0 1 -1.4-2.55c-.1-2.55 2.65-3.25 5-2.6l1.9-1 .35.4zm-2.8 10.8c1.75 0 3-.55 3-2.1 0-1.75-2.85-.85-4.45-1a2.43 2.43 0 0 0 -.85 1.7c.05 1.2 1 1.4 2.3 1.4zm-1.65-8.85c0 1.3.35 2.3 1.75 2.2s1.7-.8 1.75-2.2-.3-2.15-1.7-2.15-1.8.85-1.8 2.15"/><path d="m845 464.53c-1.75 1.05-4.9 1.4-4.9-1.6v-5.4c-.4-.15-1.2.1-1-.6h2.5v5.9c-.15 1.85 2.1 1.6 3.45 1.25v-6.55l-1.25-.2v-.4h2.7v7.65c.4.15 1.2-.1 1 .6h-2.4"/><path d="m854.14 459.28c.2-1.85-2.1-1.6-3.4-1.25v6.55l1.2.2v.4h-3.7c-.15-.65.65-.45 1-.6v-7.05c-.35-.15-1.15.05-1-.6h2.4l.05.65c1.1-.75 3.85-1.5 4.6.1 1.6-1.1 5.2-1.8 5.2 1.45v5.45c.4.15 1.2-.1 1 .6h-3.75v-.4l1.25-.2v-5.3c.15-1.95-2.25-1.55-3.6-1.2.35 1.85 0 4.4.15 6.5l1.25.2v.4h-3.9v-.4l1.2-.2v-5.3"/><path d="m866 456.68c2.45 0 3.3 1.65 3.15 4.35h-5.05c-.4 3 1.9 4 4.75 3.15v.5a5.33 5.33 0 0 1 -2.65.7c-2.7 0-3.7-1.65-3.7-4.4s1.14-4.3 3.5-4.3zm1.65 3.65c.6-2.85-2.85-4.1-3.45-1.2a8.3 8.3 0 0 0 -.1 1.2z"/><path d="m876 459.28c.2-1.85-2-1.7-3.4-1.3v6.6l1.15.2v.4h-3.6c-.15-.65.65-.45 1-.6v-7.05c-.35-.15-1.15.05-1-.6h2.35l.1.65c1.55-1.15 4.9-1.45 4.9 1.55v5.45c.35.15 1.15-.05 1 .6h-3.6v-.4l1.1-.2z"/><path d="m881.49 463.28c0 1.25 1.2 1.3 2.2 1v.6c-1.35.8-3.65.75-3.65-1.45v-5.75h-1c-.1-.7.7-.5 1-.75l.9-1.9h.55v1.9h1.9v.75h-1.9z"/><path d="m889.34 453.88-1.8.2v10.35a32.79 32.79 0 0 0 5.05-.2l.55-2.45h.55l-.15 3.4h-9.25v-.45l1.55-.25v-10.4l-1.55-.2v-.5h5.05z"/><path d="m897.09 455.18c-1.15 0-1.25-1.95 0-1.9.65 0 .9.35 1 1a1 1 0 0 1 -1 .9zm.9 9.4 1.4.2v.4h-4.25v-.4l1.4-.2v-7.05l-1.2-.2v-.4h2.66v7.65"/><path d="m901.79 458.68c.35 2.4 4.3 1.15 4.3 4.2 0 2.8-3.45 2.85-5.6 2.05v-2c1 0 .45 1.45 1.55 1.55 1.75.95 3.85-1.3 2.05-2.5-1.35-.9-3.6-.65-3.6-3 0-2.5 2.9-2.6 5-2v1.8c-1 .05-.4-1.25-1.4-1.25-1.05-.35-2.5 0-2.3 1.15"/><path d="m909.44 463.28c-.05 1.25 1.2 1.3 2.2 1v.6c-1.35.8-3.65.75-3.65-1.45v-5.75h-1c-.1-.7.7-.5 1-.75l.9-1.9h.55v1.9h1.9v.75h-1.9z"/><path d="m914.24 463.33a1 1 0 0 1 1 1.05 1 1 0 0 1 -1 1.05 1 1 0 0 1 -1.1-1.05 1 1 0 0 1 1.1-1.05zm0-6.6a1 1 0 0 1 1 1 1 1 0 0 1 -1 1.1 1 1 0 0 1 -1.1-1.1 1 1 0 0 1 1.1-1"/><path d="m920.79 464.73v.45h-3.85v-.45l1.3-.25 4-11.2h1.65l4.15 11.2 1.5.25v.45h-5v-.45l1.55-.25-1.15-3.4h-4.65l-1.2 3.4zm1.9-10.15-2.05 5.7h4.1"/><path d="m932.54 457.93a6.08 6.08 0 0 1 3-1.25v2.25c-.95.05-.4-1.5-2-.85l-1 .3v6.2l1.45.2v.4h-4v-.4l1.05-.2v-7.05c-.4-.15-1.2.1-1.05-.6h2.4"/><path d="m942.34 457.58a3.05 3.05 0 0 1 -2.7 4.85 10.11 10.11 0 0 1 -1.35-.15l-.55 1.15c1.45 1.1 6.5-.7 6.2 2.6-.2 2.25-1.9 2.85-4.4 3.05-3.2.25-4.65-2.6-2-4a1.61 1.61 0 0 1 -1.2-1.45l1.4-1.55a2.54 2.54 0 0 1 -1.4-2.55c-.1-2.55 2.65-3.25 5-2.6l1.9-1 .35.4zm-2.8 10.8c1.75 0 3.05-.55 3.05-2.1 0-1.75-2.85-.85-4.45-1a2.43 2.43 0 0 0 -.85 1.7c0 1.2.95 1.4 2.25 1.4zm-1.65-8.85c.05 1.3.35 2.3 1.75 2.2s1.7-.8 1.75-2.2-.3-2.15-1.7-2.15-1.8.85-1.8 2.15"/><path d="m950.49 464.53c-1.75 1.05-4.9 1.4-4.9-1.6v-5.4c-.4-.15-1.2.1-1.05-.6h2.46v5.9c-.15 1.85 2.1 1.6 3.45 1.25v-6.55l-1.25-.2v-.4h2.7v7.65c.4.15 1.2-.1 1 .6h-2.4"/><path d="m959.59 459.28c.2-1.85-2.1-1.6-3.4-1.25v6.55l1.2.2v.4h-3.7c-.15-.65.65-.45 1-.6v-7.05c-.35-.15-1.15.05-1-.6h2.4v.65c1.1-.75 3.85-1.5 4.6.1 1.6-1.1 5.2-1.8 5.2 1.45v5.45c.4.15 1.2-.1 1 .6h-3.75v-.4l1.25-.2v-5.3c.15-1.95-2.25-1.55-3.6-1.2.35 1.85.05 4.4.15 6.5l1.25.2v.4h-3.9v-.4l1.2-.2v-5.3"/><path d="m971.49 456.68c2.45 0 3.3 1.65 3.15 4.35h-5c-.4 3 1.9 4 4.75 3.15v.5a5.33 5.33 0 0 1 -2.65.7c-2.7 0-3.7-1.65-3.7-4.4s1.05-4.3 3.45-4.3zm1.65 3.65c.6-2.85-2.85-4.1-3.45-1.2a8.3 8.3 0 0 0 -.1 1.2z"/><path d="m981.49 459.28c.2-1.85-2-1.7-3.4-1.3v6.6l1.15.2v.4h-3.6c-.15-.65.65-.45 1-.6v-7.05c-.35-.15-1.15.05-1-.6h2.36l.1.65c1.55-1.15 4.9-1.45 4.9 1.55v5.45c.35.15 1.15-.05 1 .6h-3.6v-.4l1.1-.2v-5.3"/><path d="m986.94 463.28c-.05 1.25 1.2 1.3 2.2 1v.6c-1.35.8-3.65.75-3.65-1.45v-5.75h-1c-.1-.7.7-.5 1-.75l.9-1.9h.55v1.9h1.9v.75h-1.9z"/><path d="m994.79 453.88-1.8.2v10.35a32.79 32.79 0 0 0 5-.2l.55-2.45h.55l-.15 3.4h-9.25v-.45l1.55-.25v-10.4l-1.55-.2v-.5h5v.5"/><path d="m1002.54 455.18c-1.15 0-1.25-1.95 0-1.9.65 0 .9.35 1 1a1 1 0 0 1 -1 .9zm.9 9.4 1.4.2v.4h-4.25v-.4l1.4-.2v-7.05l-1.2-.2v-.4h2.65z"/><path d="m1007.24 458.68c.35 2.4 4.3 1.15 4.3 4.2 0 2.8-3.45 2.85-5.6 2.05v-2c1 0 .45 1.45 1.55 1.55 1.75.95 3.85-1.3 2-2.5-1.35-.9-3.6-.65-3.6-3 0-2.5 2.9-2.6 5-2v1.8c-1 .05-.4-1.25-1.4-1.25-1-.35-2.5 0-2.3 1.15"/><path d="m1014.89 463.28c0 1.25 1.2 1.3 2.2 1v.6c-1.35.8-3.65.75-3.65-1.45v-5.75h-1.05c-.1-.7.7-.5 1.05-.75l.9-1.9h.55v1.9h1.9v.75h-1.9z"/><path d="m815.39 466.7h202.7v.88h-202.7z"/><path d="m1056.82 460h7.9s0 0 0 .07a0 0 0 0 0 0 .05h37.77" fill="none" stroke="#333"/><path d="m1057.15 460-15.15 14.84-14.85-14.84 14.85-14.85z" fill="#fff"/><path d="m1057.87 460-15.87 15.54-15.55-15.54 15.55-15.55zm-30 0 14.13 14.14 14.43-14.14-14.43-14.14zm75.22.62h-.5v-1h.5z" fill="#333"/><path d="m1103.59 403.6h169.66v113h-169.66z" fill="#fff" stroke="#333"/><path d="m1103.59 441.2h169.66m-169.66 37.6h169.66" fill="none" stroke="#333"/><path d="m1114.87 424.35a1 1 0 0 1 1.05 1 1 1 0 0 1 -1.05 1.05 1 1 0 0 1 -1.1-1.05 1 1 0 0 1 1.1-1zm0-6.6a1 1 0 0 1 1.05 1.05 1 1 0 0 1 -1.05 1.1 1 1 0 0 1 -1.1-1.1 1 1 0 0 1 1.1-1.05" fill="#333"/><path d="m1120 420.45c0 4.65 4 6.5 7.5 4.35l.35-1.75h.55v2.75a14.54 14.54 0 0 1 -4.15.6c-3.8 0-5.85-2-6.05-5.95-.25-5.65 4.85-7.05 10.05-5.7v2.55h-.6l-.25-1.5a6.45 6.45 0 0 0 -3.1-.8c-3.3 0-4.3 2.05-4.3 5.45" fill="#333"/><path d="m1133.87 417.7c2.6 0 3.8 1.6 3.8 4.35s-1.2 4.35-3.85 4.35-3.75-1.7-3.75-4.35 1.2-4.35 3.8-4.35zm0 8c2 0 2.3-1.75 2.3-3.65s-.35-3.65-2.3-3.65-2.2 1.7-2.2 3.65.3 3.6 2.2 3.65" fill="#333"/><path d="m1144.67 420.3c.2-1.85-2.1-1.6-3.4-1.25v6.55l1.2.2v.4h-3.7c-.15-.65.65-.45 1-.6v-7.05c-.35-.15-1.15.05-1-.6h2.4v.65c1.1-.75 3.85-1.5 4.6.1 1.6-1.1 5.2-1.8 5.2 1.45v5.45c.4.15 1.2-.1 1 .6h-3.75v-.4l1.25-.2v-5.3c.15-1.95-2.25-1.55-3.6-1.2.35 1.85 0 4.4.15 6.5l1.25.2v.4h-3.9v-.4l1.2-.2v-5.3" fill="#333"/><path d="m1158.67 420.3c.2-1.85-2.1-1.6-3.4-1.25v6.55l1.2.2v.4h-3.7c-.15-.65.65-.45 1-.6v-7.05c-.35-.15-1.15.05-1-.6h2.4v.65c1.1-.75 3.85-1.5 4.6.1 1.6-1.1 5.2-1.8 5.2 1.45v5.45c.4.15 1.2-.1 1 .6h-3.75v-.4l1.25-.2v-5.3c.15-1.95-2.25-1.55-3.6-1.2.35 1.85 0 4.4.15 6.5l1.25.2v.4h-3.9v-.4l1.2-.2v-5.3" fill="#333"/><path d="m1168 418.05c2-.5 5.1-.7 5.1 1.95v5.6c.4.15 1.2-.1 1 .6h-2.25l-.2-.85c-1.15 1.5-5.15 1.5-4.65-1.45-.1-2.5 2.25-2.5 4.6-2.55.2-1.8-.25-3.5-2.1-2.8a6.89 6.89 0 0 0 -.8.3c-.2.35 0 1.15-.75 1zm.5 5.8c0 2 2 1.65 3.15 1.1v-2.95c-1.7.05-3.15-.05-3.15 1.85" fill="#333"/><path d="m1180.57 420.3c.2-1.85-2-1.7-3.4-1.3v6.6l1.15.2v.4h-3.6c-.15-.65.65-.45 1-.6v-7.05c-.35-.15-1.15.05-1-.6h2.35l.1.65c1.55-1.15 4.9-1.45 4.9 1.55v5.45c.35.15 1.15-.05 1 .6h-3.6v-.4l1.1-.2z" fill="#333"/><path d="m1184 422.15c0-3.55 2.3-5 5.7-4.25l-.05-3.6-1.4-.2v-.4h2.85v11.9c.4.15 1.2-.1 1 .6h-2.35l-.1-.6c-2.33 1.75-5.65.55-5.65-3.45zm3.85-3.7c-1.85.05-2.2 1.65-2.25 3.7s.45 3.3 2.25 3.3a4.61 4.61 0 0 0 1.8-.35v-6.5c-.5-.05-1.2-.15-1.8-.15" fill="#333"/><path d="m1196.37 425.75v.45h-3.85v-.45l1.3-.25 4-11.2h1.65l4.15 11.2 1.5.25v.45h-5v-.45l1.55-.25-1.15-3.4h-4.52l-1.2 3.4zm1.9-10.15-2 5.7h4.1" fill="#333"/><path d="m1208.12 419a6.08 6.08 0 0 1 3-1.25v2.25c-.95.05-.4-1.5-2-.85l-1 .3v6.2l1.45.2v.4h-4v-.4l1.05-.2v-7.05c-.4-.15-1.2.1-1.05-.6h2.4" fill="#333"/><path d="m1217.92 418.6a3.05 3.05 0 0 1 -2.7 4.85 10.11 10.11 0 0 1 -1.35-.15l-.55 1.15c1.45 1.1 6.5-.7 6.2 2.6-.2 2.25-1.9 2.85-4.4 3.05-3.2.25-4.65-2.6-2-4a1.61 1.61 0 0 1 -1.2-1.45l1.4-1.55a2.54 2.54 0 0 1 -1.4-2.55c-.1-2.55 2.65-3.25 5-2.6l1.9-1 .35.4zm-2.8 10.8c1.75 0 3.05-.55 3.05-2.1 0-1.75-2.85-.85-4.45-1.05a2.43 2.43 0 0 0 -.85 1.7c0 1.25.95 1.45 2.25 1.45zm-1.65-8.85c0 1.3.35 2.3 1.75 2.2s1.7-.8 1.75-2.2-.3-2.15-1.7-2.15-1.8.85-1.8 2.15" fill="#333"/><path d="m1226.07 425.55c-1.75 1.05-4.9 1.4-4.9-1.6v-5.4c-.4-.15-1.2.1-1.05-.6h2.5v5.9c-.15 1.85 2.1 1.6 3.45 1.25v-6.55l-1.25-.2v-.35h2.7v7.65c.4.15 1.2-.1 1 .6h-2.4" fill="#333"/><path d="m1235.17 420.3c.2-1.85-2.1-1.6-3.4-1.25v6.55l1.2.2v.4h-3.7c-.15-.65.65-.45 1-.6v-7.05c-.35-.15-1.15.05-1-.6h2.4v.65c1.1-.75 3.85-1.5 4.6.1 1.6-1.1 5.2-1.8 5.2 1.45v5.45c.4.15 1.2-.1 1 .6h-3.75v-.4l1.25-.2v-5.3c.15-1.95-2.25-1.55-3.6-1.2.35 1.85 0 4.4.15 6.5l1.25.2v.4h-3.77v-.4l1.2-.2v-5.3" fill="#333"/><path d="m1247.07 417.7c2.45 0 3.3 1.65 3.15 4.35h-5c-.4 3 1.9 4 4.75 3.15v.5a5.33 5.33 0 0 1 -2.65.7c-2.7 0-3.7-1.65-3.7-4.4s1.05-4.3 3.45-4.3zm1.65 3.65c.6-2.85-2.85-4.1-3.45-1.2a8.3 8.3 0 0 0 -.1 1.2z" fill="#333"/><path d="m1257.07 420.3c.2-1.85-2-1.7-3.4-1.3v6.6l1.15.2v.4h-3.6c-.15-.65.65-.45 1-.6v-7.05c-.35-.15-1.15.05-1-.6h2.35l.1.65c1.55-1.15 4.9-1.45 4.9 1.55v5.45c.35.15 1.15-.05 1 .6h-3.57v-.4l1.1-.2v-5.3" fill="#333"/><path d="m1262.52 424.3c0 1.25 1.2 1.3 2.2 1v.6c-1.35.8-3.65.75-3.65-1.45v-5.75h-1c-.1-.7.7-.5 1-.75l.9-1.9h.55v1.95h1.9v.75h-1.9v5.6" fill="#333"/><path d="m1111.47 427.72h154.25v.88h-154.25z" fill="#333"/><path d="m1116.24 460.25v-1.35h4.7v1.35z" fill="#333"/><path d="m1134.24 456.1-3.3 7.9h-.65l-3.4-7.85c-.35-.15-1 0-.85-.6h3.85v.4l-1.3.2 2.4 5.75 2.3-5.75-1.3-.2v-.4h3v.4" fill="#333"/><path d="m1136.64 455.65c2-.5 5.1-.7 5.1 2v5.6c.4.15 1.2-.1 1 .6h-2.25l-.2-.85c-1.15 1.5-5.15 1.5-4.65-1.45-.1-2.5 2.25-2.5 4.6-2.55.2-1.8-.25-3.5-2.1-2.8a6.89 6.89 0 0 0 -.8.3c-.2.35 0 1.15-.75 1zm.5 5.8c0 2.05 2 1.65 3.15 1.1v-2.95c-1.7 0-3.15-.05-3.15 1.85" fill="#333"/><path d="m1146.24 463.2 1.4.2v.4h-4.3v-.4l1.4-.2v-11.3l-1.4-.2v-.4h2.9z" fill="#333"/><path d="m1154.19 463.15c-1.75 1.05-4.9 1.4-4.9-1.6v-5.4c-.4-.15-1.2.1-1-.6h2.5v5.9c-.15 1.85 2.1 1.6 3.45 1.25v-6.55l-1.25-.2v-.4h2.7v7.65c.4.15 1.2-.1 1 .6h-2.4" fill="#333"/><path d="m1161.19 455.3c2.45 0 3.3 1.65 3.15 4.35h-5c-.4 3 1.9 4 4.75 3.15v.5a5.33 5.33 0 0 1 -2.65.7c-2.7 0-3.7-1.65-3.7-4.4s1.05-4.3 3.45-4.3zm1.65 3.65c.6-2.85-2.85-4.1-3.45-1.2a8.3 8.3 0 0 0 -.1 1.2z" fill="#333"/><path d="m1178.69 459.2v.85h-8.35v-.85zm0-3.65v.9h-8.35v-.9z" fill="#333"/><path d="m1188.59 452h1.75l-.55 4.25h-.65zm-3.4 0h1.75l-.55 4.25h-.65" fill="#333"/><path d="m1195.89 452h1.75l-.55 4.25h-.65zm-3.4 0h1.75l-.55 4.25h-.69" fill="#333"/><path d="m1188.42 402.6v-30.5a.1.1 0 0 1 .1-.1.08.08 0 0 0 .08-.08v-14.62" fill="none" stroke="#333"/><path d="m1188.92 403.1h-1v-.5h1zm4.3-46.3h-9.22l4.64-14.27z" fill="#333"/><path d="m1193.92 357.3h-10.65l5.33-16.4zm-9.27-1h7.9l-4-12.15z" fill="#333"/><path d="m1204.9 351.52c.15 3.35-2.2 5.1-5.55 4.25l.05 3.2 1.45.2v.45h-3.95v-.45l1-.2v-10.85c-.35-.15-1.1.05-1-.6h2.3v.45a3.77 3.77 0 0 1 2.25-.7c2.55.1 3.35 1.8 3.45 4.25zm-5.5 3.6c2.65.7 4.15-.7 3.9-3.6.35-2.65-1.65-3.95-3.9-3z" fill="#333"/><path d="m1208.45 348.52a6.08 6.08 0 0 1 3-1.25v2.25c-1 .05-.4-1.5-2-.85l-1 .3v6.2l1.45.2v.4h-4v-.4l1-.2v-7.05c-.4-.15-1.2.1-1-.6h2.4" fill="#333"/><path d="m1215.75 347.27c2.45 0 3.3 1.65 3.15 4.35h-5.05c-.4 3 1.9 4 4.75 3.15v.5a5.33 5.33 0 0 1 -2.65.7c-2.7 0-3.7-1.65-3.7-4.4s1.1-4.3 3.5-4.3zm1.65 3.65c.6-2.85-2.85-4.1-3.45-1.2a8.3 8.3 0 0 0 -.1 1.2z" fill="#333"/><path d="m1224.65 344c-2-.75-1.75 1.6-1.7 3.55h2.2v.75h-2.15v6.8l1.75.3v.4h-4.45v-.4l1.25-.3v-6.8h-1.45v-.45l1.45-.35c-.3-3 1.15-5 4-4.2v1.8c-.75.1-.6-.7-.85-1.1" fill="#333"/><path d="m1227.8 345.77c-1.15 0-1.25-1.95 0-1.9.65 0 .9.35 1 .95a1 1 0 0 1 -1 .95zm.9 9.4 1.4.2v.4h-4.25v-.4l1.4-.2v-7.05l-1.2-.2v-.4h2.65z" fill="#333"/><path d="m1238.25 355.17c.35.15 1.15-.05 1 .6h-3.75v-.4l1.1-.2-1.9-2.9-2.25 2.9 1.15.2v.4h-3v-.4l1-.15 2.75-3.55-2.4-3.55c-.35-.15-1.15.05-1-.6h3.75v.4l-1.1.2 1.6 2.4 1.85-2.4-1.15-.2v-.4h3v.4l-1 .15-2.3 3" fill="#333"/><path d="m806.42 536.21h256.76v49.67h-256.76z" fill="#fff" stroke="#333"/><path d="m824.16 559.74c.35 2.4 4.3 1.15 4.3 4.2 0 2.8-3.45 2.85-5.6 2v-2c1 0 .45 1.45 1.55 1.55 1.75 1 3.85-1.3 2.05-2.5-1.35-.9-3.6-.65-3.6-2.95 0-2.5 2.9-2.6 5-2.05v1.8c-1 0-.4-1.25-1.4-1.25-1.05-.35-2.5-.05-2.3 1.15"/><path d="m835.31 565.59c-1.75 1-4.9 1.4-4.9-1.6v-5.4c-.4-.15-1.2.1-1-.6h2.5v5.9c-.15 1.85 2.1 1.6 3.45 1.25v-6.55l-1.25-.2v-.39h2.7v7.65c.4.15 1.2-.1 1 .6h-2.4"/><path d="m845.16 558.64a3.05 3.05 0 0 1 -2.7 4.85 10.11 10.11 0 0 1 -1.35-.15l-.55 1.15c1.45 1.1 6.5-.7 6.2 2.6-.2 2.25-1.9 2.85-4.4 3-3.2.25-4.65-2.6-2-4a1.61 1.61 0 0 1 -1.2-1.45l1.4-1.55a2.54 2.54 0 0 1 -1.4-2.55c-.1-2.55 2.65-3.25 5-2.6l1.9-1 .35.4zm-2.8 10.8c1.75 0 3-.55 3-2.1 0-1.75-2.85-.85-4.45-1.05a2.43 2.43 0 0 0 -.85 1.7c.05 1.25 1 1.45 2.3 1.45zm-1.65-8.85c0 1.3.35 2.3 1.75 2.2s1.7-.8 1.75-2.2-.3-2.15-1.7-2.15-1.8.85-1.8 2.15"/><path d="m854.16 558.64a3.05 3.05 0 0 1 -2.7 4.85 10.11 10.11 0 0 1 -1.35-.15l-.55 1.15c1.45 1.1 6.5-.7 6.2 2.6-.2 2.25-1.9 2.85-4.4 3-3.2.25-4.65-2.6-2-4a1.61 1.61 0 0 1 -1.2-1.45l1.4-1.55a2.54 2.54 0 0 1 -1.4-2.55c-.1-2.55 2.65-3.25 5-2.6l1.9-1 .35.4zm-2.8 10.8c1.75 0 3-.55 3-2.1 0-1.75-2.85-.85-4.45-1.05a2.43 2.43 0 0 0 -.85 1.7c.05 1.25 1 1.45 2.3 1.45zm-1.65-8.85c0 1.3.35 2.3 1.75 2.2s1.7-.8 1.75-2.2-.3-2.15-1.7-2.15-1.8.85-1.8 2.15"/><path d="m860.31 557.74c2.45 0 3.3 1.65 3.15 4.35h-5.05c-.4 3 1.9 4 4.75 3.15v.5a5.33 5.33 0 0 1 -2.65.7c-2.7 0-3.7-1.65-3.7-4.4s1.1-4.3 3.5-4.3zm1.65 3.65c.6-2.85-2.85-4.1-3.45-1.2a8.3 8.3 0 0 0 -.1 1.2h3.59"/><path d="m866.11 559.74c.35 2.4 4.3 1.15 4.3 4.2 0 2.8-3.45 2.85-5.6 2v-2c1 0 .45 1.45 1.55 1.55 1.75 1 3.85-1.3 2-2.5-1.35-.9-3.6-.65-3.6-2.95 0-2.5 2.9-2.6 5-2.05v1.8c-.95 0-.4-1.25-1.4-1.25-1-.35-2.5-.05-2.3 1.15"/><path d="m873.76 564.34c0 1.25 1.2 1.3 2.2 1v.6c-1.35.8-3.65.75-3.65-1.45v-5.75h-1c-.1-.7.7-.5 1-.75l.9-1.9h.55v1.91h1.9v.75h-1.9v5.6"/><path d="m880.26 557.74c2.45 0 3.3 1.65 3.15 4.35h-5c-.4 3 1.9 4 4.75 3.15v.5a5.33 5.33 0 0 1 -2.65.7c-2.7 0-3.7-1.65-3.7-4.4s1.05-4.3 3.45-4.3zm1.65 3.65c.6-2.85-2.85-4.1-3.45-1.2a8.3 8.3 0 0 0 -.1 1.2z"/><path d="m886.86 559a6.08 6.08 0 0 1 3-1.25v2.25c-1 0-.4-1.5-2-.85l-1 .3v6.2l1.45.2v.4h-3.95v-.4l1-.2v-7c-.4-.15-1.2.1-1-.6h2.4"/><path d="m892.46 564.39a1 1 0 0 1 1 1.05 1 1 0 0 1 -1 1 1 1 0 0 1 -1.1-1 1 1 0 0 1 1.1-1.05zm0-6.6a1 1 0 0 1 1 1.05 1 1 0 0 1 -1 1.1 1 1 0 0 1 -1.1-1.1 1 1 0 0 1 1.1-1.05"/><path d="m898.71 560.94v4.6l1.95.25v.45h-5v-.45l1.4-.25v-10.4l-1.55-.2v-.5h8.85v2.85h-.55l-.3-1.9a36.51 36.51 0 0 0 -4.75-.15v4.9h3.45l.25-1.4h.54v3.65h-.55l-.25-1.45h-3.45"/><path d="m907.31 556.24c-1.15 0-1.25-2 0-1.9.65 0 .9.35 1 .95a1 1 0 0 1 -1 .95zm.9 9.4 1.4.2v.4h-4.25v-.4l1.4-.2v-7l-1.2-.2v-.44h2.65v7.65"/><path d="m916.21 560.34c.2-1.85-2.05-1.7-3.4-1.3v6.6l1.15.2v.4h-3.6c-.15-.65.65-.45 1-.6v-7c-.35-.15-1.15 0-1-.6h2.35l.1.65c1.55-1.15 4.9-1.45 4.9 1.55v5.45c.35.15 1.15 0 1 .6h-3.6v-.4l1.1-.2v-5.3"/><path d="m919.61 562.19c0-3.55 2.3-5.05 5.7-4.25v-3.6l-1.4-.2v-.4h2.85v11.9c.4.15 1.2-.1 1 .6h-2.35l-.1-.6c-2.31 1.75-5.7.55-5.7-3.45zm3.85-3.7c-1.85 0-2.2 1.65-2.25 3.7 0 1.9.45 3.3 2.25 3.3a4.61 4.61 0 0 0 1.8-.35v-6.5c-.5 0-1.2-.15-1.8-.15"/><path d="m931.71 560.84c2.4.15 3.8-.6 3.8-2.9s-1.4-2.85-3.8-2.7zm5.55-2.9c0 3-2.3 3.9-5.55 3.7v3.9l1.85.25v.45h-4.95v-.45l1.4-.25v-10.4l-1.55-.2v-.5c4 0 8.9-.7 8.8 3.5"/><path d="m942.16 557.74c2.45 0 3.3 1.65 3.15 4.35h-5c-.4 3 1.9 4 4.75 3.15v.5a5.33 5.33 0 0 1 -2.65.7c-2.7 0-3.7-1.65-3.7-4.4s1.05-4.3 3.45-4.3zm1.65 3.65c.6-2.85-2.85-4.1-3.45-1.2a8.3 8.3 0 0 0 -.1 1.2z"/><path d="m948.76 559a6.08 6.08 0 0 1 3-1.25v2.25c-1 0-.4-1.5-2-.85l-1 .3v6.2l1.45.2v.4h-4v-.4l1-.2v-7c-.4-.15-1.2.1-1-.6h2.4"/><path d="m953.91 559.74c.35 2.4 4.3 1.15 4.3 4.2 0 2.8-3.45 2.85-5.6 2v-2c1 0 .45 1.45 1.55 1.55 1.75 1 3.85-1.3 2.05-2.5-1.35-.9-3.6-.65-3.6-2.95 0-2.5 2.9-2.6 5-2.05v1.8c-1 0-.4-1.25-1.4-1.25-1.05-.35-2.5-.05-2.3 1.15"/><path d="m963.36 557.74c2.6 0 3.8 1.6 3.8 4.35s-1.2 4.35-3.85 4.35-3.75-1.7-3.75-4.35 1.2-4.35 3.8-4.35zm-.05 8c2 0 2.3-1.75 2.3-3.65s-.35-3.65-2.3-3.65-2.2 1.7-2.2 3.65.3 3.6 2.2 3.65"/><path d="m974.11 560.34c.2-1.85-2.05-1.7-3.4-1.3v6.6l1.15.2v.4h-3.6c-.15-.65.65-.45 1-.6v-7c-.35-.15-1.15 0-1-.6h2.35l.1.65c1.55-1.15 4.9-1.45 4.9 1.55v5.45c.35.15 1.15 0 1 .6h-3.61v-.4l1.1-.2v-5.3"/><path d="m985.76 562.84c0 3.95-4.75 4.1-7.7 2.95v-2.7h.6c.05 1.75 1.1 2.6 3 2.6 2.5 0 3.45-2.9 1.65-4.1s-5.25-1.05-5.25-4.25c0-3.35 4.3-3.3 7.1-2.65v2.45h-.6l-.3-1.45c-1.55-1.35-6-.35-4.45 2.1 1.4 2.15 6 1.2 6 5.05"/><path d="m993.06 565.59c-1.75 1-4.9 1.4-4.9-1.6v-5.4c-.4-.15-1.2.1-1-.6h2.5v5.9c-.15 1.85 2.1 1.6 3.45 1.25v-6.55l-1.25-.2v-.39h2.7v7.65c.4.15 1.2-.1 1 .6h-2.4"/><path d="m1002.91 558.64a3.05 3.05 0 0 1 -2.7 4.85 10.11 10.11 0 0 1 -1.35-.15l-.55 1.15c1.45 1.1 6.5-.7 6.2 2.6-.2 2.25-1.9 2.85-4.4 3-3.2.25-4.65-2.6-2-4a1.61 1.61 0 0 1 -1.2-1.45l1.4-1.55a2.54 2.54 0 0 1 -1.4-2.55c-.1-2.55 2.65-3.25 5-2.6l1.9-1 .35.4zm-2.8 10.8c1.75 0 3-.55 3-2.1 0-1.75-2.85-.85-4.45-1.05a2.43 2.43 0 0 0 -.85 1.7c.05 1.25 1 1.45 2.3 1.45zm-1.65-8.85c0 1.3.35 2.3 1.75 2.2s1.7-.8 1.75-2.2-.3-2.15-1.7-2.15-1.8.85-1.8 2.15"/><path d="m1011.91 558.64a3.05 3.05 0 0 1 -2.7 4.85 10.11 10.11 0 0 1 -1.35-.15l-.55 1.15c1.45 1.1 6.5-.7 6.2 2.6-.2 2.25-1.9 2.85-4.4 3-3.2.25-4.65-2.6-2-4a1.61 1.61 0 0 1 -1.2-1.45l1.4-1.55a2.54 2.54 0 0 1 -1.4-2.55c-.1-2.55 2.65-3.25 5-2.6l1.9-1 .35.4zm-2.8 10.8c1.75 0 3-.55 3-2.1 0-1.75-2.85-.85-4.45-1.05a2.43 2.43 0 0 0 -.85 1.7c.05 1.25 1 1.45 2.3 1.45zm-1.65-8.85c0 1.3.35 2.3 1.75 2.2s1.7-.8 1.75-2.2-.3-2.15-1.7-2.15-1.8.85-1.8 2.15"/><path d="m1018.06 557.74c2.45 0 3.3 1.65 3.15 4.35h-5.05c-.4 3 1.9 4 4.75 3.15v.5a5.33 5.33 0 0 1 -2.65.7c-2.7 0-3.7-1.65-3.7-4.4s1.1-4.3 3.5-4.3zm1.65 3.65c.6-2.85-2.85-4.1-3.45-1.2a8.3 8.3 0 0 0 -.1 1.2z"/><path d="m1023.86 559.74c.35 2.4 4.3 1.15 4.3 4.2 0 2.8-3.45 2.85-5.6 2v-2c1 0 .45 1.45 1.55 1.55 1.75 1 3.85-1.3 2.05-2.5-1.35-.9-3.6-.65-3.6-2.95 0-2.5 2.9-2.6 5-2.05v1.8c-1 0-.4-1.25-1.4-1.25-1.05-.35-2.5-.05-2.3 1.15"/><path d="m1031.51 564.34c0 1.25 1.2 1.3 2.2 1v.6c-1.35.8-3.65.75-3.65-1.45v-5.75h-1c-.1-.7.7-.5 1-.75l.9-1.9h.55v1.91h1.9v.75h-1.9v5.6"/><path d="m1038 557.74c2.45 0 3.3 1.65 3.15 4.35h-5.05c-.4 3 1.9 4 4.75 3.15v.5a5.33 5.33 0 0 1 -2.65.7c-2.7 0-3.7-1.65-3.7-4.4s1.11-4.3 3.5-4.3zm1.65 3.65c.6-2.85-2.85-4.1-3.45-1.2a8.3 8.3 0 0 0 -.1 1.2z"/><path d="m1044.61 559a6.08 6.08 0 0 1 3-1.25v2.25c-.95 0-.4-1.5-2-.85l-1 .3v6.2l1.45.2v.4h-4v-.4l1.05-.2v-7c-.4-.15-1.2.1-1.05-.6h2.4"/><path d="m821.21 567.76h227.4v.88h-227.4z"/><path d="m.5 408.4h781.65v193.7h-781.65z" fill="url(#a)"/></svg>
