<svg viewBox="0 0 847.43 402.34" xmlns="http://www.w3.org/2000/svg" xmlns:xlink="http://www.w3.org/1999/xlink"><linearGradient id="a" gradientTransform="matrix(1 0 0 -1 1729.93 3290.65)" gradientUnits="userSpaceOnUse" x1="-1457.83" x2="-1457.83" y1="3057.76" y2="2888.31"><stop offset="0" stop-color="#fff" stop-opacity="0"/><stop offset=".93" stop-color="#fff"/></linearGradient><path d="m113.23 160.57h302.3" fill="none" stroke="#333"/><path d="m113.25 161.07h-.52v-1h.52zm317-.5-14.25 4.63v-9.27z" fill="#333"/><path d="m431.9 160.57h-.17v.05l-16.2 5.27v-10.65zm-15.38 3.94 12.13-3.95-12.14-3.95z" fill="#333"/><path d="m146.19 147.46c-.05 1.25 1.2 1.3 2.2 1v.6c-1.35.8-3.65.75-3.65-1.45v-5.75h-1.05c-.1-.7.7-.5 1.05-.75l.9-1.9h.55v1.9h1.9v.75h-1.9z" fill="#333"/><path d="m153 140.86c2.6 0 3.8 1.6 3.8 4.35s-1.2 4.35-3.85 4.35-3.75-1.7-3.75-4.35 1.19-4.35 3.8-4.35zm-.05 8c1.95 0 2.3-1.75 2.3-3.65s-.35-3.65-2.3-3.65-2.2 1.7-2.2 3.65.3 3.6 2.2 3.65" fill="#333"/><path d="m160.49 145.36 3.4-3.65c-.35-.15-1 0-.85-.6h2.9c.15.65-.65.45-1 .6l-2.35 2.4 3 4.65c.35.15 1 0 .9.6h-3.4c-.15-.6.45-.45.75-.6l-2.25-3.55-1.1 1.15v2.4c.35.15 1 0 .9.6h-3.39v-.36l1-.2v-11.3l-1.2-.2v-.4h2.65z" fill="#333"/><path d="m170.69 140.86c2.45 0 3.3 1.65 3.15 4.35h-5.05c-.4 3 1.9 4 4.75 3.15v.5a5.33 5.33 0 0 1 -2.65.7c-2.7 0-3.7-1.65-3.7-4.4s1.1-4.3 3.5-4.3zm1.65 3.65c.6-2.85-2.85-4.1-3.45-1.2a8.3 8.3 0 0 0 -.1 1.2z" fill="#333"/><path d="m180.69 143.46c.2-1.85-2.05-1.7-3.4-1.3v6.6l1.15.2v.4h-3.6c-.15-.65.65-.45 1-.6v-7c-.35-.15-1.15 0-1-.6h2.35l.1.65c1.55-1.15 4.9-1.45 4.9 1.55v5.45c.35.15 1.15 0 1 .6h-3.6v-.41l1.1-.2z" fill="#333"/><path d="m185.79 139.36c-1.15 0-1.25-2 0-1.9.65 0 .9.35 1 .95a1 1 0 0 1 -1 .95zm.9 9.4 1.4.2v.4h-4.25v-.36l1.4-.2v-7l-1.2-.2v-.4h2.65z" fill="#333"/><path d="m188.94 149.36v-.36l4.5-7.15c-1.15.1-2.7-.2-3.5.3-.25.4.05 1.3-.7 1.2v-2.2h6.1v.4l-4.55 7.15c1.45-.1 3.25.15 4.3-.4l.45-1.75h.4l-.25 2.85z" fill="#333"/><path d="m200.59 140.86c2.45 0 3.3 1.65 3.15 4.35h-5.05c-.4 3 1.9 4 4.75 3.15v.5a5.33 5.33 0 0 1 -2.65.7c-2.7 0-3.7-1.65-3.7-4.4s1.1-4.3 3.5-4.3zm1.65 3.65c.6-2.85-2.85-4.1-3.45-1.2a8.3 8.3 0 0 0 -.1 1.2z" fill="#333"/><path d="m206.94 143.61c0 4.65 4 6.5 7.5 4.35l.35-1.75h.55l-.05 2.75a14.54 14.54 0 0 1 -4.15.6c-3.8 0-5.85-2.05-6-5.95-.25-5.65 4.85-7.05 10-5.7l.05 2.55h-.6l-.25-1.5a6.45 6.45 0 0 0 -3.1-.8c-3.3 0-4.3 2.05-4.3 5.45" fill="#333"/><path d="m220.84 140.86c2.6 0 3.8 1.6 3.8 4.35s-1.2 4.35-3.85 4.35-3.75-1.7-3.75-4.35 1.2-4.35 3.8-4.35zm-.05 8c2 0 2.3-1.75 2.3-3.65s-.35-3.65-2.3-3.65-2.2 1.7-2.2 3.65.3 3.6 2.2 3.65" fill="#333"/><path d="m231.64 143.46c.2-1.85-2.1-1.6-3.4-1.25v6.55l1.2.2v.4h-3.7c-.15-.65.65-.45 1-.6v-7c-.35-.15-1.15 0-1-.6h2.4l.05.65c1.1-.75 3.85-1.5 4.6.1 1.6-1.1 5.2-1.8 5.2 1.45v5.45c.4.15 1.2-.1 1 .6h-3.75v-.41l1.25-.2v-5.3c.15-2-2.25-1.55-3.6-1.2.35 1.85.05 4.4.15 6.5l1.25.2v.4h-3.9v-.4l1.2-.2z" fill="#333"/><path d="m245.64 143.46c.2-1.85-2.1-1.6-3.4-1.25v6.55l1.2.2v.4h-3.7c-.15-.65.65-.45 1-.6v-7c-.35-.15-1.15 0-1-.6h2.4l.05.65c1.1-.75 3.85-1.5 4.6.1 1.6-1.1 5.2-1.8 5.2 1.45v5.45c.4.15 1.2-.1 1 .6h-3.75v-.41l1.25-.2v-5.3c.15-2-2.25-1.55-3.6-1.2.35 1.85.05 4.4.15 6.5l1.25.2v.4h-3.9v-.4l1.2-.2z" fill="#333"/><path d="m254.94 141.21c2.05-.5 5.1-.7 5.1 1.95v5.6c.4.15 1.2-.1 1 .6h-2.25l-.2-.85c-1.15 1.5-5.15 1.5-4.65-1.45-.1-2.5 2.25-2.5 4.6-2.55.2-1.8-.25-3.5-2.1-2.8a6.89 6.89 0 0 0 -.8.3c-.2.35 0 1.15-.75 1zm.5 5.8c0 2.05 2.05 1.65 3.15 1.1v-3c-1.7.05-3.15 0-3.15 1.85" fill="#333"/><path d="m267.54 143.46c.2-1.85-2.05-1.7-3.4-1.3v6.6l1.15.2v.4h-3.6c-.15-.65.65-.45 1-.6v-7c-.35-.15-1.15 0-1-.6h2.31l.1.65c1.55-1.15 4.9-1.45 4.9 1.55v5.45c.35.15 1.15 0 1 .6h-3.6v-.41l1.1-.2z" fill="#333"/><path d="m270.94 145.31c0-3.55 2.3-5.05 5.7-4.25l-.05-3.6-1.4-.2v-.4h2.81v11.9c.4.15 1.2-.1 1 .6h-2.35l-.1-.6c-2.26 1.75-5.61.55-5.61-3.45zm3.85-3.7c-1.85 0-2.2 1.65-2.25 3.7 0 1.9.45 3.3 2.25 3.3a4.61 4.61 0 0 0 1.8-.35v-6.5c-.5 0-1.2-.15-1.8-.15" fill="#333"/><path d="m284.69 137.61c-2.6 1.4-3.1 4.75-2.9 8.9.15 2.8 1 4.85 2.9 6v.75c-5.05-1.4-6.25-11.5-2.05-15a10.4 10.4 0 0 1 2.05-1.35z" fill="#333"/><path d="m289.74 137.56h1.75l-.55 4.25h-.65zm-3.4 0h1.75l-.55 4.25h-.65" fill="#333"/><path d="m297.69 137.56c-1.95-.75-1.75 1.6-1.7 3.55h2.2v.75h-2.19v6.8l1.75.3v.4h-4.45v-.36l1.25-.3v-6.8h-1.45v-.45l1.45-.35c-.3-2.95 1.15-5 4-4.2v1.8c-.75.1-.6-.7-.85-1.1" fill="#333"/><path d="m300.84 139.36c-1.15 0-1.25-2 0-1.9.65 0 .9.35 1 .95a1 1 0 0 1 -1 .95zm.9 9.4 1.4.2v.4h-4.25v-.36l1.4-.2v-7l-1.2-.2v-.4h2.65z" fill="#333"/><path d="m309.74 143.46c.2-1.85-2.05-1.7-3.4-1.3v6.6l1.15.2v.4h-3.6c-.15-.65.65-.45 1-.6v-7c-.35-.15-1.15 0-1-.6h2.35l.1.65c1.55-1.15 4.9-1.45 4.9 1.55v5.45c.35.15 1.15 0 1 .6h-3.6v-.41l1.1-.2z" fill="#333"/><path d="m313.14 145.31c0-3.55 2.3-5.05 5.7-4.25v-3.6l-1.4-.2v-.4h2.85v11.9c.4.15 1.2-.1 1.05.6h-2.35l-.1-.6c-2.4 1.75-5.75.55-5.75-3.45zm3.85-3.7c-1.85 0-2.2 1.65-2.25 3.7 0 1.9.45 3.3 2.25 3.3a4.61 4.61 0 0 0 1.8-.35v-6.5c-.5 0-1.2-.15-1.8-.15" fill="#333"/><path d="m329.79 145.11c.15 3.35-2.2 5.1-5.55 4.25l.05 3.2 1.45.2v.45h-3.95v-.45l1-.2v-10.85c-.35-.15-1.1 0-.95-.6h2.3l.05.45a3.77 3.77 0 0 1 2.25-.7c2.4.14 3.25 1.8 3.35 4.25zm-5.5 3.6c2.65.7 4.15-.7 3.9-3.6.35-2.65-1.65-4-3.9-3z" fill="#333"/><path d="m334.69 140.86c2.45 0 3.3 1.65 3.15 4.35h-5c-.4 3 1.9 4 4.75 3.15v.5a5.33 5.33 0 0 1 -2.65.7c-2.7 0-3.7-1.65-3.7-4.4s1.05-4.3 3.45-4.3zm1.65 3.65c.6-2.85-2.85-4.1-3.45-1.2a8.3 8.3 0 0 0 -.1 1.2z" fill="#333"/><path d="m341.29 142.11a6.08 6.08 0 0 1 3-1.25v2.25c-1 0-.4-1.5-2-.85l-1 .3v6.2l1.45.2v.4h-3.95v-.36l1-.2v-7c-.4-.15-1.2.1-1-.6h2.4" fill="#333"/><path d="m346.44 142.86c.35 2.4 4.3 1.15 4.3 4.2 0 2.8-3.45 2.85-5.6 2.05v-2c1 0 .45 1.45 1.55 1.55 1.75 1 3.85-1.3 2.05-2.5-1.35-.9-3.6-.65-3.6-2.95 0-2.5 2.9-2.6 5-2.05v1.84c-.95 0-.4-1.25-1.4-1.25-1.05-.35-2.5-.05-2.3 1.15" fill="#333"/><path d="m355.89 140.86c2.6 0 3.8 1.6 3.8 4.35s-1.2 4.35-3.85 4.35-3.75-1.7-3.75-4.35 1.2-4.35 3.8-4.35zm-.05 8c2 0 2.3-1.75 2.3-3.65s-.35-3.65-2.3-3.65-2.2 1.7-2.2 3.65.3 3.6 2.2 3.65" fill="#333"/><path d="m366.64 143.46c.2-1.85-2.05-1.7-3.4-1.3v6.6l1.15.2v.4h-3.6c-.15-.65.65-.45 1-.6v-7c-.35-.15-1.15 0-1-.6h2.35l.1.65c1.55-1.15 4.9-1.45 4.9 1.55v5.45c.35.15 1.15 0 1 .6h-3.6v-.41l1.1-.2z" fill="#333"/><path d="m380.14 143.46c.2-1.85-2.05-1.7-3.4-1.3v6.6l1.15.2v.4h-3.6c-.15-.65.65-.45 1-.6v-7c-.35-.15-1.15 0-1-.6h2.35l.1.65c1.55-1.15 4.9-1.45 4.9 1.55v5.45c.35.15 1.15 0 1 .6h-3.64v-.41l1.1-.2z" fill="#333"/><path d="m383.79 149.56h-.9l4.11-12.05h.85" fill="#333"/><path d="m392.39 137.56h1.75l-.55 4.25h-.65zm-3.4 0h1.75l-.55 4.25h-.65" fill="#333"/><path d="m395.79 136.86c5 1.4 6.25 11.55 2 14.95a10.13 10.13 0 0 1 -2 1.4v-.75c2.2-1.25 2.9-3.9 2.9-7.45s-.65-6.15-2.9-7.4z" fill="#333"/><path d="m431.4 221.53h-302.28" fill="none"/><path d="m431.4 221.53h-4.82m-4.82 0h-9.64m-4.83 0h-9.64m-4.82 0h-9.64m-4.82 0h-9.64m-4.82 0h-9.64m-4.82 0h-9.64m-4.82 0h-9.64m-4.83 0h-9.65m-4.82 0h-9.64m-4.83 0h-9.64m-4.82 0h-9.6m-4.76 0h-9.55m-4.78 0h-9.55m-4.77 0h-9.55m-4.77 0h-9.54m-4.78 0h-9.54m-4.78 0h-9.54m-4.78 0h-9.54m-4.78 0h-9.51m-4.78 0h-9.54m-4.78 0h-4.8" fill="none" stroke="#333"/><path d="m431.73 221.53h3.17v.5h-3.5v-1h.33zm-303.1 4.64-14.28-4.64 14.27-4.63z" fill="#333"/><path d="m129.13 226.87-16.4-5.34 16.4-5.32zm-13.13-5.34 12.15 3.95v-7.88z" fill="#333"/><path d="m213.29 206.13c0 3.2 2.6 4 5.2 3.15 0 1.25-1.5 1.25-2.75 1.25-2.8 0-4-1.6-4-4.4 0-3.8 3.1-4.9 6.55-4v2.3h-.5c-.25-.75-.2-1.55-1.15-1.75-2.35-.5-3.35 1-3.35 3.45" fill="#333"/><path d="m223.49 201.83c2.6 0 3.8 1.6 3.8 4.35s-1.2 4.35-3.85 4.35-3.75-1.7-3.75-4.35 1.2-4.35 3.8-4.35zm-.05 8c1.95 0 2.3-1.75 2.3-3.65s-.35-3.65-2.3-3.65-2.2 1.7-2.2 3.65.3 3.6 2.2 3.65" fill="#333"/><path d="m234.29 204.43c.2-1.85-2.1-1.6-3.4-1.25v6.55l1.2.2v.4h-3.7c-.15-.65.65-.45 1-.6v-7c-.35-.15-1.15 0-1-.6h2.4l.05.65c1.1-.75 3.85-1.5 4.6.1 1.6-1.1 5.2-1.8 5.2 1.45v5.45c.4.15 1.2-.1 1.05.6h-3.75v-.4l1.25-.2v-5.3c.15-2-2.25-1.55-3.6-1.2.35 1.85 0 4.4.15 6.5l1.25.2v.4h-3.9v-.4l1.2-.2z" fill="#333"/><path d="m248.29 204.43c.2-1.85-2.1-1.6-3.4-1.25v6.55l1.2.2v.4h-3.7c-.15-.65.65-.45 1-.6v-7c-.35-.15-1.15 0-1-.6h2.4l.05.65c1.1-.75 3.85-1.5 4.6.1 1.6-1.1 5.2-1.8 5.2 1.45v5.45c.4.15 1.2-.1 1.05.6h-3.75v-.4l1.25-.2v-5.3c.15-2-2.25-1.55-3.6-1.2.35 1.85 0 4.4.15 6.5l1.25.2v.4h-3.9v-.4l1.2-.2z" fill="#333"/><path d="m257.59 202.18c2.05-.5 5.1-.7 5.1 1.95v5.6c.4.15 1.2-.1 1.05.6h-2.25l-.2-.85c-1.15 1.5-5.15 1.5-4.65-1.45-.1-2.5 2.25-2.5 4.6-2.55.2-1.8-.25-3.5-2.1-2.8a6.89 6.89 0 0 0 -.8.3c-.2.35 0 1.15-.75 1zm.5 5.8c0 2.05 2.05 1.65 3.15 1.1v-3c-1.7.05-3.15 0-3.15 1.85" fill="#333"/><path d="m270.19 204.43c.2-1.85-2.05-1.7-3.4-1.3v6.6l1.15.2v.4h-3.6c-.15-.65.65-.45 1-.6v-7c-.35-.15-1.15 0-1-.6h2.35l.1.65c1.55-1.15 4.9-1.45 4.9 1.55v5.45c.35.15 1.15 0 1 .6h-3.6v-.4l1.1-.2z" fill="#333"/><path d="m273.59 206.28c0-3.55 2.3-5.05 5.7-4.25l-.05-3.6-1.4-.2v-.4h2.85v11.9c.4.15 1.2-.1 1.05.6h-2.35l-.1-.6c-2.35 1.75-5.7.55-5.7-3.45zm3.85-3.7c-1.85 0-2.2 1.65-2.25 3.7 0 1.9.45 3.3 2.25 3.3a4.61 4.61 0 0 0 1.8-.35v-6.5c-.5 0-1.2-.15-1.8-.15" fill="#333"/><path d="m284.69 210.33v-.45l1.9-.25v-10.35a24.94 24.94 0 0 0 -3.5.2l-.25 1.85h-.55v-2.8h10.35v2.8h-.64l-.25-1.85-3.5-.15v10.3l1.85.25v.45z" fill="#333"/><path d="m296.14 201.83c2.6 0 3.8 1.6 3.8 4.35s-1.2 4.35-3.85 4.35-3.75-1.7-3.75-4.35 1.2-4.35 3.8-4.35zm-.05 8c2 0 2.3-1.75 2.3-3.65s-.35-3.65-2.3-3.65-2.2 1.7-2.2 3.65.3 3.6 2.2 3.65" fill="#333"/><path d="m303.64 206.33 3.4-3.65c-.35-.15-1 0-.85-.6h2.9c.15.65-.65.45-1 .6l-2.35 2.4 3 4.65c.35.15 1.05 0 .9.6h-3.4c-.15-.6.45-.45.75-.6l-2.25-3.55-1.1 1.15v2.4c.35.15 1.05 0 .9.6h-3.4v-.4l1.05-.2v-11.3l-1.2-.2v-.4h2.65z" fill="#333"/><path d="m313.84 201.83c2.45 0 3.3 1.65 3.15 4.35h-5.05c-.4 3 1.9 4 4.75 3.15v.5a5.33 5.33 0 0 1 -2.65.7c-2.7 0-3.7-1.65-3.7-4.4s1.1-4.3 3.5-4.3zm1.65 3.65c.6-2.85-2.85-4.1-3.45-1.2a8.3 8.3 0 0 0 -.1 1.2z" fill="#333"/><path d="m323.84 204.43c.2-1.85-2-1.7-3.4-1.3v6.6l1.15.2v.4h-3.59c-.15-.65.65-.45 1-.6v-7c-.35-.15-1.15 0-1-.6h2.35l.1.65c1.55-1.15 4.9-1.45 4.9 1.55v5.45c.35.15 1.15 0 1 .6h-3.6v-.4l1.1-.2z" fill="#333"/><path d="m328.64 203.83c.35 2.4 4.3 1.15 4.3 4.2 0 2.8-3.45 2.85-5.6 2.05v-2c1 0 .45 1.45 1.55 1.55 1.75 1 3.85-1.3 2.05-2.5-1.35-.9-3.6-.65-3.6-2.95 0-2.5 2.9-2.6 5-2.05v1.8c-.95 0-.4-1.25-1.4-1.25-1.05-.35-2.5-.05-2.3 1.15" fill="#333"/><path d="m374.58.72h155.3v100h-155.3z" fill="#fff" stroke="#333"/><path d="m415.24 37.5v-.45l8.35-4.1v.9l-7.1 3.4 7.1 3.45v.9" fill="#333"/><path d="m425.39 37.5v-.45l8.35-4.1v.9l-7.1 3.4 7.1 3.45v.9" fill="#333"/><path d="m436.89 39.05c0 3.2 2.6 4 5.2 3.15.05 1.25-1.5 1.25-2.75 1.25-2.8 0-4-1.6-4-4.4 0-3.8 3.1-4.9 6.55-4v2.3h-.5c-.25-.75-.2-1.55-1.15-1.75-2.35-.5-3.35 1-3.35 3.45" fill="#333"/><path d="m445.84 42.65 1.4.2v.4h-4.3v-.4l1.4-.2v-11.3l-1.4-.2v-.4h2.9z" fill="#333"/><path d="m449.19 35.1c2.05-.5 5.1-.7 5.1 1.95v5.6c.4.15 1.2-.1 1 .6h-2.25l-.2-.85c-1.15 1.5-5.15 1.5-4.65-1.45-.1-2.5 2.25-2.5 4.6-2.55.2-1.8-.25-3.5-2.1-2.8a6.89 6.89 0 0 0 -.8.3c-.2.35 0 1.15-.75 1zm.5 5.8c0 2.05 2.05 1.65 3.15 1.1v-3c-1.7.05-3.15 0-3.15 1.85" fill="#333"/><path d="m457.59 36.75c.35 2.4 4.3 1.15 4.3 4.2 0 2.8-3.45 2.85-5.6 2v-1.95c1 0 .45 1.45 1.55 1.55 1.75 1 3.85-1.3 2.05-2.5-1.35-.9-3.6-.65-3.6-2.95 0-2.5 2.9-2.6 5-2.05v1.8c-1 0-.4-1.25-1.4-1.25-1.05-.35-2.5-.05-2.3 1.15" fill="#333"/><path d="m464.59 36.75c.35 2.4 4.3 1.15 4.3 4.2 0 2.8-3.45 2.85-5.6 2v-1.95c1 0 .45 1.45 1.55 1.55 1.75 1 3.85-1.3 2.05-2.5-1.35-.9-3.6-.65-3.6-2.95 0-2.5 2.9-2.6 5-2.05v1.8c-1 0-.4-1.25-1.4-1.25-1.05-.35-2.5-.05-2.3 1.15" fill="#333"/><path d="m470.44 41.6v-.9l7.1-3.45-7.1-3.4v-.85l8.4 4.1v.45" fill="#333"/><path d="m480.59 41.6v-.9l7.1-3.45-7.1-3.4v-.85l8.4 4.1v.45" fill="#333"/><path d="m384.81 64.4v.45h-3.81v-.45l1.3-.25 4.01-11.15h1.69l4.15 11.2 1.5.25v.45h-4.95v-.5l1.55-.25-1.15-3.4h-4.65l-1.2 3.4zm1.9-10.15-2 5.7h4.1" fill="#333"/><path d="m394.36 60.8c0-3.55 2.3-5 5.7-4.25l-.06-3.55-1.4-.2v-.4h2.85v11.9c.4.15 1.2-.1 1.05.6h-2.35l-.1-.6c-2.34 1.7-5.69.5-5.69-3.5zm3.85-3.7c-1.85 0-2.2 1.65-2.25 3.7s.45 3.3 2.25 3.3a4.61 4.61 0 0 0 1.8-.35v-6.5c-.5 0-1.2-.15-1.8-.15" fill="#333"/><path d="m403.36 60.8c0-3.55 2.3-5 5.7-4.25l-.06-3.55-1.4-.2v-.4h2.85v11.9c.4.15 1.2-.1 1.05.6h-2.35l-.1-.6c-2.34 1.7-5.69.5-5.69-3.5zm3.85-3.7c-1.85 0-2.2 1.65-2.25 3.7s.45 3.3 2.25 3.3a4.61 4.61 0 0 0 1.8-.35v-6.5c-.5 0-1.2-.15-1.8-.15" fill="#333"/><path d="m414.56 57.6a6.08 6.08 0 0 1 3-1.25v2.25c-.95 0-.4-1.5-2-.85l-1 .3v6.2l1.45.2v.4h-3.95v-.4l1.05-.2v-7c-.4-.15-1.2.1-1.05-.6h2.4" fill="#333"/><path d="m421.86 56.35c2.45 0 3.3 1.65 3.15 4.35h-5.01c-.4 3 1.9 4 4.75 3.15v.5a5.33 5.33 0 0 1 -2.65.7c-2.7 0-3.7-1.65-3.7-4.4s1.06-4.3 3.46-4.3zm1.65 3.65c.6-2.85-2.85-4.1-3.45-1.2a8.3 8.3 0 0 0 -.06 1.2z" fill="#333"/><path d="m427.66 58.35c.35 2.4 4.3 1.15 4.3 4.2 0 2.8-3.45 2.85-5.6 2v-2c1 0 .45 1.45 1.55 1.55 1.75.95 3.85-1.3 2-2.5-1.35-.9-3.6-.65-3.6-2.95 0-2.5 2.9-2.6 5-2.05v1.8c-.95 0-.4-1.25-1.4-1.25-1-.35-2.5-.05-2.3 1.15" fill="#333"/><path d="m434.66 58.35c.35 2.4 4.3 1.15 4.3 4.2 0 2.8-3.45 2.85-5.6 2v-2c1 0 .45 1.45 1.55 1.55 1.75.95 3.85-1.3 2-2.5-1.35-.9-3.6-.65-3.6-2.95 0-2.5 2.9-2.6 5-2.05v1.8c-.95 0-.4-1.25-1.4-1.25-1-.35-2.5-.05-2.3 1.15" fill="#333"/><path d="m443.36 58.3c2.5.1 4.65.15 4.65-2.4 0-2.3-2.4-2-4.65-2zm0 5.75c2.75.2 5.55.3 5.55-2.55 0-2.65-2.9-2.4-5.55-2.4zm7.4-2.6c0 4.6-6.05 3.25-10.65 3.4v-.45l1.55-.25v-10.4l-1.55-.2v-.5c3.85.3 9.65-1.2 9.7 2.8a2.6 2.6 0 0 1 -2.4 2.7c1.8.25 3.35 1 3.35 2.9" fill="#333"/><path d="m456.11 56.35c2.6 0 3.8 1.6 3.8 4.35s-1.2 4.35-3.85 4.35-3.75-1.7-3.75-4.35 1.2-4.35 3.8-4.35zm-.05 8c1.95 0 2.3-1.75 2.3-3.65s-.35-3.65-2.3-3.65-2.2 1.7-2.2 3.65.3 3.6 2.2 3.65" fill="#333"/><path d="m465.11 56.35c2.6 0 3.8 1.6 3.8 4.35s-1.2 4.35-3.85 4.35-3.75-1.7-3.75-4.35 1.2-4.35 3.8-4.35zm-.05 8c1.95 0 2.3-1.75 2.3-3.65s-.35-3.65-2.3-3.65-2.2 1.7-2.2 3.65.3 3.6 2.2 3.65" fill="#333"/><path d="m472.61 60.85 3.39-3.65c-.35-.15-1 0-.85-.6h2.9c.15.65-.65.45-1 .6l-2.35 2.4 3 4.65c.35.15 1.05 0 .9.6h-3.4c-.15-.6.45-.45.75-.6l-2.25-3.55-1.1 1.15v2.4c.35.15 1.05 0 .9.6h-3.4v-.4l1.05-.2v-11.25l-1.2-.2v-.4h2.65z" fill="#333"/><path d="m482.36 59.45c2.4.15 3.8-.6 3.8-2.9s-1.4-2.85-3.8-2.7zm5.55-2.9c-.05 3-2.3 3.9-5.55 3.7v3.9l1.85.25v.45h-4.95v-.45l1.4-.25v-10.4l-1.55-.2v-.5c4.05.05 8.9-.7 8.8 3.5" fill="#333"/><path d="m490.21 56.7c2.05-.5 5.1-.7 5.1 1.95v5.6c.4.15 1.2-.1 1.05.6h-2.25l-.2-.85c-1.15 1.5-5.15 1.5-4.65-1.45-.1-2.5 2.25-2.5 4.6-2.55.2-1.8-.25-3.5-2.1-2.8a6.89 6.89 0 0 0 -.8.3c-.2.35 0 1.15-.75 1zm.5 5.8c0 2 2.05 1.65 3.15 1.1v-3c-1.7.05-3.15 0-3.15 1.85" fill="#333"/><path d="m499.41 57.6a6.08 6.08 0 0 1 3-1.25v2.25c-1 0-.4-1.5-2-.85l-1 .3v6.2l1.45.2v.4h-3.95v-.4l1-.2v-7c-.4-.15-1.2.1-1-.6h2.4" fill="#333"/><path d="m504.56 58.35c.35 2.4 4.3 1.15 4.3 4.2 0 2.8-3.45 2.85-5.6 2v-2c1 0 .45 1.45 1.55 1.55 1.75.95 3.85-1.3 2.05-2.5-1.35-.9-3.6-.65-3.6-2.95 0-2.5 2.9-2.6 5-2.05v1.8c-.95 0-.4-1.25-1.4-1.25-1.05-.35-2.5-.05-2.3 1.15" fill="#333"/><path d="m513.71 56.35c2.45 0 3.3 1.65 3.15 4.35h-5.05c-.4 3 1.9 4 4.75 3.15v.5a5.33 5.33 0 0 1 -2.65.7c-2.7 0-3.7-1.65-3.7-4.4s1.1-4.3 3.5-4.3zm1.65 3.65c.6-2.85-2.85-4.1-3.45-1.2a8.3 8.3 0 0 0 -.1 1.2z" fill="#333"/><path d="m520.31 57.6a6.08 6.08 0 0 1 3-1.25v2.25c-.95 0-.4-1.5-2-.85l-1 .3v6.2l1.45.2v.4h-4v-.4l1.05-.2v-7c-.4-.15-1.2.1-1.05-.6h2.4" fill="#333"/><path d="m452.23 101.72v300.12" fill="none"/><path d="m452.23 101.72v5m0 5v10m0 5v10m0 5v10m0 5v10m0 5v10m0 5v10m0 5v10m0 5v10m0 5v10m0 5v10m0 5v10m0 5v10m0 5v10m0 5v10m0 5v10m0 5v10m0 5v10m0 5v10m0 5v10m0 5v5" fill="none" stroke="#333"/><path d="m452.73 101.74h-1v-.52h1zm0 300.6h-1v-.5h1z" fill="#333"/><path d="m432.23 161.07h40v60h-40zm-417.65-160.35h155.3v100h-155.3z" fill="#fff" stroke="#333"/><path d="m31.16 53.9a1 1 0 0 1 1.05 1.1 1 1 0 0 1 -1.05 1 1 1 0 0 1 -1.1-1 1 1 0 0 1 1.1-1.1zm0-6.6a1 1 0 0 1 1.05 1.05 1 1 0 0 1 -1.05 1.1 1 1 0 0 1 -1.1-1.1 1 1 0 0 1 1.1-1.05" fill="#333"/><path d="m42.56 52.35c0 3.95-4.75 4.1-7.7 2.95v-2.7h.6c0 1.75 1.1 2.6 3 2.6 2.5 0 3.45-2.9 1.65-4.1-2-1.2-5.25-1.05-5.25-4.25 0-3.35 4.3-3.3 7.1-2.65v2.45h-.6l-.3-1.45c-1.55-1.35-6.05-.35-4.45 2.1 1.4 2.15 6 1.2 6 5.05" fill="#333"/><path d="m49.86 55.1c-1.75 1-4.9 1.4-4.9-1.6v-5.4c-.4-.15-1.2.1-1.05-.6h2.5v5.9c-.15 1.85 2.1 1.6 3.45 1.25v-6.55l-1.25-.2v-.4h2.7v7.65c.4.15 1.2-.1 1 .6h-2.31" fill="#333"/><path d="m59.71 48.15a3.05 3.05 0 0 1 -2.71 4.85 10.11 10.11 0 0 1 -1.35-.15l-.54 1.15c1.45 1.1 6.5-.7 6.2 2.6-.2 2.25-1.9 2.85-4.4 3-3.2.25-4.65-2.6-2-4a1.61 1.61 0 0 1 -1.2-1.45l1.4-1.55a2.54 2.54 0 0 1 -1.4-2.55c-.1-2.55 2.65-3.25 5-2.6l1.9-1 .35.4zm-2.8 10.85c1.75 0 3.05-.55 3.05-2.1 0-1.75-2.85-.85-4.45-1.05a2.43 2.43 0 0 0 -.85 1.7c0 1.2.95 1.45 2.25 1.45zm-1.65-8.9c.05 1.3.35 2.3 1.75 2.2s1.7-.8 1.75-2.2-.3-2.1-1.7-2.1-1.8.85-1.8 2.15" fill="#333"/><path d="m68.71 48.15a3.05 3.05 0 0 1 -2.71 4.85 10.11 10.11 0 0 1 -1.35-.15l-.54 1.15c1.45 1.1 6.5-.7 6.2 2.6-.2 2.25-1.9 2.85-4.4 3-3.2.25-4.65-2.6-2-4a1.61 1.61 0 0 1 -1.2-1.45l1.4-1.55a2.54 2.54 0 0 1 -1.4-2.55c-.1-2.55 2.65-3.25 5-2.6l1.9-1 .35.4zm-2.8 10.85c1.75 0 3-.55 3-2.1 0-1.75-2.85-.85-4.45-1.05a2.43 2.43 0 0 0 -.85 1.7c.05 1.2 1 1.45 2.3 1.45zm-1.65-8.9c0 1.3.35 2.3 1.75 2.2s1.7-.8 1.75-2.2-.3-2.1-1.7-2.1-1.8.85-1.8 2.15" fill="#333"/><path d="m74.86 47.25c2.45 0 3.3 1.65 3.15 4.35h-5.01c-.4 3 1.9 4 4.75 3.15v.5a5.33 5.33 0 0 1 -2.65.7c-2.7 0-3.7-1.65-3.7-4.4s1.06-4.3 3.46-4.3zm1.65 3.65c.6-2.85-2.85-4.1-3.45-1.2a8.3 8.3 0 0 0 -.1 1.2z" fill="#333"/><path d="m80.66 49.25c.35 2.4 4.3 1.15 4.3 4.2 0 2.8-3.45 2.85-5.6 2v-2c1 0 .45 1.45 1.55 1.55 1.75 1 3.85-1.3 2-2.5-1.35-.9-3.6-.65-3.6-2.95 0-2.5 2.9-2.6 5-2.05v1.8c-1 0-.4-1.25-1.4-1.25-1-.35-2.5-.05-2.3 1.15" fill="#333"/><path d="m88.31 53.85c0 1.25 1.2 1.3 2.2 1v.6c-1.35.8-3.65.75-3.65-1.45v-5.75h-1c-.1-.7.7-.5 1-.75l.9-1.9h.55v1.9h1.9v.75h-1.9z" fill="#333"/><path d="m93 45.75c-1.15 0-1.25-2 0-1.9.65 0 .9.35 1 .95a1 1 0 0 1 -1 .95zm.9 9.4 1.4.2v.4h-4.3v-.4l1.4-.2v-7l-1.2-.2v-.4h2.65z" fill="#333"/><path d="m100.11 47.25c2.6 0 3.8 1.6 3.8 4.35s-1.2 4.4-3.85 4.4-3.75-1.7-3.75-4.35 1.2-4.4 3.8-4.4zm0 8c2 0 2.3-1.75 2.3-3.65s-.41-3.6-2.35-3.6-2.2 1.7-2.2 3.65.3 3.6 2.2 3.65" fill="#333"/><path d="m110.86 49.85c.2-1.85-2-1.7-3.4-1.3v6.6l1.15.2v.4h-3.61c-.15-.65.65-.45 1-.6v-7c-.35-.15-1.15 0-1-.6h2.35l.1.65c1.55-1.15 4.9-1.45 4.9 1.55v5.45c.35.15 1.15 0 1 .6h-3.6v-.4l1.1-.2z" fill="#333"/><path d="m119.16 44.45-1.8.2v10.35a32.79 32.79 0 0 0 5-.2l.55-2.45h.55l-.15 3.4h-9.25v-.45l1.55-.25v-10.4l-1.55-.2v-.45h5z" fill="#333"/><path d="m129.06 47.25c2.6 0 3.8 1.6 3.8 4.35s-1.2 4.4-3.86 4.4-3.75-1.7-3.75-4.35 1.21-4.4 3.81-4.4zm-.05 8c2 0 2.3-1.75 2.3-3.65s-.31-3.6-2.31-3.6-2.2 1.7-2.2 3.65.3 3.6 2.2 3.65" fill="#333"/><path d="m140.61 48.15a3.05 3.05 0 0 1 -2.7 4.85 10.11 10.11 0 0 1 -1.35-.15l-.56 1.15c1.45 1.1 6.5-.7 6.2 2.6-.2 2.25-1.9 2.85-4.4 3-3.2.25-4.65-2.6-2-4a1.61 1.61 0 0 1 -1.2-1.45l1.4-1.55a2.54 2.54 0 0 1 -1.4-2.55c-.1-2.55 2.65-3.25 5-2.6l1.9-1 .35.4zm-2.8 10.85c1.75 0 3.05-.55 3.05-2.1 0-1.75-2.85-.85-4.45-1.05a2.43 2.43 0 0 0 -.85 1.7c0 1.2.95 1.45 2.25 1.45zm-1.65-8.85c.05 1.3.35 2.3 1.75 2.2s1.7-.8 1.75-2.2-.3-2.15-1.66-2.15-1.8.85-1.8 2.15" fill="#333"/><path d="m144.91 45.75c-1.15 0-1.25-2 0-1.9.65 0 .9.35 1 .95a1 1 0 0 1 -1 .95zm.9 9.4 1.4.2v.4h-4.21v-.4l1.4-.2v-7l-1.2-.2v-.4h2.65z" fill="#333"/><path d="m149.81 51.55c0 3.2 2.6 4 5.2 3.15.05 1.25-1.5 1.25-2.75 1.25-2.8 0-4-1.6-4-4.4 0-3.8 3.1-4.9 6.55-4v2.3h-.5c-.25-.75-.2-1.55-1.15-1.75-2.35-.5-3.35 1-3.35 3.45" fill="#333"/><path d="m92.23 101.72v287.15" fill="none"/><path d="m92.23 101.72v5m0 5v10.07m0 5v10.21m0 5v10.08m0 5v10.12m0 5v10.08m0 5v10.07m0 5v10.08m0 5v10.07m0 5v10.08m0 5.05v10.07m0 5v10.3m0 5v10.08m0 5v10.08m0 5v10.07m0 5v10.1m0 5v10.08m0 5v10.07m0 5.05v10.27m0 5v5" fill="none" stroke="#333"/><path d="m92.73 101.74h-1v-.52h1zm0 287.63h-1v-.5h1z" fill="#333"/><path d="m72.23 121.1h40v267.77h-40z" fill="#fff" stroke="#333"/><path d="m0 232.89h544.2v169.45h-544.2z" fill="url(#a)"/><path d="m559.39.5h281.9v390.74h-281.9z" fill="none"/><path d="m587.58.5h-28.2v390.74h28.2" fill="none" stroke="#333"/><g fill="#333"><path d="m588.51 8.7c-3.1 0-3.9 2.15-3.9 5.3s.8 5.4 3.9 5.4 3.9-2.25 3.9-5.4-.8-5.3-3.9-5.3zm0 11.4c-3.85 0-5.75-2.15-5.75-6.1s1.85-6 5.75-6 5.75 2.1 5.75 6-1.9 6.1-5.75 6.1"/><path d="m597.61 19.2c2.9.6 4.1-.75 4.1-3.65 0-2.6-1.75-3.85-4.1-2.9zm1.8.9a8.93 8.93 0 0 1 -3.25-.65v-11.45l-1.16-.2v-.4h2.65l-.05 4.7c2.4-1.65 5.7-.2 5.7 3.45 0 2.85-1.15 4.55-3.85 4.55"/><path d="m606.46 8c1.4 0 1.1 1.9 0 1.9-.5-.1-1-.35-1-1s.4-.85 1-.9zm-2.35 14.8c1.2.75 1.75-.5 1.75-2.1v-8.45l-1.25-.2v-.4h2.7v8.6c.2 2.55-1.4 4.05-3.85 3.3v-1.75c.65-.1.45.65.65 1"/><path d="m613.16 11.4c2.45 0 3.3 1.65 3.15 4.35h-5c-.4 3 1.9 4 4.75 3.15v.5a5.33 5.33 0 0 1 -2.65.7c-2.7 0-3.7-1.65-3.7-4.4s1.05-4.3 3.45-4.3zm1.65 3.65c.6-2.85-2.85-4.1-3.45-1.2a8.3 8.3 0 0 0 -.1 1.2z"/><path d="m619.16 15.7c0 3.2 2.6 4 5.2 3.15 0 1.25-1.5 1.25-2.75 1.25-2.8 0-4-1.6-4-4.4 0-3.8 3.1-4.9 6.55-4v2.3h-.5c-.25-.75-.2-1.55-1.15-1.75-2.35-.5-3.35 1.05-3.35 3.45"/><path d="m627.56 18c0 1.25 1.2 1.3 2.2 1v.6c-1.35.8-3.65.75-3.65-1.45v-5.75h-1.05c-.1-.7.7-.5 1.05-.75l.9-1.9h.55v1.9h1.9v.75h-1.9z"/><path d="m631.91 13.4c.35 2.4 4.3 1.15 4.3 4.2 0 2.8-3.45 2.85-5.6 2v-2c1 0 .45 1.45 1.55 1.55 1.75.95 3.85-1.3 2.05-2.5-1.35-.9-3.6-.65-3.6-2.95 0-2.5 2.9-2.6 5-2.05v1.8c-1 .05-.4-1.25-1.4-1.25-1.05-.35-2.5-.05-2.3 1.15"/><path d="m643.71 9.9c-1.15 0-1.25-1.95 0-1.9.65 0 .9.35 1 .95a1 1 0 0 1 -1 .95zm.9 9.4 1.4.2v.4h-4.25v-.4l1.4-.2v-7l-1.2-.2v-.4h2.65z"/><path d="m652.61 14c.2-1.85-2.05-1.7-3.4-1.3v6.6l1.15.2v.4h-3.6c-.15-.65.65-.45 1-.6v-7c-.35-.15-1.15.05-1-.6h2.35l.1.65c1.55-1.15 4.9-1.45 4.9 1.55v5.4c.35.15 1.15-.05 1 .6h-3.6v-.4l1.1-.2z"/><path d="m668.76 16.5c0 3.95-4.75 4.1-7.7 2.95v-2.7h.6c.05 1.75 1.1 2.6 3 2.6 2.5 0 3.45-2.9 1.65-4.1s-5.25-1.05-5.25-4.25c0-3.35 4.3-3.3 7.1-2.65v2.45h-.6l-.3-1.45c-1.55-1.35-6-.35-4.45 2.1 1.4 2.15 6 1.2 6 5.05"/><path d="m676.06 19.25c-1.75 1.05-4.9 1.4-4.9-1.6v-5.4c-.4-.15-1.2.1-1-.6h2.5v5.9c-.15 1.85 2.1 1.6 3.45 1.25v-6.55l-1.25-.2v-.4h2.7v7.65c.4.15 1.2-.1 1 .6h-2.4"/><path d="m685.91 12.3a3.05 3.05 0 0 1 -2.7 4.85 10.11 10.11 0 0 1 -1.35-.15l-.55 1.15c1.45 1.1 6.5-.7 6.2 2.6-.2 2.25-1.9 2.85-4.4 3.05-3.2.25-4.65-2.6-2-4a1.61 1.61 0 0 1 -1.2-1.45l1.4-1.55a2.54 2.54 0 0 1 -1.4-2.55c-.1-2.55 2.65-3.25 5-2.6l1.9-1 .35.4zm-2.8 10.8c1.75 0 3-.55 3-2.1 0-1.75-2.85-.85-4.45-1.05a2.43 2.43 0 0 0 -.85 1.7c.05 1.25 1 1.45 2.3 1.45zm-1.65-8.85c0 1.3.35 2.3 1.75 2.2s1.7-.8 1.75-2.2-.3-2.15-1.7-2.15-1.8.85-1.8 2.15"/><path d="m694.91 12.3a3.05 3.05 0 0 1 -2.7 4.85 10.11 10.11 0 0 1 -1.35-.15l-.55 1.15c1.45 1.1 6.5-.7 6.2 2.6-.2 2.25-1.9 2.85-4.4 3.05-3.2.25-4.65-2.6-2-4a1.61 1.61 0 0 1 -1.2-1.45l1.4-1.55a2.54 2.54 0 0 1 -1.4-2.55c-.1-2.55 2.65-3.25 5-2.6l1.9-1 .35.4zm-2.8 10.8c1.75 0 3-.55 3-2.1 0-1.75-2.85-.85-4.45-1.05a2.43 2.43 0 0 0 -.85 1.7c.05 1.25 1 1.45 2.3 1.45zm-1.65-8.85c0 1.3.35 2.3 1.75 2.2s1.7-.8 1.75-2.2-.3-2.15-1.7-2.15-1.8.85-1.8 2.15"/><path d="m701.06 11.4c2.45 0 3.3 1.65 3.15 4.35h-5.05c-.4 3 1.9 4 4.75 3.15v.5a5.33 5.33 0 0 1 -2.65.7c-2.7 0-3.7-1.65-3.7-4.4s1.1-4.3 3.5-4.3zm1.65 3.65c.6-2.85-2.85-4.1-3.45-1.2a8.3 8.3 0 0 0 -.1 1.2z"/><path d="m706.86 13.4c.35 2.4 4.3 1.15 4.3 4.2 0 2.8-3.45 2.85-5.6 2v-2c1 0 .45 1.45 1.55 1.55 1.75.95 3.85-1.3 2-2.5-1.35-.9-3.6-.65-3.6-2.95 0-2.5 2.9-2.6 5-2.05v1.8c-.95.05-.4-1.25-1.4-1.25-1-.35-2.5-.05-2.3 1.15"/><path d="m714.51 18c0 1.25 1.2 1.3 2.2 1v.6c-1.35.8-3.65.75-3.65-1.45v-5.75h-1c-.1-.7.7-.5 1-.75l.9-1.9h.55v1.9h1.9v.75h-1.9z"/><path d="m719.16 9.9c-1.15 0-1.25-1.95 0-1.9.65 0 .9.35 1 .95a1 1 0 0 1 -1 .95zm.9 9.4 1.4.2v.4h-4.25v-.4l1.4-.2v-7l-1.2-.2v-.4h2.65z"/><path d="m726.31 11.4c2.6 0 3.8 1.6 3.8 4.35s-1.2 4.35-3.85 4.35-3.75-1.7-3.75-4.35 1.2-4.35 3.8-4.35zm0 8c2 0 2.3-1.75 2.3-3.65s-.35-3.65-2.3-3.65-2.2 1.7-2.2 3.65.3 3.6 2.2 3.65"/><path d="m737.06 14c.2-1.85-2-1.7-3.4-1.3v6.6l1.15.2v.4h-3.6c-.15-.65.65-.45 1-.6v-7c-.35-.15-1.15.05-1-.6h2.35l.1.65c1.55-1.15 4.9-1.45 4.9 1.55v5.4c.35.15 1.15-.05 1 .6h-3.56v-.4l1.1-.2z"/><path d="m745.36 8.6-1.8.2v10.35a32.79 32.79 0 0 0 5.05-.2l.55-2.45h.55l-.15 3.4h-9.25v-.45l1.55-.25v-10.4l-1.55-.2v-.5h5.05z"/><path d="m755.26 11.4c2.6 0 3.8 1.6 3.8 4.35s-1.2 4.35-3.85 4.35-3.75-1.7-3.75-4.35 1.2-4.35 3.8-4.35zm0 8c1.95 0 2.3-1.75 2.3-3.65s-.35-3.65-2.3-3.65-2.2 1.7-2.2 3.65.3 3.6 2.2 3.65"/><path d="m766.81 12.3a3.05 3.05 0 0 1 -2.7 4.85 10.11 10.11 0 0 1 -1.35-.15l-.55 1.15c1.45 1.1 6.5-.7 6.2 2.6-.2 2.25-1.9 2.85-4.4 3.05-3.2.25-4.65-2.6-2-4a1.61 1.61 0 0 1 -1.2-1.45l1.4-1.55a2.54 2.54 0 0 1 -1.4-2.55c-.1-2.55 2.65-3.25 5-2.6l1.9-1 .35.4zm-2.81 10.8c1.75 0 3-.55 3-2.1 0-1.75-2.85-.85-4.45-1.05a2.43 2.43 0 0 0 -.85 1.7c.06 1.25 1.01 1.45 2.3 1.45zm-1.65-8.85c0 1.3.35 2.3 1.75 2.2s1.7-.8 1.75-2.2-.3-2.15-1.7-2.15-1.8.85-1.8 2.15"/><path d="m771.11 9.9c-1.15 0-1.25-1.95 0-1.9.65 0 .9.35 1 .95a1 1 0 0 1 -1 .95zm.9 9.4 1.4.2v.4h-4.25v-.4l1.4-.2v-7l-1.2-.2v-.4h2.64z"/><path d="m776 15.7c0 3.2 2.6 4 5.2 3.15 0 1.25-1.5 1.25-2.75 1.25-2.8 0-4-1.6-4-4.4 0-3.8 3.1-4.9 6.55-4v2.3h-.5c-.25-.75-.2-1.55-1.15-1.75-2.35-.5-3.35 1.05-3.35 3.45"/><path d="m788.26 13.4c.35 2.4 4.3 1.15 4.3 4.2 0 2.8-3.45 2.85-5.6 2v-2c1 0 .45 1.45 1.55 1.55 1.75.95 3.85-1.3 2-2.5-1.35-.9-3.6-.65-3.6-2.95 0-2.5 2.9-2.6 5-2.05v1.8c-1 .05-.4-1.25-1.4-1.25-1-.35-2.5-.05-2.3 1.15"/><path d="m795.46 15.7c0 3.2 2.6 4 5.2 3.15.05 1.25-1.5 1.25-2.75 1.25-2.8 0-4-1.6-4-4.4 0-3.8 3.1-4.9 6.55-4v2.3h-.46c-.25-.75-.2-1.55-1.15-1.75-2.35-.5-3.35 1.05-3.35 3.45"/><path d="m805.66 11.4c2.6 0 3.8 1.6 3.8 4.35s-1.2 4.35-3.85 4.35-3.75-1.7-3.75-4.35 1.2-4.35 3.8-4.35zm0 8c1.95 0 2.3-1.75 2.3-3.65s-.35-3.65-2.3-3.65-2.2 1.7-2.2 3.65.3 3.6 2.2 3.65"/><path d="m818.46 15.65c.15 3.35-2.2 5.1-5.55 4.25l.05 3.2 1.45.2v.45h-3.95v-.45l1-.2v-10.85c-.35-.15-1.1.05-1-.6h2.3v.45a3.77 3.77 0 0 1 2.25-.7c2.5.1 3.35 1.8 3.45 4.25zm-5.5 3.6c2.65.7 4.15-.7 3.9-3.6.35-2.65-1.65-4-3.9-3z"/><path d="m823.36 11.4c2.45 0 3.3 1.65 3.15 4.35h-5c-.4 3 1.9 4 4.75 3.15v.5a5.33 5.33 0 0 1 -2.65.7c-2.7 0-3.7-1.65-3.7-4.4s1.09-4.3 3.45-4.3zm1.64 3.65c.6-2.85-2.85-4.1-3.45-1.2a8.3 8.3 0 0 0 -.1 1.2z"/><path d="m583.61 33.35c2-.5 5.1-.7 5.1 1.95v5.6c.4.15 1.2-.1 1 .6h-2.25l-.2-.85c-1.15 1.5-5.15 1.5-4.65-1.45-.1-2.5 2.25-2.5 4.6-2.55.2-1.8-.25-3.5-2.1-2.8a6.89 6.89 0 0 0 -.8.3c-.2.35 0 1.15-.75 1zm.5 5.8c0 2.05 2 1.65 3.15 1.1v-3c-1.7.05-3.15 0-3.15 1.85"/><path d="m595.11 29.7c-2-.75-1.75 1.6-1.7 3.55h2.2v.75h-2.2v6.8l1.75.3v.4h-4.45v-.4l1.25-.3v-6.8h-1.45v-.45l1.49-.35c-.3-3 1.15-5 4-4.2v1.8c-.75.1-.6-.7-.85-1.1"/><path d="m598.61 39.6c-.05 1.25 1.2 1.3 2.2 1v.6c-1.35.8-3.65.75-3.65-1.45v-5.75h-1c-.1-.7.7-.5 1-.75l.9-1.9h.55v1.9h1.9v.75h-1.9z"/><path d="m605.11 33c2.45 0 3.3 1.65 3.15 4.35h-5c-.4 3 1.9 4 4.75 3.15v.5a5.33 5.33 0 0 1 -2.65.7c-2.7 0-3.7-1.65-3.7-4.4s1.05-4.3 3.45-4.3zm1.65 3.65c.6-2.85-2.85-4.1-3.45-1.2a8.3 8.3 0 0 0 -.1 1.2z"/><path d="m611.71 34.25a6.08 6.08 0 0 1 3-1.25v2.25c-1 0-.4-1.5-2-.85l-1 .3v6.2l1.45.2v.4h-3.95v-.4l1-.2v-7c-.4-.15-1.2.1-1-.6h2.4"/><path d="m623.51 33c2.45 0 3.3 1.65 3.15 4.35h-5c-.4 3 1.9 4 4.75 3.15v.5a5.33 5.33 0 0 1 -2.65.7c-2.7 0-3.7-1.65-3.7-4.4s1.05-4.3 3.45-4.3zm1.65 3.65c.6-2.85-2.85-4.1-3.45-1.2a8.3 8.3 0 0 0 -.1 1.2z"/><path d="m635.06 40.9c.35.15 1.15 0 1 .6h-3.75v-.4l1.1-.2-1.9-2.9-2.25 2.9 1.15.2v.4h-3v-.4l1-.15 2.75-3.55-2.4-3.55c-.35-.15-1.15 0-1-.6h3.75v.4l-1.1.2 1.6 2.4 1.85-2.4-1.15-.2v-.4h3v.4l-1 .15-2.3 3"/><path d="m640.46 33c2.45 0 3.3 1.65 3.15 4.35h-5.05c-.4 3 1.9 4 4.75 3.15v.5a5.33 5.33 0 0 1 -2.65.7c-2.7 0-3.7-1.65-3.7-4.4s1.1-4.3 3.5-4.3zm1.65 3.65c.6-2.85-2.85-4.1-3.45-1.2a8.3 8.3 0 0 0 -.1 1.2z"/><path d="m646.46 37.3c0 3.2 2.6 4 5.2 3.15.05 1.25-1.5 1.25-2.75 1.25-2.8 0-4-1.6-4-4.4 0-3.8 3.1-4.9 6.55-4v2.3h-.46c-.25-.75-.2-1.55-1.15-1.75-2.35-.5-3.35 1-3.35 3.45"/><path d="m658.36 40.85c-1.75 1-4.9 1.4-4.9-1.6v-5.4c-.4-.15-1.2.1-1.05-.6h2.5v5.9c-.15 1.85 2.1 1.6 3.45 1.25v-6.55l-1.25-.2v-.4h2.7v7.65c.4.15 1.2-.1 1.05.6h-2.4"/><path d="m663.86 39.6c-.05 1.25 1.2 1.3 2.2 1v.6c-1.35.8-3.65.75-3.65-1.45v-5.75h-1c-.1-.7.7-.5 1-.75l.9-1.9h.55v1.9h1.9v.75h-1.9z"/><path d="m668.51 31.5c-1.15 0-1.25-1.95 0-1.9.65 0 .9.35 1 .95a1 1 0 0 1 -1 .95zm.9 9.4 1.4.2v.4h-4.25v-.4l1.4-.2v-7l-1.2-.2v-.4h2.65z"/><path d="m675.66 33c2.6 0 3.8 1.6 3.8 4.35s-1.2 4.35-3.85 4.35-3.75-1.7-3.75-4.35 1.2-4.35 3.8-4.35zm0 8c1.95 0 2.3-1.75 2.3-3.65s-.35-3.65-2.3-3.65-2.2 1.7-2.2 3.65.3 3.6 2.2 3.65"/><path d="m686.41 35.6c.2-1.85-2-1.7-3.4-1.3v6.6l1.15.2v.4h-3.6c-.15-.65.65-.45 1-.6v-7c-.35-.15-1.15 0-1-.6h2.35l.1.65c1.55-1.15 4.9-1.45 4.9 1.55v5.4c.35.15 1.15 0 1 .6h-3.6v-.4l1.1-.2z"/></g><path d="m571.73 64.22h275.2v134h-275.2z" fill="#fff" stroke="#333"/><path d="m571.73 101.82h275.2m-275.2 59.18h275.2" fill="none" stroke="#333"/><g fill="#333"><path d="m584.92 82.62c0 3.2 2.6 4 5.2 3.15 0 1.25-1.5 1.25-2.75 1.25-2.8 0-4-1.6-4-4.4 0-3.8 3.1-4.9 6.55-4v2.3h-.5c-.25-.75-.2-1.55-1.15-1.75-2.35-.5-3.35 1-3.35 3.45"/><path d="m595.12 78.32c2.6 0 3.8 1.6 3.8 4.35s-1.2 4.33-3.85 4.33-3.75-1.7-3.75-4.35 1.2-4.33 3.8-4.33zm0 8c1.95 0 2.3-1.75 2.3-3.65s-.42-3.67-2.35-3.67-2.2 1.7-2.2 3.65.3 3.6 2.2 3.65"/><path d="m605.92 80.92c.2-1.85-2.1-1.6-3.4-1.25v6.55l1.2.2v.4h-3.72c-.15-.65.65-.45 1-.6v-7c-.35-.15-1.15 0-1-.6h2.4l.05.65c1.1-.75 3.85-1.5 4.6.1 1.6-1.1 5.2-1.8 5.2 1.45v5.45c.4.15 1.2-.1 1.05.6h-3.75v-.4l1.25-.2v-5.3c.15-2-2.25-1.55-3.6-1.2.35 1.85 0 4.4.15 6.5l1.25.2v.4h-3.9v-.4l1.2-.2z"/><path d="m619.92 80.92c.2-1.85-2.1-1.6-3.4-1.25v6.55l1.2.2v.4h-3.72c-.15-.65.65-.45 1-.6v-7c-.35-.15-1.15 0-1-.6h2.4l.05.65c1.1-.75 3.85-1.5 4.6.1 1.6-1.1 5.2-1.8 5.2 1.45v5.45c.4.15 1.2-.1 1.05.6h-3.75v-.4l1.25-.2v-5.3c.15-2-2.25-1.55-3.6-1.2.35 1.85 0 4.4.15 6.5l1.25.2v.4h-3.9v-.4l1.2-.2z"/><path d="m629.22 78.67c2-.5 5.1-.7 5.1 2v5.6c.4.15 1.2-.1 1 .6h-2.25l-.2-.85c-1.15 1.5-5.15 1.5-4.65-1.45-.1-2.5 2.25-2.5 4.6-2.55.2-1.8-.25-3.5-2.1-2.8a6.89 6.89 0 0 0 -.8.3c-.2.35 0 1.15-.75 1zm.5 5.8c0 2 2 1.65 3.15 1.1v-2.95c-1.7 0-3.15-.05-3.15 1.85"/><path d="m641.82 80.92c.2-1.85-2.05-1.7-3.4-1.3v6.6l1.15.2v.4h-3.57c-.15-.65.65-.45 1-.6v-7c-.35-.15-1.15 0-1-.6h2.35l.1.65c1.55-1.15 4.9-1.45 4.9 1.55v5.45c.35.15 1.15 0 1 .6h-3.6v-.4l1.1-.2z"/><path d="m645.22 82.77c0-3.55 2.3-5 5.7-4.25v-3.6l-1.4-.2v-.4h2.85v11.9c.4.15 1.2-.1 1 .6h-2.37l-.1-.6c-2.33 1.78-5.68.55-5.68-3.45zm3.85-3.7c-1.85.05-2.2 1.65-2.25 3.7s.45 3.3 2.25 3.3a4.61 4.61 0 0 0 1.8-.35v-6.5c-.5 0-1.2-.15-1.8-.15"/><path d="m656.32 86.82v-.45l1.9-.25v-10.35a24.94 24.94 0 0 0 -3.5.2l-.25 1.85h-.55v-2.82h10.35v2.8h-.6l-.25-1.8-3.5-.15v10.3l1.85.25v.45z"/><path d="m667.77 78.32c2.6 0 3.8 1.6 3.8 4.35s-1.2 4.33-3.85 4.33-3.72-1.68-3.72-4.33 1.17-4.35 3.77-4.35zm0 8c1.95 0 2.3-1.75 2.3-3.65s-.35-3.65-2.3-3.65-2.2 1.7-2.2 3.65.3 3.6 2.2 3.65"/><path d="m675.27 82.82 3.4-3.65c-.35-.15-1 0-.85-.6h2.9c.15.65-.65.45-1 .6l-2.35 2.4 3 4.65c.35.15 1 0 .9.6h-3.4c-.15-.6.45-.45.75-.6l-2.25-3.55-1.1 1.15v2.4c.35.15 1.05 0 .9.6h-3.4v-.4l1.05-.2v-11.3l-1.2-.2v-.4h2.65z"/><path d="m685.47 78.32c2.45 0 3.3 1.65 3.15 4.35h-5c-.4 3 1.9 4 4.75 3.15v.5a5.33 5.33 0 0 1 -2.65.7c-2.7 0-3.7-1.65-3.7-4.4s1.05-4.3 3.45-4.3zm1.65 3.68c.6-2.85-2.85-4.1-3.45-1.2a8.3 8.3 0 0 0 -.1 1.2z"/><path d="m695.47 80.92c.2-1.85-2.05-1.7-3.4-1.3v6.6l1.15.2v.4h-3.6c-.15-.65.65-.45 1-.6v-7c-.35-.15-1.15 0-1-.6h2.38l.1.65c1.55-1.15 4.9-1.45 4.9 1.55v5.45c.35.15 1.15 0 1 .6h-3.6v-.4l1.1-.2z"/><path d="m700.27 80.32c.35 2.4 4.3 1.15 4.3 4.2 0 2.8-3.45 2.85-5.6 2v-2c1 0 .45 1.45 1.55 1.55 1.75.95 3.85-1.3 2.05-2.5-1.35-.9-3.6-.65-3.6-3 0-2.5 2.9-2.6 5-2v1.8c-1 0-.4-1.25-1.4-1.25-1.05-.35-2.5 0-2.3 1.15"/><path d="m707.72 85a1 1 0 0 1 1 1 1 1 0 0 1 -1 1 1 1 0 0 1 -1.1-1 1 1 0 0 1 1.1-1zm0-6.6a1 1 0 0 1 1 1 1 1 0 0 1 -1 1.1 1 1 0 0 1 -1.1-1.1 1 1 0 0 1 1.1-1"/><path d="m712.82 81.07c0 4.65 4 6.5 7.5 4.35l.35-1.75h.55l-.05 2.75a14.54 14.54 0 0 1 -4.17.58c-3.8 0-5.85-2-6-6-.25-5.65 4.85-7 10-5.7l.05 2.55h-.6l-.25-1.5a6.45 6.45 0 0 0 -3.1-.8c-3.3 0-4.3 2-4.3 5.45"/><path d="m726.72 78.32c2.6 0 3.8 1.6 3.8 4.35s-1.2 4.33-3.85 4.33-3.75-1.7-3.75-4.35 1.2-4.33 3.8-4.33zm-.05 8c2 0 2.3-1.75 2.3-3.65s-.35-3.65-2.3-3.65-2.2 1.7-2.2 3.65.3 3.6 2.2 3.65"/><path d="m737.52 80.92c.2-1.85-2.1-1.6-3.4-1.25v6.55l1.2.2v.4h-3.7c-.15-.65.65-.45 1-.6v-7c-.35-.15-1.15 0-1-.6h2.38l.05.65c1.1-.75 3.85-1.5 4.6.1 1.6-1.1 5.2-1.8 5.2 1.45v5.45c.4.15 1.2-.1 1 .6h-3.75v-.4l1.25-.2v-5.3c.15-2-2.25-1.55-3.6-1.2.35 1.85 0 4.4.15 6.5l1.25.2v.4h-3.9v-.4l1.2-.2z"/><path d="m751.52 80.92c.2-1.85-2.1-1.6-3.4-1.25v6.55l1.2.2v.4h-3.7c-.15-.65.65-.45 1-.6v-7c-.35-.15-1.15 0-1-.6h2.38l.05.65c1.1-.75 3.85-1.5 4.6.1 1.6-1.1 5.2-1.8 5.2 1.45v5.45c.4.15 1.2-.1 1 .6h-3.75v-.4l1.25-.2v-5.3c.15-2-2.25-1.55-3.6-1.2.35 1.85 0 4.4.15 6.5l1.25.2v.4h-3.9v-.4l1.2-.2z"/><path d="m760.82 78.67c2-.5 5.1-.7 5.1 2v5.6c.4.15 1.2-.1 1.05.6h-2.25l-.2-.85c-1.15 1.5-5.15 1.5-4.65-1.45-.1-2.5 2.25-2.5 4.6-2.55.2-1.8-.25-3.5-2.1-2.8a6.89 6.89 0 0 0 -.8.3c-.2.35 0 1.15-.75 1zm.5 5.8c0 2 2 1.65 3.15 1.1v-2.95c-1.7 0-3.15-.05-3.15 1.85"/><path d="m773.42 80.92c.2-1.85-2-1.7-3.4-1.3v6.6l1.15.2v.4h-3.6c-.15-.65.65-.45 1-.6v-7c-.35-.15-1.15 0-1-.6h2.35l.1.65c1.55-1.15 4.9-1.45 4.9 1.55v5.45c.35.15 1.15 0 1 .6h-3.6v-.4l1.1-.2z"/><path d="m776.82 82.77c0-3.55 2.3-5 5.7-4.25v-3.6l-1.4-.2v-.4h2.85v11.9c.4.15 1.2-.1 1.05.6h-2.35l-.1-.6c-2.4 1.78-5.75.55-5.75-3.45zm3.85-3.7c-1.85.05-2.2 1.65-2.25 3.7s.45 3.3 2.25 3.3a4.61 4.61 0 0 0 1.8-.35v-6.5c-.5 0-1.2-.15-1.8-.15"/><path d="m787.92 86.82v-.45l1.9-.25v-10.35a24.94 24.94 0 0 0 -3.5.2l-.25 1.85h-.55v-2.82h10.35v2.8h-.6l-.27-1.8-3.5-.15v10.3l1.85.25v.45z"/><path d="m799.37 78.32c2.6 0 3.8 1.6 3.8 4.35s-1.17 4.33-3.85 4.33-3.75-1.7-3.75-4.35 1.2-4.33 3.8-4.33zm0 8c1.95 0 2.3-1.75 2.3-3.65s-.35-3.65-2.3-3.65-2.2 1.7-2.2 3.65.3 3.6 2.2 3.65"/><path d="m806.87 82.82 3.4-3.65c-.35-.15-1 0-.85-.6h2.9c.15.65-.65.45-1 .6l-2.32 2.4 3 4.65c.35.15 1 0 .9.6h-3.4c-.15-.6.45-.45.75-.6l-2.25-3.55-1.1 1.15v2.4c.35.15 1 0 .9.6h-3.4v-.4l1-.2v-11.3l-1.2-.2v-.4h2.65z"/><path d="m817.07 78.32c2.45 0 3.3 1.65 3.15 4.35h-5.05c-.4 3 1.9 4 4.75 3.15v.5a5.33 5.33 0 0 1 -2.65.7c-2.7 0-3.7-1.65-3.7-4.4s1.1-4.3 3.5-4.3zm1.65 3.68c.6-2.85-2.85-4.1-3.45-1.2a8.3 8.3 0 0 0 -.1 1.2z"/><path d="m827.07 80.92c.2-1.85-2.05-1.7-3.4-1.3v6.6l1.15.2v.4h-3.6c-.15-.65.65-.45 1-.6v-7c-.35-.15-1.15 0-1-.6h2.35l.1.65c1.55-1.15 4.9-1.45 4.9 1.55v5.45c.35.15 1.15 0 1 .6h-3.57v-.4l1.1-.2z"/><path d="m831.87 80.32c.35 2.4 4.3 1.15 4.3 4.2 0 2.8-3.45 2.85-5.6 2v-2c1 0 .45 1.45 1.55 1.55 1.75.95 3.85-1.3 2-2.5-1.35-.9-3.6-.65-3.6-3 0-2.5 2.9-2.6 5-2v1.8c-1 0-.4-1.25-1.4-1.25-1-.35-2.5 0-2.3 1.15"/><path d="m581.77 88.34h256v.88h-256z"/><path d="m589.29 119.07v3.75h-.95v-3.75h-3.7v-.85h3.7v-3.75h.95v3.75h3.71v.85z"/><path d="m600.64 120.42c0 3.2 2.6 4 5.2 3.15 0 1.25-1.5 1.25-2.75 1.25-2.8 0-4-1.6-4-4.4 0-3.8 3.1-4.9 6.55-4v2.3h-.5c-.25-.75-.2-1.55-1.15-1.75-2.35-.5-3.35 1-3.35 3.45"/><path d="m610.84 116.12c2.6 0 3.8 1.6 3.8 4.35s-1.2 4.35-3.85 4.35-3.75-1.7-3.75-4.35 1.2-4.35 3.8-4.35zm-.05 8c2 0 2.3-1.75 2.3-3.65s-.35-3.65-2.3-3.65-2.2 1.7-2.2 3.65.3 3.6 2.2 3.65"/><path d="m621.64 118.72c.2-1.85-2.1-1.6-3.4-1.25v6.53l1.2.2v.4h-3.7c-.15-.65.65-.45 1-.6v-7c-.35-.15-1.15 0-1-.6h2.4l.05.65c1.1-.75 3.85-1.5 4.6.1 1.6-1.1 5.2-1.8 5.2 1.45v5.4c.4.15 1.2-.1 1 .6h-3.75v-.4l1.25-.2v-5.3c.15-2-2.25-1.55-3.6-1.2.35 1.85 0 4.4.15 6.5l1.25.2v.4h-3.9v-.4l1.2-.2z"/><path d="m635.64 118.72c.2-1.85-2.1-1.6-3.4-1.25v6.53l1.2.2v.4h-3.7c-.15-.65.65-.45 1-.6v-7c-.35-.15-1.15 0-1-.6h2.4l.05.65c1.1-.75 3.85-1.5 4.6.1 1.6-1.1 5.2-1.8 5.2 1.45v5.4c.4.15 1.2-.1 1 .6h-3.75v-.4l1.25-.2v-5.3c.15-2-2.25-1.55-3.6-1.2.35 1.85 0 4.4.15 6.5l1.25.2v.4h-3.9v-.4l1.2-.2z"/><path d="m644.94 116.47c2-.5 5.1-.7 5.1 2v5.53c.4.15 1.2-.1 1.05.6h-2.25l-.2-.85c-1.15 1.5-5.15 1.5-4.65-1.45-.1-2.5 2.25-2.5 4.6-2.55.2-1.8-.25-3.5-2.1-2.8a6.89 6.89 0 0 0 -.8.3c-.2.35 0 1.15-.75 1zm.5 5.8c0 2 2 1.65 3.15 1.1v-3c-1.7 0-3.15 0-3.15 1.85"/><path d="m657.54 118.72c.2-1.85-2-1.7-3.4-1.3v6.58l1.15.2v.4h-3.6c-.15-.65.65-.45 1-.6v-7c-.35-.15-1.15 0-1-.6h2.31l.1.65c1.55-1.15 4.9-1.45 4.9 1.55v5.4c.35.15 1.15 0 1 .6h-3.6v-.4l1.1-.2z"/><path d="m660.94 120.57c0-3.55 2.3-5 5.7-4.25v-3.6l-1.4-.2v-.4h2.76v11.88c.4.15 1.2-.1 1.05.6h-2.35l-.1-.6c-2.31 1.77-5.66.57-5.66-3.43zm3.85-3.7c-1.85 0-2.2 1.65-2.25 3.7s.45 3.3 2.25 3.3a4.61 4.61 0 0 0 1.8-.35v-6.52c-.5 0-1.2-.15-1.8-.15"/><path d="m685.24 113.52-3.85 11.35h-.5l-3-8.1-3.15 8.1h-.45l-3.9-11.35-1.05-.2v-.5h4.5v.5l-1.7.2 2.8 8.3 3.15-8.15h.4l3 8.15 2.7-8.3-1.85-.2v-.5h3.9v.5"/><path d="m689.29 116.12c2.6 0 3.8 1.6 3.8 4.35s-1.2 4.35-3.85 4.35-3.75-1.7-3.75-4.35 1.2-4.35 3.8-4.35zm0 8c2 0 2.3-1.75 2.3-3.65s-.35-3.65-2.3-3.65-2.2 1.7-2.2 3.65.3 3.6 2.2 3.65"/><path d="m696.64 117.37a6.08 6.08 0 0 1 3-1.25v2.25c-.95 0-.4-1.5-2-.85l-1 .3v6.18l1.45.2v.4h-4v-.4l1.05-.2v-7c-.4-.15-1.2.1-1.05-.6h2.4"/><path d="m700.39 120.57c0-3.55 2.3-5 5.7-4.25l-.05-3.6-1.4-.2v-.4h2.85v11.88c.4.15 1.2-.1 1 .6h-2.35l-.1-.6c-2.3 1.77-5.65.57-5.65-3.43zm3.85-3.7c-1.85 0-2.2 1.65-2.25 3.7s.45 3.3 2.25 3.3a4.61 4.61 0 0 0 1.8-.35v-6.52c-.5 0-1.2-.15-1.8-.15"/><path d="m722.49 120v.85h-8.35v-.85zm0-3.65v.9h-8.35v-.9z"/><path d="m732.39 112.82h1.75l-.55 4.25h-.65zm-3.4 0h1.75l-.55 4.25h-.65"/><path d="m740.34 112.82c-2-.75-1.75 1.6-1.7 3.55h2.2v.75h-2.2v6.8l1.75.3v.4h-4.45v-.4l1.25-.3v-6.8h-1.45v-.45l1.45-.35c-.3-2.95 1.15-5 4-4.2v1.8c-.75.1-.6-.7-.85-1.1"/><path d="m743.49 114.62c-1.15 0-1.25-2 0-1.9.65 0 .9.35 1 1a1 1 0 0 1 -1 .9zm.9 9.4 1.4.2v.4h-4.25v-.4l1.4-.2v-7l-1.2-.2v-.4h2.65z"/><path d="m752.39 118.72c.2-1.85-2-1.7-3.4-1.3v6.58l1.15.2v.4h-3.6c-.15-.65.65-.45 1-.6v-7c-.35-.15-1.15 0-1-.6h2.35l.1.65c1.55-1.15 4.9-1.45 4.9 1.55v5.4c.35.15 1.15 0 1 .6h-3.6v-.4l1.1-.2z"/><path d="m755.79 120.57c0-3.55 2.3-5 5.7-4.25v-3.6l-1.4-.2v-.4h2.85v11.88c.4.15 1.2-.1 1.05.6h-2.35l-.1-.6c-2.4 1.77-5.75.57-5.75-3.43zm3.85-3.7c-1.85 0-2.2 1.65-2.25 3.7s.45 3.3 2.25 3.3a4.61 4.61 0 0 0 1.8-.35v-6.52c-.5 0-1.2-.15-1.8-.15"/><path d="m772.44 120.37c.15 3.35-2.2 5.1-5.55 4.25l.05 3.2 1.45.2v.45h-3.95v-.47l1-.2v-10.8c-.35-.15-1.1 0-1-.6h2.3v.45a3.77 3.77 0 0 1 2.25-.7c2.5.07 3.35 1.77 3.45 4.22zm-5.5 3.6c2.65.7 4.15-.7 3.9-3.6.35-2.65-1.65-4-3.9-3z"/><path d="m777.34 116.12c2.45 0 3.3 1.65 3.15 4.35h-5c-.4 3 1.9 4 4.75 3.15v.5a5.33 5.33 0 0 1 -2.65.7c-2.7 0-3.7-1.65-3.7-4.4s1.05-4.3 3.45-4.3zm1.65 3.65c.6-2.85-2.85-4.1-3.45-1.2a8.3 8.3 0 0 0 -.1 1.2z"/><path d="m783.94 117.37a6.08 6.08 0 0 1 3-1.25v2.25c-1 0-.4-1.5-2-.85l-1 .3v6.18l1.45.2v.4h-3.95v-.4l1-.2v-7c-.4-.15-1.2.1-1-.6h2.4"/><path d="m789.09 118.12c.35 2.4 4.3 1.15 4.3 4.2 0 2.8-3.45 2.85-5.6 2.05v-2c1 0 .45 1.45 1.55 1.55 1.75 1 3.85-1.3 2-2.5-1.35-.9-3.6-.65-3.6-3 0-2.5 2.9-2.6 5-2v1.8c-.95 0-.4-1.25-1.4-1.25-1-.35-2.5 0-2.3 1.15"/><path d="m798.54 116.12c2.6 0 3.8 1.6 3.8 4.35s-1.2 4.35-3.85 4.35-3.75-1.7-3.75-4.35 1.2-4.35 3.8-4.35zm0 8c2 0 2.3-1.75 2.3-3.65s-.35-3.65-2.3-3.65-2.2 1.7-2.2 3.65.3 3.6 2.2 3.65"/><path d="m809.29 118.72c.2-1.85-2-1.7-3.4-1.3v6.58l1.15.2v.4h-3.6c-.15-.65.65-.45 1-.6v-7c-.35-.15-1.15 0-1-.6h2.35l.1.65c1.55-1.15 4.9-1.45 4.9 1.55v5.4c.35.15 1.15 0 1 .6h-3.6v-.4l1.1-.2z"/><path d="m821 112.82h1.75l-.55 4.25h-.65zm-3.4 0h1.75l-.55 4.25h-.65"/><path d="m589.29 140.67v3.75h-.95v-3.75h-3.7v-.85h3.7v-3.75h.95v3.75h3.71v.85z"/><path d="m600 138.07c2-.5 5.1-.7 5.1 2v5.6c.4.15 1.2-.1 1 .6h-2.25l-.2-.85c-1.15 1.5-5.15 1.5-4.65-1.45-.1-2.5 2.25-2.5 4.6-2.55.2-1.8-.25-3.5-2.1-2.8a6.89 6.89 0 0 0 -.8.3c-.2.35 0 1.15-.75 1zm.5 5.8c0 2 2 1.65 3.15 1.1v-2.97c-1.7 0-3.15-.05-3.15 1.85"/><path d="m609.19 139a6.08 6.08 0 0 1 3-1.25v2.25c-1 .05-.4-1.5-2-.85l-1 .3v6.2l1.45.2v.4h-3.95v-.4l1-.2v-7.05c-.4-.15-1.2.1-1-.6h2.4"/><path d="m619 138.62a3.05 3.05 0 0 1 -2.7 4.85 10.11 10.11 0 0 1 -1.35-.15l-.55 1.15c1.45 1.1 6.5-.7 6.2 2.6-.2 2.25-1.9 2.85-4.4 3.05-3.2.25-4.65-2.6-2-4a1.61 1.61 0 0 1 -1.2-1.45l1.4-1.55a2.54 2.54 0 0 1 -1.4-2.55c-.1-2.55 2.65-3.25 5-2.6l1.9-1 .35.4zm-2.8 10.8c1.75 0 3-.55 3-2.1 0-1.75-2.85-.85-4.45-1a2.43 2.43 0 0 0 -.85 1.7c.04 1.2.99 1.4 2.29 1.4zm-1.65-8.85c.05 1.3.35 2.3 1.75 2.2s1.7-.8 1.75-2.2-.3-2.15-1.7-2.15-1.8.85-1.8 2.15"/><path d="m627.14 145.57c-1.75 1.05-4.9 1.4-4.9-1.6v-5.4c-.4-.15-1.2.1-1-.6h2.5v5.9c-.15 1.85 2.1 1.6 3.45 1.25v-6.55l-1.25-.2v-.37h2.7v7.65c.4.15 1.2-.1 1 .6h-2.4"/><path d="m636.24 140.32c.2-1.85-2.1-1.6-3.4-1.25v6.55l1.2.2v.4h-3.7c-.15-.65.65-.45 1-.6v-7.05c-.35-.15-1.15.05-1-.6h2.4v.65c1.1-.75 3.85-1.5 4.6.1 1.6-1.1 5.2-1.8 5.2 1.45v5.45c.4.15 1.2-.1 1 .6h-3.75v-.4l1.25-.2v-5.3c.15-1.95-2.25-1.55-3.6-1.2.35 1.85.05 4.4.15 6.5l1.25.2v.4h-3.84v-.4l1.2-.2z"/><path d="m648.14 137.72c2.45 0 3.3 1.65 3.15 4.35h-5c-.4 3 1.9 4 4.75 3.15v.5a5.33 5.33 0 0 1 -2.65.7c-2.7 0-3.7-1.65-3.7-4.4s1.05-4.3 3.45-4.3zm1.65 3.65c.6-2.85-2.85-4.1-3.45-1.2a8.3 8.3 0 0 0 -.1 1.2z"/><path d="m658.14 140.32c.2-1.85-2-1.7-3.4-1.3v6.6l1.15.2v.4h-3.6c-.15-.65.65-.45 1-.6v-7.05c-.35-.15-1.15.05-1-.6h2.35l.1.65c1.55-1.15 4.9-1.45 4.9 1.55v5.45c.35.15 1.15-.05 1 .6h-3.64v-.4l1.1-.2z"/><path d="m663.59 144.32c-.05 1.25 1.2 1.3 2.2 1v.6c-1.35.8-3.65.75-3.65-1.45v-5.75h-1c-.1-.7.7-.5 1-.75l.9-1.9h.55v1.93h1.9v.75h-1.9z"/><path d="m667.94 139.72c.35 2.4 4.3 1.15 4.3 4.2 0 2.8-3.45 2.85-5.6 2.05v-2c1 0 .45 1.45 1.55 1.55 1.75.95 3.85-1.3 2-2.5-1.35-.9-3.6-.65-3.6-3 0-2.5 2.9-2.6 5-2v1.8c-.95.05-.4-1.25-1.4-1.25-1-.35-2.5 0-2.3 1.15"/><path d="m686.64 141.62v.85h-8.35v-.85zm0-3.65v.9h-8.35v-.87z"/><path d="m696.54 134.42h1.75l-.55 4.25h-.65zm-3.4 0h1.75l-.55 4.25h-.65"/><path d="m705.59 140.32c.2-1.85-2.05-1.7-3.4-1.3v6.6l1.15.2v.4h-3.6c-.15-.65.65-.45 1-.6v-7.05c-.35-.15-1.15.05-1-.6h2.35l.1.65c1.55-1.15 4.9-1.45 4.9 1.55v5.45c.35.15 1.15-.05 1 .6h-3.6v-.4l1.1-.2z"/><path d="m709.24 146.42h-.9l4.15-12h.85"/><path d="m717.84 134.42h1.75l-.55 4.25h-.65zm-3.4 0h1.75l-.55 4.25h-.64"/></g></svg>
