<svg xmlns="http://www.w3.org/2000/svg" viewBox="0 0 334.9 128.2"><defs><style>.a{fill:#e5e5e5;}.b,.d,.f,.g{fill:none;}.c{fill:#333;}.d{stroke:#333;}.e{font-size:12px;font-family:Menlo-Regular, Menlo;}.f,.g{stroke:#000;stroke-miterlimit:10;}.g{stroke-width:0.5px;}</style></defs><title>Step3</title><path class="a" d="M12,23.53H35v42.8H12Zm48.62,0H83.58v42.8H60.64Zm48.6,0H132.2v42.8H109.26Zm48.63,0h22.93v42.8H157.88Zm46.4,0h22.94v42.8H204.28Zm48.62,0h22.94v42.8H252.89Zm48.61,0h22.94v42.8H301.51Z"/><path class="b" d="M0,16.43H334.9V69.3H0Z"/><path class="c" d="M27.86,30C24.3,29.92,22.6,31.35,22.8,35h9.59v2.77H22.8V56.11H19.28V37.75H14.17V35h5.11c-.29-5.72,2.58-8,8.17-7.85a40.87,40.87,0,0,1,5.49.41v2.83c-1.47-.19-3.46-.27-5.08-.33"/><path class="c" d="M50,53.34h7.42v2.77H38.27V53.34h8.24V37.75H40.28V35H50ZM46.12,30.88V27.13H50v3.75Z"/><path class="c" d="M73.27,34.59C78,34.59,80,37.25,80,42V56.11H76.43V42.54c0-3.28-1.11-5.33-4.29-5.24-3.72.12-5.53,2.7-5.53,6.57V56.11H63.09C63,49.08,63.21,41.82,63,35H66.3c.07,1.05.13,2.46.15,3.61h.06a7,7,0,0,1,6.76-4"/><path class="c" d="M100.38,38.26c-.06-3.65,0-7.42,0-11.13h3.51V51.76c0,1.48,0,3,.12,4.35h-3.36a27.51,27.51,0,0,1-.19-3.4h-.1c-1.19,2.54-3,3.91-6.48,3.91q-4,0-5.81-2.71c-1.23-1.82-1.85-4.54-1.85-8.19q0-11,7.66-11C97.27,34.67,99.13,35.9,100.38,38.26Zm-5.59-1c-4.33,0-5,3.84-5,8.33s.61,8.31,4.94,8.31c4.63,0,5.59-3.81,5.59-8.62,0-4.65-1-8-5.55-8"/><path class="c" d="M121.12,34.55c6.09.06,7.66,4.77,7.66,10.9s-1.61,11-7.66,11c-3.3,0-5.41-1.27-6.46-3.59h-.1c.15,3.67,0,7.69.08,11.5H111.1V39.35c0-1.48,0-3-.12-4.37h3.42c.12,1,.18,2.34.2,3.48h.07C115.81,36.07,117.6,34.51,121.12,34.55Zm-1,19.36c4.4,0,5-4,5-8.46s-.62-8.18-4.94-8.18c-4.61,0-5.56,3.75-5.56,8.61,0,4.63,1,8,5.52,8"/><path class="c" d="M143.54,34.59c6.94,0,9.4,4.65,9.32,11.7H137.78c.1,4.33,1.64,7.58,5.88,7.58,2.81,0,4.76-1.16,5.55-3.25l3.08.88c-1.23,3.21-4.12,5-8.63,5-6.68,0-9.57-4.29-9.57-11.09S137,34.59,143.54,34.59Zm5.69,9c-.36-3.75-1.76-6.4-5.65-6.4s-5.6,2.5-5.76,6.4Z"/><path class="c" d="M171.88,34.59a26.18,26.18,0,0,1,4,.33v3.26c-2.19-.35-5.24-.7-7.09.3-2.52,1.34-4.07,4-4.07,7.71v9.92h-3.51c-.2-7.17.62-15.41-1-21.13h3.34a25.91,25.91,0,0,1,.94,4.88h.1c1.31-3,3-5.27,7.28-5.27"/><path class="c" d="M196.55,40.12c-.35-2.23-2.32-2.85-4.88-2.85-3.19,0-4.79,1-4.79,2.94,0,2.95,3.32,2.89,5.74,3.62,3.56,1.05,7.58,1.83,7.58,6.25,0,4.69-3.69,6.35-8.57,6.42s-8-1.34-8.87-5.23l3.11-.61c.47,2.6,2.65,3.28,5.76,3.23,2.81,0,5.27-.61,5.27-3.34,0-3.21-3.81-3.13-6.46-3.95-3.27-1-6.84-1.7-6.84-5.84s3.38-6.15,8.07-6.11c4.29,0,7.28,1.5,8,5.08"/><path class="c" d="M215.51,34.59c6.7,0,9.46,4,9.42,10.94,0,6.77-2.87,11-9.53,11s-9.28-4.27-9.36-11S209.09,34.59,215.51,34.59Zm-.15,19.32c4.69,0,5.88-3.52,5.88-8.38s-1.08-8.34-5.67-8.34-5.84,3.53-5.84,8.34,1.19,8.38,5.63,8.38"/><path class="c" d="M241.3,34.59c4.7,0,6.71,2.66,6.7,7.44V56.11h-3.54V42.54c0-3.28-1.11-5.33-4.3-5.24-3.71.12-5.52,2.7-5.52,6.57V56.11h-3.52c-.06-7,.12-14.29-.12-21.13h3.32c.08,1.05.14,2.46.16,3.61h.06a7,7,0,0,1,6.76-4"/><path class="c" d="M289.3,34.59c4.71,0,6.72,2.66,6.7,7.44V56.11h-3.53V42.54c0-3.28-1.12-5.33-4.3-5.24-3.71.12-5.53,2.7-5.53,6.57V56.11h-3.51c-.06-7,.12-14.29-.12-21.13h3.32c.08,1.05.14,2.46.16,3.61h.06a7,7,0,0,1,6.75-4"/><path class="c" d="M301.75,56.5l16-29.37h3.48l-16,29.37Z"/><path class="c" d="M87.6,8.3c0,3.2,2.6,4,5.2,3.15,0,1.25-1.5,1.25-2.75,1.25-2.8,0-4-1.6-4-4.4,0-3.8,3.1-4.9,6.55-4V6.6h-.5c-.25-.75-.2-1.55-1.15-1.75C88.6,4.35,87.6,5.9,87.6,8.3"/><path class="c" d="M97.8,4c2.6,0,3.8,1.6,3.8,4.35s-1.2,4.35-3.85,4.35S94,11,94,8.35,95.2,4,97.8,4Zm0,8c2,0,2.3-1.75,2.3-3.65S99.7,4.7,97.75,4.7s-2.2,1.7-2.2,3.65.3,3.6,2.2,3.65"/><path class="c" d="M108.6,6.6c.2-1.85-2.1-1.6-3.4-1.25V11.9l1.2.2v.4h-3.7c-.15-.65.65-.45,1-.6v-7c-.35-.15-1.15.05-1-.6h2.4l.05.65c1.1-.75,3.85-1.5,4.6.1,1.6-1.1,5.2-1.8,5.2,1.45V11.9c.4.15,1.2-.1,1,.6h-3.75v-.4l1.25-.2V6.6c.15-1.95-2.25-1.55-3.6-1.2.35,1.85,0,4.4.15,6.5l1.25.2v.4h-3.9v-.4l1.2-.2Z"/><path class="c" d="M122.6,6.6c.2-1.85-2.1-1.6-3.4-1.25V11.9l1.2.2v.4h-3.7c-.15-.65.65-.45,1-.6v-7c-.35-.15-1.15.05-1-.6h2.4l.05.65c1.1-.75,3.85-1.5,4.6.1,1.6-1.1,5.2-1.8,5.2,1.45V11.9c.4.15,1.2-.1,1.05.6h-3.75v-.4l1.25-.2V6.6c.15-1.95-2.25-1.55-3.6-1.2.35,1.85,0,4.4.15,6.5l1.25.2v.4h-3.9v-.4l1.2-.2Z"/><path class="c" d="M131.9,4.35c2-.5,5.1-.7,5.1,2v5.6c.4.15,1.2-.1,1.05.6H135.8l-.2-.85c-1.15,1.5-5.15,1.5-4.65-1.45-.1-2.5,2.25-2.5,4.6-2.55.2-1.8-.25-3.5-2.1-2.8a6.89,6.89,0,0,0-.8.3c-.2.35,0,1.15-.75,1Zm.5,5.8c0,2,2,1.65,3.15,1.1V8.3c-1.7,0-3.15-.05-3.15,1.85"/><path class="c" d="M144.5,6.6c.2-1.85-2.05-1.7-3.4-1.3v6.6l1.15.2v.4h-3.6c-.15-.65.65-.45,1-.6v-7c-.35-.15-1.15.05-1-.6H141l.1.65c1.55-1.15,4.9-1.45,4.9,1.55V11.9c.35.15,1.15-.05,1,.6h-3.6v-.4l1.1-.2Z"/><path class="c" d="M147.9,8.45c0-3.55,2.3-5,5.7-4.25l0-3.6-1.4-.2V0H155V11.9c.4.15,1.2-.1,1.05.6H153.7l-.1-.6C151.25,13.65,147.9,12.45,147.9,8.45Zm3.85-3.7c-1.85,0-2.2,1.65-2.25,3.7s.45,3.3,2.25,3.3a4.61,4.61,0,0,0,1.8-.35V4.9c-.5-.05-1.2-.15-1.8-.15"/><path class="c" d="M172.2,1.4l-3.85,11.35h-.5l-3-8.1-3.15,8.1h-.45L157.3,1.4l-1.05-.2V.7h4.5v.5l-1.7.2,2.8,8.3L165,1.55h.4l3,8.15,2.7-8.3-1.85-.2V.7h3.9v.5"/><path class="c" d="M176.25,4c2.6,0,3.8,1.6,3.8,4.35s-1.2,4.35-3.85,4.35-3.75-1.7-3.75-4.35S173.65,4,176.25,4Zm-.05,8c2,0,2.3-1.75,2.3-3.65s-.35-3.65-2.3-3.65S174,6.4,174,8.35s.3,3.6,2.2,3.65"/><path class="c" d="M183.6,5.25a6.08,6.08,0,0,1,3-1.25V6.25c-.95,0-.4-1.5-2-.85l-1,.3v6.2l1.45.2v.4h-4v-.4l1.05-.2v-7c-.4-.15-1.2.1-1.05-.6h2.4"/><path class="c" d="M187.35,8.45c0-3.55,2.3-5,5.7-4.25L193,.6,191.6.4V0h2.85V11.9c.4.15,1.2-.1,1.05.6h-2.35l-.1-.6C190.7,13.65,187.35,12.45,187.35,8.45Zm3.85-3.7c-1.85,0-2.2,1.65-2.25,3.7s.45,3.3,2.25,3.3a4.61,4.61,0,0,0,1.8-.35V4.9c-.5-.05-1.2-.15-1.8-.15"/><path class="d" d="M275.23,36V20H11.15V36"/><path class="c" d="M273.66,4c1.52-.37,3.78-.51,3.78,1.45V9.64c.29.11.89-.08.77.44h-1.66l-.15-.63c-.85,1.11-3.81,1.11-3.44-1.07-.08-1.85,1.66-1.85,3.4-1.89.15-1.33-.18-2.59-1.55-2.08a5.47,5.47,0,0,0-.6.23c-.14.26,0,.85-.55.74Zm.37,4.3c0,1.52,1.52,1.22,2.33.82V7c-1.26,0-2.33,0-2.33,1.37"/><path class="c" d="M280.47,4.71a4.48,4.48,0,0,1,2.23-.92V5.45c-.71,0-.3-1.11-1.49-.63l-.74.22v4.6l1.08.15v.29h-2.93V9.79l.78-.15V4.41c-.3-.11-.89.08-.78-.44h1.78"/><path class="c" d="M287.73,4.45a2.26,2.26,0,0,1-2,3.59,7.11,7.11,0,0,1-1-.11l-.4.86c1.07.81,4.81-.52,4.59,1.92-.15,1.67-1.41,2.11-3.26,2.26-2.37.19-3.45-1.93-1.48-3a1.19,1.19,0,0,1-.89-1.08l1-1.14a1.88,1.88,0,0,1-1-1.89c-.08-1.89,2-2.41,3.7-1.93l1.41-.74.26.3Zm-2.07,8c1.3,0,2.26-.41,2.26-1.55,0-1.3-2.11-.63-3.3-.78a1.81,1.81,0,0,0-.63,1.26C284,12.3,284.7,12.45,285.66,12.45ZM284.44,5.9c0,1,.26,1.7,1.29,1.63S287,6.93,287,5.9s-.22-1.6-1.26-1.6-1.33.63-1.33,1.6"/><path class="c" d="M293.77,9.6c-1.3.78-3.63,1-3.63-1.19v-4c-.3-.11-.89.08-.78-.44h1.85V8.34c-.11,1.37,1.56,1.19,2.56.93V4.41l-.93-.14V4h2V9.64c.3.11.89-.08.78.44h-1.78"/><path class="c" d="M300.51,5.71c.15-1.37-1.55-1.18-2.52-.92V9.64l.89.15v.29h-2.74c-.11-.48.48-.33.74-.44V4.41c-.26-.11-.85,0-.74-.44h1.78l0,.48c.81-.55,2.85-1.11,3.4.08,1.19-.82,3.85-1.34,3.85,1.07v4c.3.11.89-.08.78.44h-2.78V9.79l.93-.15V5.71c.11-1.44-1.67-1.15-2.67-.89a42,42,0,0,1,.12,4.82l.92.15v.29h-2.89V9.79l.89-.15Z"/><path class="c" d="M309.33,3.79c1.81,0,2.44,1.22,2.33,3.22h-3.74c-.3,2.22,1.41,3,3.52,2.33v.37a3.93,3.93,0,0,1-2,.52c-2,0-2.74-1.22-2.74-3.26S307.55,3.79,309.33,3.79Zm1.22,2.7c.44-2.11-2.11-3-2.56-.89a7.49,7.49,0,0,0-.07.89Z"/><path class="c" d="M316.73,5.71c.15-1.37-1.52-1.26-2.52-1V9.64l.86.15v.29H312.4c-.11-.48.48-.33.74-.44V4.41c-.26-.11-.85,0-.74-.44h1.74l.07.48c1.15-.85,3.63-1.07,3.63,1.15v4c.26.11.86,0,.75.44h-2.67V9.79l.81-.15Z"/><path class="c" d="M320.77,8.67c0,.93.89,1,1.63.74v.45c-1,.59-2.7.55-2.7-1.07V4.53h-.78c-.08-.52.52-.37.78-.56l.66-1.41h.41V4h1.41v.56h-1.41Z"/><path class="c" d="M324,5.27c.26,1.77,3.19.85,3.19,3.11,0,2.07-2.56,2.11-4.15,1.52V8.41c.74,0,.33,1.08,1.15,1.15,1.29.71,2.85-1,1.52-1.85C324.7,7,323,7.23,323,5.53c0-1.86,2.15-1.93,3.7-1.52V5.34c-.7,0-.29-.93-1-.93-.78-.25-1.86,0-1.71.86"/><path class="d" d="M325.05,35.93v-16H275.3v16"/><text class="e" transform="translate(7.7 100.46)">0</text><text class="e" transform="translate(129.61 123.71)">Caret Index</text><text class="e" transform="translate(128.78 100.46)">5</text><text class="e" transform="translate(245.67 100.46)">10</text><text class="e" transform="translate(317.23 100.46)">13</text><line class="f" x1="11.15" y1="76.82" x2="324.45" y2="76.82"/><line class="f" x1="11.15" y1="66.89" x2="11.15" y2="86.75"/><line class="f" x1="324.45" y1="66.89" x2="324.45" y2="86.75"/><line class="f" x1="132.4" y1="82.98" x2="132.4" y2="70.66"/><line class="f" x1="252.89" y1="82.98" x2="252.89" y2="70.66"/><line class="g" x1="34.97" y1="72.75" x2="34.97" y2="80.9"/><line class="g" x1="60.64" y1="72.75" x2="60.64" y2="80.9"/><line class="g" x1="83.58" y1="72.75" x2="83.58" y2="80.9"/><line class="g" x1="109.25" y1="72.75" x2="109.25" y2="80.9"/><line class="g" x1="157.88" y1="73.2" x2="157.88" y2="81.35"/><line class="g" x1="180.81" y1="72.75" x2="180.81" y2="80.9"/><line class="g" x1="204.28" y1="72.75" x2="204.28" y2="80.9"/><line class="g" x1="227.22" y1="72.75" x2="227.22" y2="80.9"/><line class="g" x1="275.84" y1="72.75" x2="275.84" y2="80.9"/><line class="g" x1="301.51" y1="72.75" x2="301.51" y2="80.9"/></svg>
