<svg viewBox="0 0 706.1 521.5" xmlns="http://www.w3.org/2000/svg" xmlns:xlink="http://www.w3.org/1999/xlink"><linearGradient id="a" gradientUnits="userSpaceOnUse" x1="353.25" x2="353.25" y1="351.5" y2="521"><stop offset="0" stop-color="#fff" stop-opacity="0"/><stop offset=".9" stop-color="#fff"/></linearGradient><g transform="translate(-.5)"><path d="m50.4 104.85v415.65" fill="none"/><path d="m50.4 104.85v5m0 5v9.9m0 4.94v9.9m0 4.94v9.9m0 4.94v9.9m0 5v9.73m0 4.94v9.9m0 4.95v9.9m0 4.94v9.9m0 4.94v9.9m0 5v9.9m0 4.94v9.9m0 4.94v9.95m0 4.94v9.9m0 4.95v9.9m0 4.94v9.9m0 4.95v9.9m0 4.94v9.9m0 4.95v9.83m0 4.95v9.9m0 5v9.9m0 4.94v9.9m0 4.94v9.9m0 4.95v9.9m0 4.94v9.9m0 4.95v9.93m0 4.94v9.9m0 4.95v9.9m0 4.95v5" fill="none" stroke="#333"/><path d="m50.9 104.86h-1v-3.5h1zm0 416.14h-1v-.5h1z" fill="#333"/><path d="m30.8 100.5h40v420h-40zm160-100h200v100h-200z" fill="#fff" stroke="#333"/><path d="m198.36 53.68a1 1 0 0 1 0 2 1 1 0 0 1 -1.1-.89v-.16a1 1 0 0 1 1-1zm0-6.6a1 1 0 0 1 1 1v.05a1 1 0 0 1 -.89 1.09h-.11a1 1 0 0 1 -1.1-.89.74.74 0 0 1 0-.21 1 1 0 0 1 .94-1.05h.16" fill="#333"/><path d="m209.76 52.13c0 3.95-4.75 4.1-7.7 2.95v-2.7h.6c.05 1.75 1.1 2.6 3 2.6 2.5 0 3.45-2.9 1.65-4.1s-5.25-1.05-5.25-4.25c0-3.35 4.3-3.3 7.1-2.65v2.45h-.6l-.3-1.45c-1.55-1.35-6-.35-4.45 2.1 1.4 2.15 5.95 1.2 5.95 5.05" fill="#333"/><path d="m217.06 54.88c-1.75 1-4.9 1.4-4.9-1.6v-5.4c-.4-.15-1.2.1-1-.6h2.5v5.9c-.15 1.85 2.1 1.6 3.45 1.25v-6.55l-1.25-.2v-.4h2.7v7.65c.4.15 1.2-.1 1.05.6h-2.4" fill="#333"/><path d="m226.91 47.93a3.06 3.06 0 0 1 -2.7 4.85 10.32 10.32 0 0 1 -1.35-.15l-.55 1.15c1.45 1.1 6.5-.7 6.2 2.6-.2 2.25-1.9 2.85-4.4 3-3.2.25-4.65-2.6-2-4a1.61 1.61 0 0 1 -1.2-1.45l1.4-1.55a2.54 2.54 0 0 1 -1.4-2.55c-.1-2.55 2.65-3.25 5-2.6l1.9-1 .35.4zm-2.8 10.8c1.75 0 3-.55 3-2.1 0-1.75-2.85-.85-4.45-1.05a2.44 2.44 0 0 0 -.85 1.7c.05 1.25 1 1.45 2.3 1.45zm-1.65-8.85c0 1.3.35 2.3 1.75 2.2s1.7-.8 1.75-2.2-.3-2.15-1.7-2.15-1.8.85-1.8 2.15" fill="#333"/><path d="m235.91 47.93a3.06 3.06 0 0 1 -2.7 4.85 10.32 10.32 0 0 1 -1.35-.15l-.55 1.15c1.45 1.1 6.5-.7 6.2 2.6-.2 2.25-1.9 2.85-4.4 3-3.2.25-4.65-2.6-2-4a1.61 1.61 0 0 1 -1.2-1.45l1.4-1.55a2.54 2.54 0 0 1 -1.4-2.55c-.1-2.55 2.65-3.25 5-2.6l1.9-1 .35.4zm-2.8 10.8c1.75 0 3-.55 3-2.1 0-1.75-2.85-.85-4.45-1.05a2.44 2.44 0 0 0 -.85 1.7c.05 1.25 1 1.45 2.3 1.45zm-1.65-8.85c0 1.3.35 2.3 1.75 2.2s1.7-.8 1.75-2.2-.3-2.15-1.7-2.15-1.8.85-1.8 2.15" fill="#333"/><path d="m242.06 47c2.45 0 3.3 1.65 3.15 4.35h-5.05c-.4 3 1.9 4 4.75 3.15v.5a5.36 5.36 0 0 1 -2.65.7c-2.7 0-3.7-1.65-3.7-4.4s1.1-4.3 3.5-4.3zm1.65 3.65c.6-2.85-2.85-4.1-3.45-1.2a8.09 8.09 0 0 0 -.1 1.2z" fill="#333"/><path d="m247.86 49c.35 2.4 4.3 1.15 4.3 4.2 0 2.8-3.45 2.85-5.6 2v-2c1 0 .45 1.45 1.55 1.55 1.75 1 3.85-1.3 2-2.5-1.35-.9-3.6-.65-3.6-2.95 0-2.5 2.9-2.6 5-2.05v1.8c-.95 0-.4-1.25-1.4-1.25-1-.35-2.5-.05-2.3 1.15" fill="#333"/><path d="m255.51 53.63c0 1.25 1.2 1.3 2.2 1v.6c-1.35.8-3.65.75-3.65-1.45v-5.78h-1.06c-.1-.7.7-.5 1.05-.75l.9-1.9h.55v1.9h1.9v.75h-1.9v5.6" fill="#333"/><path d="m260.16 45.53c-1.15 0-1.25-2 0-1.9.65 0 .9.35 1 .95a1 1 0 0 1 -1 .95zm.9 9.4 1.4.2v.4h-4.25v-.4l1.4-.2v-7l-1.2-.2v-.4h2.65v7.67" fill="#333"/><path d="m269.06 49.63c.2-1.85-2.05-1.7-3.4-1.3v6.6l1.15.2v.4h-3.6c-.15-.65.65-.45 1-.6v-7c-.35-.15-1.15 0-1-.6h2.35l.1.65c1.55-1.15 4.9-1.45 4.9 1.55v5.47c.35.15 1.15 0 1 .6h-3.56v-.4l1.1-.2v-5.3" fill="#333"/><path d="m278.86 47.93a3.06 3.06 0 0 1 -2.7 4.85 10.32 10.32 0 0 1 -1.35-.15l-.55 1.15c1.45 1.1 6.5-.7 6.2 2.6-.2 2.25-1.9 2.85-4.4 3-3.2.25-4.65-2.6-2-4a1.61 1.61 0 0 1 -1.2-1.45l1.4-1.55a2.54 2.54 0 0 1 -1.4-2.55c-.1-2.55 2.65-3.25 5-2.6l1.9-1 .35.4zm-2.8 10.8c1.75 0 3.05-.55 3.05-2.1 0-1.75-2.85-.85-4.45-1.05a2.44 2.44 0 0 0 -.85 1.7c0 1.25.95 1.45 2.25 1.45zm-1.65-8.85c0 1.3.35 2.3 1.75 2.2s1.7-.8 1.75-2.2-.3-2.15-1.7-2.15-1.8.85-1.8 2.15" fill="#333"/><path d="m283.41 49.78c0 4.65 4 6.5 7.5 4.35l.35-1.75h.55l-.05 2.75a14.57 14.57 0 0 1 -4.15.6c-3.8 0-5.85-2-6.05-5.95-.25-5.65 4.85-7.05 10.05-5.7l.05 2.55h-.6l-.25-1.5a6.48 6.48 0 0 0 -3.1-.8c-3.3 0-4.3 2.05-4.3 5.45" fill="#333"/><path d="m297.31 47c2.6 0 3.8 1.6 3.8 4.35s-1.2 4.35-3.85 4.35-3.75-1.7-3.75-4.35 1.2-4.35 3.8-4.35zm-.05 8c1.95 0 2.3-1.75 2.3-3.65s-.35-3.65-2.3-3.65-2.2 1.7-2.2 3.65.3 3.6 2.2 3.65" fill="#333"/><path d="m308.11 49.63c.2-1.85-2.1-1.6-3.4-1.25v6.55l1.2.2v.4h-3.7c-.15-.65.65-.45 1-.6v-7c-.35-.15-1.15 0-1-.6h2.4l.05.65c1.1-.75 3.85-1.5 4.6.1 1.6-1.1 5.2-1.8 5.2 1.45v5.47c.4.15 1.2-.1 1.05.6h-3.75v-.4l1.24-.2v-5.3c.15-2-2.25-1.55-3.6-1.2.35 1.85 0 4.4.15 6.5l1.25.2v.4h-3.9v-.4l1.2-.2v-5.3" fill="#333"/><path d="m322.11 49.63c.2-1.85-2.1-1.6-3.4-1.25v6.55l1.2.2v.4h-3.7c-.15-.65.65-.45 1-.6v-7c-.35-.15-1.15 0-1-.6h2.4l.05.65c1.1-.75 3.85-1.5 4.6.1 1.6-1.1 5.2-1.8 5.2 1.45v5.47c.4.15 1.2-.1 1.05.6h-3.75v-.4l1.24-.2v-5.3c.15-2-2.25-1.55-3.6-1.2.35 1.85 0 4.4.15 6.5l1.25.2v.4h-3.9v-.4l1.2-.2v-5.3" fill="#333"/><path d="m331.41 47.38c2-.5 5.1-.7 5.1 1.95v5.6c.4.15 1.2-.1 1.05.6h-2.25l-.2-.85c-1.15 1.5-5.15 1.5-4.65-1.45-.1-2.5 2.25-2.5 4.6-2.55.2-1.8-.25-3.5-2.1-2.8a6 6 0 0 0 -.8.3c-.2.35 0 1.15-.75 1zm.5 5.8c0 2 2 1.65 3.15 1.1v-3c-1.7 0-3.15 0-3.15 1.85" fill="#333"/><path d="m344 49.63c.2-1.85-2.05-1.7-3.4-1.3v6.6l1.15.2v.4h-3.6c-.15-.65.65-.45 1-.6v-7c-.35-.15-1.15 0-1-.6h2.35l.1.65c1.55-1.15 4.9-1.45 4.9 1.55v5.47c.35.15 1.15 0 1 .6h-3.6v-.4l1.1-.2v-5.3" fill="#333"/><path d="m347.41 51.48c0-3.55 2.3-5 5.7-4.25l-.05-3.6-1.4-.2v-.43h2.85v11.9c.4.15 1.2-.1 1.05.6h-2.35l-.1-.6c-2.35 1.78-5.7.58-5.7-3.42zm3.85-3.7c-1.85 0-2.2 1.65-2.25 3.7s.45 3.3 2.25 3.3a4.44 4.44 0 0 0 1.8-.35v-6.5c-.5 0-1.2-.15-1.8-.15" fill="#333"/><path d="m359.51 49c2.5.1 4.65.15 4.65-2.4 0-2.3-2.4-2-4.65-2zm0 5.75c2.75.2 5.55.3 5.55-2.55 0-2.65-2.9-2.4-5.55-2.4zm7.4-2.6c0 4.6-6.05 3.25-10.65 3.4v-.45l1.55-.25v-10.42l-1.55-.2v-.5c3.85.3 9.65-1.2 9.7 2.8a2.6 2.6 0 0 1 -2.4 2.7c1.8.25 3.35 1 3.35 2.9" fill="#333"/><path d="m372.26 47c2.6 0 3.8 1.6 3.8 4.35s-1.2 4.35-3.85 4.35-3.75-1.7-3.75-4.35 1.2-4.35 3.8-4.35zm-.05 8c2 0 2.3-1.75 2.3-3.65s-.35-3.65-2.3-3.65-2.2 1.7-2.2 3.65.3 3.6 2.2 3.65" fill="#333"/><path d="m384.56 54.93c.35.15 1.15 0 1 .6h-3.75v-.4l1.1-.2-1.91-2.93-2.25 2.9 1.15.2v.4h-3v-.4l1-.15 2.75-3.55-2.4-3.55c-.35-.15-1.15 0-1-.6h3.75v.4l-1.1.2 1.6 2.4 1.85-2.4-1.15-.2v-.4h2.95v.4l-.95.15-2.3 3" fill="#333"/><path d="m290.8 101.5v419" fill="none"/><path d="m290.8 101.5v5m0 5v10m0 5v10m0 5v10m0 5v10m0 5v10m0 5v10m0 5v10m0 5v10m0 5v10m0 5v10m0 5v10m0 5v10m0 5v10m0 5v10m0 5v10m0 5v10m0 5v10m0 5v10m0 5v10m0 5v10m0 5v10m0 5v10m0 5v10m0 5v10m0 5v10m0 5v10m0 5v10m0 5v5" fill="none" stroke="#333"/><path d="m291.3 101.5h-1v-.5h1zm0 419.5h-1v-.5h1z" fill="#333"/><path d="m270.8 161h40v359.5h-40z" fill="#fff" stroke="#333"/><path d="m71.8 160.47h98.92a.09.09 0 0 1 .08.08.09.09 0 0 0 .08.08h83" fill="none" stroke="#333"/><path d="m71.8 161h-.5v-1h.5zm196.88-.34-14.26 4.64v-9.3z" fill="#333"/><path d="m270.3 160.63-16.38 5.37v-10.69zm-15.38 4 12.14-4-12.14-3.94z" fill="#333"/><path d="m97.1 147.37c0 1.25 1.2 1.3 2.2 1v.6c-1.35.8-3.65.75-3.65-1.45v-5.75h-1.05c-.1-.7.7-.5 1.05-.75l.9-1.9h.55v1.88h1.9v.75h-1.9v5.6" fill="#333"/><path d="m107.45 141.57-3.8 9.55a2.93 2.93 0 0 1 -3.66 1.95l-.19-.07v-1.8c.9-.1.3 1.2 1.45 1.05 1.5-.2 1.9-1.6 2.35-2.9l-3.15-7.75c-.35-.15-1 0-.85-.6h3.85v.4l-1.3.2 2.25 5.8 2.15-5.8-1.3-.2v-.4h3.1v.4" fill="#333"/><path d="m116.7 145c.15 3.35-2.2 5.1-5.55 4.25v3.2l1.45.2v.45h-4v-.45l1-.2v-10.83c-.35-.15-1.1 0-1-.6h2.3v.45a3.77 3.77 0 0 1 2.25-.7c2.55.1 3.4 1.8 3.5 4.23zm-5.5 3.6c2.65.7 4.15-.7 3.9-3.6.35-2.65-1.65-4-3.9-3z" fill="#333"/><path d="m121.6 140.77c2.45 0 3.3 1.65 3.15 4.35h-5c-.4 3 1.9 4 4.75 3.15v.5a5.36 5.36 0 0 1 -2.65.7c-2.7 0-3.7-1.65-3.7-4.4s1.05-4.3 3.45-4.3zm1.65 3.65c.6-2.85-2.85-4.1-3.45-1.2a8.09 8.09 0 0 0 -.1 1.2z" fill="#333"/><path d="m130.75 137.52c-2.6 1.4-3.1 4.75-2.9 8.9.15 2.8 1.05 4.85 2.9 6v.75c-5-1.4-6.25-11.5-2.05-15a10.68 10.68 0 0 1 2.05-1.35v.75" fill="#333"/><path d="m135.8 137.47h1.75l-.55 4.25h-.65zm-3.4 0h1.75l-.55 4.25h-.6" fill="#333"/><path d="m143.75 137.47c-1.95-.75-1.75 1.6-1.7 3.55h2.2v.75h-2.2v6.8l1.75.3v.4h-4.45v-.4l1.25-.3v-6.8h-1.45v-.45l1.45-.35c-.3-2.95 1.15-5 4-4.2v1.8c-.75.1-.6-.7-.85-1.1" fill="#333"/><path d="m146.9 139.27c-1.15 0-1.25-2 0-1.9.65 0 .9.35 1 .95a1 1 0 0 1 -1 .95zm.9 9.4 1.4.2v.4h-4.2v-.4l1.4-.2v-7l-1.2-.2v-.47h2.65v7.65" fill="#333"/><path d="m155.8 143.37c.2-1.85-2.05-1.7-3.4-1.3v6.6l1.15.2v.4h-3.55c-.15-.65.65-.45 1-.6v-7c-.35-.15-1.15 0-1-.6h2.35l.1.65c1.55-1.15 4.9-1.45 4.9 1.55v5.45c.35.15 1.15 0 1 .6h-3.6v-.4l1.1-.2v-5.3" fill="#333"/><path d="m159.2 145.22c0-3.55 2.3-5.05 5.7-4.25l-.05-3.6-1.4-.2v-.4h2.85v11.9c.4.15 1.2-.1 1 .6h-2.3l-.1-.6c-2.35 1.75-5.7.55-5.7-3.45zm3.85-3.7c-1.85 0-2.2 1.65-2.25 3.7 0 1.9.45 3.3 2.25 3.3a4.44 4.44 0 0 0 1.8-.35v-6.5c-.5 0-1.2-.15-1.8-.15" fill="#333"/><path d="m175.85 145c.15 3.35-2.2 5.1-5.55 4.25v3.2l1.45.2v.45h-4v-.45l1.05-.2v-10.83c-.35-.15-1.1 0-1-.6h2.3l.05.45a3.77 3.77 0 0 1 2.25-.7c2.5.1 3.35 1.8 3.45 4.23zm-5.5 3.6c2.65.7 4.15-.7 3.9-3.6.35-2.65-1.65-4-3.9-3z" fill="#333"/><path d="m180.75 140.77c2.45 0 3.3 1.65 3.15 4.35h-5.05c-.4 3 1.9 4 4.75 3.15v.5a5.36 5.36 0 0 1 -2.65.7c-2.7 0-3.7-1.65-3.7-4.4s1.1-4.3 3.5-4.3zm1.65 3.65c.6-2.85-2.85-4.1-3.45-1.2a8.09 8.09 0 0 0 -.1 1.2z" fill="#333"/><path d="m187.35 142a6.15 6.15 0 0 1 3-1.25v2.25c-.95 0-.4-1.5-2-.85l-1 .3v6.2l1.45.2v.4h-4v-.4l1-.2v-7c-.4-.15-1.2.1-1-.6h2.4" fill="#333"/><path d="m192.5 142.77c.35 2.4 4.3 1.15 4.3 4.2 0 2.8-3.45 2.85-5.6 2.05v-2c1 0 .45 1.45 1.55 1.55 1.75 1 3.85-1.3 2.05-2.5-1.35-.9-3.6-.65-3.6-2.95 0-2.5 2.9-2.6 5-2.05v1.8c-.95 0-.4-1.25-1.4-1.25-1.05-.35-2.5-.05-2.3 1.15" fill="#333"/><path d="m202 140.77c2.6 0 3.8 1.6 3.8 4.35s-1.2 4.35-3.85 4.35-3.75-1.7-3.75-4.35 1.15-4.35 3.8-4.35zm0 8c1.95 0 2.3-1.75 2.3-3.65s-.35-3.65-2.3-3.65-2.2 1.7-2.2 3.65.3 3.6 2.2 3.65" fill="#333"/><path d="m212.7 143.37c.2-1.85-2-1.7-3.4-1.3v6.6l1.15.2v.4h-3.6c-.15-.65.65-.45 1-.6v-7c-.35-.15-1.15 0-1-.6h2.35l.1.65c1.55-1.15 4.9-1.45 4.9 1.55v5.45c.35.15 1.15 0 1 .6h-3.6v-.4l1.1-.2v-5.3" fill="#333"/><path d="m226.2 143.37c.2-1.85-2-1.7-3.4-1.3v6.6l1.15.2v.4h-3.6c-.15-.65.65-.45 1-.6v-7c-.35-.15-1.15 0-1-.6h2.35l.1.65c1.55-1.15 4.9-1.45 4.9 1.55v5.45c.35.15 1.15 0 1 .6h-3.6v-.4l1.1-.2v-5.3" fill="#333"/><path d="m229.85 149.47h-.85l4.15-12.05h.85" fill="#333"/><path d="m238.45 137.47h1.75l-.55 4.25h-.65zm-3.4 0h1.75l-.55 4.25h-.65" fill="#333"/><path d="m241.85 136.77c5.05 1.4 6.25 11.55 2 14.95a9.86 9.86 0 0 1 -2 1.4v-.75c2.2-1.25 2.9-3.9 2.9-7.45s-.65-6.15-2.9-7.4z" fill="#333"/><path d="m311.8 340.87h279.77" fill="none" stroke="#333"/><g fill="#333"><path d="m311.8 341.37h-.5v-1h.5z"/><path d="m606.33 340.87-14.26 4.64v-9.26z" stroke="#333"/><path d="m337.8 322.07a3.06 3.06 0 0 1 -2.7 4.85 10.32 10.32 0 0 1 -1.35-.15l-.55 1.15c1.45 1.1 6.5-.7 6.2 2.6-.2 2.25-1.9 2.85-4.4 3.05-3.2.25-4.65-2.6-2-4a1.61 1.61 0 0 1 -1.2-1.45l1.4-1.55a2.54 2.54 0 0 1 -1.4-2.55c-.1-2.55 2.65-3.25 5-2.6l1.9-1 .35.4zm-2.8 10.8c1.75 0 3.05-.55 3.05-2.1 0-1.75-2.85-.85-4.45-1a2.44 2.44 0 0 0 -.85 1.7c0 1.2.95 1.4 2.25 1.4zm-1.65-8.87c0 1.3.35 2.3 1.75 2.2s1.7-.8 1.75-2.2-.3-2.15-1.7-2.15-1.8.85-1.8 2.15"/><path d="m344 321.17c2.45 0 3.3 1.65 3.15 4.35h-5c-.4 3 1.9 4 4.75 3.15v.5a5.36 5.36 0 0 1 -2.65.7c-2.7 0-3.7-1.65-3.7-4.4s1.05-4.3 3.5-4.3zm1.65 3.65c.6-2.85-2.85-4.1-3.45-1.2a8.09 8.09 0 0 0 -.1 1.2z"/><path d="m350.4 327.77c0 1.25 1.2 1.3 2.2 1v.6c-1.35.8-3.65.75-3.65-1.45v-5.75h-1.05c-.1-.7.7-.5 1.05-.75l.9-1.9h.55v1.9h1.9v.75h-1.9z"/><path d="m361.6 326.27c0 4-4.75 4.1-7.7 3v-2.7h.6c.05 1.75 1.1 2.6 3 2.6 2.5 0 3.45-2.9 1.65-4.1s-5.25-1-5.25-4.25 4.3-3.3 7.1-2.65v2.45h-.6l-.3-1.45c-1.55-1.35-6.05-.35-4.45 2.1 1.4 2.15 6 1.2 6 5"/><path d="m368.9 329c-1.75 1.05-4.9 1.4-4.9-1.6v-5.4c-.4-.15-1.2.1-1.05-.6h2.5v5.9c-.15 1.85 2.1 1.6 3.45 1.25v-6.55l-1.25-.2v-.4h2.7v7.65c.4.15 1.2-.1 1 .6h-2.35"/><path d="m378.75 322.07a3.06 3.06 0 0 1 -2.7 4.85 10.32 10.32 0 0 1 -1.35-.15l-.55 1.15c1.45 1.1 6.5-.7 6.2 2.6-.2 2.25-1.9 2.85-4.4 3.05-3.2.25-4.65-2.6-2-4a1.61 1.61 0 0 1 -1.2-1.45l1.4-1.55a2.54 2.54 0 0 1 -1.4-2.55c-.1-2.55 2.65-3.25 5-2.6l1.9-1 .35.4zm-2.8 10.8c1.75 0 3.05-.55 3.05-2.1 0-1.75-2.85-.85-4.45-1a2.44 2.44 0 0 0 -.85 1.7c0 1.2.95 1.4 2.3 1.4zm-1.65-8.87c.05 1.3.35 2.3 1.75 2.2s1.7-.8 1.75-2.2-.3-2.15-1.7-2.15-1.8.85-1.8 2.15"/><path d="m387.75 322.07a3.06 3.06 0 0 1 -2.7 4.85 10.32 10.32 0 0 1 -1.35-.15l-.55 1.15c1.45 1.1 6.5-.7 6.2 2.6-.2 2.25-1.9 2.85-4.4 3.05-3.2.25-4.65-2.6-2-4a1.61 1.61 0 0 1 -1.2-1.45l1.4-1.55a2.54 2.54 0 0 1 -1.4-2.55c-.1-2.55 2.65-3.25 5-2.6l1.9-1 .35.4zm-2.8 10.8c1.75 0 3.05-.55 3.05-2.1 0-1.75-2.85-.85-4.45-1a2.44 2.44 0 0 0 -.85 1.7c0 1.2.95 1.4 2.3 1.4zm-1.65-8.87c.05 1.3.35 2.3 1.75 2.2s1.7-.8 1.75-2.2-.3-2.15-1.7-2.15-1.8.85-1.8 2.15"/><path d="m393.9 321.17c2.45 0 3.3 1.65 3.15 4.35h-5.05c-.4 3 1.9 4 4.75 3.15v.5a5.36 5.36 0 0 1 -2.65.7c-2.7 0-3.7-1.65-3.7-4.4s1.1-4.3 3.5-4.3zm1.65 3.65c.6-2.85-2.85-4.1-3.45-1.2a8.09 8.09 0 0 0 -.1 1.2z"/><path d="m399.7 323.17c.35 2.4 4.3 1.15 4.3 4.2 0 2.8-3.45 2.85-5.6 2.05v-2c1 0 .45 1.45 1.55 1.55 1.75.95 3.85-1.3 2.05-2.5-1.35-.9-3.6-.65-3.6-3 0-2.5 2.9-2.6 5-2v1.8c-.95.05-.4-1.25-1.4-1.25-1.05-.35-2.5 0-2.3 1.15"/><path d="m407.35 327.77c-.05 1.25 1.2 1.3 2.2 1v.6c-1.35.8-3.65.75-3.65-1.45v-5.75h-1c-.1-.7.7-.5 1-.75l.9-1.9h.55v1.9h1.9v.75h-1.9z"/><path d="m412 319.67c-1.15 0-1.25-1.95 0-1.9.65 0 .9.35 1 1a1 1 0 0 1 -1 .9zm.9 9.4 1.4.2v.4h-4.25v-.4l1.4-.2v-7.07l-1.2-.2v-.4h2.65v7.65"/><path d="m419.15 321.17c2.6 0 3.8 1.6 3.8 4.35s-1.2 4.35-3.85 4.35-3.75-1.7-3.75-4.35 1.2-4.35 3.8-4.35zm0 8c2 0 2.3-1.75 2.3-3.65s-.35-3.65-2.3-3.65-2.2 1.7-2.2 3.65.3 3.6 2.2 3.65"/><path d="m429.9 323.77c.2-1.85-2-1.7-3.4-1.3v6.6l1.15.2v.4h-3.6c-.15-.65.65-.45 1-.6v-7.07c-.35-.15-1.15.05-1-.6h2.35l.1.65c1.55-1.15 4.9-1.45 4.9 1.55v5.45c.35.15 1.15-.05 1 .6h-3.6v-.4l1.1-.2v-5.3"/><path d="m434.7 323.17c.35 2.4 4.3 1.15 4.3 4.2 0 2.8-3.45 2.85-5.6 2.05v-2c1 0 .45 1.45 1.55 1.55 1.75.95 3.85-1.3 2.05-2.5-1.35-.9-3.6-.65-3.6-3 0-2.5 2.9-2.6 5-2v1.8c-.95.05-.4-1.25-1.4-1.25-1.05-.35-2.5 0-2.3 1.15"/><path d="m445.05 317.92c-2.6 1.4-3.1 4.75-2.9 8.9.15 2.8 1.05 4.85 2.9 5.95v.75c-5.05-1.4-6.25-11.5-2.05-15a10.68 10.68 0 0 1 2.05-1.35z"/><path d="m450.1 317.87h1.75l-.55 4.25h-.65zm-3.4 0h1.75l-.55 4.25h-.65"/><path d="m458.05 317.87c-1.95-.75-1.75 1.6-1.7 3.55h2.2v.75h-2.2v6.83l1.75.3v.4h-4.45v-.4l1.25-.3v-6.8h-1.45v-.45l1.45-.35c-.3-2.95 1.15-5 4-4.2v1.8c-.75.1-.6-.7-.85-1.1"/><path d="m461.2 319.67c-1.15 0-1.25-1.95 0-1.9.65 0 .9.35 1 1a1 1 0 0 1 -1 .9zm.9 9.4 1.4.2v.4h-4.25v-.4l1.4-.2v-7.07l-1.2-.2v-.4h2.65v7.65"/><path d="m470.1 323.77c.2-1.85-2.05-1.7-3.4-1.3v6.6l1.15.2v.4h-3.6c-.15-.65.65-.45 1-.6v-7.07c-.35-.15-1.15.05-1-.6h2.35l.1.65c1.55-1.15 4.9-1.45 4.9 1.55v5.45c.35.15 1.15-.05 1 .6h-3.6v-.4l1.1-.2v-5.3"/><path d="m473.5 325.62c0-3.55 2.3-5.05 5.7-4.25l-.05-3.6-1.4-.2v-.4h2.85v11.9c.4.15 1.2-.1 1 .6h-2.3l-.1-.6c-2.35 1.75-5.7.55-5.7-3.45zm3.85-3.7c-1.85.05-2.2 1.65-2.25 3.7 0 1.9.45 3.3 2.25 3.3a4.44 4.44 0 0 0 1.8-.35v-6.5c-.5-.05-1.2-.15-1.8-.15"/><path d="m490.15 325.42c.15 3.35-2.2 5.1-5.55 4.25v3.2l1.45.2v.45h-4v-.45l1.05-.2v-10.87c-.35-.15-1.1.05-1-.6h2.3l.05.45a3.77 3.77 0 0 1 2.25-.7c2.45.12 3.3 1.85 3.4 4.27zm-5.5 3.6c2.65.7 4.15-.7 3.9-3.6.35-2.65-1.65-3.95-3.9-3v6.58"/><path d="m495.05 321.17c2.45 0 3.3 1.65 3.15 4.35h-5.05c-.4 3 1.9 4 4.75 3.15v.5a5.36 5.36 0 0 1 -2.65.7c-2.7 0-3.7-1.65-3.7-4.4s1.1-4.3 3.5-4.3zm1.65 3.65c.6-2.85-2.85-4.1-3.45-1.2a8.09 8.09 0 0 0 -.1 1.2z"/><path d="m501.65 322.42a6.15 6.15 0 0 1 3-1.25v2.25c-.95.05-.4-1.5-2-.85l-1 .3v6.2l1.45.2v.4h-4v-.4l1-.2v-7.07c-.4-.15-1.2.1-1-.6h2.4"/><path d="m506.8 323.17c.35 2.4 4.3 1.15 4.3 4.2 0 2.8-3.45 2.85-5.6 2.05v-2c1 0 .45 1.45 1.55 1.55 1.75.95 3.85-1.3 2.05-2.5-1.35-.9-3.6-.65-3.6-3 0-2.5 2.9-2.6 5-2v1.8c-.95.05-.4-1.25-1.4-1.25-1.05-.35-2.5 0-2.3 1.15"/><path d="m516.25 321.17c2.6 0 3.8 1.6 3.8 4.35s-1.2 4.35-3.85 4.35-3.75-1.7-3.75-4.35 1.2-4.35 3.8-4.35zm0 8c2 0 2.3-1.75 2.3-3.65s-.35-3.65-2.3-3.65-2.2 1.7-2.2 3.65.3 3.6 2.2 3.65"/><path d="m527 323.77c.2-1.85-2-1.7-3.4-1.3v6.6l1.15.2v.4h-3.6c-.15-.65.65-.45 1-.6v-7.07c-.35-.15-1.15.05-1-.6h2.35l.1.65c1.55-1.15 4.9-1.45 4.9 1.55v5.45c.35.15 1.15-.05 1 .6h-3.6v-.4l1.1-.2v-5.3"/><path d="m540.5 323.77c.2-1.85-2-1.7-3.4-1.3v6.6l1.15.2v.4h-3.6c-.15-.65.65-.45 1-.6v-7.07c-.35-.15-1.15.05-1-.6h2.35l.1.65c1.55-1.15 4.9-1.45 4.9 1.55v5.45c.35.15 1.15-.05 1 .6h-3.6v-.4l1.1-.2v-5.3"/><path d="m544.15 329.87h-.9l4.15-12.05h.85"/><path d="m552.75 317.87h1.75l-.55 4.25h-.65zm-3.4 0h1.75l-.55 4.25h-.65"/><path d="m557.65 327.82c2.15 0 1.15 3.7-.2 4.05a5.42 5.42 0 0 1 -1.2.55v-.65c.85-.25 1.45-.7 1.55-1.5-.15-.7-1.25-.55-1.2-1.5a1 1 0 0 1 1-.95"/><path d="m570.05 329 2.4.25v.45h-6.3v-.45l2.4-.25v-9.6l-2.4.85v-.5l3.45-2h.45z"/><path d="m578.75 323.52c2 .15 3 1.05 3.1 3 0 3.55-4.15 3.8-7.35 3l-.1-2.5h.6c.1 1.45.8 2.15 2.55 2.15 1.9 0 2.7-.95 2.7-2.75.1-2.15-1.7-2.45-3.75-2.5v-.7c1.85 0 3.2-.35 3.2-2.4 0-2.35-2.35-2.8-4.05-1.8l-.3 1.45h-.6v-2.3c2.55-.65 6.75-.65 6.55 2.55a2.76 2.76 0 0 1 -2.55 2.85"/><path d="m583.15 317.17c5.05 1.4 6.25 11.55 2 14.95a9.86 9.86 0 0 1 -2 1.4v-.75c2.2-1.25 2.9-3.9 2.9-7.45s-.65-6.15-2.9-7.4z"/></g><path d="m50.8 180.9h218.93l15.92 15.92v63.68h-234.85z" fill="#fff" stroke="#333"/><path d="m269.73 181.38v15.44h15.44" fill="#fff" stroke="#333"/><g fill="#333"><path d="m81.78 202v.45h-3.85v-.45l1.3-.25 4-11.2h1.65l4.12 11.2 1.5.25v.45h-5v-.45l1.55-.25-1.05-3.36h-4.62l-1.2 3.4zm1.9-10.15-2.05 5.7h4.1"/><path d="m92.73 196c.35 2.4 4.3 1.15 4.3 4.2 0 2.8-3.45 2.85-5.6 2.05v-2c1 0 .45 1.45 1.55 1.55 1.75 1 3.85-1.3 2-2.5-1.35-.9-3.6-.65-3.6-3 0-2.5 2.9-2.6 5-2v1.8c-1 0-.4-1.25-1.4-1.25-1-.35-2.5 0-2.3 1.15"/><path d="m99.73 196c.35 2.4 4.3 1.15 4.3 4.2 0 2.8-3.45 2.85-5.6 2.05v-2c1 0 .45 1.45 1.55 1.55 1.75 1 3.85-1.3 2-2.5-1.35-.9-3.6-.65-3.6-3 0-2.5 2.9-2.6 5-2v1.8c-1 0-.4-1.25-1.4-1.25-1-.35-2.5 0-2.3 1.15"/><path d="m110.88 201.84c-1.75 1-4.9 1.4-4.9-1.6v-5.4c-.4-.15-1.2.1-1-.6h2.5v5.9c-.15 1.85 2.1 1.6 3.45 1.25v-6.55l-1.25-.2v-.4h2.7v7.65c.4.15 1.2-.1 1 .6h-2.38"/><path d="m120 196.59c.2-1.85-2.1-1.6-3.4-1.25v6.55l1.2.2v.4h-3.7c-.15-.65.65-.45 1-.6v-7c-.35-.15-1.15 0-1-.6h2.4v.65c1.1-.75 3.85-1.5 4.6.1 1.6-1.1 5.2-1.8 5.2 1.45v5.45c.4.15 1.2-.1 1 .6h-3.75v-.4l1.25-.2v-5.3c.15-2-2.25-1.55-3.6-1.2.35 1.85 0 4.4.15 6.5l1.25.2v.4h-3.9v-.4l1.2-.2v-5.3"/><path d="m130 192.49c-1.15 0-1.25-2 0-1.9.65 0 .9.35 1 .95a1 1 0 0 1 -1 .95zm.9 9.4 1.4.2v.4h-4.25v-.4l1.4-.2v-7l-1.2-.2v-.4h2.65v7.65"/><path d="m138.93 196.59c.2-1.85-2.05-1.7-3.4-1.3v6.6l1.15.2v.4h-3.6c-.15-.65.65-.45 1-.6v-7c-.35-.15-1.15 0-1-.6h2.35l.1.65c1.55-1.15 4.9-1.45 4.9 1.55v5.45c.35.15 1.15 0 1 .6h-3.6v-.4l1.1-.2v-5.3"/><path d="m148.73 194.89a3.06 3.06 0 0 1 -2.7 4.85 10.32 10.32 0 0 1 -1.35-.15l-.55 1.15c1.45 1.1 6.5-.7 6.2 2.6-.2 2.25-1.9 2.85-4.4 3-3.2.25-4.65-2.6-2-4a1.61 1.61 0 0 1 -1.2-1.45l1.4-1.55a2.54 2.54 0 0 1 -1.4-2.55c-.1-2.55 2.65-3.25 5-2.6l1.9-1 .35.4zm-2.8 10.8c1.75 0 3-.55 3-2.1 0-1.75-2.85-.85-4.45-1.05a2.44 2.44 0 0 0 -.85 1.7c.05 1.25 1 1.45 2.3 1.45zm-1.65-8.85c.05 1.3.35 2.3 1.75 2.2s1.7-.8 1.75-2.2-.3-2.15-1.7-2.15-1.8.85-1.8 2.15"/><path d="m157.88 200.59c0 1.25 1.2 1.3 2.2 1v.6c-1.35.8-3.65.75-3.65-1.45v-5.74h-1.05c-.1-.7.7-.5 1.05-.75l.9-1.9h.55v1.9h1.9v.75h-1.9v5.6"/><path d="m166.48 196.54c.15-1.9-2.1-1.55-3.45-1.25v6.6l1.15.2v.4h-3.65v-.4l1.05-.2v-11.3l-1.2-.2v-.39h2.62l-.05 4.9c1.55-1.1 5-1.55 5 1.55v5.45c.35.15 1.15 0 1 .6h-3.55v-.4l1.1-.2v-5.35"/><path d="m170.78 194.34c2.05-.5 5.1-.7 5.1 1.95v5.6c.4.15 1.2-.1 1.05.6h-2.25l-.2-.85c-1.15 1.5-5.15 1.5-4.65-1.45-.1-2.5 2.25-2.5 4.6-2.55.2-1.8-.25-3.5-2.1-2.8a6 6 0 0 0 -.8.3c-.2.35 0 1.15-.75 1zm.5 5.8c0 2.05 2.05 1.65 3.15 1.1v-3c-1.7 0-3.15 0-3.15 1.85"/><path d="m179.83 200.59c-.05 1.25 1.2 1.3 2.2 1v.6c-1.35.8-3.65.75-3.65-1.45v-5.74h-1c-.1-.7.7-.5 1-.75l.9-1.9h.55v1.9h1.9v.75h-1.9v5.6"/><path d="m189.33 200.59c-.05 1.25 1.2 1.3 2.2 1v.6c-1.35.8-3.65.75-3.65-1.45v-5.74h-1c-.1-.7.7-.5 1-.75l.9-1.9h.55v1.9h1.9v.75h-1.9v5.6"/><path d="m197.93 196.54c.15-1.9-2.1-1.55-3.45-1.25v6.6l1.15.2v.4h-3.63v-.4l1.05-.2v-11.3l-1.2-.2v-.39h2.65v4.9c1.55-1.1 4.95-1.55 4.95 1.55v5.45c.35.15 1.15 0 1 .6h-3.55v-.4l1.1-.2v-5.35"/><path d="m204.83 194c2.45 0 3.3 1.65 3.15 4.35h-5c-.4 3 1.9 4 4.75 3.15v.5a5.36 5.36 0 0 1 -2.65.7c-2.7 0-3.7-1.65-3.7-4.4s1.05-4.3 3.45-4.3zm1.65 3.65c.6-2.85-2.85-4.1-3.45-1.2a8.09 8.09 0 0 0 -.1 1.2z"/><path d="m215.33 198.29c0 3.2 2.6 4 5.2 3.15.05 1.25-1.5 1.25-2.75 1.25-2.8 0-4-1.6-4-4.4 0-3.8 3.1-4.9 6.55-4v2.3h-.5c-.25-.75-.2-1.55-1.15-1.75-2.35-.5-3.35 1-3.35 3.45"/><path d="m222.63 194.34c2.05-.5 5.1-.7 5.1 1.95v5.6c.4.15 1.2-.1 1.05.6h-2.25l-.2-.85c-1.15 1.5-5.15 1.5-4.65-1.45-.1-2.5 2.25-2.5 4.6-2.55.2-1.8-.25-3.5-2.1-2.8a6 6 0 0 0 -.8.3c-.2.35 0 1.15-.75 1zm.5 5.8c0 2.05 2.05 1.65 3.15 1.1v-3c-1.7 0-3.15 0-3.15 1.85"/><path d="m231.83 195.24a6.15 6.15 0 0 1 3-1.25v2.25c-1 0-.4-1.5-2-.85l-1 .3v6.2l1.45.2v.4h-3.95v-.4l1-.2v-7c-.4-.15-1.2.1-1-.6h2.4"/><path d="m239.13 194c2.45 0 3.3 1.65 3.15 4.35h-5.05c-.4 3 1.9 4 4.75 3.15v.5a5.36 5.36 0 0 1 -2.65.7c-2.7 0-3.7-1.65-3.7-4.4s1.1-4.3 3.5-4.3zm1.65 3.65c.6-2.85-2.85-4.1-3.45-1.2a8.09 8.09 0 0 0 -.1 1.2z"/><path d="m245.58 200.59c-.05 1.25 1.2 1.3 2.2 1v.6c-1.35.8-3.65.75-3.65-1.45v-5.74h-1c-.1-.7.7-.5 1-.75l.9-1.9h.55v1.9h1.9v.75h-1.9v5.6"/><path d="m79.23 219.84c.15 3.35-2.2 5.1-5.55 4.25v3.2l1.45.2v.45h-4v-.45l1-.2v-10.85c-.35-.15-1.1.05-1-.6h2.3v.45a3.77 3.77 0 0 1 2.25-.7c2.55.1 3.4 1.8 3.5 4.25zm-5.5 3.6c2.65.7 4.15-.7 3.9-3.6.35-2.65-1.65-4-3.9-3z"/><path d="m84.43 215.59c2.6 0 3.8 1.6 3.8 4.35s-1.2 4.35-3.85 4.35-3.75-1.7-3.75-4.35 1.2-4.35 3.8-4.35zm-.05 8c2 0 2.3-1.75 2.3-3.65s-.35-3.65-2.3-3.65-2.2 1.7-2.2 3.65.3 3.6 2.2 3.65"/><path d="m91 217.59c.35 2.4 4.3 1.15 4.3 4.2 0 2.8-3.45 2.85-5.6 2.05v-2c1 0 .45 1.45 1.55 1.55 1.75 1 3.85-1.3 2-2.5-1.35-.9-3.6-.65-3.6-2.95 0-2.5 2.9-2.6 5-2.05v1.8c-1 .05-.4-1.25-1.4-1.25-1-.35-2.5-.05-2.3 1.15"/><path d="m98.28 214.09c-1.15 0-1.25-2 0-1.9.65 0 .9.35 1 .95a1 1 0 0 1 -1 .95zm.9 9.4 1.4.2v.4h-4.25v-.4l1.4-.2v-7.05l-1.2-.2v-.4h2.65z"/><path d="m103.63 222.19c0 1.25 1.2 1.3 2.2 1v.6c-1.35.8-3.65.75-3.65-1.45v-5.75h-1.05c-.1-.7.7-.5 1.05-.75l.9-1.9h.55v1.9h1.9v.75h-1.9z"/><path d="m108.28 214.09c-1.15 0-1.25-2 0-1.9.65 0 .9.35 1 .95a1 1 0 0 1 -1 .95zm.9 9.4 1.4.2v.4h-4.25v-.4l1.4-.2v-7.05l-1.2-.2v-.4h2.65z"/><path d="m115.43 215.59c2.6 0 3.8 1.6 3.8 4.35s-1.2 4.35-3.85 4.35-3.75-1.7-3.75-4.35 1.2-4.35 3.8-4.35zm-.05 8c2 0 2.3-1.75 2.3-3.65s-.35-3.65-2.3-3.65-2.2 1.7-2.2 3.65.3 3.6 2.2 3.65"/><path d="m126.18 218.19c.2-1.85-2.05-1.7-3.4-1.3v6.6l1.15.2v.4h-3.6c-.15-.65.65-.45 1-.6v-7.05c-.35-.15-1.15.05-1-.6h2.35l.1.65c1.55-1.15 4.9-1.45 4.9 1.55v5.45c.35.15 1.15-.05 1 .6h-3.6v-.4l1.1-.2z"/><path d="m135.78 214.09c-1.15 0-1.25-2 0-1.9.65 0 .9.35 1 .95a1 1 0 0 1 -1 .95zm.9 9.4 1.4.2v.4h-4.25v-.4l1.4-.2v-7.05l-1.2-.2v-.4h2.65z"/><path d="m140.48 217.59c.35 2.4 4.3 1.15 4.3 4.2 0 2.8-3.45 2.85-5.6 2.05v-2c1 0 .45 1.45 1.55 1.55 1.75 1 3.85-1.3 2.05-2.5-1.35-.9-3.6-.65-3.6-2.95 0-2.5 2.9-2.6 5-2.05v1.8c-1 .05-.4-1.25-1.4-1.25-1.05-.35-2.5-.05-2.3 1.15"/><path d="m151.53 215.94c2.05-.5 5.1-.7 5.1 1.95v5.6c.4.15 1.2-.1 1.05.6h-2.25l-.2-.85c-1.15 1.5-5.15 1.5-4.65-1.45-.1-2.5 2.25-2.5 4.6-2.55.2-1.8-.25-3.5-2.1-2.8a6 6 0 0 0 -.8.3c-.2.35 0 1.15-.75 1zm.5 5.8c0 2 2.05 1.65 3.15 1.1v-3c-1.7 0-3.15 0-3.15 1.85"/><path d="m160.58 222.19c-.05 1.25 1.2 1.3 2.2 1v.6c-1.35.8-3.65.75-3.65-1.45v-5.75h-1c-.1-.7.7-.5 1-.75l.9-1.9h.55v1.9h1.9v.75h-1.9z"/><path d="m170.08 222.19c-.05 1.25 1.2 1.3 2.2 1v.6c-1.35.8-3.65.75-3.65-1.45v-5.75h-1c-.1-.7.7-.5 1-.75l.9-1.9h.55v1.9h1.92v.75h-1.9v5.6"/><path d="m178.68 218.14c.15-1.9-2.1-1.55-3.45-1.25v6.6l1.15.2v.4h-3.65v-.4l1.05-.2v-11.3l-1.2-.2v-.4h2.65v4.9c1.55-1.1 5-1.55 5 1.55v5.45c.35.15 1.15-.05 1 .6h-3.55v-.4l1.1-.2v-5.35"/><path d="m185.58 215.59c2.45 0 3.3 1.65 3.15 4.35h-5c-.4 3 1.9 4 4.75 3.15v.5a5.36 5.36 0 0 1 -2.65.7c-2.7 0-3.7-1.65-3.7-4.4s1.05-4.3 3.45-4.3zm1.65 3.65c.6-2.85-2.85-4.1-3.45-1.2a8.09 8.09 0 0 0 -.1 1.2z"/><path d="m198 215.59c2.45 0 3.3 1.65 3.15 4.35h-5.05c-.4 3 1.9 4 4.75 3.15v.5a5.36 5.36 0 0 1 -2.65.7c-2.7 0-3.7-1.65-3.7-4.4s1.13-4.3 3.5-4.3zm1.65 3.65c.6-2.85-2.85-4.1-3.45-1.2a8.09 8.09 0 0 0 -.1 1.2z"/><path d="m208 218.19c.2-1.85-2.05-1.7-3.4-1.3v6.6l1.15.2v.4h-3.6c-.15-.65.65-.45 1-.6v-7.05c-.35-.15-1.15.05-1-.6h2.35l.1.65c1.55-1.15 4.9-1.45 4.9 1.55v5.45c.35.15 1.15-.05 1 .6h-3.6v-.4l1.1-.2z"/><path d="m211.43 220c0-3.55 2.3-5 5.7-4.25v-3.6l-1.4-.2v-.4h2.85v11.9c.4.15 1.2-.1 1 .6h-2.35l-.1-.6c-2.35 1.79-5.7.55-5.7-3.45zm3.85-3.7c-1.85 0-2.2 1.65-2.25 3.7s.45 3.3 2.25 3.3a4.44 4.44 0 0 0 1.8-.35v-6.5c-.5 0-1.2-.15-1.8-.15"/><path d="m228.78 215.59c2.6 0 3.8 1.6 3.8 4.35s-1.2 4.35-3.85 4.35-3.75-1.7-3.75-4.35 1.2-4.35 3.8-4.35zm-.05 8c2 0 2.3-1.75 2.3-3.65s-.35-3.65-2.3-3.65-2.2 1.7-2.2 3.65.3 3.6 2.2 3.65"/><path d="m238.43 212.29c-2-.75-1.75 1.6-1.7 3.55h2.2v.75h-2.2v6.8l1.75.3v.4h-4.48v-.4l1.25-.3v-6.8h-1.45v-.45l1.45-.35c-.3-2.95 1.15-5 4-4.2v1.8c-.75.1-.6-.7-.85-1.1"/><path d="m246.43 222.19c-.05 1.25 1.2 1.3 2.2 1v.6c-1.35.8-3.65.75-3.65-1.45v-5.75h-1c-.1-.7.7-.5 1-.75l.9-1.9h.55v1.9h1.9v.75h-1.9z"/><path d="m255 218.14c.15-1.9-2.1-1.55-3.45-1.25v6.6l1.15.2v.4h-3.65v-.4l1-.2v-11.3l-1.2-.2v-.4h2.65l-.05 4.9c1.55-1.1 5-1.55 5 1.55v5.45c.35.15 1.15-.05 1 .6h-3.55v-.4l1.1-.2z"/><path d="m261.93 215.59c2.45 0 3.3 1.65 3.15 4.35h-5.08c-.4 3 1.9 4 4.75 3.15v.5a5.36 5.36 0 0 1 -2.65.7c-2.7 0-3.7-1.65-3.7-4.4s1.13-4.3 3.53-4.3zm1.65 3.65c.6-2.85-2.85-4.1-3.45-1.2a8.09 8.09 0 0 0 -.1 1.2z"/><path d="m76.15 243.79c-.05 1.25 1.2 1.3 2.2 1v.6c-1.35.8-3.65.75-3.65-1.45v-5.75h-1c-.1-.7.7-.5 1-.75l.9-1.9h.55v1.9h1.9v.75h-1.9z"/><path d="m86.5 238-3.8 9.55a2.94 2.94 0 0 1 -3.65 2l-.2-.07v-1.8c.9-.1.3 1.2 1.45 1 1.5-.2 1.9-1.6 2.35-2.9l-3.15-7.78c-.35-.15-1 0-.85-.6h3.85v.4l-1.3.2 2.25 5.8 2.15-5.8-1.3-.2v-.4h3.1v.4"/><path d="m95.75 241.44c.15 3.35-2.2 5.1-5.55 4.25v3.2l1.45.2v.45h-4v-.45l1-.2v-10.89c-.35-.15-1.1.05-1-.6h2.35v.45a3.77 3.77 0 0 1 2.25-.7c2.6.14 3.45 1.85 3.55 4.29zm-5.5 3.6c2.65.7 4.15-.7 3.9-3.6.35-2.65-1.65-3.95-3.9-3v6.56"/><path d="m100.65 237.19c2.45 0 3.3 1.65 3.15 4.35h-5c-.4 3 1.9 4 4.75 3.15v.5a5.36 5.36 0 0 1 -2.65.7c-2.7 0-3.7-1.65-3.7-4.4s1.05-4.3 3.45-4.3zm1.65 3.65c.6-2.85-2.85-4.1-3.45-1.2a8.09 8.09 0 0 0 -.1 1.2z"/><path d="m105.05 241.64c0-3.55 2.3-5 5.7-4.25v-3.6l-1.4-.2v-.4h2.85v11.9c.4.15 1.2-.1 1 .6h-2.35l-.1-.6c-2.35 1.75-5.7.55-5.7-3.45zm3.85-3.7c-1.85.05-2.2 1.65-2.25 3.7s.45 3.3 2.25 3.3a4.44 4.44 0 0 0 1.8-.35v-6.5c-.5-.05-1.2-.15-1.8-.15"/><path d="m120.15 241.49c0 3.2 2.6 4 5.2 3.15.05 1.25-1.5 1.25-2.75 1.25-2.8 0-4-1.6-4-4.4 0-3.8 3.1-4.9 6.55-4v2.3h-.5c-.25-.75-.2-1.55-1.15-1.75-2.35-.5-3.35 1.05-3.35 3.45"/><path d="m130.35 237.19c2.6 0 3.8 1.6 3.8 4.35s-1.2 4.35-3.85 4.35-3.75-1.7-3.75-4.35 1.2-4.35 3.8-4.35zm0 8c2 0 2.3-1.75 2.3-3.65s-.35-3.65-2.3-3.65-2.2 1.7-2.2 3.65.3 3.6 2.2 3.65"/><path d="m141.15 239.79c.2-1.85-2.1-1.6-3.4-1.25v6.55l1.2.2v.4h-3.7c-.15-.65.65-.45 1-.6v-7.09c-.35-.15-1.15.05-1-.6h2.4v.65c1.1-.75 3.85-1.5 4.6.1 1.6-1.1 5.2-1.8 5.2 1.45v5.45c.4.15 1.2-.1 1.05.6h-3.7v-.4l1.25-.2v-5.3c.15-1.95-2.25-1.55-3.6-1.2.35 1.85.05 4.4.15 6.5l1.25.2v.4h-3.85v-.4l1.2-.2v-5.3"/><path d="m155.15 239.79c.2-1.85-2.1-1.6-3.4-1.25v6.55l1.2.2v.4h-3.7c-.15-.65.65-.45 1-.6v-7.09c-.35-.15-1.15.05-1-.6h2.4v.65c1.1-.75 3.85-1.5 4.6.1 1.6-1.1 5.2-1.8 5.2 1.45v5.45c.4.15 1.2-.1 1.05.6h-3.7v-.4l1.25-.2v-5.3c.15-1.95-2.25-1.55-3.6-1.2.35 1.85.05 4.4.15 6.5l1.25.2v.4h-3.85v-.4l1.2-.2v-5.3"/><path d="m164.45 237.54c2.05-.5 5.1-.7 5.1 2v5.6c.4.15 1.2-.1 1 .6h-2.25l-.2-.85c-1.15 1.5-5.15 1.5-4.65-1.45-.1-2.5 2.25-2.5 4.6-2.55.2-1.8-.25-3.5-2.1-2.8a6 6 0 0 0 -.8.3c-.2.35 0 1.15-.75 1zm.5 5.8c0 2 2.05 1.65 3.15 1.1v-2.95c-1.7 0-3.15-.05-3.15 1.85"/><path d="m177.05 239.79c.2-1.85-2.05-1.7-3.4-1.3v6.6l1.15.2v.4h-3.6c-.15-.65.65-.45 1-.6v-7.09c-.35-.15-1.15.05-1-.6h2.35l.1.65c1.55-1.15 4.9-1.45 4.9 1.55v5.45c.35.15 1.15-.05 1 .6h-3.55v-.4l1.1-.2v-5.3"/><path d="m180.45 241.64c0-3.55 2.3-5 5.7-4.25l-.05-3.6-1.4-.2v-.4h2.85v11.9c.4.15 1.2-.1 1 .6h-2.35l-.1-.6c-2.3 1.75-5.65.55-5.65-3.45zm3.85-3.7c-1.85.05-2.2 1.65-2.25 3.7s.45 3.3 2.25 3.3a4.44 4.44 0 0 0 1.8-.35v-6.5c-.5-.05-1.2-.15-1.8-.15"/><path d="m198.7 233.94c-2.6 1.4-3.1 4.75-2.9 8.9.15 2.8 1 4.85 2.9 5.95v.75c-5-1.4-6.25-11.5-2-15a10 10 0 0 1 2-1.35z"/><path d="m201.6 235.69c-1.15 0-1.25-1.95 0-1.9.65 0 .9.35 1 1a1 1 0 0 1 -1 .9zm.9 9.4 1.4.2v.4h-4.25v-.4l1.4-.2v-7.09l-1.2-.2v-.4h2.65v7.65"/><path d="m210.5 239.79c.2-1.85-2.05-1.7-3.4-1.3v6.6l1.15.2v.4h-3.6c-.15-.65.65-.45 1-.6v-7.09c-.35-.15-1.15.05-1-.6h2.35l.1.65c1.55-1.15 4.9-1.45 4.9 1.55v5.45c.35.15 1.15-.05 1 .6h-3.6v-.4l1.1-.2v-5.3"/><path d="m213.9 241.64c0-3.55 2.3-5 5.7-4.25v-3.6l-1.4-.2v-.4h2.8v11.9c.4.15 1.2-.1 1.05.6h-2.35l-.1-.6c-2.35 1.75-5.7.55-5.7-3.45zm3.85-3.7c-1.85.05-2.2 1.65-2.25 3.7s.45 3.3 2.25 3.3a4.44 4.44 0 0 0 1.8-.35v-6.5c-.5-.05-1.2-.15-1.8-.15"/><path d="m226.45 237.19c2.45 0 3.3 1.65 3.15 4.35h-5c-.4 3 1.9 4 4.75 3.15v.5a5.36 5.36 0 0 1 -2.65.7c-2.7 0-3.7-1.65-3.7-4.4s1.05-4.3 3.45-4.3zm1.65 3.65c.6-2.85-2.85-4.1-3.45-1.2a8.09 8.09 0 0 0 -.1 1.2z"/><path d="m238 245.09c.35.15 1.15-.05 1 .6h-3.75v-.4l1.1-.2-1.9-2.9-2.25 2.9 1.15.2v.4h-3v-.4l1-.15 2.75-3.55-2.4-3.59c-.35-.15-1.15.05-1-.6h3.75v.4l-1.1.2 1.6 2.4 1.85-2.4-1.15-.2v-.4h3v.4l-1 .15-2.3 3"/><path d="m249.2 245 2.4.25v.45h-6.3v-.45l2.4-.25v-9.6l-2.4.85v-.5l3.45-2h.45z"/><path d="m257.9 239.54c2 .15 3.05 1.05 3.1 3 .05 3.55-4.15 3.8-7.35 3l-.1-2.5h.6c.1 1.45.8 2.15 2.55 2.15 1.9 0 2.7-.95 2.7-2.75.1-2.15-1.7-2.45-3.75-2.5v-.7c1.85 0 3.2-.35 3.2-2.4 0-2.35-2.35-2.8-4.05-1.8l-.3 1.45h-.6v-2.3c2.55-.65 6.75-.65 6.55 2.55a2.76 2.76 0 0 1 -2.55 2.85"/><path d="m262.3 233.19c5.05 1.4 6.25 11.55 2 14.95a9.86 9.86 0 0 1 -2 1.4v-.75c2.2-1.25 2.9-3.9 2.9-7.45s-.65-6.15-2.9-7.4z"/></g><path d="m59.37 19.5a9 9 0 1 1 -9-9 9 9 0 0 1 9 9z" fill="#fff" stroke="#333"/><path d="m50.4 28.47v25.14l20.84 28.75m-20.85-28.74-20.87 28.75m0-44.9h41.7" fill="none" stroke="#333"/><path d="m29.53 10.5h41.7v93.85h-41.7z" fill="none"/><path d="m40.31 96.15c2.2-.05 3.5-1.05 3.5-3.2v-7.1l-1.6-.2v-.5h4v.5l-1.5.2v7.05c0 2.85-1.65 4.2-4.55 4.25s-4.65-1.3-4.65-4.1v-7.2l-1.5-.2v-.5h4.7v.5l-1.5.2c.35 4.1-1.55 10.45 3.1 10.3" fill="#333"/><path d="m48.61 90.45c.35 2.4 4.3 1.15 4.3 4.2 0 2.8-3.45 2.85-5.6 2v-2c1 0 .45 1.45 1.55 1.55 1.75 1 3.85-1.3 2-2.5-1.35-.9-3.6-.65-3.6-3 0-2.5 2.9-2.6 5-2v1.8c-1 0-.4-1.25-1.4-1.25-1-.35-2.5 0-2.3 1.15" fill="#333"/><path d="m57.76 88.45c2.45 0 3.3 1.65 3.15 4.35h-5c-.4 3 1.9 4 4.75 3.15v.5a5.36 5.36 0 0 1 -2.65.7c-2.7 0-3.7-1.65-3.7-4.4s1.05-4.3 3.45-4.3zm1.65 3.65c.59-2.85-2.85-4.1-3.41-1.2a8.09 8.09 0 0 0 -.1 1.2h3.55" fill="#333"/><path d="m64.36 89.7a6.15 6.15 0 0 1 3-1.25v2.25c-1 0-.4-1.5-2-.85l-1 .3v6.2l1.45.2v.45h-4v-.4l1-.2v-7c-.4-.15-1.2.1-1-.6h2.4" fill="#333"/><path d="m550.8.5h155.3v100h-155.3z" fill="#fff" stroke="#333"/><path d="m567.38 53.68a1 1 0 0 1 0 2 1 1 0 0 1 -1.1-.89v-.16a1 1 0 0 1 1-1zm0-6.6a1 1 0 0 1 1 1v.05a1 1 0 0 1 -.89 1.09h-.11a1 1 0 0 1 -1.1-.89.74.74 0 0 1 0-.21 1 1 0 0 1 .94-1.05h.16" fill="#333"/><path d="m578.78 52.13c0 3.95-4.75 4.1-7.7 2.95v-2.7h.6c.05 1.75 1.1 2.6 3 2.6 2.5 0 3.45-2.9 1.65-4.1-2-1.2-5.25-1.05-5.25-4.25 0-3.35 4.3-3.3 7.1-2.65v2.45h-.6l-.3-1.45c-1.55-1.35-6-.35-4.45 2.1 1.4 2.15 5.95 1.2 5.95 5.05" fill="#333"/><path d="m586.08 54.88c-1.75 1-4.9 1.4-4.9-1.6v-5.4c-.4-.15-1.2.1-1-.6h2.5v5.9c-.15 1.85 2.1 1.6 3.45 1.25v-6.55l-1.25-.2v-.4h2.7v7.65c.4.15 1.2-.1 1 .6h-2.4" fill="#333"/><path d="m595.93 47.93a3.06 3.06 0 0 1 -2.7 4.85 10.32 10.32 0 0 1 -1.35-.15l-.55 1.15c1.45 1.1 6.5-.7 6.2 2.6-.2 2.25-1.9 2.85-4.4 3-3.2.25-4.65-2.6-2-4a1.61 1.61 0 0 1 -1.2-1.45l1.4-1.55a2.54 2.54 0 0 1 -1.4-2.55c-.1-2.55 2.65-3.25 5-2.6l1.9-1 .35.4zm-2.8 10.8c1.75 0 3-.55 3-2.1 0-1.75-2.85-.85-4.45-1.05a2.44 2.44 0 0 0 -.85 1.7c.05 1.25 1 1.45 2.3 1.45zm-1.65-8.85c0 1.3.35 2.3 1.75 2.2s1.7-.8 1.75-2.2-.3-2.15-1.7-2.15-1.8.85-1.8 2.15" fill="#333"/><path d="m604.93 47.93a3.06 3.06 0 0 1 -2.7 4.85 10.32 10.32 0 0 1 -1.35-.15l-.55 1.15c1.45 1.1 6.5-.7 6.2 2.6-.2 2.25-1.9 2.85-4.4 3-3.2.25-4.65-2.6-2-4a1.61 1.61 0 0 1 -1.2-1.45l1.4-1.55a2.54 2.54 0 0 1 -1.4-2.55c-.1-2.55 2.65-3.25 5-2.6l1.9-1 .35.4zm-2.8 10.8c1.75 0 3-.55 3-2.1 0-1.75-2.85-.85-4.45-1.05a2.44 2.44 0 0 0 -.85 1.7c.05 1.25 1 1.45 2.3 1.45zm-1.65-8.85c0 1.3.35 2.3 1.75 2.2s1.7-.8 1.75-2.2-.3-2.15-1.7-2.15-1.8.85-1.8 2.15" fill="#333"/><path d="m611.08 47c2.45 0 3.3 1.65 3.15 4.35h-5.05c-.4 3 1.9 4 4.75 3.15v.5a5.36 5.36 0 0 1 -2.65.7c-2.7 0-3.7-1.65-3.7-4.4s1.1-4.3 3.5-4.3zm1.65 3.65c.6-2.85-2.85-4.1-3.45-1.2a8.09 8.09 0 0 0 -.1 1.2z" fill="#333"/><path d="m616.88 49c.35 2.4 4.3 1.15 4.3 4.2 0 2.8-3.45 2.85-5.6 2v-2c1 0 .45 1.45 1.55 1.55 1.75 1 3.85-1.3 2-2.5-1.35-.9-3.6-.65-3.6-2.95 0-2.5 2.9-2.6 5-2.05v1.8c-1 0-.4-1.25-1.4-1.25-1-.35-2.5-.05-2.3 1.15" fill="#333"/><path d="m624.53 53.63c0 1.25 1.2 1.3 2.2 1v.6c-1.35.8-3.65.75-3.65-1.45v-5.78h-1.08c-.1-.7.7-.5 1-.75l.9-1.9h.55v1.9h1.9v.75h-1.9v5.6" fill="#333"/><path d="m629.18 45.53c-1.15 0-1.25-2 0-1.9.65 0 .9.35 1 .95a1 1 0 0 1 -1 .95zm.9 9.4 1.4.2v.4h-4.25v-.4l1.4-.2v-7l-1.2-.2v-.4h2.65v7.67" fill="#333"/><path d="m636.33 47c2.6 0 3.8 1.6 3.8 4.35s-1.2 4.35-3.85 4.35-3.75-1.7-3.75-4.35 1.2-4.35 3.8-4.35zm-.05 8c2 0 2.3-1.75 2.3-3.65s-.35-3.65-2.3-3.65-2.2 1.7-2.2 3.65.3 3.6 2.2 3.65" fill="#333"/><path d="m647.08 49.63c.2-1.85-2.05-1.7-3.4-1.3v6.6l1.15.2v.4h-3.6c-.15-.65.65-.45 1-.6v-7c-.35-.15-1.15 0-1-.6h2.35l.1.65c1.55-1.15 4.9-1.45 4.9 1.55v5.47c.35.15 1.15 0 1 .6h-3.58v-.4l1.1-.2v-5.3" fill="#333"/><path d="m655.38 44.23-1.8.2v10.35a33.41 33.41 0 0 0 5-.2l.55-2.45h.55l-.15 3.4h-9.25v-.45l1.55-.25v-10.4l-1.55-.2v-.5h5v.5" fill="#333"/><path d="m665.28 47c2.6 0 3.8 1.6 3.8 4.35s-1.2 4.35-3.85 4.35-3.75-1.7-3.75-4.35 1.2-4.35 3.8-4.35zm0 8c2 0 2.3-1.75 2.3-3.65s-.35-3.65-2.3-3.65-2.2 1.7-2.2 3.65.3 3.6 2.2 3.65" fill="#333"/><path d="m676.83 47.93a3.06 3.06 0 0 1 -2.7 4.85 10.32 10.32 0 0 1 -1.35-.15l-.55 1.15c1.45 1.1 6.5-.7 6.2 2.6-.2 2.25-1.9 2.85-4.4 3-3.2.25-4.65-2.6-2-4a1.61 1.61 0 0 1 -1.2-1.45l1.4-1.55a2.54 2.54 0 0 1 -1.4-2.55c-.1-2.55 2.65-3.25 5-2.6l1.9-1 .35.4zm-2.83 10.8c1.75 0 3-.55 3-2.1 0-1.75-2.85-.85-4.45-1.05a2.44 2.44 0 0 0 -.85 1.7c.08 1.25 1.03 1.45 2.3 1.45zm-1.65-8.85c0 1.3.35 2.3 1.75 2.2s1.7-.8 1.75-2.2-.3-2.15-1.7-2.15-1.8.85-1.8 2.15" fill="#333"/><path d="m681.13 45.53c-1.15 0-1.25-2 0-1.9.65 0 .9.35 1 .95a1 1 0 0 1 -1 .95zm.9 9.4 1.4.2v.4h-4.25v-.4l1.4-.2v-7l-1.2-.2v-.4h2.62v7.67" fill="#333"/><path d="m686 51.33c0 3.2 2.6 4 5.2 3.15 0 1.25-1.5 1.25-2.75 1.25-2.8 0-4-1.6-4-4.4 0-3.8 3.1-4.9 6.55-4v2.3h-.5c-.25-.75-.2-1.55-1.15-1.75-2.35-.5-3.35 1-3.35 3.45" fill="#333"/><path d="m628.45 101.5v419" fill="none"/><path d="m628.45 101.5v5m0 5v10m0 5v10m0 5v10m0 5v10m0 5v10m0 5v10m0 5v10m0 5v10m0 5v10m0 5v10m0 5v10m0 5v10m0 5v10m0 5v10m0 5v10m0 5v10m0 5v10m0 5v10m0 5v10m0 5v10m0 5v10m0 5v10m0 5v10m0 5v10m0 5v10m0 5v10m0 5v10m0 5v5" fill="none" stroke="#333"/><path d="m629 101.5h-1v-.5h1zm0 419.5h-1v-.5h1z" fill="#333"/><path d="m608.45 340.87h40v179.63h-40z" fill="#fff" stroke="#333"/><path d="m.5 351.5h705.5v169.5h-705.49z" fill="url(#a)"/></g></svg>
