<svg viewBox="0 0 1400.43 555.5" xmlns="http://www.w3.org/2000/svg"><path d="m500.5.5h165.14v100h-165.13z" fill="#83bbe5" stroke="#333"/><path d="m546.15 37.27v-.45l8.35-4.1v.9l-7.1 3.38 7.1 3.45v.9" fill="#333"/><path d="m556.3 37.27v-.45l8.35-4.1v.9l-7.1 3.4 7.1 3.45v.9" fill="#333"/><path d="m567.8 38.82c0 3.2 2.6 4 5.2 3.15 0 1.25-1.5 1.25-2.75 1.25-2.8 0-4-1.6-4-4.4 0-3.8 3.1-4.9 6.55-4v2.3h-.5c-.25-.75-.2-1.55-1.15-1.75-2.35-.5-3.35 1.05-3.35 3.45" fill="#333"/><path d="m576.75 42.42 1.4.2v.38h-4.3v-.4l1.4-.2v-11.28l-1.4-.2v-.4h2.9z" fill="#333"/><path d="m580.1 34.87c2-.5 5.1-.7 5.1 2v5.6c.4.15 1.2-.1 1 .6h-2.2l-.2-.85c-1.15 1.5-5.15 1.5-4.65-1.45-.1-2.5 2.25-2.5 4.6-2.55.2-1.8-.25-3.5-2.1-2.8a6.89 6.89 0 0 0 -.8.3c-.2.35 0 1.15-.75 1zm.5 5.8c0 2 2 1.65 3.15 1.1v-3c-1.7 0-3.15 0-3.15 1.85" fill="#333"/><path d="m588.5 36.52c.35 2.4 4.3 1.15 4.3 4.2 0 2.8-3.45 2.85-5.6 2.05v-2c1 0 .45 1.45 1.55 1.55 1.75 1 3.85-1.3 2-2.5-1.35-.9-3.6-.65-3.6-3 0-2.5 2.9-2.6 5-2v1.8c-1 .05-.4-1.25-1.4-1.25-1-.35-2.5 0-2.3 1.15" fill="#333"/><path d="m595.5 36.52c.35 2.4 4.3 1.15 4.3 4.2 0 2.8-3.45 2.85-5.6 2.05v-2c1 0 .45 1.45 1.55 1.55 1.75 1 3.85-1.3 2-2.5-1.35-.9-3.6-.65-3.6-3 0-2.5 2.9-2.6 5-2v1.8c-1 .05-.4-1.25-1.4-1.25-1-.35-2.5 0-2.3 1.15" fill="#333"/><path d="m601.35 41.37v-.9l7.1-3.45-7.1-3.4v-.9l8.4 4.1v.45" fill="#333"/><path d="m611.5 41.37v-.9l7.1-3.47-7.1-3.4v-.9l8.4 4.1v.45" fill="#333"/><path d="m515.05 64.17v.45h-3.85v-.45l1.3-.25 4-11.2h1.65l4.15 11.2 1.5.25v.45h-5v-.45l1.55-.25-1.15-3.4h-4.65l-1.2 3.4zm1.95-10.17-2.05 5.7h4.05" fill="#333"/><path d="m526.8 57.37a6.08 6.08 0 0 1 3-1.25v2.25c-.95.05-.4-1.5-2-.85l-1 .3v6.18l1.45.2v.4h-4v-.4l1.05-.2v-7c-.4-.15-1.2.1-1.05-.6h2.4" fill="#333"/><path d="m536.6 57a3.05 3.05 0 0 1 -2.7 4.85 10.11 10.11 0 0 1 -1.35-.15l-.55 1.17c1.45 1.1 6.5-.7 6.2 2.6-.2 2.25-1.9 2.85-4.4 3-3.2.25-4.65-2.6-2-4a1.61 1.61 0 0 1 -1.2-1.45l1.4-1.55a2.54 2.54 0 0 1 -1.4-2.47c-.1-2.55 2.65-3.25 5-2.6l1.9-1 .35.4zm-2.8 10.8c1.75 0 3.05-.55 3.05-2.1 0-1.75-2.85-.85-4.45-1a2.43 2.43 0 0 0 -.85 1.7c0 1.22.95 1.42 2.25 1.42zm-1.65-8.8c.05 1.3.35 2.3 1.75 2.2s1.7-.8 1.75-2.2-.3-2.15-1.7-2.15-1.8.85-1.8 2.15" fill="#333"/><path d="m544.75 64c-1.75 1-4.9 1.4-4.9-1.6v-5.4c-.4-.15-1.2.1-1.05-.6h2.5v5.9c-.15 1.85 2.1 1.6 3.45 1.25v-6.55l-1.25-.2v-.4h2.7v7.6c.4.15 1.2-.1 1 .6h-2.4" fill="#333"/><path d="m553.85 58.72c.2-1.85-2.1-1.6-3.4-1.25v6.53l1.2.2v.4h-3.65c-.15-.65.65-.45 1-.6v-7c-.35-.15-1.15.05-1-.6h2.4v.65c1.1-.75 3.85-1.5 4.6.1 1.6-1.1 5.2-1.8 5.2 1.45v5.4c.4.15 1.2-.1 1 .6h-3.7v-.4l1.25-.2v-5.3c.15-1.95-2.25-1.55-3.6-1.2.35 1.85.05 4.4.15 6.5l1.25.2v.4h-3.9v-.4l1.2-.2z" fill="#333"/><path d="m565.75 56.12c2.45 0 3.3 1.65 3.15 4.35h-5c-.4 3 1.9 4 4.75 3.15v.5a5.33 5.33 0 0 1 -2.65.7c-2.7 0-3.7-1.65-3.7-4.4s1.05-4.3 3.45-4.3zm1.65 3.65c.6-2.85-2.85-4.1-3.45-1.2a8.3 8.3 0 0 0 -.1 1.2z" fill="#333"/><path d="m575.75 58.72c.2-1.85-2-1.7-3.4-1.3v6.58l1.15.2v.4h-3.6c-.15-.65.65-.45 1-.6v-7c-.35-.15-1.15.05-1-.6h2.35l.1.65c1.55-1.15 4.9-1.45 4.9 1.55v5.4c.35.15 1.15 0 1 .6h-3.6v-.4l1.1-.2z" fill="#333"/><path d="m581.2 62.72c-.05 1.25 1.2 1.3 2.2 1v.6c-1.35.8-3.65.75-3.65-1.45v-5.75h-1c-.1-.7.7-.5 1-.75l.9-1.9h.55v1.9h1.9v.75h-1.9z" fill="#333"/><path d="m586.25 64.62v-.45l1.9-.25v-10.35a24.94 24.94 0 0 0 -3.5.2l-.25 1.85h-.55v-2.8h10.35v2.8h-.6l-.25-1.85-3.5-.15v10.3l1.85.25v.45z" fill="#333"/><path d="m597.7 56.12c2.6 0 3.8 1.6 3.8 4.35s-1.2 4.35-3.85 4.35-3.75-1.7-3.75-4.35 1.2-4.35 3.8-4.35zm-.05 8c2 0 2.3-1.75 2.3-3.65s-.35-3.65-2.3-3.65-2.2 1.7-2.2 3.65.3 3.6 2.2 3.65" fill="#333"/><path d="m605.2 60.62 3.4-3.62c-.35-.15-1 0-.85-.6h2.9c.15.65-.65.45-1 .6l-2.35 2.4 3 4.65c.35.15 1.05 0 .9.6h-3.4c-.15-.6.45-.45.75-.6l-2.25-3.55-1.1 1.15v2.35c.35.15 1 0 .9.6h-3.4v-.4l1-.2v-11.28l-1.2-.2v-.4h2.65z" fill="#333"/><path d="m615.4 56.12c2.45 0 3.3 1.65 3.15 4.35h-5c-.4 3 1.9 4 4.75 3.15v.5a5.33 5.33 0 0 1 -2.65.7c-2.7 0-3.7-1.65-3.7-4.4s1.05-4.3 3.45-4.3zm1.65 3.65c.6-2.85-2.85-4.1-3.45-1.2a8.3 8.3 0 0 0 -.1 1.2z" fill="#333"/><path d="m625.4 58.72c.2-1.85-2-1.7-3.4-1.3v6.58l1.15.2v.4h-3.6c-.15-.65.65-.45 1-.6v-7c-.35-.15-1.15.05-1-.6h2.35l.1.65c1.55-1.15 4.9-1.45 4.9 1.55v5.4c.35.15 1.15 0 1 .6h-3.6v-.4l1.1-.2z" fill="#333"/><path d="m630.5 54.62c-1.15 0-1.25-1.95 0-1.9.65 0 .9.35 1 1a1 1 0 0 1 -1 .9zm.9 9.4 1.4.2v.4h-4.25v-.4l1.45-.22v-7l-1.2-.2v-.4h2.65z" fill="#333"/><path d="m633.65 64.62v-.4l4.5-7.15c-1.15.1-2.7-.2-3.5.3-.25.4.05 1.3-.7 1.2v-2.2h6.1v.4l-4.55 7.15c1.45-.1 3.25.15 4.3-.4l.45-1.75h.4l-.25 2.85z" fill="#333"/><path d="m645.3 56.12c2.45 0 3.3 1.65 3.15 4.35h-5.05c-.4 3 1.9 4 4.75 3.15v.5a5.33 5.33 0 0 1 -2.65.7c-2.7 0-3.7-1.65-3.7-4.4s1.1-4.3 3.5-4.3zm1.7 3.65c.6-2.85-2.85-4.1-3.45-1.2a8.3 8.3 0 0 0 -.1 1.2z" fill="#333"/><path d="m651.9 57.37a6.08 6.08 0 0 1 3-1.25v2.25c-.95.05-.4-1.5-2-.85l-1 .3v6.18l1.45.2v.4h-4v-.4l1.05-.2v-7c-.4-.15-1.2.1-1.05-.6h2.4" fill="#333"/><path d="m340.5.5h120v100h-120z" fill="#83bbe5" stroke="#333"/><path d="m363.65 37.27v-.45l8.35-4.1v.9l-7.1 3.38 7.1 3.45v.9" fill="#333"/><path d="m373.8 37.27v-.45l8.35-4.1v.9l-7.1 3.4 7.1 3.45v.9" fill="#333"/><path d="m385.3 38.82c0 3.2 2.6 4 5.2 3.15.05 1.25-1.5 1.25-2.75 1.25-2.8 0-4-1.6-4-4.4 0-3.8 3.1-4.9 6.55-4v2.3h-.5c-.25-.75-.2-1.55-1.15-1.75-2.35-.5-3.35 1.05-3.35 3.45" fill="#333"/><path d="m394.25 42.42 1.4.2v.38h-4.3v-.4l1.4-.2v-11.28l-1.4-.2v-.4h2.9z" fill="#333"/><path d="m397.6 34.87c2-.5 5.1-.7 5.1 2v5.6c.4.15 1.2-.1 1.05.6h-2.25l-.2-.85c-1.15 1.5-5.15 1.5-4.65-1.45-.1-2.5 2.25-2.5 4.6-2.55.2-1.8-.25-3.5-2.1-2.8a6.89 6.89 0 0 0 -.8.3c-.2.35 0 1.15-.75 1zm.5 5.8c0 2 2 1.65 3.15 1.1v-3c-1.7 0-3.15 0-3.15 1.85" fill="#333"/><path d="m406 36.52c.35 2.4 4.3 1.15 4.3 4.2 0 2.8-3.45 2.85-5.6 2.05v-2c1 0 .45 1.45 1.55 1.55 1.75 1 3.85-1.3 2.05-2.5-1.35-.9-3.6-.65-3.6-3 0-2.5 2.9-2.6 5-2v1.8c-.95.05-.4-1.25-1.4-1.25-1.05-.35-2.5 0-2.3 1.15" fill="#333"/><path d="m413 36.52c.35 2.4 4.3 1.15 4.3 4.2 0 2.8-3.45 2.85-5.6 2.05v-2c1 0 .45 1.45 1.55 1.55 1.75 1 3.85-1.3 2.05-2.5-1.35-.9-3.6-.65-3.6-3 0-2.5 2.9-2.6 5-2v1.8c-.95.05-.4-1.25-1.4-1.25-1.05-.35-2.5 0-2.3 1.15" fill="#333"/><path d="m418.85 41.37v-.9l7.15-3.47-7.1-3.4v-.9l8.4 4.1v.45" fill="#333"/><path d="m429 41.37v-.9l7.1-3.47-7.1-3.4v-.9l8.4 4.1v.45" fill="#333"/><path d="m374 61.22c0 4-4.75 4.1-7.7 3v-2.7h.6c.05 1.75 1.1 2.6 3 2.6 2.5 0 3.45-2.9 1.65-4.1s-5.25-1-5.25-4.25 4.3-3.3 7.1-2.65v2.45h-.6l-.3-1.45c-1.55-1.35-6.05-.35-4.45 2.1 1.4 2.15 6 1.2 6 5" fill="#333"/><path d="m381.28 64c-1.75 1-4.9 1.4-4.9-1.6v-5.4c-.4-.15-1.2.1-1.05-.6h2.5v5.9c-.15 1.85 2.1 1.6 3.45 1.25v-6.55l-1.25-.2v-.4h2.7v7.6c.4.15 1.2-.1 1 .6h-2.4" fill="#333"/><path d="m391.13 57a3.05 3.05 0 0 1 -2.7 4.85 10.11 10.11 0 0 1 -1.35-.15l-.55 1.15c1.45 1.1 6.5-.7 6.2 2.6-.2 2.25-1.9 2.85-4.4 3-3.2.25-4.65-2.6-2-4a1.61 1.61 0 0 1 -1.2-1.45l1.4-1.55a2.54 2.54 0 0 1 -1.4-2.55c-.1-2.55 2.65-3.25 5-2.6l1.9-1 .35.4zm-2.8 10.8c1.75 0 3.05-.55 3.05-2.1 0-1.75-2.85-.85-4.45-1a2.43 2.43 0 0 0 -.85 1.7c0 1.22.92 1.42 2.25 1.42zm-1.65-8.8c.05 1.3.35 2.3 1.75 2.2s1.7-.8 1.75-2.2-.3-2.15-1.7-2.15-1.8.85-1.8 2.15" fill="#333"/><path d="m400.13 57a3.05 3.05 0 0 1 -2.7 4.85 10.11 10.11 0 0 1 -1.35-.15l-.55 1.15c1.45 1.1 6.5-.7 6.2 2.6-.2 2.25-1.9 2.85-4.4 3-3.2.25-4.65-2.6-2-4a1.61 1.61 0 0 1 -1.2-1.45l1.4-1.55a2.54 2.54 0 0 1 -1.4-2.55c-.1-2.55 2.65-3.25 5-2.6l1.9-1 .35.4zm-2.8 10.8c1.75 0 3.05-.55 3.05-2.1 0-1.75-2.85-.85-4.45-1a2.43 2.43 0 0 0 -.85 1.7c0 1.22.92 1.42 2.25 1.42zm-1.65-8.8c.05 1.3.35 2.3 1.75 2.2s1.7-.8 1.75-2.2-.3-2.15-1.7-2.15-1.8.85-1.8 2.15" fill="#333"/><path d="m406.28 56.12c2.45 0 3.3 1.65 3.15 4.35h-5.05c-.4 3 1.9 4 4.75 3.15v.5a5.33 5.33 0 0 1 -2.65.7c-2.7 0-3.7-1.65-3.7-4.4s1.1-4.3 3.5-4.3zm1.65 3.65c.6-2.85-2.85-4.1-3.45-1.2a8.3 8.3 0 0 0 -.1 1.2z" fill="#333"/><path d="m412.08 58.12c.35 2.4 4.3 1.15 4.3 4.2 0 2.8-3.45 2.85-5.6 2.05v-2c1 0 .45 1.45 1.55 1.55 1.75 1 3.85-1.3 2.05-2.5-1.35-.9-3.6-.65-3.6-3 0-2.5 2.9-2.6 5-2v1.8c-.95.05-.4-1.25-1.4-1.25-1.05-.35-2.5 0-2.3 1.15" fill="#333"/><path d="m419.73 62.72c-.05 1.25 1.2 1.3 2.2 1v.6c-1.35.8-3.65.75-3.65-1.45v-5.75h-1c-.1-.7.7-.5 1-.75l.9-1.9h.55v1.9h1.9v.75h-1.9z" fill="#333"/><path d="m426.23 56.12c2.45 0 3.3 1.65 3.15 4.35h-5.05c-.4 3 1.9 4 4.75 3.15v.5a5.33 5.33 0 0 1 -2.65.7c-2.7 0-3.7-1.65-3.7-4.4s1.1-4.3 3.5-4.3zm1.65 3.65c.6-2.85-2.85-4.1-3.45-1.2a8.3 8.3 0 0 0 -.1 1.2z" fill="#333"/><path d="m432.83 57.37a6.08 6.08 0 0 1 3-1.25v2.25c-.95.05-.4-1.5-2-.85l-1 .3v6.18l1.45.2v.4h-3.95v-.4l1.05-.2v-7c-.4-.15-1.2.1-1.05-.6h2.4" fill="#333"/><path d="m400.5 101.5v446.5" fill="none"/><path d="m400.5 101.5v5m0 5v9.92m0 5v9.93m0 5v9.9m0 5v9.75m0 5v9.92m0 5v9.93m0 5v9.92m0 5v9.93m0 5v9.92m0 5v9.92m0 5v9.93m0 4.95v9.92m0 5v9.92m0 5v9.94m0 5v9.92m0 5v9.93m0 5v9.92m0 4.95v9.92m0 5v9.92m0 5v9.92m0 5v9.32m0 5v9.9m0 5v9.92m0 5v9.92m0 5v9.92m0 5v9.93m0 5v9.93m0 5v9.9m0 5v9.92m0 5v5" fill="none" stroke="#333"/><path d="m401 101.5h-1v-.5h1z" fill="#333"/><path d="m400.5 548v.52" fill="none" stroke="#333"/><path d="m583.07 101.5v446.5" fill="none"/><path d="m583.07 101.5v5m0 5v9.92m0 5v9.93m0 5v9.9m0 5v9.75m0 5v9.92m0 5v9.93m0 5v9.92m0 5v9.93m0 5v9.92m0 5v9.92m0 5v9.93m0 4.95v9.92m0 5v9.92m0 5v9.94m0 5v9.92m0 5v9.93m0 5v9.92m0 4.95v9.92m0 5v9.92m0 5v9.92m0 5v9.32m0 5v9.9m0 5v9.92m0 5v9.92m0 5v9.92m0 5v9.93m0 5v9.93m0 5v9.9m0 5v9.92m0 5v5" fill="none" stroke="#333"/><path d="m583.57 101.5h-1v-.5h1z" fill="#333"/><path d="m583.07 548v.52" fill="none" stroke="#333"/><path d="m58.15 95h40v460h-40z" fill="#83bbe5" stroke="#333"/><path d="m78.43 50.08 12.35-18.35" fill="none"/><path d="m78.43 50.08 4.1-6.1m4.13-6.13 4.12-6.12m-12.35 18.34-2 2.92m14.3-21.25 2-2.9" fill="none" stroke="#333"/><path d="m.5.5h155.3v100h-155.3z" fill="#83bbe5" stroke="#333"/><path d="m17.08 53.67a1 1 0 0 1 1.05 1 1 1 0 0 1 -1.05 1.05 1 1 0 0 1 -1.08-1 1 1 0 0 1 1.08-1.05zm0-6.6a1 1 0 0 1 1.05 1 1 1 0 0 1 -1.05 1.1 1 1 0 0 1 -1.1-1.1 1 1 0 0 1 1.1-1" fill="#333"/><path d="m28.48 52.12c0 4-4.75 4.1-7.7 3v-2.7h.6c.05 1.75 1.1 2.6 3 2.6 2.5 0 3.45-2.9 1.65-4.1-2-1.2-5.25-1-5.25-4.25s4.3-3.3 7.1-2.65v2.45h-.6l-.28-1.47c-1.55-1.35-6.05-.35-4.45 2.1 1.4 2.15 5.95 1.2 5.95 5" fill="#333"/><path d="m35.78 54.87c-1.75 1.05-4.9 1.4-4.9-1.6v-5.4c-.4-.15-1.2.1-1.05-.6h2.5v5.9c-.15 1.85 2.1 1.6 3.45 1.25v-6.55l-1.25-.2v-.4h2.7v7.65c.4.15 1.2-.1 1.05.6h-2.4" fill="#333"/><path d="m45.63 47.92a3.05 3.05 0 0 1 -2.7 4.85 10.11 10.11 0 0 1 -1.35-.15l-.58 1.15c1.45 1.1 6.5-.7 6.2 2.6-.2 2.25-1.9 2.85-4.4 3.05-3.2.25-4.65-2.6-2-4a1.61 1.61 0 0 1 -1.17-1.42l1.37-1.58a2.54 2.54 0 0 1 -1.4-2.55c-.1-2.55 2.65-3.25 5-2.6l1.9-1 .35.4zm-2.8 10.8c1.75 0 3.05-.55 3.05-2.1 0-1.75-2.85-.85-4.45-1a2.43 2.43 0 0 0 -.85 1.7c0 1.2.95 1.4 2.25 1.4zm-1.65-8.85c0 1.3.35 2.3 1.75 2.2s1.7-.8 1.75-2.2-.3-2.15-1.7-2.15-1.8.85-1.8 2.15" fill="#333"/><path d="m54.63 47.92a3.05 3.05 0 0 1 -2.7 4.85 10.11 10.11 0 0 1 -1.35-.15l-.58 1.15c1.45 1.1 6.5-.7 6.2 2.6-.2 2.25-1.9 2.85-4.4 3.05-3.2.25-4.65-2.6-2-4a1.61 1.61 0 0 1 -1.17-1.42l1.37-1.58a2.54 2.54 0 0 1 -1.4-2.55c-.1-2.55 2.65-3.25 5-2.6l1.9-1 .35.4zm-2.8 10.8c1.75 0 3.05-.55 3.05-2.1 0-1.75-2.85-.85-4.45-1a2.43 2.43 0 0 0 -.85 1.7c0 1.2.95 1.4 2.25 1.4zm-1.65-8.85c0 1.3.35 2.3 1.75 2.2s1.7-.8 1.75-2.2-.3-2.15-1.7-2.15-1.8.85-1.8 2.15" fill="#333"/><path d="m60.78 47c2.45 0 3.3 1.65 3.15 4.35h-5c-.4 3 1.9 4 4.75 3.15v.5a5.33 5.33 0 0 1 -2.65.7c-2.7 0-3.7-1.65-3.7-4.4s1.05-4.3 3.45-4.3zm1.65 3.65c.6-2.85-2.85-4.1-3.45-1.2a8.3 8.3 0 0 0 -.1 1.2z" fill="#333"/><path d="m66.58 49c.35 2.4 4.3 1.15 4.3 4.2 0 2.8-3.45 2.85-5.6 2.05v-2c1 0 .45 1.45 1.55 1.55 1.75 1 3.85-1.3 2-2.5-1.35-.9-3.6-.65-3.6-3 0-2.5 2.9-2.6 5-2v1.8c-1 .05-.4-1.25-1.4-1.25-1-.35-2.5 0-2.3 1.15" fill="#333"/><path d="m74.23 53.62c0 1.25 1.2 1.3 2.2 1v.6c-1.35.8-3.65.75-3.65-1.45v-5.77h-1c-.1-.7.7-.5 1-.75l.9-1.9h.55v1.9h1.9v.75h-1.9z" fill="#333"/><path d="m78.88 45.52c-1.15 0-1.25-2 0-1.9.65 0 .9.35 1 1a1 1 0 0 1 -1 .9zm.9 9.4 1.4.2v.4h-4.25v-.4l1.4-.2v-7.05l-1.2-.2v-.4h2.65z" fill="#333"/><path d="m86 47c2.6 0 3.8 1.6 3.8 4.35s-1.2 4.35-3.85 4.35-3.75-1.7-3.75-4.35 1.23-4.35 3.8-4.35zm0 8c2 0 2.3-1.75 2.3-3.65s-.35-3.65-2.3-3.65-2.2 1.7-2.2 3.65.28 3.65 2.2 3.65" fill="#333"/><path d="m96.78 49.62c.2-1.85-2-1.7-3.4-1.3v6.6l1.15.2v.4h-3.6c-.15-.65.65-.45 1-.6v-7.05c-.35-.15-1.15.05-1-.6h2.35l.1.65c1.55-1.15 4.9-1.45 4.9 1.55v5.45c.35.15 1.15-.05 1 .6h-3.6v-.4l1.1-.2z" fill="#333"/><path d="m105.08 44.22-1.8.2v10.35a32.79 32.79 0 0 0 5-.2l.55-2.45h.55l-.15 3.4h-9.23v-.45l1.55-.25v-10.4l-1.55-.2v-.5h5z" fill="#333"/><path d="m115 47c2.6 0 3.8 1.6 3.8 4.35s-1.2 4.35-3.85 4.35-3.75-1.7-3.75-4.35 1.18-4.35 3.8-4.35zm0 8c1.95 0 2.3-1.75 2.3-3.65s-.35-3.65-2.3-3.65-2.2 1.7-2.2 3.65.3 3.6 2.2 3.65" fill="#333"/><path d="m126.53 47.92a3.05 3.05 0 0 1 -2.7 4.85 10.11 10.11 0 0 1 -1.35-.15l-.55 1.15c1.45 1.1 6.5-.7 6.2 2.6-.2 2.25-1.9 2.85-4.4 3.05-3.2.25-4.65-2.6-2-4a1.61 1.61 0 0 1 -1.2-1.45l1.4-1.55a2.54 2.54 0 0 1 -1.4-2.55c-.1-2.55 2.65-3.25 5-2.6l1.9-1 .35.4zm-2.8 10.8c1.75 0 3-.55 3-2.1 0-1.75-2.85-.85-4.45-1a2.43 2.43 0 0 0 -.85 1.7c.05 1.2 1 1.4 2.3 1.4zm-1.65-8.85c0 1.3.35 2.3 1.75 2.2s1.7-.8 1.75-2.2-.3-2.15-1.7-2.15-1.8.85-1.8 2.15" fill="#333"/><path d="m130.83 45.52c-1.15 0-1.25-2 0-1.9.65 0 .9.35 1 1a1 1 0 0 1 -1 .9zm.9 9.4 1.4.2v.4h-4.25v-.4l1.4-.2v-7.05l-1.2-.2v-.4h2.65z" fill="#333"/><path d="m135.73 51.32c0 3.2 2.6 4 5.2 3.15 0 1.25-1.5 1.25-2.75 1.25-2.8 0-4-1.6-4-4.4 0-3.8 3.1-4.9 6.55-4v2.3h-.5c-.25-.75-.2-1.55-1.15-1.75-2.35-.5-3.35 1.05-3.35 3.45" fill="#333"/><path d="m911.71 10.8h281.9v537.47h-281.88z" fill="none"/><path d="m939.9 10.8h-28.2v537.47h28.2" fill="none" stroke="#333"/><path d="m940.83 19c-3.1 0-3.9 2.15-3.9 5.3s.8 5.4 3.9 5.4 3.9-2.25 3.9-5.4-.8-5.3-3.9-5.3zm0 11.4c-3.85 0-5.75-2.15-5.75-6.1s1.85-6 5.75-6 5.75 2.1 5.75 6-1.9 6.1-5.75 6.1" fill="#333"/><path d="m949.93 29.5c2.9.6 4.1-.75 4.1-3.65 0-2.6-1.75-3.85-4.1-2.9zm1.8.9a8.93 8.93 0 0 1 -3.25-.65v-11.45l-1.2-.2v-.4h2.65v4.7c2.4-1.65 5.7-.2 5.7 3.45 0 2.85-1.15 4.55-3.85 4.55" fill="#333"/><path d="m958.78 18.3c1.4 0 1.1 1.9 0 1.9-.5-.1-.95-.35-.95-.95s.35-.9.95-.95zm-2.35 14.8c1.2.75 1.75-.5 1.75-2.1v-8.45l-1.25-.2v-.35h2.7v8.6c.2 2.55-1.4 4.05-3.85 3.3v-1.8c.65-.1.45.65.65 1" fill="#333"/><path d="m965.48 21.7c2.45 0 3.3 1.65 3.15 4.35h-5c-.4 3 1.9 4 4.75 3.15v.5a5.33 5.33 0 0 1 -2.65.7c-2.7 0-3.7-1.65-3.7-4.4s1.05-4.3 3.45-4.3zm1.65 3.65c.6-2.85-2.85-4.1-3.45-1.2a8.3 8.3 0 0 0 -.1 1.2z" fill="#333"/><path d="m971.48 26c0 3.2 2.6 4 5.2 3.15.05 1.25-1.5 1.25-2.75 1.25-2.8 0-4-1.6-4-4.4 0-3.8 3.1-4.9 6.55-4v2.3h-.48c-.25-.75-.2-1.55-1.15-1.75-2.35-.5-3.35 1.05-3.35 3.45" fill="#333"/><path d="m979.88 28.3c0 1.25 1.2 1.3 2.2 1v.6c-1.35.8-3.65.75-3.65-1.45v-5.75h-1c-.1-.7.7-.5 1-.75l.9-1.9h.55v1.95h1.9v.75h-1.9z" fill="#333"/><path d="m984.23 23.7c.35 2.4 4.3 1.15 4.3 4.2 0 2.8-3.45 2.85-5.6 2.05v-1.95c1 0 .45 1.45 1.55 1.55 1.75.95 3.85-1.3 2-2.5-1.35-.9-3.6-.65-3.6-2.95 0-2.5 2.9-2.6 5-2.05v1.8c-.95.05-.4-1.25-1.4-1.25-1-.35-2.5-.05-2.3 1.15" fill="#333"/><path d="m996 20.2c-1.15 0-1.25-1.95 0-1.9.65 0 .9.35 1 .95a1 1 0 0 1 -1 .95zm.9 9.4 1.4.2v.4h-4.25v-.4l1.4-.2v-7l-1.2-.2v-.4h2.65z" fill="#333"/><path d="m1004.93 24.3c.2-1.85-2-1.7-3.4-1.3v6.6l1.15.2v.4h-3.6c-.15-.65.65-.45 1-.6v-7c-.35-.15-1.15.05-1-.6h2.35l.1.65c1.55-1.15 4.9-1.45 4.9 1.55v5.4c.35.15 1.15-.05 1 .6h-3.6v-.4l1.1-.2z" fill="#333"/><path d="m1021.08 26.8c0 3.95-4.75 4.1-7.7 2.95v-2.7h.6c0 1.75 1.1 2.6 3 2.6 2.5 0 3.45-2.9 1.65-4.1-2-1.2-5.25-1.05-5.25-4.25 0-3.35 4.3-3.3 7.1-2.65v2.45h-.6l-.3-1.45c-1.55-1.35-6.05-.35-4.45 2.1 1.4 2.15 6 1.2 6 5.05" fill="#333"/><path d="m1028.38 29.55c-1.75 1.05-4.9 1.4-4.9-1.6v-5.4c-.4-.15-1.2.1-1.05-.6h2.5v5.9c-.15 1.85 2.1 1.6 3.45 1.25v-6.55l-1.25-.2v-.35h2.7v7.6c.4.15 1.2-.1 1.05.6h-2.4" fill="#333"/><path d="m1038.23 22.6a3.05 3.05 0 0 1 -2.7 4.85 10.11 10.11 0 0 1 -1.35-.15l-.55 1.15c1.45 1.1 6.5-.7 6.2 2.6-.2 2.25-1.9 2.85-4.4 3.05-3.2.25-4.65-2.6-2-4a1.61 1.61 0 0 1 -1.2-1.45l1.4-1.55a2.54 2.54 0 0 1 -1.4-2.55c-.1-2.55 2.65-3.25 5-2.6l1.9-1 .35.4zm-2.8 10.8c1.75 0 3-.55 3-2.1 0-1.75-2.85-.85-4.45-1.05a2.43 2.43 0 0 0 -.85 1.7c.05 1.25 1 1.45 2.3 1.45zm-1.65-8.85c0 1.3.35 2.3 1.75 2.2s1.7-.8 1.75-2.2-.3-2.15-1.7-2.15-1.8.85-1.8 2.15" fill="#333"/><path d="m1047.23 22.6a3.05 3.05 0 0 1 -2.7 4.85 10.11 10.11 0 0 1 -1.35-.15l-.55 1.15c1.45 1.1 6.5-.7 6.2 2.6-.2 2.25-1.9 2.85-4.4 3.05-3.2.25-4.65-2.6-2-4a1.61 1.61 0 0 1 -1.2-1.45l1.4-1.55a2.54 2.54 0 0 1 -1.4-2.55c-.1-2.55 2.65-3.25 5-2.6l1.9-1 .35.4zm-2.8 10.8c1.75 0 3-.55 3-2.1 0-1.75-2.85-.85-4.45-1.05a2.43 2.43 0 0 0 -.85 1.7c.05 1.25 1 1.45 2.3 1.45zm-1.65-8.85c0 1.3.35 2.3 1.75 2.2s1.7-.8 1.75-2.2-.3-2.15-1.7-2.15-1.8.85-1.8 2.15" fill="#333"/><path d="m1053.38 21.7c2.45 0 3.3 1.65 3.15 4.35h-5c-.4 3 1.9 4 4.75 3.15v.5a5.33 5.33 0 0 1 -2.65.7c-2.7 0-3.7-1.65-3.7-4.4s1.07-4.3 3.45-4.3zm1.65 3.65c.6-2.85-2.85-4.1-3.45-1.2a8.3 8.3 0 0 0 -.1 1.2z" fill="#333"/><path d="m1059.18 23.7c.35 2.4 4.3 1.15 4.3 4.2 0 2.8-3.45 2.85-5.6 2.05v-1.95c1 0 .45 1.45 1.55 1.55 1.75.95 3.85-1.3 2-2.5-1.35-.9-3.6-.65-3.6-2.95 0-2.5 2.9-2.6 5-2.05v1.8c-1 .05-.4-1.25-1.4-1.25-1-.35-2.5-.05-2.3 1.15" fill="#333"/><path d="m1066.83 28.3c0 1.25 1.2 1.3 2.2 1v.6c-1.35.8-3.65.75-3.65-1.45v-5.75h-1.05c-.1-.7.7-.5 1.05-.75l.9-1.9h.55v1.95h1.9v.75h-1.9z" fill="#333"/><path d="m1071.48 20.2c-1.15 0-1.25-1.95 0-1.9.65 0 .9.35 1 .95a1 1 0 0 1 -1 .95zm.9 9.4 1.4.2v.4h-4.25v-.4l1.4-.2v-7l-1.2-.2v-.4h2.65z" fill="#333"/><path d="m1078.63 21.7c2.6 0 3.8 1.6 3.8 4.35s-1.2 4.35-3.85 4.35-3.75-1.7-3.75-4.35 1.17-4.35 3.8-4.35zm-.05 8c2 0 2.3-1.75 2.3-3.65s-.35-3.65-2.3-3.65-2.2 1.7-2.2 3.65.3 3.6 2.2 3.65" fill="#333"/><path d="m1089.38 24.3c.2-1.85-2.05-1.7-3.4-1.3v6.6l1.15.2v.4h-3.6c-.15-.65.65-.45 1-.6v-7c-.35-.15-1.15.05-1-.6h2.35l.1.65c1.55-1.15 4.9-1.45 4.9 1.55v5.4c.35.15 1.15-.05 1 .6h-3.6v-.4l1.1-.2z" fill="#333"/><path d="m1097.68 18.9-1.8.2v10.35a32.79 32.79 0 0 0 5-.2l.55-2.45h.55l-.15 3.4h-9.25v-.45l1.55-.25v-10.4l-1.55-.2v-.5h5z" fill="#333"/><path d="m1107.58 21.7c2.6 0 3.8 1.6 3.8 4.35s-1.2 4.35-3.85 4.35-3.75-1.7-3.75-4.35 1.22-4.35 3.8-4.35zm0 8c2 0 2.3-1.75 2.3-3.65s-.35-3.65-2.3-3.65-2.2 1.7-2.2 3.65.3 3.6 2.2 3.65" fill="#333"/><path d="m1119.13 22.6a3.05 3.05 0 0 1 -2.7 4.85 10.11 10.11 0 0 1 -1.35-.15l-.55 1.15c1.45 1.1 6.5-.7 6.2 2.6-.2 2.25-1.9 2.85-4.4 3.05-3.2.25-4.65-2.6-2-4a1.61 1.61 0 0 1 -1.2-1.45l1.4-1.55a2.54 2.54 0 0 1 -1.4-2.55c-.1-2.55 2.65-3.25 5-2.6l1.9-1 .35.4zm-2.8 10.8c1.75 0 3.05-.55 3.05-2.1 0-1.75-2.85-.85-4.45-1.05a2.43 2.43 0 0 0 -.85 1.7c0 1.25.92 1.45 2.25 1.45zm-1.65-8.85c0 1.3.35 2.3 1.75 2.2s1.7-.8 1.75-2.2-.3-2.15-1.7-2.15-1.8.85-1.8 2.15" fill="#333"/><path d="m1123.43 20.2c-1.15 0-1.25-1.95 0-1.9.65 0 .9.35 1 .95a1 1 0 0 1 -1 .95zm.9 9.4 1.4.2v.4h-4.25v-.4l1.4-.2v-7l-1.2-.2v-.4h2.65z" fill="#333"/><path d="m1128.33 26c0 3.2 2.6 4 5.2 3.15 0 1.25-1.5 1.25-2.75 1.25-2.8 0-4-1.6-4-4.4 0-3.8 3.1-4.9 6.55-4v2.3h-.5c-.25-.75-.2-1.55-1.15-1.75-2.35-.5-3.35 1.05-3.35 3.45" fill="#333"/><path d="m1140.58 23.7c.35 2.4 4.3 1.15 4.3 4.2 0 2.8-3.45 2.85-5.6 2.05v-1.95c1 0 .45 1.45 1.55 1.55 1.75.95 3.85-1.3 2.05-2.5-1.35-.9-3.6-.65-3.6-2.95 0-2.5 2.9-2.6 5-2.05v1.8c-1 .05-.4-1.25-1.4-1.25-1.05-.35-2.5-.05-2.3 1.15" fill="#333"/><path d="m1147.78 26c0 3.2 2.6 4 5.2 3.15 0 1.25-1.5 1.25-2.75 1.25-2.8 0-4-1.6-4-4.4 0-3.8 3.1-4.9 6.55-4v2.3h-.5c-.25-.75-.2-1.55-1.15-1.75-2.35-.5-3.35 1.05-3.35 3.45" fill="#333"/><path d="m1158 21.7c2.6 0 3.8 1.6 3.8 4.35s-1.2 4.35-3.85 4.35-3.75-1.7-3.75-4.35 1.18-4.35 3.8-4.35zm0 8c2 0 2.3-1.75 2.3-3.65s-.35-3.65-2.3-3.65-2.2 1.7-2.2 3.65.3 3.6 2.2 3.65" fill="#333"/><path d="m1170.78 26c.15 3.35-2.2 5.1-5.55 4.25v3.2l1.45.2v.45h-4v-.5l1-.2v-10.85c-.35-.15-1.1.05-.95-.6h2.3v.45a3.77 3.77 0 0 1 2.25-.7c2.55.1 3.4 1.8 3.5 4.3zm-5.5 3.6c2.65.7 4.15-.7 3.9-3.6.35-2.65-1.65-3.95-3.9-3z" fill="#333"/><path d="m1175.68 21.7c2.45 0 3.3 1.65 3.15 4.35h-5c-.4 3 1.9 4 4.75 3.15v.5a5.33 5.33 0 0 1 -2.65.7c-2.7 0-3.7-1.65-3.7-4.4s1.05-4.3 3.45-4.3zm1.65 3.65c.6-2.85-2.85-4.1-3.45-1.2a8.3 8.3 0 0 0 -.1 1.2z" fill="#333"/><path d="m935.93 43.65c2.05-.5 5.1-.7 5.1 2v5.6c.4.15 1.2-.1 1.05.6h-2.25l-.2-.85c-1.15 1.5-5.15 1.5-4.65-1.45-.1-2.5 2.25-2.5 4.6-2.55.2-1.8-.25-3.5-2.1-2.8a6.89 6.89 0 0 0 -.8.3c-.2.35 0 1.15-.75 1zm.5 5.8c0 2 2.05 1.65 3.15 1.1v-2.95c-1.7 0-3.15-.05-3.15 1.85" fill="#333"/><path d="m947.43 40c-1.95-.75-1.75 1.6-1.7 3.55h2.2v.75h-2.2v6.8l1.75.3v.4h-4.48v-.4l1.25-.3v-6.8h-1.45v-.45l1.45-.35c-.3-3 1.15-5 4-4.2v1.8c-.75.1-.6-.7-.85-1.1" fill="#333"/><path d="m950.93 49.9c0 1.25 1.2 1.3 2.2 1v.6c-1.35.8-3.65.75-3.65-1.45v-5.75h-1.05c-.1-.7.7-.5 1.05-.75l.9-1.9h.55v1.9h1.9v.75h-1.9z" fill="#333"/><path d="m957.43 43.3c2.45 0 3.3 1.65 3.15 4.35h-5.05c-.4 3 1.9 4 4.75 3.15v.5a5.33 5.33 0 0 1 -2.65.7c-2.7 0-3.7-1.65-3.7-4.4s1.07-4.3 3.5-4.3zm1.65 3.7c.6-2.85-2.85-4.1-3.45-1.2a8.3 8.3 0 0 0 -.1 1.2z" fill="#333"/><path d="m964 44.55a6.08 6.08 0 0 1 3-1.25v2.25c-.95.05-.4-1.5-2-.85l-1 .3v6.2l1.45.2v.4h-4v-.4l1.05-.2v-7.05c-.4-.15-1.2.1-1.05-.6h2.4" fill="#333"/><path d="m975.83 43.3c2.45 0 3.3 1.65 3.15 4.35h-5.05c-.4 3 1.9 4 4.75 3.15v.5a5.33 5.33 0 0 1 -2.68.7c-2.7 0-3.7-1.65-3.7-4.4s1.13-4.3 3.53-4.3zm1.65 3.7c.6-2.85-2.85-4.1-3.45-1.2a8.3 8.3 0 0 0 -.1 1.2z" fill="#333"/><path d="m987.38 51.2c.35.15 1.15-.05 1 .6h-3.75v-.4l1.1-.2-1.9-2.9-2.25 2.9 1.15.2v.4h-3v-.4l.95-.15 2.75-3.55-2.43-3.55c-.35-.15-1.15.05-1-.6h3.75v.45l-1.1.2 1.6 2.4 1.85-2.4-1.1-.2v-.4h2.95v.4l-.95.15-2.3 3" fill="#333"/><path d="m992.78 43.3c2.45 0 3.3 1.65 3.15 4.35h-5c-.4 3 1.9 4 4.75 3.15v.5a5.33 5.33 0 0 1 -2.68.7c-2.7 0-3.7-1.65-3.7-4.4s1.08-4.3 3.48-4.3zm1.65 3.7c.6-2.85-2.85-4.1-3.45-1.2a8.3 8.3 0 0 0 -.1 1.2z" fill="#333"/><path d="m998.78 47.6c0 3.2 2.6 4 5.2 3.15 0 1.25-1.5 1.25-2.75 1.25-2.8 0-4-1.6-4-4.4 0-3.8 3.1-4.9 6.55-4v2.3h-.5c-.25-.75-.2-1.55-1.15-1.75-2.35-.5-3.35 1.05-3.35 3.45" fill="#333"/><path d="m1010.68 51.15c-1.75 1.05-4.9 1.4-4.9-1.6v-5.4c-.4-.15-1.2.1-1-.6h2.5v5.9c-.15 1.85 2.1 1.6 3.45 1.25v-6.55l-1.25-.2v-.4h2.7v7.65c.4.15 1.2-.1 1 .6h-2.4" fill="#333"/><path d="m1016.18 49.9c0 1.25 1.2 1.3 2.2 1v.6c-1.35.8-3.65.75-3.65-1.45v-5.75h-1.05c-.1-.7.7-.5 1.05-.75l.9-1.9h.55v1.9h1.9v.75h-1.9z" fill="#333"/><path d="m1020.83 41.8c-1.15 0-1.25-1.95 0-1.9.65 0 .9.35 1 1a1 1 0 0 1 -1 .9zm.9 9.4 1.4.2v.4h-4.25v-.4l1.4-.2v-7.05l-1.2-.2v-.4h2.65z" fill="#333"/><path d="m1028 43.3c2.6 0 3.8 1.6 3.8 4.35s-1.2 4.35-3.85 4.35-3.75-1.7-3.75-4.35 1.18-4.35 3.8-4.35zm0 8c2 0 2.3-1.75 2.3-3.65s-.35-3.65-2.3-3.65-2.2 1.7-2.2 3.65.3 3.6 2.2 3.65" fill="#333"/><path d="m1038.73 45.9c.2-1.85-2-1.7-3.4-1.3v6.6l1.15.2v.4h-3.6c-.15-.65.65-.45 1-.6v-7.05c-.35-.15-1.15.05-1-.6h2.35l.1.65c1.55-1.15 4.9-1.45 4.9 1.55v5.45c.35.15 1.15-.05 1 .6h-3.6v-.4l1.1-.2z" fill="#333"/><path d="m924.06 74.5h278v134h-278z" fill="#fff" stroke="#333"/><path d="m924.06 112.1h278m-278 59.2h278" fill="none" stroke="#333"/><g fill="#333"><path d="m938.74 92.91c0 3.2 2.6 4 5.2 3.15 0 1.25-1.5 1.25-2.75 1.25-2.8 0-4-1.6-4-4.4 0-3.8 3.1-4.9 6.55-4v2.3h-.5c-.25-.75-.2-1.55-1.15-1.75-2.35-.5-3.35 1.05-3.35 3.45"/><path d="m948.94 88.61c2.6 0 3.8 1.6 3.8 4.35s-1.2 4.35-3.85 4.35-3.75-1.7-3.75-4.35 1.2-4.35 3.8-4.35zm-.05 8c2 0 2.3-1.75 2.3-3.65s-.35-3.65-2.3-3.65-2.2 1.7-2.2 3.65.3 3.6 2.2 3.65"/><path d="m959.74 91.21c.2-1.85-2.1-1.6-3.4-1.25v6.55l1.2.2v.4h-3.7c-.15-.65.65-.45 1-.6v-7.05c-.35-.15-1.15.05-1-.6h2.4v.65c1.1-.75 3.85-1.5 4.6.1 1.6-1.1 5.2-1.8 5.2 1.45v5.45c.4.15 1.2-.1 1 .6h-3.75v-.4l1.25-.2v-5.3c.15-1.95-2.25-1.55-3.6-1.2.35 1.85.05 4.4.15 6.5l1.25.2v.4h-3.9v-.4l1.2-.2z"/><path d="m973.74 91.21c.2-1.85-2.1-1.6-3.4-1.25v6.55l1.2.2v.4h-3.7c-.15-.65.65-.45 1-.6v-7.05c-.35-.15-1.15.05-1-.6h2.4v.65c1.1-.75 3.85-1.5 4.6.1 1.6-1.1 5.2-1.8 5.2 1.45v5.45c.4.15 1.2-.1 1 .6h-3.75v-.4l1.25-.2v-5.3c.15-1.95-2.25-1.55-3.6-1.2.35 1.85.05 4.4.15 6.5l1.25.2v.4h-3.9v-.4l1.2-.2z"/><path d="m983 89c2.05-.5 5.1-.7 5.1 2v5.6c.4.15 1.2-.1 1.05.6h-2.25l-.2-.85c-1.15 1.5-5.15 1.5-4.65-1.45-.1-2.5 2.25-2.5 4.6-2.55.2-1.8-.25-3.5-2.1-2.8a6.89 6.89 0 0 0 -.8.3c-.2.35 0 1.15-.75 1zm.5 5.8c0 2 2.05 1.65 3.15 1.1v-3c-1.7 0-3.15 0-3.15 1.85"/><path d="m995.64 91.21c.2-1.85-2-1.7-3.4-1.3v6.6l1.15.2v.4h-3.6c-.15-.65.65-.45 1-.6v-7.05c-.35-.15-1.15.05-1-.6h2.35l.1.65c1.55-1.15 4.9-1.45 4.9 1.55v5.45c.35.15 1.15-.05 1 .6h-3.6v-.4l1.1-.2z"/><path d="m999 93.06c0-3.55 2.3-5 5.7-4.25v-3.6l-1.4-.2v-.4h2.85v11.9c.4.15 1.2-.1 1.05.6h-2.35l-.1-.6c-2.36 1.75-5.75.55-5.75-3.45zm3.85-3.7c-1.85 0-2.2 1.65-2.25 3.7 0 1.9.45 3.3 2.25 3.3a4.61 4.61 0 0 0 1.8-.35v-6.5c-.5-.05-1.2-.15-1.8-.15"/><path d="m1010.14 97.11v-.45l1.9-.25v-10.35a24.94 24.94 0 0 0 -3.5.2l-.25 1.85h-.55v-2.8h10.35v2.8h-.6l-.25-1.85-3.5-.15v10.3l1.85.25v.45z"/><path d="m1021.59 88.61c2.6 0 3.8 1.6 3.8 4.35s-1.2 4.35-3.85 4.35-3.75-1.7-3.75-4.35 1.21-4.35 3.8-4.35zm-.05 8c2 0 2.3-1.75 2.3-3.65s-.35-3.65-2.3-3.65-2.2 1.7-2.2 3.65.3 3.6 2.2 3.65"/><path d="m1029.09 93.11 3.4-3.65c-.35-.15-1 0-.85-.6h2.9c.15.65-.65.45-1 .6l-2.35 2.4 3 4.65c.35.15 1-.05.9.6h-3.4c-.15-.6.45-.45.75-.6l-2.25-3.51-1.1 1.15v2.4c.35.15 1.05-.05.9.6h-3.4v-.4l1.05-.2v-11.34l-1.2-.2v-.4h2.65z"/><path d="m1039.29 88.61c2.45 0 3.3 1.65 3.15 4.35h-5c-.4 3 1.9 4 4.75 3.15v.5a5.33 5.33 0 0 1 -2.65.7c-2.7 0-3.7-1.65-3.7-4.4s1.05-4.3 3.45-4.3zm1.65 3.65c.6-2.85-2.85-4.1-3.45-1.2a8.3 8.3 0 0 0 -.1 1.2z"/><path d="m1049.29 91.21c.2-1.85-2-1.7-3.4-1.3v6.6l1.15.2v.4h-3.6c-.15-.65.65-.45 1-.6v-7.05c-.35-.15-1.15.05-1-.6h2.35l.1.65c1.55-1.15 4.9-1.45 4.9 1.55v5.45c.35.15 1.15-.05 1 .6h-3.6v-.4l1.1-.2z"/><path d="m1054.09 90.61c.35 2.4 4.3 1.15 4.3 4.2 0 2.8-3.45 2.85-5.6 2v-2c1 0 .45 1.45 1.55 1.55 1.75 1 3.85-1.3 2.05-2.5-1.35-.9-3.6-.65-3.6-3 0-2.5 2.9-2.6 5-2v1.8c-1 .05-.4-1.25-1.4-1.25-1.05-.35-2.5 0-2.3 1.15"/><path d="m1061.54 95.26a1 1 0 0 1 1 1 1 1 0 0 1 -1 1 1 1 0 0 1 -1.1-1 1 1 0 0 1 1.1-1zm0-6.6a1 1 0 0 1 1 1 1 1 0 0 1 -1 1.1 1 1 0 0 1 -1.1-1.1 1 1 0 0 1 1.1-1"/><path d="m1066.64 91.36c0 4.65 4 6.5 7.5 4.35l.35-1.75h.55v2.75a14.54 14.54 0 0 1 -4.15.6c-3.8 0-5.85-2-6-6-.25-5.65 4.85-7 10-5.7l.05 2.55h-.6l-.25-1.5a6.45 6.45 0 0 0 -3.1-.8c-3.3 0-4.3 2-4.3 5.45"/><path d="m1080.54 88.61c2.6 0 3.8 1.6 3.8 4.35s-1.2 4.35-3.85 4.35-3.75-1.7-3.75-4.35 1.2-4.35 3.8-4.35zm0 8c2 0 2.3-1.75 2.3-3.65s-.35-3.65-2.3-3.65-2.2 1.7-2.2 3.65.3 3.6 2.2 3.65"/><path d="m1091.34 91.21c.2-1.85-2.1-1.6-3.4-1.25v6.55l1.2.2v.4h-3.7c-.15-.65.65-.45 1-.6v-7.05c-.35-.15-1.15.05-1-.6h2.4l.05.65c1.1-.75 3.85-1.5 4.6.1 1.6-1.1 5.2-1.8 5.2 1.45v5.45c.4.15 1.2-.1 1 .6h-3.69v-.4l1.25-.2v-5.3c.15-1.95-2.25-1.55-3.6-1.2.35 1.85 0 4.4.15 6.5l1.25.2v.4h-3.9v-.4l1.2-.2z"/><path d="m1105.34 91.21c.2-1.85-2.1-1.6-3.4-1.25v6.55l1.2.2v.4h-3.7c-.15-.65.65-.45 1-.6v-7.05c-.35-.15-1.15.05-1-.6h2.4l.05.65c1.1-.75 3.85-1.5 4.6.1 1.6-1.1 5.2-1.8 5.2 1.45v5.45c.4.15 1.2-.1 1 .6h-3.69v-.4l1.25-.2v-5.3c.15-1.95-2.25-1.55-3.6-1.2.35 1.85 0 4.4.15 6.5l1.25.2v.4h-3.9v-.4l1.2-.2z"/><path d="m1114.64 89c2-.5 5.1-.7 5.1 2v5.6c.4.15 1.2-.1 1 .6h-2.25l-.2-.85c-1.15 1.5-5.15 1.5-4.65-1.45-.1-2.5 2.25-2.5 4.6-2.55.2-1.8-.25-3.5-2.1-2.8a6.89 6.89 0 0 0 -.8.3c-.2.35 0 1.15-.75 1zm.5 5.8c0 2 2 1.65 3.15 1.1v-3c-1.7 0-3.15 0-3.15 1.85"/><path d="m1127.24 91.21c.2-1.85-2-1.7-3.4-1.3v6.6l1.15.2v.4h-3.6c-.15-.65.65-.45 1-.6v-7.05c-.35-.15-1.15.05-1-.6h2.35l.1.65c1.55-1.15 4.9-1.45 4.9 1.55v5.45c.35.15 1.15-.05 1 .6h-3.6v-.4l1.1-.2z"/><path d="m1130.64 93.06c0-3.55 2.3-5 5.7-4.25v-3.6l-1.4-.2v-.4h2.85v11.9c.4.15 1.2-.1 1 .6h-2.35l-.1-.6c-2.34 1.75-5.7.55-5.7-3.45zm3.85-3.7c-1.85 0-2.2 1.65-2.25 3.7 0 1.9.45 3.3 2.25 3.3a4.61 4.61 0 0 0 1.8-.35v-6.5c-.5-.05-1.2-.15-1.8-.15"/><path d="m1141.74 97.11v-.45l1.9-.25v-10.35a24.94 24.94 0 0 0 -3.5.2l-.25 1.85h-.55v-2.8h10.35v2.8h-.6l-.25-1.85-3.5-.15v10.3l1.85.25v.45z"/><path d="m1153.19 88.61c2.6 0 3.8 1.6 3.8 4.35s-1.2 4.35-3.85 4.35-3.75-1.7-3.75-4.35 1.2-4.35 3.8-4.35zm0 8c1.95 0 2.3-1.75 2.3-3.65s-.35-3.65-2.3-3.65-2.2 1.7-2.2 3.65.3 3.6 2.2 3.65"/><path d="m1160.69 93.11 3.4-3.65c-.35-.15-1 0-.85-.6h2.9c.15.65-.65.45-1 .6l-2.35 2.4 3 4.65c.35.15 1-.05.9.6h-3.4c-.15-.6.45-.45.75-.6l-2.25-3.51-1.1 1.15v2.4c.35.15 1-.05.9.6h-3.4v-.4l1-.2v-11.34l-1.19-.21v-.4h2.65z"/><path d="m1170.89 88.61c2.45 0 3.3 1.65 3.15 4.35h-5c-.4 3 1.9 4 4.75 3.15v.5a5.33 5.33 0 0 1 -2.65.7c-2.7 0-3.7-1.65-3.7-4.4s1.05-4.3 3.45-4.3zm1.65 3.65c.6-2.85-2.85-4.1-3.45-1.2a8.3 8.3 0 0 0 -.1 1.2z"/><path d="m1180.89 91.21c.2-1.85-2.05-1.7-3.4-1.3v6.6l1.15.2v.4h-3.64c-.15-.65.65-.45 1-.6v-7.05c-.35-.15-1.15.05-1-.6h2.35l.1.65c1.55-1.15 4.9-1.45 4.9 1.55v5.45c.35.15 1.15-.05 1 .6h-3.6v-.4l1.1-.2z"/><path d="m1185.69 90.61c.35 2.4 4.3 1.15 4.3 4.2 0 2.8-3.45 2.85-5.6 2v-2c1 0 .45 1.45 1.55 1.55 1.75 1 3.85-1.3 2-2.5-1.35-.9-3.6-.65-3.6-3 0-2.5 2.9-2.6 5-2v1.8c-1 .05-.4-1.25-1.4-1.25-1-.35-2.5 0-2.3 1.15"/><path d="m935.59 98.63h255.95v.88h-255.95z"/><path d="m941.61 129.36v3.75h-1v-3.75h-3.61v-.85h3.7v-3.75h1v3.75h3.7v.85z"/><path d="m953 130.71c0 3.2 2.6 4 5.2 3.15.05 1.25-1.5 1.25-2.75 1.25-2.8 0-4-1.6-4-4.4 0-3.8 3.1-4.9 6.55-4v2.29h-.5c-.25-.75-.2-1.55-1.15-1.75-2.35-.5-3.35 1-3.35 3.45"/><path d="m963.16 126.41c2.6 0 3.8 1.6 3.8 4.35s-1.2 4.35-3.85 4.35-3.75-1.7-3.75-4.35 1.2-4.35 3.8-4.35zm0 8c1.95 0 2.3-1.75 2.3-3.65s-.35-3.65-2.3-3.65-2.2 1.7-2.2 3.65.3 3.6 2.2 3.65"/><path d="m974 129c.2-1.85-2.1-1.6-3.4-1.25v6.55l1.2.2v.4h-3.7c-.15-.65.65-.45 1-.6v-7c-.35-.15-1.15 0-1-.6h2.4v.65c1.1-.75 3.85-1.5 4.6.1 1.6-1.1 5.2-1.8 5.2 1.45v5.45c.4.15 1.2-.1 1.05.6h-3.75v-.4l1.25-.2v-5.35c.15-1.95-2.25-1.55-3.6-1.2.35 1.85 0 4.4.15 6.5l1.25.2v.4h-3.9v-.4l1.2-.2z"/><path d="m988 129c.2-1.85-2.1-1.6-3.4-1.25v6.55l1.2.2v.4h-3.7c-.15-.65.65-.45 1-.6v-7c-.35-.15-1.15 0-1-.6h2.4v.65c1.1-.75 3.85-1.5 4.6.1 1.6-1.1 5.2-1.8 5.2 1.45v5.45c.4.15 1.2-.1 1.05.6h-3.75v-.4l1.25-.2v-5.35c.15-1.95-2.25-1.55-3.6-1.2.35 1.85 0 4.4.15 6.5l1.25.2v.4h-3.9v-.4l1.2-.2z"/><path d="m997.26 126.76c2-.5 5.1-.7 5.1 2v5.6c.4.15 1.2-.1 1 .6h-2.25l-.2-.85c-1.15 1.5-5.15 1.5-4.65-1.45-.1-2.5 2.25-2.5 4.6-2.55.2-1.8-.25-3.5-2.1-2.8a6.89 6.89 0 0 0 -.8.3c-.2.35 0 1.15-.75 1zm.5 5.8c0 2.05 2 1.65 3.15 1.1v-2.95c-1.7 0-3.15-.05-3.15 1.85"/><path d="m1009.86 129c.2-1.85-2.05-1.7-3.4-1.3v6.6l1.15.2v.4h-3.61c-.15-.65.65-.45 1-.6v-7c-.35-.15-1.15 0-1-.6h2.35l.1.65c1.55-1.15 4.9-1.45 4.9 1.55v5.45c.35.15 1.15-.05 1 .6h-3.6v-.4l1.1-.2z"/><path d="m1013.26 130.86c0-3.55 2.3-5.05 5.7-4.25l-.05-3.6-1.4-.2v-.4h2.85v11.9c.4.15 1.2-.1 1 .6h-2.35l-.1-.6c-2.3 1.75-5.65.55-5.65-3.45zm3.85-3.7c-1.85 0-2.2 1.65-2.25 3.7 0 1.9.45 3.3 2.25 3.3a4.61 4.61 0 0 0 1.8-.35v-6.5c-.5 0-1.2-.15-1.8-.15"/><path d="m1037.56 123.81-3.85 11.35h-.5l-3-8.1-3.15 8.1h-.45l-3.9-11.35-1-.2v-.5h4.5v.5l-1.7.2 2.8 8.3 3.15-8.15h.4l3 8.15 2.7-8.3-1.85-.2v-.5h3.9v.5"/><path d="m1041.61 126.41c2.6 0 3.8 1.6 3.8 4.35s-1.2 4.35-3.85 4.35-3.75-1.7-3.75-4.35 1.19-4.35 3.8-4.35zm0 8c2 0 2.3-1.75 2.3-3.65s-.35-3.65-2.3-3.65-2.2 1.7-2.2 3.65.3 3.6 2.2 3.65"/><path d="m1049 127.66a6.08 6.08 0 0 1 3-1.25v2.25c-1 .05-.4-1.5-2-.85l-1 .3v6.2l1.45.2v.4h-4v-.4l1-.2v-7c-.4-.15-1.2.1-1-.6h2.4"/><path d="m1052.71 130.86c0-3.55 2.3-5.05 5.7-4.25l-.05-3.6-1.4-.2v-.4h2.85v11.9c.4.15 1.2-.1 1 .6h-2.35l-.1-.6c-2.3 1.75-5.65.55-5.65-3.45zm3.85-3.7c-1.85 0-2.2 1.65-2.25 3.7 0 1.9.45 3.3 2.25 3.3a4.61 4.61 0 0 0 1.8-.35v-6.5c-.5 0-1.2-.15-1.8-.15"/><path d="m1074.81 130.31v.85h-8.35v-.85zm0-3.65v.9h-8.35v-.9z"/><path d="m1084.71 123.11h1.75l-.55 4.25h-.65zm-3.4 0h1.75l-.55 4.25h-.65"/><path d="m1088.16 130.86c0-3.55 2.3-5.05 5.7-4.25v-3.6l-1.4-.2v-.4h2.85v11.9c.4.15 1.2-.1 1 .6h-2.31l-.1-.6c-2.39 1.75-5.74.55-5.74-3.45zm3.85-3.7c-1.85 0-2.2 1.65-2.25 3.7 0 1.9.45 3.3 2.25 3.3a4.61 4.61 0 0 0 1.8-.35v-6.5c-.5 0-1.2-.15-1.8-.15"/><path d="m1100.71 126.41c2.45 0 3.3 1.65 3.15 4.35h-5c-.4 3 1.9 4 4.75 3.15v.5a5.33 5.33 0 0 1 -2.65.7c-2.7 0-3.7-1.65-3.7-4.4s1.05-4.3 3.45-4.3zm1.65 3.65c.6-2.85-2.85-4.1-3.45-1.2a8.3 8.3 0 0 0 -.1 1.2z"/><path d="m1107.71 134.31 1.4.2v.4h-4.3v-.4l1.4-.2v-11.31l-1.4-.2v-.4h2.9z"/><path d="m1113.66 126.41c2.45 0 3.3 1.65 3.15 4.35h-5c-.4 3 1.9 4 4.75 3.15v.5a5.33 5.33 0 0 1 -2.65.7c-2.7 0-3.7-1.65-3.7-4.4s1.05-4.3 3.45-4.3zm1.65 3.65c.6-2.85-2.85-4.1-3.45-1.2a8.3 8.3 0 0 0 -.1 1.2z"/><path d="m1120.11 133c0 1.25 1.2 1.3 2.2 1v.6c-1.35.8-3.65.75-3.65-1.45v-5.75h-1.05c-.1-.7.7-.5 1.05-.75l.9-1.9h.55v1.9h1.9v.75h-1.9z"/><path d="m1126.61 126.41c2.45 0 3.3 1.65 3.15 4.35h-5c-.4 3 1.9 4 4.75 3.15v.5a5.33 5.33 0 0 1 -2.65.7c-2.7 0-3.7-1.65-3.7-4.4s1.05-4.3 3.45-4.3zm1.65 3.65c.6-2.85-2.85-4.1-3.45-1.2a8.3 8.3 0 0 0 -.1 1.2z"/><path d="m1138.66 130.66c.15 3.35-2.2 5.1-5.55 4.25l.05 3.2 1.45.2v.45h-3.95v-.45l1-.2v-10.85c-.35-.15-1.1 0-1-.6h2.3v.45a3.77 3.77 0 0 1 2.25-.7c2.5.1 3.35 1.8 3.45 4.25zm-5.5 3.6c2.65.7 4.15-.7 3.9-3.6.35-2.65-1.65-4-3.9-3z"/><path d="m1143.56 126.41c2.45 0 3.3 1.65 3.15 4.35h-5c-.4 3 1.9 4 4.75 3.15v.5a5.33 5.33 0 0 1 -2.65.7c-2.7 0-3.7-1.65-3.7-4.4s1.05-4.3 3.45-4.3zm1.65 3.65c.6-2.85-2.85-4.1-3.45-1.2a8.3 8.3 0 0 0 -.1 1.2z"/><path d="m1150.16 127.66a6.08 6.08 0 0 1 3-1.25v2.25c-1 .05-.4-1.5-2-.85l-1 .3v6.2l1.45.2v.4h-3.95v-.4l1-.2v-7c-.4-.15-1.2.1-1-.6h2.4"/><path d="m1155.31 128.41c.35 2.4 4.3 1.15 4.3 4.2 0 2.8-3.45 2.85-5.6 2v-2c1 0 .45 1.45 1.55 1.55 1.75.95 3.85-1.3 2-2.5-1.35-.9-3.6-.65-3.6-3 0-2.5 2.9-2.6 5-2v1.8c-1 .05-.4-1.25-1.4-1.25-1-.35-2.5-.05-2.3 1.15"/><path d="m1164.76 126.41c2.6 0 3.8 1.6 3.8 4.35s-1.2 4.35-3.85 4.35-3.75-1.7-3.75-4.35 1.2-4.35 3.8-4.35zm0 8c2 0 2.3-1.75 2.3-3.65s-.35-3.65-2.3-3.65-2.2 1.7-2.2 3.65.3 3.6 2.2 3.65"/><path d="m1175.51 129c.2-1.85-2-1.7-3.4-1.3v6.6l1.15.2v.4h-3.6c-.15-.65.65-.45 1-.6v-7c-.35-.15-1.15 0-1-.6h2.34l.1.65c1.55-1.15 4.9-1.45 4.9 1.55v5.45c.35.15 1.15-.05 1 .6h-3.6v-.4l1.1-.2z"/><path d="m1187.26 123.11h1.74l-.55 4.25h-.65zm-3.4 0h1.75l-.55 4.25h-.65"/><path d="m941.61 151v3.75h-1v-3.75h-3.61v-.85h3.7v-3.75h1v3.75h3.7v.85z"/><path d="m952.31 148.36c2.05-.5 5.1-.7 5.1 1.95v5.6c.4.15 1.2-.1 1.05.6h-2.25l-.2-.85c-1.15 1.5-5.15 1.5-4.65-1.45-.1-2.5 2.25-2.5 4.6-2.55.2-1.8-.25-3.5-2.1-2.8a6.89 6.89 0 0 0 -.8.3c-.2.35 0 1.15-.75 1zm.5 5.8c0 2.05 2.05 1.65 3.15 1.1v-2.95c-1.7.05-3.15-.05-3.15 1.85"/><path d="m961.51 149.26a6.08 6.08 0 0 1 3-1.25v2.25c-1 .05-.4-1.5-2-.85l-1 .3v6.2l1.45.2v.4h-4v-.4l1-.2v-7c-.4-.15-1.2.1-1-.6h2.4"/><path d="m971.31 148.91a3.05 3.05 0 0 1 -2.7 4.85 10.11 10.11 0 0 1 -1.35-.15l-.55 1.15c1.45 1.1 6.5-.7 6.2 2.6-.2 2.25-1.9 2.85-4.4 3-3.2.25-4.65-2.6-2-4a1.61 1.61 0 0 1 -1.2-1.45l1.4-1.55a2.54 2.54 0 0 1 -1.4-2.55c-.1-2.55 2.65-3.25 5-2.6l1.9-1 .35.4zm-2.8 10.8c1.75 0 3-.55 3-2.1 0-1.75-2.85-.85-4.45-1.05a2.43 2.43 0 0 0 -.85 1.7c.05 1.25 1 1.45 2.3 1.45zm-1.65-8.85c0 1.3.35 2.3 1.75 2.2s1.7-.8 1.75-2.2-.3-2.15-1.7-2.15-1.8.85-1.8 2.15"/><path d="m979.46 155.86c-1.75 1-4.9 1.4-4.9-1.6v-5.4c-.4-.15-1.2.1-1-.6h2.44v5.9c-.15 1.85 2.1 1.6 3.45 1.25v-6.55l-1.25-.2v-.4h2.7v7.65c.4.15 1.2-.1 1.05.6h-2.4"/><path d="m988.56 150.61c.2-1.85-2.1-1.6-3.4-1.25v6.55l1.2.2v.4h-3.7c-.15-.65.65-.45 1-.6v-7c-.35-.15-1.15 0-1-.6h2.4l.05.65c1.1-.75 3.85-1.5 4.6.1 1.6-1.1 5.2-1.8 5.2 1.45v5.45c.4.15 1.2-.1 1.05.6h-3.75v-.4l1.25-.2v-5.3c.15-2-2.25-1.55-3.6-1.2.35 1.85 0 4.4.15 6.5l1.25.2v.4h-3.9v-.4l1.2-.2z"/><path d="m1000.46 148c2.45 0 3.3 1.65 3.15 4.35h-5.05c-.4 3 1.9 4 4.75 3.15v.5a5.33 5.33 0 0 1 -2.65.7c-2.7 0-3.7-1.65-3.7-4.4s1.1-4.3 3.5-4.3zm1.65 3.65c.6-2.85-2.85-4.1-3.45-1.2a8.3 8.3 0 0 0 -.1 1.2z"/><path d="m1010.46 150.61c.2-1.85-2.05-1.7-3.4-1.3v6.6l1.15.2v.4h-3.6c-.15-.65.65-.45 1-.6v-7c-.35-.15-1.15 0-1-.6h2.39l.1.65c1.55-1.15 4.9-1.45 4.9 1.55v5.45c.35.15 1.15 0 1 .6h-3.6v-.4l1.1-.2z"/><path d="m1015.91 154.61c0 1.25 1.2 1.3 2.2 1v.6c-1.35.8-3.65.75-3.65-1.45v-5.76h-1.05c-.1-.7.7-.5 1.05-.75l.9-1.9h.55v1.9h1.9v.75h-1.9z"/><path d="m1020.26 150c.35 2.4 4.3 1.15 4.3 4.2 0 2.8-3.45 2.85-5.6 2v-2c1 0 .45 1.45 1.55 1.55 1.75.95 3.85-1.3 2-2.5-1.35-.9-3.6-.65-3.6-2.95 0-2.5 2.9-2.6 5-2.05v1.8c-1 0-.4-1.25-1.4-1.25-1-.35-2.5-.05-2.3 1.15"/><path d="m1039 151.91v.85h-8.35v-.85zm0-3.65v.9h-8.35v-.9z"/><path d="m1048.86 144.71h1.75l-.55 4.25h-.65zm-3.4 0h1.75l-.55 4.25h-.66"/><path d="m1057.91 150.61c.2-1.85-2.05-1.7-3.4-1.3v6.6l1.15.2v.4h-3.6c-.15-.65.65-.45 1-.6v-7c-.35-.15-1.15 0-1-.6h2.35l.1.65c1.55-1.15 4.9-1.45 4.9 1.55v5.45c.35.15 1.15 0 1 .6h-3.6v-.4l1.1-.2z"/><path d="m1061.56 156.71h-.9l4.15-12.05h.85"/><path d="m1070.16 144.71h1.75l-.55 4.25h-.65zm-3.4 0h1.75l-.51 4.29h-.65"/></g><path d="m1208.43 237.6h191.5v113h-191.5z" fill="#fff" stroke="#333"/><path d="m1208.43 275.2h191.5m-191.5 37.6h191.5" fill="none" stroke="#333"/><path d="m1221.91 254.8c2.4.15 3.8-.6 3.8-2.9s-1.4-2.85-3.8-2.7zm5.55-2.9c0 3-2.3 3.9-5.55 3.7v3.9l1.85.25v.45h-5v-.45l1.4-.25v-10.4l-1.55-.2v-.5c4 0 8.9-.7 8.8 3.5" fill="#333"/><path d="m1238.11 251.55a3.27 3.27 0 0 1 -2.45 3.25l3.2 4.7 1.3.25v.45h-2.85l-3.3-5.15h-2.1v4.45l1.75.25v.45h-4.85v-.45l1.4-.25v-10.4l-1.55-.2v-.5c4 .2 9.5-1 9.45 3.15zm-6.2 2.7c2.5.1 4.45-.05 4.45-2.55s-1.95-2.6-4.45-2.5z" fill="#333"/><path d="m1240.66 259.75 1.55-.25v-10.4l-1.55-.2v-.5h8.85v2.85h-.51l-.3-1.9a36.51 36.51 0 0 0 -4.75-.15v4.6h3.15l.3-1.4h.55v3.65h-.55l-.3-1.45h-3.15v4.8l5.25-.15.5-2.15h.6l-.15 3.1h-9.45z" fill="#333"/><path d="m1254.86 254.9v4.6l2 .25v.45h-5v-.45l1.4-.25v-10.4l-1.55-.2v-.5h8.85v2.85h-.55l-.3-1.9a36.51 36.51 0 0 0 -4.75-.15v4.9h3.45l.25-1.4h.55v3.65h-.55l-.25-1.45z" fill="#333"/><path d="m1265 259.5 1.5.25v.45h-4.7v-.45l1.5-.25v-10.4l-1.5-.2v-.5h4.7v.5l-1.5.2z" fill="#333"/><path d="m1269.86 259.5 1.45.25v.45h-3.85v-.45l1.3-.25 4-5.35-3.4-5.05-1.35-.2v-.5h4.85v.5l-1.5.2 2.45 3.65 2.75-3.65-1.45-.2v-.5h3.89v.5l-1.3.2-3.3 4.4 4.05 6 1.3.25v.45h-4.85v-.45l1.5-.25-3.1-4.55" fill="#333"/><path d="m1279.86 262.5v-.9h9.3v.9z" fill="#333"/><path d="m1299.16 249.1-1.6-.2v-.5h4v.5l-1.55.2v11.1h-.85l-7.16-10.6v9.9l1.6.25v.45h-4v-.45l1.55-.25v-10.4l-1.55-.2v-.5h3.6l6.05 8.75z" fill="#333"/><path d="m1306 259.75v.45h-3.85v-.45l1.3-.25 4-11.2h1.65l4.15 11.2 1.5.25v.45h-5v-.45l1.55-.25-1.15-3.4h-4.65l-1.2 3.4zm1.9-10.15-2.05 5.7h4.1" fill="#333"/><path d="m1322.51 260.2h-.35l-4.3-10.15v9.45l1.6.25v.45h-4v-.45l1.55-.25v-10.4l-1.55-.2v-.5h3.6l3.8 9 4.2-9h3.4v.5l-1.55.2v10.4l1.55.25v.45h-4.8v-.45l1.6-.25v-9.45" fill="#333"/><path d="m1331.41 259.75 1.55-.25v-10.4l-1.55-.2v-.5h8.85v2.85h-.55l-.3-1.9a36.51 36.51 0 0 0 -4.75-.15v4.6h3.15l.3-1.4h.55v3.65h-.55l-.3-1.45h-3.15v4.8l5.25-.15.5-2.15h.6l-.15 3.1h-9.45z" fill="#333"/><path d="m1344.36 258.35a1 1 0 0 1 1.05 1 1 1 0 0 1 -1.05 1.05 1 1 0 0 1 -1.1-1.05 1 1 0 0 1 1.1-1zm0-6.6a1 1 0 0 1 1.05 1.05 1 1 0 0 1 -1.05 1.1 1 1 0 0 1 -1.1-1.1 1 1 0 0 1 1.1-1.05" fill="#333"/><path d="m1350.61 254.8c2.4.15 3.8-.6 3.8-2.9s-1.4-2.85-3.8-2.7zm5.55-2.9c-.05 3-2.3 3.9-5.55 3.7v3.9l1.85.25v.45h-5v-.45l1.4-.25v-10.4l-1.55-.2v-.5c4.05 0 8.9-.7 8.8 3.5" fill="#333"/><path d="m1359.71 253a6.08 6.08 0 0 1 3-1.25v2.25c-1 .05-.4-1.5-2-.85l-1 .3v6.2l1.45.2v.4h-4v-.4l1-.2v-7.05c-.4-.15-1.2.1-1-.6h2.4" fill="#333"/><path d="m1367 251.7c2.45 0 3.3 1.65 3.15 4.35h-5.05c-.4 3 1.9 4 4.75 3.15v.5a5.33 5.33 0 0 1 -2.65.7c-2.7 0-3.7-1.65-3.7-4.4s1.11-4.3 3.5-4.3zm1.65 3.65c.6-2.85-2.85-4.1-3.45-1.2a8.3 8.3 0 0 0 -.1 1.2z" fill="#333"/><path d="m1375.91 248.4c-2-.75-1.75 1.6-1.7 3.55h2.2v.75h-2.2v6.8l1.75.3v.4h-4.45v-.4l1.25-.3v-6.8h-1.45v-.45l1.45-.35c-.3-3 1.15-5 4-4.2v1.8c-.75.1-.6-.7-.85-1.1" fill="#333"/><path d="m1379.06 250.2c-1.15 0-1.25-1.95 0-1.9.65 0 .9.35 1 .95a1 1 0 0 1 -1 .95zm.9 9.4 1.4.2v.4h-4.25v-.4l1.4-.2v-7.05l-1.2-.2v-.35h2.69z" fill="#333"/><path d="m1389.51 259.6c.35.15 1.15-.05 1 .6h-3.75v-.4l1.1-.2-1.9-2.9-2.25 2.9 1.15.2v.4h-3v-.4l1-.15 2.75-3.55-2.4-3.55c-.35-.15-1.15 0-1-.6h3.75v.4l-1.1.2 1.6 2.4 1.85-2.4-1.15-.2v-.35h3v.4l-1 .15-2.3 3" fill="#333"/><path d="m1217.26 261.72h174.35v.88h-174.35z" fill="#333"/><path d="m1221.09 294.25v-1.35h4.7v1.35z" fill="#333"/><path d="m1239.19 293.55c.15 3.35-2.2 5.1-5.55 4.25v3.2l1.45.2v.45h-4v-.45l1-.2v-10.85c-.35-.15-1.1.05-1-.6h2.3l.05.45a3.77 3.77 0 0 1 2.25-.7c2.55.1 3.4 1.8 3.5 4.25zm-5.5 3.6c2.65.7 4.15-.7 3.9-3.6.35-2.65-1.65-3.95-3.9-3z" fill="#333"/><path d="m1242.74 290.55a6.08 6.08 0 0 1 3-1.25v2.25c-1 .05-.4-1.5-2-.85l-1 .3v6.2l1.45.2v.4h-4v-.4l1-.2v-7.05c-.4-.15-1.2.1-1-.6h2.4" fill="#333"/><path d="m1250 289.3c2.45 0 3.3 1.65 3.15 4.35h-5c-.4 3 1.9 4 4.75 3.15v.5a5.33 5.33 0 0 1 -2.65.7c-2.7 0-3.7-1.65-3.7-4.4s1.09-4.3 3.45-4.3zm1.65 3.65c.6-2.85-2.85-4.1-3.45-1.2a8.3 8.3 0 0 0 -.1 1.2z" fill="#333"/><path d="m1258.94 286c-2-.75-1.75 1.6-1.7 3.55h2.2v.75h-2.2v6.8l1.75.3v.4h-4.45v-.4l1.25-.3v-6.8h-1.45v-.45l1.45-.35c-.3-2.95 1.15-5 4-4.2v1.8c-.75.1-.6-.7-.85-1.1" fill="#333"/><path d="m1262.09 287.8c-1.15 0-1.25-1.95 0-1.9.65 0 .9.35 1 1a1 1 0 0 1 -1 .9zm.9 9.4 1.4.2v.4h-4.25v-.4l1.4-.2v-7.05l-1.2-.2v-.4h2.66z" fill="#333"/><path d="m1272.54 297.2c.35.15 1.15-.05 1 .6h-3.75v-.4l1.1-.2-1.9-2.9-2.25 2.9 1.15.2v.4h-3v-.4l.95-.15 2.75-3.55-2.4-3.55c-.35-.15-1.15.05-1-.6h3.75v.4l-1.1.2 1.6 2.4 1.85-2.4-1.15-.2v-.4h2.95v.4l-.95.15-2.3 3" fill="#333"/><path d="m1287.49 293.2v.85h-8.35v-.85zm0-3.65v.9h-8.35v-.9z" fill="#333"/><path d="m1297.39 286h1.75l-.55 4.25h-.65zm-3.4 0h1.75l-.55 4.25h-.65" fill="#333"/><path d="m1306.44 291.9c.2-1.85-2-1.7-3.4-1.3v6.6l1.15.2v.4h-3.6c-.15-.65.65-.45 1-.6v-7.05c-.35-.15-1.15.05-1-.6h2.35l.1.65c1.55-1.15 4.9-1.45 4.9 1.55v5.45c.35.15 1.15-.05 1 .6h-3.6v-.4l1.1-.2z" fill="#333"/><path d="m1310.09 298h-.9l4.15-12.05h.85" fill="#333"/><path d="m1318.69 286h1.75l-.55 4.25h-.65zm-3.4 0h1.71l-.55 4.25h-.65" fill="#333"/><path d="m923.93 270.13h218.22v49.67h-218.15z" fill="#fff" stroke="#333"/><path d="m957.3 295.91c.15 3.35-2.2 5.1-5.55 4.25v3.2l1.45.2v.44h-4v-.45l1.05-.2v-10.84c-.35-.15-1.1.05-1-.6h2.3v.45a3.77 3.77 0 0 1 2.25-.7c2.55.1 3.4 1.8 3.5 4.25zm-5.5 3.6c2.65.7 4.15-.7 3.9-3.6.35-2.65-1.65-4-3.9-3z"/><path d="m960.85 292.91a6.08 6.08 0 0 1 3-1.25v2.25c-1 0-.4-1.5-2-.85l-1 .3v6.2l1.45.2v.4h-3.95v-.4l1-.2v-7.05c-.4-.15-1.2.1-1-.6h2.4"/><path d="m968.15 291.66c2.45 0 3.3 1.65 3.15 4.35h-5c-.4 3 1.9 4 4.75 3.15v.5a5.33 5.33 0 0 1 -2.65.7c-2.7 0-3.7-1.65-3.7-4.4s1.05-4.3 3.45-4.3zm1.65 3.65c.6-2.85-2.85-4.1-3.45-1.2a8.3 8.3 0 0 0 -.1 1.2z"/><path d="m977.05 288.36c-1.95-.75-1.75 1.6-1.7 3.55h2.2v.75h-2.2v6.8l1.75.3v.4h-4.45v-.4l1.25-.3v-6.8h-1.45v-.45l1.45-.35c-.3-2.95 1.15-5 4-4.2v1.8c-.75.1-.6-.7-.85-1.1"/><path d="m980.2 290.16c-1.15 0-1.25-2 0-1.9.65 0 .9.35 1 .95a1 1 0 0 1 -1 .95zm.9 9.4 1.4.2v.4h-4.25v-.4l1.4-.2v-7.05l-1.2-.2v-.4h2.65z"/><path d="m990.65 299.56c.35.15 1.15-.05 1 .6h-3.75v-.4l1.1-.2-1.9-2.9-2.25 2.9 1.15.2v.4h-3v-.4l1-.15 2.75-3.55-2.4-3.55c-.35-.15-1.15.05-1-.6h3.75v.4l-1.1.2 1.6 2.4 1.85-2.4-1.15-.2v-.4h3v.4l-1 .15-2.3 3"/><path d="m997.4 288.86-1.8.2v10.35a32.79 32.79 0 0 0 5-.2l.55-2.45h.55l-.15 3.4h-9.25v-.45l1.55-.25v-10.4l-1.55-.2v-.5h5z"/><path d="m1005.15 290.16c-1.15 0-1.25-2 0-1.9.65 0 .9.35 1 .95a1 1 0 0 1 -1 .95zm.9 9.4 1.4.2v.4h-4.25v-.4l1.4-.2v-7.05l-1.2-.2v-.4h2.65z"/><path d="m1009.85 293.66c.35 2.4 4.3 1.15 4.3 4.2 0 2.8-3.45 2.85-5.6 2.05v-2c1 0 .45 1.45 1.55 1.55 1.75 1 3.85-1.3 2-2.5-1.35-.9-3.6-.65-3.6-2.95 0-2.5 2.9-2.6 5-2.05v1.8c-.95.05-.4-1.25-1.4-1.25-1-.35-2.5-.05-2.3 1.15"/><path d="m1017.5 298.26c0 1.25 1.2 1.3 2.2 1v.6c-1.35.8-3.65.75-3.65-1.45v-5.75h-1c-.1-.7.7-.5 1-.75l.9-1.9h.55v1.9h1.9v.75h-1.9z"/><path d="m1022.3 298.31a1 1 0 0 1 1.05 1.05 1 1 0 0 1 -1.05 1.05 1 1 0 0 1 -1.1-1.05 1 1 0 0 1 1.1-1.05zm0-6.6a1 1 0 0 1 1.05 1.05 1 1 0 0 1 -1.05 1.1 1 1 0 0 1 -1.1-1.1 1 1 0 0 1 1.1-1.05"/><path d="m1030.35 288.86-1.8.2v10.35a32.79 32.79 0 0 0 5-.2l.55-2.45h.55l-.15 3.4h-9.25v-.45l1.55-.25v-10.4l-1.55-.2v-.5h5z"/><path d="m1038.1 290.16c-1.15 0-1.25-2 0-1.9.65 0 .9.35 1 .95a1 1 0 0 1 -1 .95zm.9 9.4 1.4.2v.4h-4.25v-.4l1.4-.2v-7.05l-1.2-.2v-.4h2.65z"/><path d="m1042.8 293.66c.35 2.4 4.3 1.15 4.3 4.2 0 2.8-3.45 2.85-5.6 2.05v-2c1 0 .45 1.45 1.55 1.55 1.75 1 3.85-1.3 2-2.5-1.35-.9-3.6-.65-3.6-2.95 0-2.5 2.9-2.6 5-2.05v1.8c-1 .05-.4-1.25-1.4-1.25-1-.35-2.5-.05-2.3 1.15"/><path d="m1050.45 298.26c0 1.25 1.2 1.3 2.2 1v.6c-1.35.8-3.65.75-3.65-1.45v-5.75h-1c-.1-.7.7-.5 1-.75l.9-1.9h.55v1.9h1.9v.75h-1.9z"/><path d="m1053.65 294.41v-.41l8.35-4.1v.9l-7.1 3.4 7.1 3.45v.9"/><path d="m1066.65 294.76c2.4.15 3.8-.6 3.8-2.9s-1.4-2.85-3.8-2.7zm5.55-2.9c0 3-2.3 3.9-5.55 3.7v3.9l1.85.25v.45h-5v-.45l1.4-.25v-10.4l-1.55-.2v-.5c4 .05 8.9-.7 8.8 3.5"/><path d="m1075.75 292.91a6.08 6.08 0 0 1 3-1.25v2.25c-1 0-.4-1.5-2-.85l-1 .3v6.2l1.45.2v.4h-4v-.4l1-.2v-7.05c-.4-.15-1.2.1-1-.6h2.4"/><path d="m1083.05 291.66c2.45 0 3.3 1.65 3.15 4.35h-5c-.4 3 1.9 4 4.75 3.15v.5a5.33 5.33 0 0 1 -2.65.7c-2.7 0-3.7-1.65-3.7-4.4s1.05-4.3 3.45-4.3zm1.65 3.65c.6-2.85-2.85-4.1-3.45-1.2a8.3 8.3 0 0 0 -.1 1.2z"/><path d="m1092 288.36c-2-.75-1.75 1.6-1.7 3.55h2.2v.75h-2.2v6.8l1.75.3v.4h-4.45v-.4l1.25-.3v-6.8h-1.45v-.45l1.45-.35c-.3-2.95 1.15-5 4-4.2v1.8c-.75.1-.6-.7-.85-1.1"/><path d="m1095.1 290.16c-1.15 0-1.25-2 0-1.9.65 0 .9.35 1 .95a1 1 0 0 1 -1 .95zm.9 9.4 1.4.2v.4h-4.25v-.4l1.4-.2v-7.05l-1.2-.2v-.4h2.65z"/><path d="m1105.55 299.56c.35.15 1.15-.05 1 .6h-3.75v-.4l1.1-.2-1.9-2.9-2.25 2.9 1.15.2v.4h-3v-.4l.95-.15 2.75-3.55-2.4-3.55c-.35-.15-1.15.05-1-.6h3.8v.4l-1.1.2 1.6 2.4 1.85-2.4-1.15-.2v-.4h2.95v.4l-.95.15-2.3 3"/><path d="m1107.65 298.51v-.9l7.1-3.45-7.1-3.4v-.9l8.4 4.1v.45"/><path d="m948.1 301.68h169.7v.88h-169.7z"/><path d="m1173 295h1.84a.44.44 0 0 0 .43-.43.44.44 0 0 1 .42-.43h31.7" fill="none" stroke="#333"/><path d="m1173.36 295-15.15 14.85-14.85-14.85 14.85-14.85z" fill="#fff"/><path d="m1174.07 295-15.87 15.56-15.55-15.56 15.55-15.55zm-30 0 14.14 14.15 14.43-14.15-14.42-14.14zm63.86-.36h-.5v-1h.5z" fill="#333"/><path d="m923.33 445.35h218.2v49.65h-218.2z" fill="#fff" stroke="#333"/><path d="m933.48 467.22c2-.5 5.1-.7 5.1 1.95v5.6c.4.15 1.2-.1 1 .6h-2.25l-.2-.85c-1.15 1.5-5.15 1.5-4.65-1.45-.1-2.5 2.25-2.5 4.6-2.55.2-1.8-.25-3.5-2.1-2.8a6.89 6.89 0 0 0 -.8.3c-.2.35 0 1.15-.75 1zm.5 5.8c0 2.05 2 1.65 3.15 1.1v-2.95c-1.7.05-3.15-.05-3.15 1.85"/><path d="m942.68 468.12a6.08 6.08 0 0 1 3-1.25v2.25c-.95.05-.4-1.5-2-.85l-1 .3v6.2l1.45.2v.4h-4v-.37l1.05-.2v-7c-.4-.15-1.2.1-1.05-.6h2.4"/><path d="m952.48 467.77a3.05 3.05 0 0 1 -2.7 4.85 10.11 10.11 0 0 1 -1.35-.15l-.55 1.15c1.45 1.1 6.5-.7 6.2 2.6-.2 2.25-1.9 2.85-4.4 3-3.2.25-4.65-2.6-2-4a1.61 1.61 0 0 1 -1.2-1.45l1.4-1.55a2.54 2.54 0 0 1 -1.4-2.55c-.1-2.55 2.65-3.25 5-2.6l1.9-1 .35.4zm-2.8 10.8c1.75 0 3.05-.55 3.05-2.1 0-1.75-2.85-.85-4.45-1.05a2.43 2.43 0 0 0 -.85 1.7c0 1.25.95 1.45 2.25 1.45zm-1.68-8.85c.05 1.3.35 2.3 1.75 2.2s1.7-.8 1.75-2.2-.3-2.15-1.7-2.15-1.8.85-1.8 2.15"/><path d="m960.63 474.72c-1.75 1-4.9 1.4-4.9-1.6v-5.4c-.4-.15-1.2.1-1.05-.6h2.5v5.88c-.15 1.85 2.1 1.6 3.45 1.25v-6.55l-1.25-.2v-.4h2.7v7.65c.4.15 1.2-.1 1 .6h-2.4"/><path d="m969.73 469.47c.2-1.85-2.1-1.6-3.4-1.25v6.55l1.2.2v.4h-3.7c-.15-.65.65-.45 1-.6v-7c-.35-.15-1.15 0-1-.6h2.4v.65c1.1-.75 3.85-1.5 4.6.1 1.6-1.1 5.2-1.8 5.2 1.45v5.45c.4.15 1.2-.1 1 .6h-3.75v-.42l1.25-.2v-5.3c.15-2-2.25-1.55-3.6-1.2.35 1.85.05 4.4.15 6.5l1.25.2v.4h-3.9v-.4l1.2-.2z"/><path d="m981.63 466.87c2.45 0 3.3 1.65 3.15 4.35h-5c-.4 3 1.9 4 4.75 3.15v.5a5.33 5.33 0 0 1 -2.65.7c-2.7 0-3.7-1.65-3.7-4.4s1.05-4.3 3.45-4.3zm1.65 3.65c.6-2.85-2.85-4.1-3.45-1.2a8.3 8.3 0 0 0 -.1 1.2z"/><path d="m991.63 469.47c.2-1.85-2-1.7-3.4-1.3v6.6l1.15.2v.4h-3.6c-.15-.65.65-.45 1-.6v-7c-.35-.15-1.15 0-1-.6h2.35l.1.65c1.55-1.15 4.9-1.45 4.9 1.55v5.45c.35.15 1.15 0 1 .6h-3.6v-.42l1.1-.2z"/><path d="m997.08 473.47c-.05 1.25 1.2 1.3 2.2 1v.6c-1.35.8-3.65.75-3.65-1.45v-5.75h-1c-.1-.7.7-.5 1-.75l.9-1.9h.55v1.9h1.92v.75h-1.9z"/><path d="m1004.93 464.07-1.8.2v10.35a32.79 32.79 0 0 0 5-.2l.55-2.45h.55l-.15 3.4h-9.25v-.45l1.55-.25v-10.4l-1.55-.2v-.5h5z"/><path d="m1012.68 465.37c-1.15 0-1.25-1.95 0-1.9.65 0 .9.35 1 .95a1 1 0 0 1 -1 .95zm.9 9.4 1.4.2v.4h-4.25v-.37l1.4-.2v-7l-1.2-.2v-.4h2.65z"/><path d="m1017.38 468.87c.35 2.4 4.3 1.15 4.3 4.2 0 2.8-3.45 2.85-5.6 2.05v-2c1 0 .45 1.45 1.55 1.55 1.75.95 3.85-1.3 2-2.5-1.35-.9-3.6-.65-3.6-2.95 0-2.5 2.9-2.6 5-2.05v1.83c-1 0-.4-1.25-1.4-1.25-1-.35-2.5-.05-2.3 1.15"/><path d="m1025 473.47c0 1.25 1.2 1.3 2.2 1v.6c-1.35.8-3.65.75-3.65-1.45v-5.75h-1.05c-.1-.7.7-.5 1.05-.75l.9-1.9h.55v1.9h1.9v.75h-1.9z"/><path d="m1029.83 473.52a1 1 0 0 1 1.05 1.05 1 1 0 0 1 -1.05 1.05 1 1 0 0 1 -1.1-1.05 1 1 0 0 1 1.1-1.05zm0-6.6a1 1 0 0 1 1.05 1.05 1 1 0 0 1 -1.05 1.1 1 1 0 0 1 -1.1-1.1 1 1 0 0 1 1.1-1.05"/><path d="m1036.38 474.92v.45h-3.85v-.45l1.3-.25 4.05-11.2h1.65l4.15 11.2 1.5.25v.45h-5v-.45l1.55-.25-1.15-3.4h-4.58l-1.2 3.4zm1.9-10.15-2 5.7h4.1"/><path d="m1048.13 468.12a6.08 6.08 0 0 1 3-1.25v2.25c-1 .05-.4-1.5-2-.85l-1 .3v6.2l1.45.2v.4h-3.95v-.37l1-.2v-7c-.4-.15-1.2.1-1-.6h2.4"/><path d="m1057.93 467.77a3.05 3.05 0 0 1 -2.7 4.85 10.11 10.11 0 0 1 -1.35-.15l-.55 1.15c1.45 1.1 6.5-.7 6.2 2.6-.2 2.25-1.9 2.85-4.4 3-3.2.25-4.65-2.6-2-4a1.61 1.61 0 0 1 -1.2-1.45l1.4-1.55a2.54 2.54 0 0 1 -1.4-2.55c-.1-2.55 2.65-3.25 5-2.6l1.9-1 .35.4zm-2.8 10.8c1.75 0 3-.55 3-2.1 0-1.75-2.85-.85-4.45-1.05a2.43 2.43 0 0 0 -.85 1.7c.05 1.25 1 1.45 2.3 1.45zm-1.65-8.85c0 1.3.35 2.3 1.75 2.2s1.7-.8 1.75-2.2-.3-2.15-1.7-2.15-1.8.85-1.8 2.15"/><path d="m1066.08 474.72c-1.75 1-4.9 1.4-4.9-1.6v-5.4c-.4-.15-1.2.1-1-.6h2.5v5.88c-.15 1.85 2.1 1.6 3.45 1.25v-6.55l-1.25-.2v-.4h2.7v7.65c.4.15 1.2-.1 1 .6h-2.4"/><path d="m1075.18 469.47c.2-1.85-2.1-1.6-3.4-1.25v6.55l1.2.2v.4h-3.7c-.15-.65.65-.45 1-.6v-7c-.35-.15-1.15 0-1-.6h2.4v.65c1.1-.75 3.85-1.5 4.6.1 1.6-1.1 5.2-1.8 5.2 1.45v5.45c.4.15 1.2-.1 1 .6h-3.75v-.42l1.25-.2v-5.3c.15-2-2.25-1.55-3.6-1.2.35 1.85 0 4.4.15 6.5l1.25.2v.4h-3.78v-.4l1.2-.2z"/><path d="m1087.08 466.87c2.45 0 3.3 1.65 3.15 4.35h-5c-.4 3 1.9 4 4.75 3.15v.5a5.33 5.33 0 0 1 -2.65.7c-2.7 0-3.7-1.65-3.7-4.4s1.05-4.3 3.45-4.3zm1.65 3.65c.6-2.85-2.85-4.1-3.45-1.2a8.3 8.3 0 0 0 -.1 1.2z"/><path d="m1097.08 469.47c.2-1.85-2-1.7-3.4-1.3v6.6l1.15.2v.4h-3.6c-.15-.65.65-.45 1-.6v-7c-.35-.15-1.15 0-1-.6h2.35l.1.65c1.55-1.15 4.9-1.45 4.9 1.55v5.45c.35.15 1.15 0 1 .6h-3.58v-.42l1.1-.2z"/><path d="m1102.53 473.47c0 1.25 1.2 1.3 2.2 1v.6c-1.35.8-3.65.75-3.65-1.45v-5.75h-1c-.1-.7.7-.5 1-.75l.9-1.9h.55v1.9h1.9v.75h-1.9z"/><path d="m1110.38 464.07-1.8.2v10.35a32.79 32.79 0 0 0 5.05-.2l.55-2.45h.55l-.15 3.4h-9.25v-.45l1.55-.25v-10.4l-1.55-.2v-.5h5.05z"/><path d="m1118.13 465.37c-1.15 0-1.25-1.95 0-1.9.65 0 .9.35 1 .95a1 1 0 0 1 -1 .95zm.9 9.4 1.4.2v.4h-4.25v-.37l1.4-.2v-7l-1.2-.2v-.4h2.62z"/><path d="m1122.83 468.87c.35 2.4 4.3 1.15 4.3 4.2 0 2.8-3.45 2.85-5.6 2.05v-2c1 0 .45 1.45 1.55 1.55 1.75.95 3.85-1.3 2.05-2.5-1.35-.9-3.6-.65-3.6-2.95 0-2.5 2.9-2.6 5-2.05v1.83c-1 0-.4-1.25-1.4-1.25-1.05-.35-2.5-.05-2.3 1.15"/><path d="m1130.48 473.47c0 1.25 1.2 1.3 2.2 1v.6c-1.35.8-3.65.75-3.65-1.45v-5.75h-1c-.1-.7.7-.5 1-.75l.9-1.9h.55v1.9h1.9v.75h-1.9z"/><path d="m931 476.89h202.7v.88h-202.7z"/><path d="m1172.41 470.18h7.9a.06.06 0 0 1 0 .06 0 0 0 0 0 .05.05h37.77" fill="none" stroke="#333"/><path d="m1172.73 470.18-15.14 14.82-14.85-14.85 14.86-14.85z" fill="#fff"/><path d="m1173.46 470.18-15.87 15.56-15.59-15.56 15.56-15.55zm-30 0 14.14 14.15 14.4-14.15-14.4-14.18zm75.22.62h-.5v-1h.5z" fill="#333"/><path d="m1219.18 413.8h169.66v113h-169.65z" fill="#fff" stroke="#333"/><path d="m1219.18 451.4h169.66m-169.65 37.6h169.66" fill="none" stroke="#333"/><path d="m1230.46 434.54a1 1 0 0 1 1 1 1 1 0 0 1 -1 1.05 1 1 0 0 1 -1.1-1.05 1 1 0 0 1 1.1-1zm0-6.6a1 1 0 0 1 1 1.05 1 1 0 0 1 -1 1.1 1 1 0 0 1 -1.1-1.1 1 1 0 0 1 1.1-1.05" fill="#333"/><path d="m1235.56 430.64c0 4.65 4 6.5 7.5 4.35l.35-1.75h.55v2.75a14.54 14.54 0 0 1 -4.15.6c-3.8 0-5.85-2-6-5.95-.25-5.65 4.85-7.05 10-5.7v2.55h-.6l-.21-1.49a6.45 6.45 0 0 0 -3.1-.8c-3.3 0-4.3 2.05-4.3 5.45" fill="#333"/><path d="m1249.46 427.89c2.6 0 3.8 1.6 3.8 4.35s-1.2 4.35-3.85 4.35-3.75-1.7-3.75-4.35 1.2-4.35 3.8-4.35zm0 8c1.95 0 2.3-1.75 2.3-3.65s-.35-3.65-2.3-3.65-2.2 1.7-2.2 3.65.3 3.6 2.2 3.65" fill="#333"/><path d="m1260.26 430.49c.2-1.85-2.1-1.6-3.4-1.25v6.55l1.2.2v.4h-3.7c-.15-.65.65-.45 1-.6v-7.05c-.35-.15-1.15.05-1-.6h2.4v.65c1.1-.75 3.85-1.5 4.6.1 1.6-1.1 5.2-1.8 5.2 1.45v5.45c.4.15 1.2-.1 1.05.6h-3.75v-.39l1.25-.2v-5.3c.15-1.95-2.25-1.55-3.6-1.2.35 1.85 0 4.4.15 6.5l1.25.2v.4h-3.9v-.4l1.2-.2z" fill="#333"/><path d="m1274.26 430.49c.2-1.85-2.1-1.6-3.4-1.25v6.55l1.2.2v.4h-3.7c-.15-.65.65-.45 1-.6v-7.05c-.35-.15-1.15.05-1-.6h2.4v.65c1.1-.75 3.85-1.5 4.6.1 1.6-1.1 5.2-1.8 5.2 1.45v5.45c.4.15 1.2-.1 1.05.6h-3.75v-.39l1.25-.2v-5.3c.15-1.95-2.25-1.55-3.6-1.2.35 1.85 0 4.4.15 6.5l1.25.2v.4h-3.9v-.4l1.2-.2z" fill="#333"/><path d="m1283.56 428.24c2-.5 5.1-.7 5.1 1.95v5.6c.4.15 1.2-.1 1 .6h-2.25l-.2-.85c-1.15 1.5-5.15 1.5-4.65-1.45-.1-2.5 2.25-2.5 4.6-2.55.2-1.8-.25-3.5-2.1-2.8a6.89 6.89 0 0 0 -.8.3c-.2.35 0 1.15-.75 1zm.5 5.8c0 2 2 1.65 3.15 1.1v-2.95c-1.7.05-3.15-.05-3.15 1.85" fill="#333"/><path d="m1296.16 430.49c.2-1.85-2.05-1.7-3.4-1.3v6.6l1.15.2v.4h-3.6c-.15-.65.65-.45 1-.6v-7.05c-.35-.15-1.15.05-1-.6h2.35l.1.65c1.55-1.15 4.9-1.45 4.9 1.55v5.45c.35.15 1.15-.05 1 .6h-3.6v-.39l1.1-.2z" fill="#333"/><path d="m1299.56 432.34c0-3.55 2.3-5 5.7-4.25v-3.6l-1.4-.2v-.4h2.85v11.9c.4.15 1.2-.1 1 .6h-2.35l-.1-.6c-2.35 1.75-5.7.55-5.7-3.45zm3.85-3.7c-1.85.05-2.2 1.65-2.25 3.7s.45 3.3 2.25 3.3a4.61 4.61 0 0 0 1.8-.35v-6.5c-.5-.05-1.2-.15-1.8-.15" fill="#333"/><path d="m1312 435.94v.45h-3.85v-.45l1.3-.25 4-11.2h1.65l4.15 11.2 1.5.25v.45h-5v-.45l1.55-.25-1.15-3.4h-4.65l-1.2 3.4zm1.9-10.15-2 5.7h4.1" fill="#333"/><path d="m1323.71 429.14a6.08 6.08 0 0 1 3-1.25v2.25c-1 .05-.4-1.5-2-.85l-1 .3v6.2l1.45.2v.4h-4v-.39l1-.2v-7.05c-.4-.15-1.2.1-1-.6h2.4" fill="#333"/><path d="m1333.51 428.79a3.05 3.05 0 0 1 -2.7 4.85 10.11 10.11 0 0 1 -1.35-.15l-.55 1.15c1.45 1.1 6.5-.7 6.2 2.6-.2 2.25-1.9 2.85-4.4 3.05-3.2.25-4.65-2.6-2-4a1.61 1.61 0 0 1 -1.2-1.45l1.4-1.55a2.54 2.54 0 0 1 -1.4-2.55c-.1-2.55 2.65-3.25 5-2.6l1.9-1 .35.4zm-2.8 10.8c1.75 0 3-.55 3-2.1 0-1.75-2.85-.85-4.45-1.05a2.43 2.43 0 0 0 -.85 1.7c.05 1.25 1 1.45 2.3 1.45zm-1.65-8.85c0 1.3.35 2.3 1.75 2.2s1.7-.8 1.75-2.2-.3-2.15-1.7-2.15-1.8.85-1.8 2.15" fill="#333"/><path d="m1341.66 435.74c-1.75 1.05-4.9 1.4-4.9-1.6v-5.4c-.4-.15-1.2.1-1-.6h2.5v5.86c-.15 1.85 2.1 1.6 3.45 1.25v-6.55l-1.25-.2v-.4h2.7v7.65c.4.15 1.2-.1 1.05.6h-2.4" fill="#333"/><path d="m1350.76 430.49c.2-1.85-2.1-1.6-3.4-1.25v6.55l1.2.2v.4h-3.7c-.15-.65.65-.45 1-.6v-7.05c-.35-.15-1.15.05-1-.6h2.4v.65c1.1-.75 3.85-1.5 4.6.1 1.6-1.1 5.2-1.8 5.2 1.45v5.45c.4.15 1.2-.1 1.05.6h-3.75v-.39l1.25-.2v-5.3c.15-1.95-2.25-1.55-3.6-1.2.35 1.85 0 4.4.15 6.5l1.25.2v.4h-3.9v-.4l1.2-.2z" fill="#333"/><path d="m1362.66 427.89c2.45 0 3.3 1.65 3.15 4.35h-5c-.4 3 1.9 4 4.75 3.15v.5a5.33 5.33 0 0 1 -2.65.7c-2.7 0-3.7-1.65-3.7-4.4s1.05-4.3 3.45-4.3zm1.65 3.65c.6-2.85-2.85-4.1-3.45-1.2a8.3 8.3 0 0 0 -.1 1.2z" fill="#333"/><path d="m1372.66 430.49c.2-1.85-2.05-1.7-3.4-1.3v6.6l1.15.2v.4h-3.6c-.15-.65.65-.45 1-.6v-7.05c-.35-.15-1.15.05-1-.6h2.35l.1.65c1.55-1.15 4.9-1.45 4.9 1.55v5.45c.35.15 1.15-.05 1 .6h-3.6v-.39l1.1-.2z" fill="#333"/><path d="m1378.11 434.49c0 1.25 1.2 1.3 2.2 1v.6c-1.35.8-3.65.75-3.65-1.45v-5.75h-1.05c-.1-.7.7-.5 1.05-.75l.9-1.9h.55v1.9h1.9v.75h-1.9z" fill="#333"/><path d="m1227.06 437.91h154.25v.88h-154.25z" fill="#333"/><path d="m1231.83 470.44v-1.35h4.7v1.35z" fill="#333"/><path d="m1249.83 466.29-3.3 7.9h-.65l-3.4-7.85c-.35-.15-1 0-.85-.6h3.85v.4l-1.3.2 2.4 5.75 2.3-5.75-1.3-.2v-.4h3.05v.4" fill="#333"/><path d="m1252.23 465.84c2-.5 5.1-.7 5.1 2v5.6c.4.15 1.2-.1 1.05.6h-2.25l-.2-.85c-1.15 1.5-5.15 1.5-4.65-1.45-.1-2.5 2.25-2.5 4.6-2.55.2-1.8-.25-3.5-2.1-2.8a6.89 6.89 0 0 0 -.8.3c-.2.35 0 1.15-.75 1zm.5 5.8c0 2.05 2 1.65 3.15 1.1v-2.95c-1.7 0-3.15-.05-3.15 1.85" fill="#333"/><path d="m1261.83 473.39 1.4.2v.4h-4.3v-.4l1.4-.2v-11.3l-1.4-.2v-.4h2.9z" fill="#333"/><path d="m1269.78 473.34c-1.75 1.05-4.9 1.4-4.9-1.6v-5.4c-.4-.15-1.2.1-1.05-.6h2.5v5.9c-.15 1.85 2.1 1.6 3.45 1.25v-6.55l-1.25-.2v-.4h2.7v7.65c.4.15 1.2-.1 1 .6h-2.4" fill="#333"/><path d="m1276.78 465.49c2.45 0 3.3 1.65 3.15 4.35h-5c-.4 3 1.9 4 4.75 3.15v.5a5.33 5.33 0 0 1 -2.65.7c-2.7 0-3.7-1.65-3.7-4.4s1.05-4.3 3.45-4.3zm1.65 3.65c.6-2.85-2.85-4.1-3.45-1.2a8.3 8.3 0 0 0 -.1 1.2z" fill="#333"/><path d="m1294.28 469.39v.85h-8.35v-.85zm0-3.65v.9h-8.35v-.9z" fill="#333"/><path d="m1304.18 462.19h1.75l-.55 4.25h-.65zm-3.4 0h1.75l-.55 4.25h-.65" fill="#333"/><path d="m1311.48 462.19h1.75l-.55 4.25h-.68zm-3.4 0h1.75l-.55 4.25h-.65" fill="#333"/><path d="m1304 412.8v-30.5a.09.09 0 0 1 .1-.1.09.09 0 0 0 .08-.1v-14.6" fill="none" stroke="#333"/><path d="m1304.51 413.3h-1v-.52h1zm4.32-46.3h-9.28l4.64-14.28z" fill="#333"/><path d="m1309.51 367.5h-10.64l5.32-16.4zm-9.27-1h7.9l-3.94-12.16z" fill="#333"/><path d="m1320.49 361.71c.15 3.35-2.2 5.1-5.55 4.25v3.2l1.45.2v.45h-4v-.45l1-.2v-10.85c-.35-.15-1.1.05-1-.6h2.3v.45a3.77 3.77 0 0 1 2.25-.7c2.6.1 3.45 1.8 3.55 4.25zm-5.5 3.6c2.65.7 4.15-.7 3.9-3.6.35-2.65-1.65-3.95-3.9-3z" fill="#333"/><path d="m1324 358.71a6.08 6.08 0 0 1 3-1.25v2.25c-1 .05-.4-1.5-2-.85l-1 .3v6.2l1.45.2v.4h-4v-.4l1-.2v-7.05c-.4-.15-1.2.1-1-.6h2.4" fill="#333"/><path d="m1331.34 357.46c2.45 0 3.3 1.65 3.15 4.35h-5c-.4 3 1.9 4 4.75 3.15v.5a5.33 5.33 0 0 1 -2.65.7c-2.7 0-3.7-1.65-3.7-4.4s1.05-4.3 3.45-4.3zm1.65 3.65c.6-2.85-2.85-4.1-3.45-1.2a8.3 8.3 0 0 0 -.1 1.2z" fill="#333"/><path d="m1340.24 354.16c-2-.75-1.75 1.6-1.7 3.55h2.2v.75h-2.2v6.8l1.75.3v.4h-4.45v-.4l1.25-.3v-6.8h-1.45v-.46l1.45-.35c-.3-3 1.15-5 4-4.2v1.8c-.75.1-.6-.7-.85-1.1" fill="#333"/><path d="m1343.39 356c-1.15 0-1.25-1.95 0-1.9.65 0 .9.35 1 .95a1 1 0 0 1 -1 .95zm.9 9.4 1.4.2v.4h-4.25v-.4l1.4-.2v-7.05l-1.2-.2v-.4h2.65z" fill="#333"/><path d="m1353.84 365.36c.35.15 1.15-.05 1 .6h-3.75v-.4l1.1-.2-1.9-2.9-2.25 2.9 1.15.2v.4h-3v-.4l1-.15 2.75-3.55-2.4-3.55c-.35-.15-1.15.05-1-.6h3.75v.4l-1.1.2 1.6 2.4 1.85-2.4-1.15-.2v-.4h3v.4l-1 .15-2.3 3" fill="#333"/><path d="m380.5 140.5h40v60h-40z" fill="#83bbe5" stroke="#333"/><path d="m379.5 200.55h-264.5" fill="none"/><path d="m379.5 200.55h-4.9m-4.9 0h-9.8m-4.9 0h-9.8m-4.88 0h-9.8m-4.9 0h-9.8m-4.9 0h-9.8m-4.9 0h-9.8m-4.88 0h-9.8m-4.9 0h-9.84m-4.9 0h-9.78m-4.9 0h-9.8m-4.9 0h-9.72m-4.9 0h-9.78m-4.9 0h-9.8m-4.9 0h-9.8m-4.88 0h-9.8m-4.9 0h-9.8m-4.9 0h-9.78m-4.9 0h-4.96" fill="none" stroke="#333"/><path d="m380 201h3v.08h-3.52v-1h.52zm-265.47 4.21-14.27-4.63 14.27-4.64z" fill="#333"/><path d="m115 205.87-16.38-5.32 16.38-5.33zm-13.15-5.32 12.15 3.94v-7.9z" fill="#333"/><path d="m212.22 185.1c.15 3.35-2.2 5.1-5.55 4.25l.05 3.2 1.45.2v.45h-3.95v-.45l1.05-.2v-10.85c-.35-.15-1.1.05-1-.6h2.3v.45a3.77 3.77 0 0 1 2.25-.7c2.45.15 3.3 1.8 3.4 4.25zm-5.5 3.6c2.65.7 4.15-.7 3.9-3.6.35-2.65-1.65-3.95-3.9-3z" fill="#333"/><path d="m215.77 182.1a6.08 6.08 0 0 1 3-1.25v2.25c-1 .05-.4-1.5-2-.85l-1 .3v6.2l1.45.2v.4h-3.95v-.35l1-.2v-7.1c-.4-.15-1.2.1-1-.6h2.4" fill="#333"/><path d="m223.07 180.85c2.45 0 3.3 1.65 3.15 4.35h-5.05c-.4 3 1.9 4 4.75 3.15v.5a5.33 5.33 0 0 1 -2.65.7c-2.7 0-3.7-1.65-3.7-4.4s1.1-4.3 3.5-4.3zm1.65 3.65c.6-2.85-2.85-4.1-3.45-1.2a8.3 8.3 0 0 0 -.1 1.2z" fill="#333"/><path d="m232 177.55c-1.95-.75-1.75 1.6-1.7 3.55h2.2v.75h-2.2v6.8l1.75.3v.4h-4.45v-.35l1.25-.3v-6.8h-1.45v-.45l1.45-.35c-.3-3 1.15-5 4-4.2v1.8c-.75.1-.6-.7-.85-1.1" fill="#333"/><path d="m235.12 179.35c-1.15 0-1.25-1.95 0-1.9.65 0 .9.35 1 1a1 1 0 0 1 -1 .9zm.9 9.4 1.4.2v.4h-4.25v-.35l1.4-.2v-7.1l-1.2-.2v-.4h2.63z" fill="#333"/><path d="m245.57 188.75c.35.15 1.15-.05 1 .6h-3.75v-.35l1.1-.2-1.9-2.9-2.25 2.9 1.15.2v.4h-3v-.4l1-.15 2.75-3.55-2.4-3.55c-.35-.15-1.15.05-1-.6h3.73v.4l-1.1.2 1.6 2.4 1.85-2.4-1.15-.2v-.4h3v.4l-1 .15-2.3 3" fill="#333"/><path d="m252.32 178.05-1.8.2v10.35a32.79 32.79 0 0 0 5-.2l.55-2.45h.55l-.15 3.4h-9.25v-.45l1.55-.25v-10.4l-1.55-.2v-.5h5z" fill="#333"/><path d="m260.07 179.35c-1.15 0-1.25-1.95 0-1.9.65 0 .9.35 1 1a1 1 0 0 1 -1 .9zm.9 9.4 1.4.2v.4h-4.25v-.35l1.4-.2v-7.1l-1.2-.2v-.4h2.68z" fill="#333"/><path d="m264.77 182.85c.35 2.4 4.3 1.15 4.3 4.2 0 2.8-3.45 2.85-5.6 2v-2c1 0 .45 1.45 1.55 1.55 1.75.95 3.85-1.3 2.05-2.5-1.35-.9-3.6-.65-3.6-3 0-2.5 2.9-2.6 5-2v1.9c-1 .05-.4-1.25-1.4-1.25-1.05-.35-2.5 0-2.3 1.15" fill="#333"/><path d="m272.42 187.45c-.05 1.25 1.2 1.3 2.2 1v.6c-1.35.8-3.65.75-3.65-1.45v-5.75h-1.05c-.1-.7.7-.5 1.05-.75l.9-1.9h.55v1.9h1.9v.75h-1.9z" fill="#333"/><path d="m97.67 140.58h265.94m-265.93 0h-.5" fill="none" stroke="#333"/><path d="m378.38 140.58-14.27 4.63v-9.21z" fill="#333"/><path d="m380 140.58-16.4 5.32v-10.65zm-15.4 3.95 12.16-3.95-12.15-4z" fill="#333"/><path d="m109.16 121.78a3.05 3.05 0 0 1 -2.7 4.85 10.11 10.11 0 0 1 -1.35-.15l-.55 1.15c1.45 1.1 6.5-.7 6.2 2.6-.2 2.25-1.9 2.85-4.4 3.05-3.2.25-4.65-2.6-2-4a1.61 1.61 0 0 1 -1.2-1.45l1.4-1.55a2.54 2.54 0 0 1 -1.4-2.55c-.1-2.55 2.65-3.25 5-2.6l1.9-1 .35.4zm-2.8 10.8c1.75 0 3-.55 3-2.1 0-1.75-2.85-.85-4.45-1a2.43 2.43 0 0 0 -.85 1.7c.05 1.2 1 1.4 2.3 1.4zm-1.65-8.85c.05 1.3.35 2.3 1.75 2.2s1.7-.8 1.75-2.2-.3-2.15-1.7-2.15-1.8.85-1.8 2.15" fill="#333"/><path d="m115.31 120.88c2.45 0 3.3 1.65 3.15 4.35h-5c-.4 3 1.9 4 4.75 3.15v.5a5.33 5.33 0 0 1 -2.65.7c-2.7 0-3.7-1.65-3.7-4.4s1.05-4.3 3.45-4.3zm1.65 3.65c.6-2.85-2.85-4.1-3.45-1.2a8.3 8.3 0 0 0 -.1 1.2z" fill="#333"/><path d="m121.76 127.48c-.05 1.25 1.2 1.3 2.2 1v.6c-1.35.8-3.65.75-3.65-1.45v-5.75h-1c-.1-.7.7-.5 1-.75l.9-1.9h.55v1.9h1.9v.75h-1.9z" fill="#333"/><path d="m126.66 123.63c0 4.65 4 6.5 7.5 4.35l.35-1.75h.55l-.06 2.77a14.54 14.54 0 0 1 -4.15.6c-3.8 0-5.85-2.05-6.05-6-.25-5.65 4.85-7 10.05-5.7v2.55h-.6l-.25-1.5a6.45 6.45 0 0 0 -3.1-.8c-3.3 0-4.3 2-4.3 5.45" fill="#333"/><path d="m140.56 120.88c2.6 0 3.8 1.6 3.8 4.35s-1.2 4.35-3.85 4.35-3.75-1.7-3.75-4.35 1.24-4.35 3.8-4.35zm-.05 8c2 0 2.3-1.75 2.3-3.65s-.35-3.65-2.3-3.65-2.2 1.7-2.2 3.65.3 3.6 2.2 3.65" fill="#333"/><path d="m151.36 123.48c.2-1.85-2.1-1.6-3.4-1.25v6.55l1.2.2v.4h-3.7c-.15-.65.65-.45 1-.6v-7c-.35-.15-1.15 0-1-.6h2.4v.65c1.1-.75 3.85-1.5 4.6.1 1.6-1.1 5.2-1.8 5.2 1.45v5.45c.4.15 1.2-.1 1 .6h-3.66v-.43l1.25-.2v-5.3c.15-2-2.25-1.55-3.6-1.2.35 1.85.05 4.4.15 6.5l1.25.2v.4h-3.9v-.4l1.2-.2z" fill="#333"/><path d="m165.36 123.48c.2-1.85-2.1-1.6-3.4-1.25v6.55l1.2.2v.4h-3.7c-.15-.65.65-.45 1-.6v-7c-.35-.15-1.15 0-1-.6h2.4v.65c1.1-.75 3.85-1.5 4.6.1 1.6-1.1 5.2-1.8 5.2 1.45v5.45c.4.15 1.2-.1 1 .6h-3.66v-.43l1.25-.2v-5.3c.15-2-2.25-1.55-3.6-1.2.35 1.85.05 4.4.15 6.5l1.25.2v.4h-3.9v-.4l1.2-.2z" fill="#333"/><path d="m174.66 121.23c2.05-.5 5.1-.7 5.1 2v5.6c.4.15 1.2-.1 1.05.6h-2.25l-.2-.85c-1.15 1.5-5.15 1.5-4.65-1.45-.1-2.5 2.25-2.5 4.6-2.55.2-1.8-.25-3.5-2.1-2.8a6.89 6.89 0 0 0 -.8.3c-.2.35 0 1.15-.75 1zm.5 5.8c0 2.05 2.05 1.65 3.15 1.1v-2.95c-1.7 0-3.15-.05-3.15 1.85" fill="#333"/><path d="m187.26 123.48c.2-1.85-2-1.7-3.4-1.3v6.6l1.15.2v.4h-3.6c-.15-.65.65-.45 1-.6v-7c-.35-.15-1.15 0-1-.6h2.35l.1.65c1.55-1.15 4.9-1.45 4.9 1.55v5.45c.35.15 1.15-.05 1 .6h-3.6v-.43l1.1-.2z" fill="#333"/><path d="m190.66 125.33c0-3.55 2.3-5 5.7-4.25l-.05-3.6-1.4-.2v-.4h2.85v11.9c.4.15 1.2-.1 1.05.6h-2.35l-.1-.6c-2.36 1.75-5.7.55-5.7-3.45zm3.85-3.7c-1.85.05-2.2 1.65-2.25 3.7s.45 3.3 2.25 3.3a4.61 4.61 0 0 0 1.8-.35v-6.5c-.5 0-1.2-.15-1.8-.15" fill="#333"/><path d="m202.76 124c2.4.15 3.8-.6 3.8-2.9s-1.4-2.85-3.8-2.7zm5.55-2.9c-.05 3-2.3 3.9-5.55 3.7v3.9l1.85.25v.45h-5v-.45l1.4-.25v-10.4l-1.55-.2v-.5c4.05 0 8.9-.7 8.8 3.5" fill="#333"/><path d="m211.86 122.13a6.08 6.08 0 0 1 3-1.25v2.25c-1 .05-.4-1.5-2-.85l-1 .3v6.2l1.45.2v.4h-3.95v-.38l1-.2v-7c-.4-.15-1.2.1-1-.6h2.4" fill="#333"/><path d="m219.16 120.88c2.45 0 3.3 1.65 3.15 4.35h-5.05c-.4 3 1.9 4 4.75 3.15v.5a5.33 5.33 0 0 1 -2.65.7c-2.7 0-3.7-1.65-3.7-4.4s1.1-4.3 3.5-4.3zm1.65 3.65c.6-2.85-2.85-4.1-3.45-1.2a8.3 8.3 0 0 0 -.1 1.2z" fill="#333"/><path d="m228.06 117.58c-1.95-.75-1.75 1.6-1.7 3.55h2.2v.75h-2.2v6.8l1.75.3v.4h-4.45v-.38l1.25-.3v-6.8h-1.45v-.45l1.45-.35c-.3-3 1.15-5 4-4.2v1.8c-.75.1-.6-.7-.85-1.1" fill="#333"/><path d="m231.21 119.38c-1.15 0-1.25-1.95 0-1.9.65 0 .9.35 1 1a1 1 0 0 1 -1 .9zm.9 9.4 1.4.2v.4h-4.25v-.38l1.4-.2v-7l-1.2-.2v-.4h2.65z" fill="#333"/><path d="m241.66 128.78c.35.15 1.15-.05 1 .6h-3.75v-.38l1.1-.2-1.9-2.9-2.25 2.9 1.15.2v.4h-3v-.4l1-.15 2.75-3.55-2.4-3.55c-.35-.15-1.15 0-1-.6h3.75v.4l-1.1.2 1.6 2.4 1.85-2.4-1.15-.2v-.4h3v.4l-1 .15-2.3 3" fill="#333"/><path d="m247.06 120.88c2.45 0 3.3 1.65 3.15 4.35h-5.05c-.4 3 1.9 4 4.75 3.15v.5a5.33 5.33 0 0 1 -2.65.7c-2.7 0-3.7-1.65-3.7-4.4s1.1-4.3 3.5-4.3zm1.65 3.65c.6-2.85-2.85-4.1-3.45-1.2a8.3 8.3 0 0 0 -.1 1.2z" fill="#333"/><path d="m252.86 122.88c.35 2.4 4.3 1.15 4.3 4.2 0 2.8-3.45 2.85-5.6 2v-2c1 0 .45 1.45 1.55 1.55 1.75.95 3.85-1.3 2-2.5-1.35-.9-3.6-.65-3.6-3 0-2.5 2.9-2.6 5-2v1.87c-.95 0-.4-1.25-1.4-1.25-1-.35-2.5 0-2.3 1.15" fill="#333"/><path d="m263.21 117.63c-2.6 1.4-3.1 4.75-2.9 8.9.15 2.8 1.05 4.85 2.9 5.95v.75c-5-1.4-6.25-11.5-2-15a10.4 10.4 0 0 1 2-1.35z" fill="#333"/><path d="m268.26 117.58h1.74l-.55 4.25h-.65zm-3.4 0h1.75l-.55 4.25h-.65" fill="#333"/><path d="m271.71 125.33c0-3.55 2.3-5 5.7-4.25l-.05-3.6-1.4-.2v-.4h2.85v11.9c.4.15 1.2-.1 1.05.6h-2.35l-.1-.6c-2.35 1.75-5.7.55-5.7-3.45zm3.85-3.7c-1.85.05-2.2 1.65-2.25 3.7s.45 3.3 2.25 3.3a4.61 4.61 0 0 0 1.8-.35v-6.5c-.5 0-1.2-.15-1.8-.15" fill="#333"/><path d="m284.26 120.88c2.45 0 3.3 1.65 3.15 4.35h-5.05c-.4 3 1.9 4 4.75 3.15v.5a5.33 5.33 0 0 1 -2.65.7c-2.7 0-3.7-1.65-3.7-4.4s1.1-4.3 3.5-4.3zm1.65 3.65c.6-2.85-2.85-4.1-3.45-1.2a8.3 8.3 0 0 0 -.1 1.2z" fill="#333"/><path d="m291.26 128.78 1.4.2v.4h-4.3v-.38l1.4-.2v-11.3l-1.4-.2v-.4h2.9z" fill="#333"/><path d="m297.21 120.88c2.45 0 3.3 1.65 3.15 4.35h-5.05c-.4 3 1.9 4 4.75 3.15v.5a5.33 5.33 0 0 1 -2.65.7c-2.7 0-3.7-1.65-3.7-4.4s1.1-4.3 3.5-4.3zm1.65 3.65c.6-2.85-2.85-4.1-3.45-1.2a8.3 8.3 0 0 0 -.1 1.2z" fill="#333"/><path d="m303.66 127.48c-.05 1.25 1.2 1.3 2.2 1v.6c-1.35.8-3.65.75-3.65-1.45v-5.75h-1c-.1-.7.7-.5 1-.75l.9-1.9h.55v1.9h1.9v.75h-1.9z" fill="#333"/><path d="m310.16 120.88c2.45 0 3.3 1.65 3.15 4.35h-5.05c-.4 3 1.9 4 4.75 3.15v.5a5.33 5.33 0 0 1 -2.65.7c-2.7 0-3.7-1.65-3.7-4.4s1.1-4.3 3.5-4.3zm1.65 3.65c.6-2.85-2.85-4.1-3.45-1.2a8.3 8.3 0 0 0 -.1 1.2z" fill="#333"/><path d="m322.21 125.13c.15 3.35-2.2 5.1-5.55 4.25v3.2l1.45.2v.45h-4v-.45l1.05-.2v-10.85c-.35-.15-1.1 0-.95-.6h2.3l.05.45a3.77 3.77 0 0 1 2.25-.7c2.45.12 3.3 1.8 3.4 4.25zm-5.5 3.6c2.65.7 4.15-.7 3.9-3.6.35-2.65-1.65-3.95-3.9-3z" fill="#333"/><path d="m327.11 120.88c2.45 0 3.3 1.65 3.15 4.35h-5.05c-.4 3 1.9 4 4.75 3.15v.5a5.33 5.33 0 0 1 -2.65.7c-2.7 0-3.7-1.65-3.7-4.4s1.1-4.3 3.5-4.3zm1.65 3.65c.6-2.85-2.85-4.1-3.45-1.2a8.3 8.3 0 0 0 -.1 1.2z" fill="#333"/><path d="m333.71 122.13a6.08 6.08 0 0 1 3-1.25v2.25c-.95.05-.4-1.5-2-.85l-1 .3v6.2l1.45.2v.4h-4v-.38l1.05-.2v-7c-.4-.15-1.2.1-1.05-.6h2.4" fill="#333"/><path d="m338.86 122.88c.35 2.4 4.3 1.15 4.3 4.2 0 2.8-3.45 2.85-5.6 2v-2c1 0 .45 1.45 1.55 1.55 1.75.95 3.85-1.3 2.05-2.5-1.35-.9-3.6-.65-3.6-3 0-2.5 2.9-2.6 5-2v1.87c-.95 0-.4-1.25-1.4-1.25-1.05-.35-2.5 0-2.3 1.15" fill="#333"/><path d="m348.31 120.88c2.6 0 3.8 1.6 3.8 4.35s-1.2 4.35-3.85 4.35-3.75-1.7-3.75-4.35 1.2-4.35 3.8-4.35zm-.05 8c1.95 0 2.3-1.75 2.3-3.65s-.35-3.65-2.3-3.65-2.2 1.7-2.2 3.65.3 3.6 2.2 3.65" fill="#333"/><path d="m359.06 123.48c.2-1.85-2.05-1.7-3.4-1.3v6.6l1.15.2v.4h-3.6c-.15-.65.65-.45 1-.6v-7c-.35-.15-1.15 0-1-.6h2.35l.1.65c1.55-1.15 4.9-1.45 4.9 1.55v5.45c.35.15 1.15-.05 1 .6h-3.56v-.43l1.1-.2z" fill="#333"/><path d="m366.31 117.58h1.75l-.55 4.25h-.65zm-3.4 0h1.75l-.55 4.25h-.65" fill="#333"/><path d="m369.71 116.88c5.05 1.4 6.25 11.55 2 15a10.13 10.13 0 0 1 -2 1.4v-.75c2.2-1.25 2.9-3.9 2.9-7.45s-.65-6.15-2.9-7.4z" fill="#333"/><path d="m563.07 260.5h40v60h-40z" fill="#83bbe5" stroke="#333"/><path d="m562.07 321h-447.07" fill="none"/><path d="m562.07 321h-5m-5 0h-9.93m-5 0h-9.93m-5 0h-9.93m-5 0h-9.93m-5 0h-9.93m-5 0h-9.93m-5 0h-9.69m-5 0h-9.9m-5 0h-9.9m-5 0h-9.94m-5 0h-9.94m-5 0h-9.94m-5 0h-9.94m-5 0h-9.95m-5 0h-10m-5 0h-9.95m-5 0h-9.93m-5 0h-9.93m-5 0h-9.93m-5 0h-9.55m-5 0h-9.93m-5 0h-9.94m-5 0h-9.94m-5 0h-9.94m-5 0h-9.93m-5 0h-9.93m-5 0h-9.93m-5 0h-9.93m-5 0h-9.63m-5 0h-5" fill="none" stroke="#333"/><path d="m562.57 321h3v.5h-3.5v-1h.5zm-448 4.63-14.31-4.63 14.27-4.64z" fill="#333"/><path d="m115 326.3-16.35-5.3 16.35-5.36zm-13.12-5.3 12.12 3.91v-7.91z" fill="#333"/><path d="m284.48 301.62c2-.5 5.1-.7 5.1 1.95v5.6c.4.15 1.2-.1 1.05.6h-2.25l-.2-.85c-1.15 1.5-5.15 1.5-4.65-1.45-.1-2.5 2.25-2.5 4.6-2.55.2-1.8-.25-3.5-2.1-2.8a6.89 6.89 0 0 0 -.8.3c-.2.35 0 1.15-.75 1zm.5 5.8c0 2.05 2 1.65 3.15 1.1v-2.95c-1.7.05-3.15-.05-3.15 1.85" fill="#333"/><path d="m293.68 302.52a6.08 6.08 0 0 1 3-1.25v2.25c-.95.05-.4-1.5-2-.85l-1 .3v6.2l1.45.2v.4h-3.95v-.4l1.05-.2v-7.05c-.4-.15-1.2.1-1.05-.6h2.4" fill="#333"/><path d="m303.48 302.17a3.05 3.05 0 0 1 -2.7 4.85 10.11 10.11 0 0 1 -1.35-.15l-.55 1.15c1.45 1.1 6.5-.7 6.2 2.6-.2 2.25-1.9 2.85-4.4 3.05-3.2.25-4.65-2.6-2-4a1.61 1.61 0 0 1 -1.2-1.45l1.4-1.55a2.54 2.54 0 0 1 -1.4-2.55c-.1-2.55 2.65-3.25 5-2.6l1.9-1 .35.4zm-2.8 10.8c1.75 0 3.05-.55 3.05-2.1 0-1.75-2.85-.85-4.45-1.05a2.43 2.43 0 0 0 -.85 1.7c0 1.25.95 1.48 2.25 1.48zm-1.68-8.85c.05 1.3.35 2.3 1.75 2.2s1.7-.8 1.75-2.2-.3-2.15-1.7-2.15-1.8.85-1.8 2.15" fill="#333"/><path d="m311.63 309.12c-1.75 1.05-4.9 1.4-4.9-1.6v-5.4c-.4-.15-1.2.1-1.05-.6h2.5v5.9c-.15 1.85 2.1 1.6 3.45 1.25v-6.55l-1.25-.2v-.4h2.7v7.65c.4.15 1.2-.1 1.05.6h-2.4" fill="#333"/><path d="m320.73 303.87c.2-1.85-2.1-1.6-3.4-1.25v6.55l1.2.2v.4h-3.7c-.15-.65.65-.45 1-.6v-7.05c-.35-.15-1.15.05-1-.6h2.4v.65c1.1-.75 3.85-1.5 4.6.1 1.6-1.1 5.2-1.8 5.2 1.45v5.45c.4.15 1.2-.1 1.05.6h-3.75v-.4l1.25-.2v-5.3c.15-1.95-2.25-1.55-3.6-1.2.35 1.85.05 4.4.15 6.5l1.25.2v.4h-3.9v-.4l1.2-.2z" fill="#333"/><path d="m332.63 301.27c2.45 0 3.3 1.65 3.15 4.35h-5c-.4 3 1.9 4 4.75 3.15v.5a5.33 5.33 0 0 1 -2.65.7c-2.7 0-3.7-1.65-3.7-4.4s1.05-4.3 3.45-4.3zm1.65 3.65c.6-2.85-2.85-4.1-3.45-1.2a8.3 8.3 0 0 0 -.1 1.2z" fill="#333"/><path d="m342.63 303.87c.2-1.85-2.05-1.7-3.4-1.3v6.6l1.15.2v.4h-3.6c-.15-.65.65-.45 1-.6v-7.05c-.35-.15-1.15.05-1-.6h2.35l.1.65c1.55-1.15 4.9-1.45 4.9 1.55v5.45c.35.15 1.15-.05 1 .6h-3.6v-.4l1.1-.2z" fill="#333"/><path d="m348.08 307.87c-.05 1.25 1.2 1.3 2.2 1v.6c-1.35.8-3.65.75-3.65-1.45v-5.75h-1.05c-.1-.7.7-.5 1.05-.75l.9-1.9h.55v1.9h1.92v.75h-1.9z" fill="#333"/><path d="m355.93 298.47-1.8.2v10.33a32.79 32.79 0 0 0 5.05-.2l.55-2.45h.55l-.15 3.4h-9.25v-.45l1.55-.25v-10.4l-1.55-.2v-.45h5.05z" fill="#333"/><path d="m363.68 299.77c-1.15 0-1.25-1.95 0-1.9.65 0 .9.35 1 .95a1 1 0 0 1 -1 .95zm.9 9.4 1.4.2v.4h-4.25v-.4l1.4-.2v-7.05l-1.2-.2v-.4h2.65z" fill="#333"/><path d="m368.38 303.27c.35 2.4 4.3 1.15 4.3 4.2 0 2.8-3.45 2.85-5.6 2v-2c1 0 .45 1.45 1.55 1.55 1.75.95 3.85-1.3 2.05-2.5-1.35-.9-3.6-.65-3.6-2.95 0-2.5 2.9-2.6 5-2.05v1.8c-.95.05-.4-1.25-1.4-1.25-1.05-.35-2.5-.05-2.3 1.15" fill="#333"/><path d="m376 307.87c0 1.25 1.2 1.3 2.2 1v.6c-1.35.8-3.65.75-3.65-1.45v-5.75h-1.05c-.1-.7.7-.5 1.05-.75l.9-1.9h.55v1.9h1.9v.75h-1.9z" fill="#333"/><path d="m804.63 312h-184.63" fill="none"/><path d="m804.63 312h-5.12m-5.13 0h-10.26m-5.12 0h-10.27m-5.13 0h-10.26m-5.12 0h-10.22m-5.13 0h-10.31m-5.13 0h-10.26m-5.17 0h-10.21m-5.13 0h-10.26m-5.13 0h-10.27m-5.13 0h-10.25m-5.13 0h-10.27m-5.13 0h-5.09" fill="none" stroke="#333"/><path d="m805.13 312.52h-.5v-1h.5zm-185.68 4.13-14.26-4.65 14.26-4.64z" fill="#333"/><path d="m620 317.34-16.43-5.34 16.43-5.3zm-13.19-5.34 12.19 4v-7.9z" fill="#333"/><path d="m825.63 303.42v244.58" fill="none"/><path d="m825.63 303.42v5.1m0 5.1v10.2m0 5.08v10.2m0 5.1v10.18m0 5.1v10.2m0 5.08v10.24m0 5.1v10.18m0 5.1v10.2m0 5.1v10.18m0 5.1v10.14m0 5.1v10.2m0 5.1v10.18m0 5.1v10.22m0 5.08v10.2m0 5.1v10.18m0 5.1v10.2m0 5.1v5.04" fill="none" stroke="#333"/><path d="m826.13 303.43h-1v-.5h1z" fill="#333"/><path d="m825.63 548v.52" fill="none" stroke="#333"/><path d="m805.63 292h40v20h-40z" fill="#83bbe5" stroke="#333"/><path d="m765.63 262h120v40.4h-120z" fill="#83bbe5" stroke="#333"/><path d="m775.42 284.82a1 1 0 0 1 1.05 1.05 1 1 0 0 1 -1.05 1.05 1 1 0 0 1 -1.1-1.05 1 1 0 0 1 1.1-1.05zm0-6.6a1 1 0 0 1 1.05 1 1 1 0 0 1 -1.05 1.1 1 1 0 0 1 -1.1-1.1 1 1 0 0 1 1.1-1" fill="#333"/><path d="m782 286.22v.45h-3.85v-.45l1.3-.25 4.05-11.2h1.65l4.15 11.2 1.5.25v.45h-4.95v-.45l1.55-.25-1.15-3.4h-4.65l-1.2 3.4zm1.9-10.15-2 5.7h4.1" fill="#333"/><path d="m793.72 279.42a6.08 6.08 0 0 1 3-1.25v2.25c-1 .05-.4-1.5-2-.85l-1 .3v6.2l1.45.2v.4h-3.95v-.4l1-.2v-7.07c-.4-.15-1.2.1-1-.6h2.4" fill="#333"/><path d="m803.52 279.07a3.05 3.05 0 0 1 -2.7 4.85 10.11 10.11 0 0 1 -1.35-.15l-.55 1.15c1.45 1.1 6.5-.7 6.2 2.6-.2 2.25-1.9 2.85-4.4 3.05-3.2.25-4.65-2.6-2-4a1.61 1.61 0 0 1 -1.2-1.45l1.4-1.55a2.54 2.54 0 0 1 -1.4-2.55c-.1-2.55 2.65-3.25 5-2.6l1.9-1 .35.4zm-2.8 10.8c1.75 0 3-.55 3-2.1 0-1.75-2.85-.85-4.45-1a2.43 2.43 0 0 0 -.85 1.7c.05 1.2 1 1.4 2.3 1.4zm-1.65-8.87c0 1.3.35 2.3 1.75 2.2s1.7-.8 1.75-2.2-.3-2.15-1.7-2.15-1.8.85-1.8 2.15" fill="#333"/><path d="m811.67 286c-1.75 1.05-4.9 1.4-4.9-1.6v-5.4c-.4-.15-1.2.1-1-.6h2.5v5.9c-.15 1.85 2.1 1.6 3.45 1.25v-6.55l-1.25-.2v-.4h2.7v7.65c.4.15 1.2-.1 1 .6h-2.4" fill="#333"/><path d="m820.77 280.77c.2-1.85-2.1-1.6-3.4-1.25v6.55l1.2.2v.4h-3.7c-.15-.65.65-.45 1-.6v-7.07c-.35-.15-1.15.05-1-.6h2.4l.05.65c1.1-.75 3.85-1.5 4.6.1 1.6-1.1 5.2-1.8 5.2 1.45v5.45c.4.15 1.2-.1 1 .6h-3.75v-.4l1.25-.2v-5.3c.15-1.95-2.25-1.55-3.6-1.2.35 1.85 0 4.4.15 6.5l1.25.2v.4h-3.9v-.4l1.2-.2z" fill="#333"/><path d="m832.67 278.17c2.45 0 3.3 1.65 3.15 4.35h-5.05c-.4 3 1.9 4 4.75 3.15v.5a5.33 5.33 0 0 1 -2.65.7c-2.7 0-3.7-1.65-3.7-4.4s1.1-4.3 3.5-4.3zm1.65 3.65c.6-2.85-2.85-4.1-3.45-1.2a8.3 8.3 0 0 0 -.1 1.2z" fill="#333"/><path d="m842.67 280.77c.2-1.85-2-1.7-3.4-1.3v6.6l1.15.2v.4h-3.6c-.15-.65.65-.45 1-.6v-7.07c-.35-.15-1.15.05-1-.6h2.35l.1.65c1.55-1.15 4.9-1.45 4.9 1.55v5.45c.35.15 1.15-.05 1 .6h-3.6v-.4l1.1-.2z" fill="#333"/><path d="m848.12 284.77c0 1.25 1.2 1.3 2.2 1v.6c-1.35.8-3.65.75-3.65-1.45v-5.75h-1c-.1-.7.7-.5 1-.75l.9-1.9h.55v1.9h1.88v.75h-1.9z" fill="#333"/><path d="m856 275.37-1.8.2v10.35a32.79 32.79 0 0 0 5.05-.2l.55-2.45h.55l-.15 3.4h-9.25v-.45l1.55-.25v-10.4l-1.55-.2v-.5h5.05z" fill="#333"/><path d="m863.72 276.67c-1.15 0-1.25-1.95 0-1.9.65 0 .9.35 1 1a1 1 0 0 1 -1 .9zm.9 9.4 1.4.2v.4h-4.25v-.4l1.4-.2v-7.07l-1.2-.2v-.4h2.65z" fill="#333"/><path d="m868.42 280.17c.35 2.4 4.3 1.15 4.3 4.2 0 2.8-3.45 2.85-5.6 2.05v-2c1 0 .45 1.45 1.55 1.55 1.75.95 3.85-1.3 2.05-2.5-1.35-.9-3.6-.65-3.6-3 0-2.5 2.9-2.6 5-2v1.8c-1 .05-.4-1.25-1.4-1.25-1.05-.35-2.5 0-2.3 1.15" fill="#333"/><path d="m876.07 284.77c-.05 1.25 1.2 1.3 2.2 1v.6c-1.35.8-3.65.75-3.65-1.45v-5.75h-1c-.1-.7.7-.5 1-.75l.9-1.9h.55v1.9h1.93v.75h-1.9z" fill="#333"/><path d="m99.15 260h447.12" fill="none" stroke="#333"/><path d="m99.16 260.5h-.5v-1h.5zm461.84-.5-14.26 4.63v-9.27z" fill="#333"/><path d="m562.66 260h-.1l-16.3 5.3v-10.62zm-15.4 4 12.16-4-12.16-3.95z" fill="#333"/><path d="m140.42 240.3c2.6 0 3.8 1.6 3.8 4.35s-1.22 4.35-3.85 4.35-3.75-1.7-3.75-4.35 1.2-4.35 3.8-4.35zm0 8c1.95 0 2.3-1.75 2.3-3.65s-.35-3.65-2.3-3.65-2.2 1.7-2.2 3.65.3 3.6 2.2 3.65" fill="#333"/><path d="m147.77 241.55a6.08 6.08 0 0 1 3-1.25v2.25c-1 0-.4-1.5-2-.85l-1 .3v6.2l1.45.2v.4h-3.95v-.4l1-.2v-7c-.4-.15-1.2.1-1-.6h2.4" fill="#333"/><path d="m151.52 244.75c0-3.55 2.3-5.05 5.7-4.25l-.05-3.6-1.4-.2v-.4h2.85v11.9c.4.15 1.2-.1 1 .6h-2.35l-.1-.6c-2.3 1.8-5.65.55-5.65-3.45zm3.85-3.7c-1.85 0-2.2 1.65-2.25 3.7 0 1.9.45 3.3 2.25 3.3a4.61 4.61 0 0 0 1.8-.35v-6.5c-.5 0-1.2-.15-1.8-.15" fill="#333"/><path d="m164.07 240.3c2.45 0 3.3 1.65 3.15 4.35h-5.05c-.4 3 1.9 4 4.75 3.15v.5a5.33 5.33 0 0 1 -2.65.7c-2.7 0-3.7-1.65-3.7-4.4s1.1-4.3 3.5-4.3zm1.65 3.65c.6-2.85-2.85-4.1-3.45-1.2a8.3 8.3 0 0 0 -.1 1.2z" fill="#333"/><path d="m170.67 241.55a6.08 6.08 0 0 1 3-1.25v2.25c-.95 0-.4-1.5-2-.85l-1 .3v6.2l1.45.2v.4h-4v-.4l1.05-.2v-7c-.4-.15-1.2.1-1.05-.6h2.4" fill="#333"/><path d="m178 240.3c2.45 0 3.3 1.65 3.15 4.35h-5.05c-.4 3 1.9 4 4.75 3.15v.5a5.33 5.33 0 0 1 -2.65.7c-2.7 0-3.7-1.65-3.7-4.4s1.07-4.3 3.5-4.3zm1.65 3.65c.6-2.85-2.85-4.1-3.45-1.2a8.3 8.3 0 0 0 -.1 1.2z" fill="#333"/><path d="m182.37 244.75c0-3.55 2.3-5.05 5.7-4.25v-3.6l-1.4-.2v-.4h2.85v11.9c.4.15 1.2-.1 1.05.6h-2.35l-.1-.6c-2.4 1.8-5.75.55-5.75-3.45zm3.85-3.7c-1.85 0-2.2 1.65-2.25 3.7 0 1.9.45 3.3 2.25 3.3a4.61 4.61 0 0 0 1.8-.35v-6.5c-.5 0-1.2-.15-1.8-.15" fill="#333"/><path d="m193.47 248.8v-.45l1.9-.25v-10.35a24.94 24.94 0 0 0 -3.5.2l-.25 1.85h-.55v-2.8h10.35v2.8h-.6l-.25-1.85-3.5-.15v10.3l1.85.25v.45z" fill="#333"/><path d="m204.92 240.3c2.6 0 3.8 1.6 3.8 4.35s-1.2 4.35-3.85 4.35-3.75-1.7-3.75-4.35 1.2-4.35 3.8-4.35zm0 8c1.95 0 2.3-1.75 2.3-3.65s-.35-3.65-2.3-3.65-2.2 1.7-2.2 3.65.3 3.6 2.2 3.65" fill="#333"/><path d="m212.42 244.8 3.4-3.65c-.35-.15-1 0-.85-.6h2.9c.15.65-.65.45-1 .6l-2.35 2.4 3 4.65c.35.15 1 0 .9.6h-3.42c-.15-.6.45-.45.75-.6l-2.25-3.55-1.1 1.15v2.4c.35.15 1.05 0 .9.6h-3.4v-.4l1.05-.2v-11.3l-1.2-.2v-.4h2.65z" fill="#333"/><path d="m222.62 240.3c2.45 0 3.3 1.65 3.15 4.35h-5.05c-.4 3 1.9 4 4.75 3.15v.5a5.33 5.33 0 0 1 -2.65.7c-2.7 0-3.7-1.65-3.7-4.4s1.1-4.3 3.5-4.3zm1.65 3.65c.6-2.85-2.85-4.1-3.45-1.2a8.3 8.3 0 0 0 -.1 1.2z" fill="#333"/><path d="m232.62 242.9c.2-1.85-2.05-1.7-3.4-1.3v6.6l1.15.2v.4h-3.6c-.15-.65.65-.45 1-.6v-7c-.35-.15-1.15 0-1-.6h2.35l.1.65c1.55-1.15 4.9-1.45 4.9 1.55v5.45c.35.15 1.15 0 1 .6h-3.6v-.4l1.1-.2z" fill="#333"/><path d="m237.72 238.8c-1.15 0-1.25-2 0-1.9.65 0 .9.35 1 .95a1 1 0 0 1 -1 .95zm.9 9.4 1.4.2v.4h-4.25v-.4l1.4-.2v-7l-1.17-.2v-.4h2.65z" fill="#333"/><path d="m240.87 248.8v-.4l4.5-7.15c-1.15.1-2.7-.2-3.5.3-.25.4 0 1.3-.7 1.2v-2.2h6.1v.4l-4.55 7.15c1.45-.1 3.25.15 4.3-.4l.45-1.75h.4l-.25 2.85z" fill="#333"/><path d="m252.52 240.3c2.45 0 3.3 1.65 3.15 4.35h-5c-.4 3 1.9 4 4.75 3.15v.5a5.33 5.33 0 0 1 -2.65.7c-2.7 0-3.7-1.65-3.7-4.4s1.05-4.3 3.45-4.3zm1.65 3.65c.6-2.85-2.85-4.1-3.45-1.2a8.3 8.3 0 0 0 -.1 1.2z" fill="#333"/><path d="m261.67 237.05c-2.6 1.4-3.1 4.75-2.9 8.9.15 2.8 1.05 4.85 2.9 6v.75c-5.05-1.4-6.25-11.5-2.05-15a10.4 10.4 0 0 1 2.05-1.35z" fill="#333"/><path d="m266.72 237h1.75l-.55 4.25h-.65zm-3.4 0h1.75l-.55 4.25h-.65" fill="#333"/><path d="m275.77 242.9c.2-1.85-2-1.7-3.4-1.3v6.6l1.15.2v.4h-3.6c-.15-.65.65-.45 1-.6v-7c-.35-.15-1.15 0-1-.6h2.35l.1.65c1.55-1.15 4.9-1.45 4.9 1.55v5.45c.35.15 1.15 0 1 .6h-3.6v-.4l1.1-.2z" fill="#333"/><path d="m279.42 249h-.9l4.15-12h.85" fill="#333"/><path d="m288 237h1.75l-.55 4.25h-.65zm-3.4 0h1.75l-.55 4.25h-.65" fill="#333"/><path d="m292.92 247c2.15 0 1.15 3.7-.2 4.05a5.38 5.38 0 0 1 -1.2.55v-.65c.85-.25 1.45-.7 1.55-1.5-.15-.7-1.25-.55-1.2-1.5a1 1 0 0 1 1.05-1" fill="#333"/><path d="m308.12 244.55c.15 3.35-2.2 5.1-5.55 4.25l.05 3.2 1.45.2v.45h-3.95v-.45l1.05-.2v-10.85c-.35-.15-1.1 0-.95-.6h2.3l.05.45a3.77 3.77 0 0 1 2.25-.7c2.35.1 3.18 1.8 3.3 4.25zm-5.5 3.6c2.65.7 4.15-.7 3.9-3.6.35-2.65-1.65-4-3.9-3z" fill="#333"/><path d="m311.67 241.55a6.08 6.08 0 0 1 3-1.25v2.25c-.95 0-.4-1.5-2-.85l-1 .3v6.2l1.45.2v.4h-3.95v-.4l1.05-.2v-7c-.4-.15-1.2.1-1.05-.6h2.4" fill="#333"/><path d="m319 240.3c2.45 0 3.3 1.65 3.15 4.35h-5.05c-.4 3 1.9 4 4.75 3.15v.5a5.33 5.33 0 0 1 -2.65.7c-2.7 0-3.7-1.65-3.7-4.4s1.07-4.3 3.5-4.3zm1.65 3.65c.6-2.85-2.85-4.1-3.45-1.2a8.3 8.3 0 0 0 -.1 1.2z" fill="#333"/><path d="m327.87 237c-1.95-.75-1.75 1.6-1.7 3.55h2.2v.75h-2.2v6.8l1.75.3v.4h-4.45v-.4l1.25-.3v-6.8h-1.45v-.45l1.45-.35c-.3-2.95 1.15-5 4-4.2v1.8c-.75.1-.6-.7-.85-1.1" fill="#333"/><path d="m331 238.8c-1.15 0-1.25-2 0-1.9.65 0 .9.35 1 .95a1 1 0 0 1 -1 .95zm.9 9.4 1.4.2v.4h-4.25v-.4l1.4-.2v-7l-1.2-.2v-.4h2.65z" fill="#333"/><path d="m341.47 248.2c.35.15 1.15 0 1 .6h-3.75v-.4l1.1-.2-1.9-2.9-2.25 2.9 1.15.2v.4h-3v-.4l.95-.15 2.75-3.55-2.4-3.55c-.35-.15-1.15 0-1-.6h3.75v.4l-1.1.2 1.6 2.4 1.85-2.4-1.15-.2v-.4h2.93v.4l-.95.15-2.3 3" fill="#333"/><path d="m348.22 237.5-1.8.2v10.35a32.79 32.79 0 0 0 5.05-.2l.55-2.45h.55l-.15 3.4h-9.25v-.45l1.55-.25v-10.4l-1.55-.2v-.5h5.05z" fill="#333"/><path d="m356 238.8c-1.15 0-1.25-2 0-1.9.65 0 .9.35 1 .95a1 1 0 0 1 -1 .95zm.9 9.4 1.4.2v.4h-4.3v-.4l1.4-.2v-7l-1.2-.2v-.4h2.65z" fill="#333"/><path d="m360.67 242.3c.35 2.4 4.3 1.15 4.3 4.2 0 2.8-3.45 2.85-5.6 2.05v-2c1 0 .45 1.45 1.55 1.55 1.75 1 3.85-1.3 2.05-2.5-1.35-.9-3.6-.65-3.6-2.95 0-2.5 2.9-2.6 5-2.05v1.8c-.95 0-.4-1.25-1.4-1.25-1.05-.35-2.5-.05-2.3 1.15" fill="#333"/><path d="m368.32 246.9c-.05 1.25 1.2 1.3 2.2 1v.6c-1.35.8-3.65.75-3.65-1.45v-5.75h-1.05c-.1-.7.7-.5 1.05-.75l.9-1.9h.55v1.9h1.9v.75h-1.9z" fill="#333"/><path d="m371.22 236.3c5 1.4 6.25 11.55 2 14.95a10.13 10.13 0 0 1 -2 1.4v-.75c2.2-1.25 2.9-3.9 2.9-7.45s-.65-6.15-2.9-7.4z" fill="#333"/><path d="m604.07 282.22h144.7" fill="none" stroke="#333"/><path d="m604.08 282.72h-.5v-1h.5zm159.45-.5-14.27 4.63v-9.27z" fill="#333"/><path d="m765.13 282.22-16.37 5.32v-10.64zm-15.37 3.95 12.15-3.95-12.15-4z" fill="#333"/><path d="m632.23 270.57v.43h-3.85v-.45l1.3-.25 4.05-11.2h1.65l4.15 11.2 1.5.25v.45h-4.95v-.45l1.55-.25-1.15-3.4h-4.65l-1.2 3.4zm1.9-10.15-2 5.7h4.1" fill="#333"/><path d="m644 263.77a6.08 6.08 0 0 1 3-1.25v2.25c-1 .05-.4-1.5-2-.85l-1 .3v6.2l1.45.2v.4h-3.95v-.4l1-.2v-7.05c-.4-.15-1.2.1-1-.6h2.4" fill="#333"/><path d="m653.78 263.42a3.05 3.05 0 0 1 -2.7 4.85 10.11 10.11 0 0 1 -1.35-.15l-.55 1.15c1.45 1.1 6.5-.7 6.2 2.6-.2 2.25-1.9 2.85-4.4 3.05-3.2.25-4.65-2.6-2-4a1.61 1.61 0 0 1 -1.2-1.45l1.4-1.55a2.54 2.54 0 0 1 -1.4-2.55c-.1-2.55 2.65-3.25 5-2.6l1.9-1 .35.4zm-2.8 10.8c1.75 0 3-.55 3-2.1 0-1.75-2.85-.85-4.45-1.05a2.43 2.43 0 0 0 -.85 1.7c.05 1.23 1 1.45 2.32 1.45zm-1.65-8.85c0 1.3.35 2.3 1.75 2.2s1.7-.8 1.75-2.2-.3-2.15-1.7-2.15-1.8.85-1.8 2.15" fill="#333"/><path d="m661.93 270.37c-1.75 1.05-4.9 1.4-4.9-1.6v-5.4c-.4-.15-1.2.1-1-.6h2.5v5.9c-.15 1.85 2.1 1.6 3.45 1.25v-6.55l-1.25-.2v-.4h2.7v7.65c.4.15 1.2-.1 1 .6h-2.43" fill="#333"/><path d="m671 265.12c.2-1.85-2.1-1.6-3.4-1.25v6.55l1.2.2v.4h-3.7c-.15-.65.65-.45 1-.6v-7.05c-.35-.15-1.15.05-1-.6h2.4l.05.65c1.1-.75 3.85-1.5 4.6.1 1.6-1.1 5.2-1.8 5.2 1.45v5.45c.4.15 1.2-.1 1 .6h-3.75v-.4l1.25-.2v-5.3c.15-1.95-2.25-1.55-3.6-1.2.35 1.85 0 4.4.15 6.5l1.25.2v.4h-3.9v-.4l1.2-.2z" fill="#333"/><path d="m682.93 262.52c2.45 0 3.3 1.65 3.15 4.35h-5.08c-.4 3 1.9 4 4.75 3.15v.5a5.33 5.33 0 0 1 -2.65.7c-2.7 0-3.7-1.65-3.7-4.4s1.13-4.3 3.53-4.3zm1.65 3.65c.6-2.85-2.85-4.1-3.45-1.2a8.3 8.3 0 0 0 -.1 1.2z" fill="#333"/><path d="m692.93 265.12c.2-1.85-2-1.7-3.4-1.3v6.6l1.15.2v.4h-3.6c-.15-.65.65-.45 1-.6v-7.05c-.35-.15-1.15.05-1-.6h2.35l.1.65c1.55-1.15 4.9-1.45 4.9 1.55v5.45c.35.15 1.15-.05 1 .6h-3.6v-.4l1.1-.2z" fill="#333"/><path d="m698.38 269.12c0 1.25 1.2 1.3 2.2 1v.6c-1.35.8-3.65.75-3.65-1.45v-5.75h-1c-.1-.7.7-.5 1-.75l.9-1.9h.55v1.9h1.9v.75h-1.9z" fill="#333"/><path d="m706.23 259.72-1.8.2v10.35a32.79 32.79 0 0 0 5.05-.2l.55-2.45h.55l-.15 3.4h-9.25v-.45l1.55-.25v-10.4l-1.55-.2v-.5h5.05z" fill="#333"/><path d="m714 261c-1.15 0-1.25-1.95 0-1.9.65 0 .9.35 1 .95a1 1 0 0 1 -1 .95zm.9 9.4 1.4.2v.4h-4.3v-.4l1.4-.2v-7.05l-1.2-.2v-.4h2.65z" fill="#333"/><path d="m718.68 264.52c.35 2.4 4.3 1.15 4.3 4.2 0 2.8-3.45 2.85-5.6 2v-2c1 0 .45 1.45 1.55 1.55 1.75.95 3.85-1.3 2.05-2.5-1.35-.9-3.6-.65-3.6-2.95 0-2.5 2.9-2.6 5-2.05v1.8c-1 .05-.4-1.25-1.4-1.25-1.05-.35-2.5-.05-2.3 1.15" fill="#333"/><path d="m726.33 269.12c-.05 1.25 1.2 1.3 2.2 1v.6c-1.35.8-3.65.75-3.65-1.45v-5.75h-1c-.1-.7.7-.5 1-.75l.9-1.9h.55v1.9h1.9v.75h-1.9z" fill="#333"/><path d="m734 259.27c-2.6 1.4-3.1 4.75-2.9 8.9.15 2.8 1 4.85 2.9 5.95v.75c-5-1.4-6.25-11.5-2-15a10.4 10.4 0 0 1 2-1.35z" fill="#333"/><path d="m735.18 258.52c5.05 1.4 6.25 11.55 2 15a10.13 10.13 0 0 1 -2 1.4v-.75c2.2-1.25 2.9-3.9 2.9-7.45s-.65-6.15-2.9-7.4z" fill="#333"/></svg>
