<svg viewBox="0 0 380.84 173.24" xmlns="http://www.w3.org/2000/svg"><path d="m9.06 43h22.94v42.8h-22.94zm48.62 0h22.93v42.8h-22.94zm48.6 0h22.95v42.8h-22.94zm48.63 0h22.93v42.8h-22.93zm46.4 0h22.94v42.8h-22.94zm48.62 0h22.94v42.8h-23zm48.61 0h22.94v42.8h-22.94zm49 0h22.93v42.8h-22.9z" fill="#e5e5e5"/><path d="m322.92 0h45.2v60h-45.2z" fill="none"/><path d="m319.51 26.64c1.52-.37 3.78-.52 3.78 1.44v4.15c.3.11.89-.07.78.45h-1.67l-.15-.63c-.85 1.11-3.81 1.11-3.44-1.08-.07-1.85 1.67-1.85 3.41-1.89.15-1.33-.19-2.59-1.56-2.07a5.38 5.38 0 0 0 -.59.22c-.15.26 0 .85-.56.74zm.37 4.3c0 1.51 1.52 1.22 2.34.81v-2.18c-1.26 0-2.34 0-2.34 1.37" fill="#333"/><path d="m326.33 27.31a4.5 4.5 0 0 1 2.22-.93v1.67c-.7 0-.3-1.11-1.48-.63l-.74.22v4.59l1.07.15v.3h-2.92v-.3l.77-.15v-5.23c-.29-.11-.88.07-.77-.44h1.77" fill="#333"/><path d="m333.59 27.05a2.26 2.26 0 0 1 -2 3.59 6.94 6.94 0 0 1 -1-.11l-.41.85c1.07.82 4.81-.52 4.59 1.93-.15 1.66-1.4 2.11-3.26 2.26-2.37.18-3.44-1.93-1.48-3a1.21 1.21 0 0 1 -.89-1.07l1-1.15a1.88 1.88 0 0 1 -1-1.89c-.07-1.89 2-2.41 3.71-1.92l1.4-.74.26.29zm-2.08 8c1.3 0 2.26-.41 2.26-1.56s-2.11-.63-3.29-.78a1.77 1.77 0 0 0 -.63 1.26c0 .93.7 1.08 1.66 1.08zm-1.22-6.56c0 1 .26 1.71 1.3 1.63s1.26-.59 1.29-1.63-.22-1.59-1.26-1.59-1.33.63-1.33 1.59" fill="#333"/><path d="m339.62 32.2c-1.29.77-3.63 1-3.63-1.19v-4.01c-.29-.11-.88.07-.77-.44h1.85v4.37c-.11 1.37 1.55 1.18 2.55.92v-4.85l-.92-.15v-.29h2v5.66c.29.11.89-.07.78.45h-1.78" fill="#333"/><path d="m346.37 28.31c.14-1.37-1.56-1.19-2.52-.93v4.85l.89.15v.3h-2.74c-.11-.48.49-.34.75-.45v-5.23c-.26-.11-.86 0-.75-.44h1.78v.48c.81-.56 2.85-1.11 3.41.07 1.18-.81 3.85-1.33 3.85 1.08v4c.3.11.89-.07.78.45h-2.78v-.3l.92-.15v-3.88c.12-1.45-1.66-1.15-2.66-.89a39.77 39.77 0 0 1 .11 4.81l.93.15v.3h-2.89v-.3l.89-.15z" fill="#333"/><path d="m355.18 26.38c1.81 0 2.44 1.22 2.33 3.22h-3.74c-.29 2.23 1.41 3 3.52 2.34v.37a4 4 0 0 1 -2 .52c-2 0-2.74-1.23-2.74-3.26s.85-3.19 2.63-3.19zm1.22 2.7c.45-2.11-2.11-3-2.55-.88a5.51 5.51 0 0 0 -.08.88z" fill="#333"/><path d="m362.59 28.31c.15-1.37-1.52-1.26-2.52-1v4.89l.85.15v.3h-2.67c-.11-.48.49-.34.74-.45v-5.2c-.25-.11-.85 0-.74-.44h1.75l.08.48c1.15-.85 3.63-1.08 3.63 1.15v4c.26.11.85 0 .74.45h-2.67v-.3l.82-.15z" fill="#333"/><path d="m366.62 31.27c0 .93.89 1 1.63.74v.44c-1 .6-2.7.56-2.7-1.07v-4.26h-.78c-.07-.52.52-.37.78-.55l.67-1.41h.4v1.41h1.38v.55h-1.41z" fill="#333"/><path d="m369.85 27.86c.26 1.78 3.18.85 3.18 3.11 0 2.08-2.55 2.11-4.15 1.52v-1.49c.74 0 .34 1.07 1.15 1.15 1.3.7 2.85-1 1.52-1.85-1-.67-2.67-.48-2.67-2.19s2.15-1.92 3.71-1.52v1.34c-.71 0-.3-.93-1-.93-.78-.26-1.85 0-1.7.85" fill="#333"/><path d="m370.88 58.53v-16h-49.72v16" fill="none" stroke="#333"/><path d="m108.84 31.08c0 3.2 2.6 4 5.2 3.15 0 1.25-1.5 1.25-2.75 1.25-2.8 0-4-1.6-4-4.4 0-3.8 3.1-4.9 6.55-4v2.3h-.5c-.25-.75-.2-1.55-1.15-1.75-2.35-.5-3.35 1.05-3.35 3.45" fill="#333"/><path d="m119 26.78c2.6 0 3.8 1.6 3.8 4.35s-1.2 4.35-3.85 4.35-3.75-1.7-3.75-4.35 1.24-4.35 3.8-4.35zm-.05 8c2 0 2.3-1.75 2.3-3.65s-.35-3.65-2.3-3.65-2.2 1.7-2.2 3.65.3 3.6 2.2 3.65" fill="#333"/><path d="m129.84 29.38c.2-1.85-2.1-1.6-3.4-1.25v6.55l1.2.2v.4h-3.7c-.15-.65.65-.45 1-.6v-7c-.35-.15-1.15.05-1-.6h2.4v.65c1.1-.75 3.85-1.5 4.6.1 1.6-1.1 5.2-1.8 5.2 1.45v5.45c.4.15 1.2-.1 1.05.6h-3.75v-.4l1.25-.2v-5.3c.15-1.95-2.25-1.55-3.6-1.2.35 1.85.05 4.4.15 6.5l1.25.2v.4h-3.9v-.4l1.2-.2z" fill="#333"/><path d="m143.84 29.38c.2-1.85-2.1-1.6-3.4-1.25v6.55l1.2.2v.4h-3.7c-.15-.65.65-.45 1-.6v-7c-.35-.15-1.15.05-1-.6h2.4v.65c1.1-.75 3.85-1.5 4.6.1 1.6-1.1 5.2-1.8 5.2 1.45v5.45c.4.15 1.2-.1 1.05.6h-3.75v-.4l1.25-.2v-5.3c.15-1.95-2.25-1.55-3.6-1.2.35 1.85.05 4.4.15 6.5l1.25.2v.4h-3.9v-.4l1.2-.2z" fill="#333"/><path d="m153.14 27.13c2.05-.5 5.1-.7 5.1 1.95v5.6c.4.15 1.2-.1 1 .6h-2.24l-.2-.85c-1.15 1.5-5.15 1.5-4.65-1.45-.1-2.5 2.25-2.5 4.6-2.55.2-1.8-.25-3.5-2.1-2.8a6.89 6.89 0 0 0 -.8.3c-.2.35 0 1.15-.75 1zm.5 5.8c0 2 2.05 1.65 3.15 1.1v-3c-1.7.05-3.15 0-3.15 1.85" fill="#333"/><path d="m165.74 29.38c.2-1.85-2.05-1.7-3.4-1.3v6.6l1.15.2v.4h-3.6c-.15-.65.65-.45 1-.6v-7c-.35-.15-1.15.05-1-.6h2.35l.1.65c1.55-1.15 4.9-1.45 4.9 1.55v5.45c.35.15 1.15 0 1 .6h-3.6v-.4l1.1-.2z" fill="#333"/><path d="m169.14 31.23c0-3.55 2.3-5.05 5.7-4.25l-.05-3.6-1.4-.2v-.4h2.85v11.9c.4.15 1.2-.1 1 .6h-2.35l-.1-.6c-2.3 1.75-5.65.55-5.65-3.45zm3.85-3.7c-1.85 0-2.2 1.65-2.25 3.7s.45 3.3 2.25 3.3a4.61 4.61 0 0 0 1.8-.35v-6.5c-.5-.05-1.2-.15-1.8-.15" fill="#333"/><path d="m193.44 24.18-3.85 11.35h-.5l-3.09-8.1-3.15 8.1h-.45l-3.9-11.35-1-.2v-.5h4.5v.52l-1.7.2 2.8 8.3 3.15-8.15h.4l3.05 8.15 2.7-8.3-1.85-.2v-.5h3.9v.5" fill="#333"/><path d="m197.49 26.78c2.6 0 3.8 1.6 3.8 4.35s-1.2 4.35-3.85 4.35-3.75-1.7-3.75-4.35 1.2-4.35 3.8-4.35zm-.05 8c1.95 0 2.3-1.75 2.3-3.65s-.35-3.65-2.3-3.65-2.2 1.7-2.2 3.65.3 3.6 2.2 3.65" fill="#333"/><path d="m204.84 28a6.08 6.08 0 0 1 3-1.25v2.25c-1 0-.4-1.5-2-.85l-1 .3v6.2l1.45.2v.4h-3.95v-.4l1-.2v-7c-.4-.15-1.2.1-1-.6h2.4" fill="#333"/><path d="m208.59 31.23c0-3.55 2.3-5.05 5.7-4.25v-3.6l-1.4-.2v-.4h2.85v11.9c.4.15 1.2-.1 1.05.6h-2.35l-.1-.6c-2.4 1.75-5.75.55-5.75-3.45zm3.85-3.7c-1.85 0-2.2 1.65-2.25 3.7s.45 3.3 2.25 3.3a4.61 4.61 0 0 0 1.8-.35v-6.5c-.5-.05-1.2-.15-1.8-.15" fill="#333"/><path d="m321.28 58.78v-16h-313.13v16" fill="none" stroke="#333"/><path d="m4.82 37.57h373v52.87h-373z" fill="none"/><g fill="#333"><path d="m26.72 59.4c-.06-3.65 0-7.42 0-11.13h3.51v24.63c0 1.48 0 3 .12 4.35h-3.35a24 24 0 0 1 -.19-3.39h-.1c-1.19 2.53-3 3.9-6.49 3.9a6.52 6.52 0 0 1 -5.8-2.71c-1.23-1.82-1.85-4.53-1.85-8.19q0-11 7.65-11c3.39-.05 5.25 1.14 6.5 3.54zm-5.59-1c-4.34 0-5 3.84-5 8.34s.61 8.3 4.94 8.3c4.63 0 5.59-3.81 5.59-8.62 0-4.64-1-8-5.55-8"/><path d="m45.88 55.73c6.93 0 9.39 4.65 9.31 11.7h-15.08c.1 4.34 1.65 7.57 5.89 7.57 2.82 0 4.77-1.15 5.55-3.24l3.09.87c-1.23 3.21-4.12 5-8.64 5-6.68 0-9.57-4.29-9.57-11.09s2.94-10.81 9.45-10.81zm5.68 9c-.35-3.75-1.76-6.4-5.64-6.4s-5.61 2.5-5.77 6.4z"/><path d="m72.2 74.48h7.43v2.77h-19.18v-2.77h8.24v-23.48h-5.69v-2.73h9.2z"/><path d="m93.88 55.73c6.94 0 9.4 4.65 9.32 11.7h-15.08c.1 4.34 1.64 7.57 5.88 7.57 2.81 0 4.77-1.15 5.55-3.24l3.08.87c-1.23 3.21-4.12 5-8.63 5-6.68 0-9.57-4.29-9.57-11.09s2.95-10.81 9.45-10.81zm5.69 9c-.35-3.75-1.76-6.4-5.65-6.4s-5.6 2.5-5.76 6.4z"/><path d="m119.16 77.57c-4.08 0-6.31-1.57-6.33-5.57v-13.11h-3.28v-2.77h3.32l1.13-5.51h2.35v5.51h8.43v2.77h-8.43v12.74c0 2.23 1.17 3 3.55 3a29.32 29.32 0 0 0 5.8-.67v2.68a25.07 25.07 0 0 1 -6.54.9"/><path d="m141.89 55.73c6.94 0 9.4 4.65 9.32 11.7h-15.08c.1 4.34 1.64 7.58 5.88 7.58 2.81 0 4.76-1.15 5.55-3.24l3.08.87c-1.23 3.21-4.12 5-8.63 5-6.68 0-9.57-4.29-9.57-11.09s2.95-10.82 9.45-10.82zm5.69 9c-.36-3.75-1.76-6.4-5.65-6.4s-5.6 2.5-5.76 6.4z"/><path d="m167.48 55.69c6.09.06 7.65 4.77 7.65 10.9s-1.6 11-7.65 11c-3.3 0-5.41-1.26-6.47-3.59h-.09c.15 3.67 0 7.7.07 11.5h-3.53v-25c0-1.49 0-3-.12-4.38h3.42c.12 1 .17 2.34.19 3.48h.05c1.17-2.39 3-3.95 6.48-3.91zm-1 19.36c4.4 0 5-4 5-8.46s-.62-8.18-4.94-8.18c-4.54 0-5.54 3.75-5.54 8.59 0 4.63 1 8 5.53 8"/><path d="m189.9 55.73c6.93 0 9.39 4.65 9.32 11.7h-15.08c.1 4.34 1.64 7.58 5.88 7.58 2.81 0 4.76-1.15 5.54-3.24l3.09.87c-1.23 3.21-4.12 5-8.63 5-6.68 0-9.57-4.29-9.57-11.09s2.95-10.82 9.45-10.82zm5.68 9c-.35-3.75-1.75-6.4-5.64-6.4s-5.61 2.5-5.76 6.4z"/><path d="m218.24 55.73a25.94 25.94 0 0 1 4 .33v3.26c-2.18-.35-5.23-.7-7.09.3-2.52 1.34-4.06 4-4.06 7.71v9.92h-3.49c-.2-7.16.62-15.41-1-21.13h3.34a26.23 26.23 0 0 1 .94 4.88h.12c1.31-3 3-5.27 7.29-5.27"/><path d="m242.91 61.26c-.35-2.23-2.33-2.85-4.89-2.85-3.18 0-4.78 1-4.78 3 0 2.94 3.32 2.89 5.74 3.61 3.56 1 7.58 1.83 7.58 6.25 0 4.69-3.69 6.35-8.57 6.42s-8-1.34-8.87-5.23l3.1-.61c.47 2.6 2.66 3.29 5.77 3.23 2.81 0 5.27-.61 5.27-3.34 0-3.21-3.81-3.13-6.47-4-3.26-1-6.83-1.7-6.83-5.84s3.38-6.15 8.06-6.11c4.3 0 7.29 1.5 8 5.08"/><path d="m261.87 55.73c6.7 0 9.46 4 9.42 10.94 0 6.78-2.87 11-9.53 11s-9.28-4.27-9.36-11 3.05-10.94 9.47-10.94zm-.15 19.32c4.68 0 5.88-3.52 5.88-8.38s-1.08-8.34-5.67-8.34-5.84 3.53-5.84 8.34 1.19 8.38 5.63 8.38"/><path d="m287.65 55.73c4.71 0 6.72 2.66 6.7 7.44v14.08h-3.53v-13.57c0-3.28-1.12-5.33-4.3-5.23-3.71.11-5.53 2.69-5.53 6.56v12.24h-3.51c-.06-7 .12-14.29-.12-21.13h3.32c.08 1.06.14 2.46.16 3.61h.06a7 7 0 0 1 6.75-4"/><path d="m335.66 55.73c4.71 0 6.72 2.66 6.7 7.44v14.08h-3.53v-13.57c0-3.28-1.12-5.33-4.3-5.23-3.71.11-5.53 2.69-5.53 6.56v12.24h-3.51c-.06-7 .11-14.29-.12-21.13h3.32c.08 1.06.14 2.46.16 3.61a7 7 0 0 1 6.76-4"/><path d="m348.1 77.64 16-29.37h3.47l-15.91 29.37z"/></g><path d="m7.48 100.43h364.45m-363.93-15v30m363.45 0v-30m-242 22.21v-14.83m0 14.82v.5m0-15.31v-.5m120.71 15.32v-14.83m0 14.82v.5m0-15.31v-.5" fill="none" stroke="#333"/><path d="m31.92 105.48v-10.07m0 10.07v.25m0-10.31v-.26m25.81 10.16v-10.07m0 10v.27m0-10.32v-.2m23.27 10v-10.09m0 10.09v.26m0-10.36v-.24m25.17 10.62v-10.07m0 10.06v.26m0-10.33v-.2m49.25 10.52v-10.11m0 10.07v.25m0-10.31v-.26m23.42 9.84v-10m0 10v.27m0-10.32v-.25m22.68 10.3v-10.09m0 10.06v.26m0-10.33v-.24m23.38 10v-10.05m0 10.06v.26m0-10.33v-.24m48.48 10.77v-10.07m0 10.07v.25m0-10.31v-.26m25.47 9.86v-10.07m0 10.06v.26m0-10.32v-.25m23.07 10.08v-10.07m0 10.07v.25m0-10.31v-.26m25.86 10.22v-10.07m0 10.06v.26m0-10.32v-.26" fill="none" stroke="#333" stroke-width=".5"/><path d="m8.74 148.14h362.15v25.1h-362.14z" fill="none"/><path d="m136.54 156.86c-2.47 0-2.95 2.15-2.95 4.69s.52 4.8 3 4.8c1.65 0 2.31-1.25 2.83-2.48l1.39.57c-.74 1.73-1.82 3.27-4.24 3.27-3.53 0-4.8-2.59-4.8-6.16s1.19-6.06 4.71-6.06a4.1 4.1 0 0 1 4.1 2.95l-1.48.57a2.74 2.74 0 0 0 -2.61-2.15" fill="#333"/><path d="m150.42 165.14c0 .84.1 1.4.88 1.42a2.75 2.75 0 0 0 .52-.06v1a5.05 5.05 0 0 1 -1.22.14c-1.24 0-1.68-.74-1.73-1.91h-.05a3.37 3.37 0 0 1 -3.27 2 2.55 2.55 0 0 1 -2.8-2.83c0-2.34 1.71-3.06 4-3.11h2.08c.1-1.68-.35-2.68-1.95-2.68-1.23 0-1.94.42-2 1.51l-1.66-.14c.29-1.8 1.6-2.57 3.72-2.57s3.53 1 3.53 3.2zm-6-.23a1.46 1.46 0 0 0 1.54 1.6 2.77 2.77 0 0 0 2.69-1.91 4.73 4.73 0 0 0 .18-1.76c-2 .06-4.41-.25-4.41 2.07" fill="#333"/><path d="m159.8 157.85a11.13 11.13 0 0 1 1.81.15v1.47a5.63 5.63 0 0 0 -3.19.13 3.66 3.66 0 0 0 -1.82 3.47v4.46h-1.6c-.08-3.22.28-6.93-.45-9.51h1.5a11.93 11.93 0 0 1 .42 2.2h.05a3.24 3.24 0 0 1 3.27-2.37" fill="#333"/><path d="m168.65 157.85c3.12 0 4.23 2.09 4.2 5.26h-6.79c.05 1.95.74 3.41 2.65 3.41a2.4 2.4 0 0 0 2.49-1.46l1.39.4c-.55 1.44-1.85 2.25-3.88 2.25-3 0-4.31-1.93-4.31-5s1.33-4.86 4.25-4.86zm2.56 4.05c-.16-1.69-.79-2.88-2.54-2.88s-2.52 1.12-2.59 2.88z" fill="#333"/><path d="m180 167.67c-1.84 0-2.84-.7-2.85-2.5v-5.9h-1.45v-1.27h1.5l.51-2.47h1v2.47h3.8v1.25h-3.8v5.75c0 1 .53 1.37 1.6 1.37a13.76 13.76 0 0 0 2.61-.3v1.2a11.23 11.23 0 0 1 -2.94.4" fill="#333"/><path d="m197.41 155.68h7.24v1.37h-2.78v9.11h2.78v1.37h-7.24v-1.37h2.78v-9.11h-2.78z" fill="#333"/><path d="m212.64 157.85c2.12 0 3 1.19 3 3.35v6.33h-1.59v-6.1c0-1.48-.5-2.4-1.94-2.36-1.67.05-2.48 1.21-2.48 3v5.51h-1.59c0-3.16.06-6.43-.05-9.51h1.5c0 .48.06 1.11.07 1.63a3.16 3.16 0 0 1 3-1.8" fill="#333"/><path d="m224.84 159.5c0-1.64 0-3.34 0-5h1.59v11.08c0 .67 0 1.37.05 2h-1.48a12.07 12.07 0 0 1 -.09-1.52 2.84 2.84 0 0 1 -2.92 1.75 2.91 2.91 0 0 1 -2.61-1.22 6.54 6.54 0 0 1 -.84-3.68c0-3.31 1.15-5 3.45-5a2.92 2.92 0 0 1 2.85 1.59zm-2.51-.45c-2 0-2.24 1.73-2.24 3.76s.27 3.73 2.22 3.73 2.51-1.71 2.51-3.87-.45-3.62-2.49-3.62" fill="#333"/><path d="m233.46 157.85c3.12 0 4.23 2.09 4.2 5.26h-6.79c0 1.95.74 3.41 2.65 3.41a2.4 2.4 0 0 0 2.49-1.46l1.39.4c-.55 1.44-1.85 2.25-3.88 2.25-3 0-4.31-1.93-4.31-5s1.33-4.86 4.25-4.86zm2.54 4.05c-.16-1.69-.79-2.88-2.54-2.88s-2.52 1.12-2.59 2.88z" fill="#333"/><path d="m247 167.53-2.82-3.9-2.84 3.9h-1.7l3.65-4.88-3.46-4.65h1.75l2.63 3.7 2.62-3.7h1.77l-3.49 4.61 3.69 4.9z" fill="#333"/><path d="m0 112.5h15.33v22.93h-15.33z" fill="none"/><path d="m12 123a13.53 13.53 0 0 1 0 5.84c-.57 1.92-1.66 3.24-4 3.24-3.31 0-4.26-2.64-4.28-6.11a7.46 7.46 0 0 1 1.24-4.84 3.61 3.61 0 0 1 3.04-1.26c2.32 0 3.41 1.23 4 3.13zm-2.85 7.54c1.75-.81 1.79-4.43 1.4-6.9-.23-1.48-.84-2.5-2.49-2.5-2.47 0-2.71 2.25-2.73 4.83a7.26 7.26 0 0 0 .7 3.76 2.13 2.13 0 0 0 2 1 2.56 2.56 0 0 0 1.08-.18zm-2.15-3.54v-2.19h2v2.19z" fill="#333"/><path d="m122.15 112.5h15.33v22.93h-15.33z" fill="none"/><path d="m127.85 125.06a4.24 4.24 0 0 1 2.56-.79 3.76 3.76 0 0 1 3.72 2.24 4.08 4.08 0 0 1 .28 1.5c0 2.68-1.66 4.08-4.39 4.08-2.36 0-3.73-1-4.14-3l1.6-.18a2.33 2.33 0 0 0 2.57 1.83 2.5 2.5 0 0 0 2.72-2.75 2.36 2.36 0 0 0 -2.68-2.47 3.32 3.32 0 0 0 -2.31.88h-1.54l.41-6.4h7v1.28h-5.58" fill="#333"/><path d="m243.21 111.42h15.33v22.92h-15.33z" fill="none"/><path d="m241.71 121a4.67 4.67 0 0 0 4.07-2h1.46v10.59h3.1v1.27h-8.55v-1.27h3.86v-9c-.69 1.09-2.23 1.62-3.94 1.71z" fill="#333"/><path d="m260.57 121.92a13.38 13.38 0 0 1 0 5.84c-.58 1.92-1.67 3.24-4 3.24-3.31 0-4.25-2.64-4.28-6.11a7.5 7.5 0 0 1 1.24-4.84 3.63 3.63 0 0 1 3.1-1.27c2.3 0 3.37 1.22 3.94 3.14zm-2.84 7.54c1.75-.81 1.78-4.43 1.39-6.9-.22-1.48-.84-2.5-2.48-2.5-2.47 0-2.71 2.25-2.74 4.83a7.26 7.26 0 0 0 .71 3.76 2.11 2.11 0 0 0 2 1 2.6 2.6 0 0 0 1.12-.19zm-2.16-3.52v-2.19h2.07v2.19z" fill="#333"/><path d="m363.18 112h15.33v22.92h-15.32z" fill="none"/><path d="m361.68 121.52a4.65 4.65 0 0 0 4.07-2h1.46v10.58h3.11v1.28h-8.56v-1.28h3.86v-9c-.69 1.09-2.23 1.62-3.94 1.7z" fill="#333"/><path d="m374.29 124.52a4.09 4.09 0 0 1 2.56-.79 3.74 3.74 0 0 1 3.71 2.24 3.87 3.87 0 0 1 .28 1.49c0 2.68-1.66 4.08-4.39 4.08-2.36 0-3.73-1-4.14-2.94l1.6-.19a2.34 2.34 0 0 0 2.58 1.84 2.49 2.49 0 0 0 2.71-2.75 2.37 2.37 0 0 0 -2.68-2.48 3.3 3.3 0 0 0 -2.3.89h-1.55l.41-6.4h7v1.27h-5.58" fill="#333"/></svg>
