<svg viewBox="0 0 836.43 411.52" xmlns="http://www.w3.org/2000/svg"><path d="m99.15 160.57h302.3" fill="none" stroke="#333"/><path d="m99.17 161.07h-.52v-1h.52zm317-.5-14.26 4.63v-9.27z" fill="#333"/><path d="m417.82 160.57h-.17v.05l-16.2 5.27v-10.65zm-15.38 3.94 12.13-3.95-12.14-3.95z" fill="#333"/><path d="m125.16 147.46c0 1.25 1.2 1.3 2.2 1v.6c-1.35.8-3.65.75-3.65-1.45v-5.75h-1c-.1-.7.7-.5 1-.75l.9-1.9h.55v1.9h1.9v.75h-1.9z" fill="#333"/><path d="m132 140.86c2.6 0 3.8 1.6 3.8 4.35s-1.2 4.35-3.85 4.35-3.75-1.7-3.75-4.35 1.16-4.35 3.8-4.35zm-.05 8c2 0 2.3-1.75 2.3-3.65s-.35-3.65-2.3-3.65-2.2 1.7-2.2 3.65.3 3.6 2.2 3.65" fill="#333"/><path d="m139.46 145.36 3.4-3.65c-.35-.15-1 0-.85-.6h2.9c.15.65-.65.45-1 .6l-2.35 2.4 3 4.65c.35.15 1.05 0 .9.6h-3.4c-.15-.6.45-.45.75-.6l-2.25-3.55-1.1 1.15v2.4c.35.15 1 0 .9.6h-3.36v-.36l1-.2v-11.3l-1.2-.2v-.4h2.65z" fill="#333"/><path d="m149.66 140.86c2.45 0 3.3 1.65 3.15 4.35h-5.05c-.4 3 1.9 4 4.75 3.15v.5a5.33 5.33 0 0 1 -2.65.7c-2.7 0-3.7-1.65-3.7-4.4s1.1-4.3 3.5-4.3zm1.65 3.65c.6-2.85-2.85-4.1-3.45-1.2a8.3 8.3 0 0 0 -.1 1.2z" fill="#333"/><path d="m159.66 143.46c.2-1.85-2-1.7-3.4-1.3v6.6l1.15.2v.4h-3.6c-.15-.65.65-.45 1-.6v-7c-.35-.15-1.15 0-1-.6h2.35l.1.65c1.55-1.15 4.9-1.45 4.9 1.55v5.45c.35.15 1.15 0 1 .6h-3.6v-.41l1.1-.2z" fill="#333"/><path d="m164.76 139.36c-1.15 0-1.25-2 0-1.9.65 0 .9.35 1 .95a1 1 0 0 1 -1 .95zm.9 9.4 1.4.2v.4h-4.25v-.36l1.4-.2v-7l-1.2-.2v-.4h2.65z" fill="#333"/><path d="m167.91 149.36v-.36l4.5-7.15c-1.15.1-2.7-.2-3.5.3-.25.4.05 1.3-.7 1.2v-2.2h6.1v.4l-4.55 7.15c1.45-.1 3.25.15 4.3-.4l.45-1.75h.4l-.25 2.85z" fill="#333"/><path d="m179.56 140.86c2.45 0 3.3 1.65 3.15 4.35h-5.05c-.4 3 1.9 4 4.75 3.15v.5a5.33 5.33 0 0 1 -2.65.7c-2.7 0-3.7-1.65-3.7-4.4s1.1-4.3 3.5-4.3zm1.65 3.65c.6-2.85-2.85-4.1-3.45-1.2a8.3 8.3 0 0 0 -.1 1.2z" fill="#333"/><path d="m185.91 143.61c0 4.65 4 6.5 7.5 4.35l.35-1.75h.55l-.05 2.75a14.54 14.54 0 0 1 -4.15.6c-3.8 0-5.85-2.05-6.05-5.95-.25-5.65 4.85-7.05 10.05-5.7v2.55h-.6l-.25-1.5a6.45 6.45 0 0 0 -3.1-.8c-3.3 0-4.3 2.05-4.3 5.45" fill="#333"/><path d="m199.81 140.86c2.6 0 3.8 1.6 3.8 4.35s-1.2 4.35-3.85 4.35-3.75-1.7-3.75-4.35 1.2-4.35 3.8-4.35zm-.05 8c2 0 2.3-1.75 2.3-3.65s-.35-3.65-2.3-3.65-2.2 1.7-2.2 3.65.3 3.6 2.2 3.65" fill="#333"/><path d="m210.61 143.46c.2-1.85-2.1-1.6-3.4-1.25v6.55l1.2.2v.4h-3.7c-.15-.65.65-.45 1-.6v-7c-.35-.15-1.15 0-1-.6h2.4v.65c1.1-.75 3.85-1.5 4.6.1 1.6-1.1 5.2-1.8 5.2 1.45v5.45c.4.15 1.2-.1 1 .6h-3.75v-.41l1.25-.2v-5.3c.15-2-2.25-1.55-3.6-1.2.35 1.85.05 4.4.15 6.5l1.25.2v.4h-3.9v-.4l1.2-.2z" fill="#333"/><path d="m224.61 143.46c.2-1.85-2.1-1.6-3.4-1.25v6.55l1.2.2v.4h-3.7c-.15-.65.65-.45 1-.6v-7c-.35-.15-1.15 0-1-.6h2.4v.65c1.1-.75 3.85-1.5 4.6.1 1.6-1.1 5.2-1.8 5.2 1.45v5.45c.4.15 1.2-.1 1 .6h-3.75v-.41l1.25-.2v-5.3c.15-2-2.25-1.55-3.6-1.2.35 1.85.05 4.4.15 6.5l1.25.2v.4h-3.9v-.4l1.2-.2z" fill="#333"/><path d="m233.91 141.21c2.05-.5 5.1-.7 5.1 1.95v5.6c.4.15 1.2-.1 1.05.6h-2.25l-.2-.85c-1.15 1.5-5.15 1.5-4.65-1.45-.1-2.5 2.25-2.5 4.6-2.55.2-1.8-.25-3.5-2.1-2.8a6.89 6.89 0 0 0 -.8.3c-.2.35 0 1.15-.75 1zm.5 5.8c0 2.05 2.05 1.65 3.15 1.1v-3c-1.7.05-3.15 0-3.15 1.85" fill="#333"/><path d="m246.51 143.46c.2-1.85-2-1.7-3.4-1.3v6.6l1.15.2v.4h-3.6c-.15-.65.65-.45 1-.6v-7c-.35-.15-1.15 0-1-.6h2.34l.1.65c1.55-1.15 4.9-1.45 4.9 1.55v5.45c.35.15 1.15 0 1 .6h-3.6v-.41l1.1-.2z" fill="#333"/><path d="m249.91 145.31c0-3.55 2.3-5.05 5.7-4.25l-.05-3.6-1.4-.2v-.4h2.84v11.9c.4.15 1.2-.1 1.05.6h-2.35l-.1-.6c-2.34 1.75-5.69.55-5.69-3.45zm3.85-3.7c-1.85 0-2.2 1.65-2.25 3.7 0 1.9.45 3.3 2.25 3.3a4.61 4.61 0 0 0 1.8-.35v-6.5c-.5 0-1.2-.15-1.8-.15" fill="#333"/><path d="m263.66 137.61c-2.6 1.4-3.1 4.75-2.9 8.9.15 2.8 1.05 4.85 2.9 6v.75c-5.05-1.4-6.25-11.5-2.05-15a10.4 10.4 0 0 1 2.05-1.35z" fill="#333"/><path d="m268.71 137.56h1.75l-.55 4.25h-.65zm-3.4 0h1.75l-.55 4.25h-.65" fill="#333"/><path d="m272.16 145.31c0-3.55 2.3-5.05 5.7-4.25l-.05-3.6-1.4-.2v-.4h2.85v11.9c.4.15 1.2-.1 1.05.6h-2.31l-.1-.6c-2.39 1.75-5.74.55-5.74-3.45zm3.85-3.7c-1.85 0-2.2 1.65-2.25 3.7 0 1.9.45 3.3 2.25 3.3a4.61 4.61 0 0 0 1.8-.35v-6.5c-.5 0-1.2-.15-1.8-.15" fill="#333"/><path d="m284.71 140.86c2.45 0 3.3 1.65 3.15 4.35h-5.05c-.4 3 1.9 4 4.75 3.15v.5a5.33 5.33 0 0 1 -2.65.7c-2.7 0-3.7-1.65-3.7-4.4s1.1-4.3 3.5-4.3zm1.65 3.65c.6-2.85-2.85-4.1-3.45-1.2a8.3 8.3 0 0 0 -.1 1.2z" fill="#333"/><path d="m291.71 148.76 1.4.2v.4h-4.3v-.36l1.4-.2v-11.3l-1.4-.2v-.4h2.9z" fill="#333"/><path d="m297.66 140.86c2.45 0 3.3 1.65 3.15 4.35h-5.05c-.4 3 1.9 4 4.75 3.15v.5a5.33 5.33 0 0 1 -2.65.7c-2.7 0-3.7-1.65-3.7-4.4s1.1-4.3 3.5-4.3zm1.65 3.65c.6-2.85-2.85-4.1-3.45-1.2a8.3 8.3 0 0 0 -.1 1.2z" fill="#333"/><path d="m304.11 147.46c-.05 1.25 1.2 1.3 2.2 1v.6c-1.35.8-3.65.75-3.65-1.45v-5.75h-1.05c-.1-.7.7-.5 1.05-.75l.9-1.9h.55v1.9h1.89v.75h-1.9z" fill="#333"/><path d="m310.61 140.86c2.45 0 3.3 1.65 3.15 4.35h-5.05c-.4 3 1.9 4 4.75 3.15v.5a5.33 5.33 0 0 1 -2.65.7c-2.7 0-3.7-1.65-3.7-4.4s1.1-4.3 3.5-4.3zm1.65 3.65c.6-2.85-2.85-4.1-3.45-1.2a8.3 8.3 0 0 0 -.1 1.2z" fill="#333"/><path d="m322.66 145.11c.15 3.35-2.2 5.1-5.55 4.25l.05 3.2 1.45.2v.45h-3.95v-.45l1-.2v-10.85c-.35-.15-1.1 0-.95-.6h2.3l.05.45a3.77 3.77 0 0 1 2.25-.7c2.4.14 3.25 1.8 3.35 4.25zm-5.5 3.6c2.65.7 4.15-.7 3.9-3.6.35-2.65-1.65-4-3.9-3z" fill="#333"/><path d="m327.56 140.86c2.45 0 3.3 1.65 3.15 4.35h-5c-.4 3 1.9 4 4.75 3.15v.5a5.33 5.33 0 0 1 -2.65.7c-2.7 0-3.7-1.65-3.7-4.4s1.05-4.3 3.45-4.3zm1.65 3.65c.6-2.85-2.85-4.1-3.45-1.2a8.3 8.3 0 0 0 -.1 1.2z" fill="#333"/><path d="m334.16 142.11a6.08 6.08 0 0 1 3-1.25v2.25c-1 0-.4-1.5-2-.85l-1 .3v6.2l1.45.2v.4h-3.95v-.36l1-.2v-7c-.4-.15-1.2.1-1-.6h2.4" fill="#333"/><path d="m339.31 142.86c.35 2.4 4.3 1.15 4.3 4.2 0 2.8-3.45 2.85-5.6 2.05v-2c1 0 .45 1.45 1.55 1.55 1.75 1 3.85-1.3 2.05-2.5-1.35-.9-3.6-.65-3.6-2.95 0-2.5 2.9-2.6 5-2.05v1.84c-.95 0-.4-1.25-1.4-1.25-1.05-.35-2.5-.05-2.3 1.15" fill="#333"/><path d="m348.76 140.86c2.6 0 3.8 1.6 3.8 4.35s-1.2 4.35-3.85 4.35-3.75-1.7-3.75-4.35 1.2-4.35 3.8-4.35zm-.05 8c2 0 2.3-1.75 2.3-3.65s-.35-3.65-2.3-3.65-2.2 1.7-2.2 3.65.3 3.6 2.2 3.65" fill="#333"/><path d="m359.51 143.46c.2-1.85-2.05-1.7-3.4-1.3v6.6l1.15.2v.4h-3.6c-.15-.65.65-.45 1-.6v-7c-.35-.15-1.15 0-1-.6h2.34l.1.65c1.55-1.15 4.9-1.45 4.9 1.55v5.45c.35.15 1.15 0 1 .6h-3.6v-.41l1.1-.2z" fill="#333"/><path d="m373 143.46c.2-1.85-2.05-1.7-3.4-1.3v6.6l1.15.2v.4h-3.6c-.15-.65.65-.45 1-.6v-7c-.35-.15-1.15 0-1-.6h2.35l.1.65c1.55-1.15 4.9-1.45 4.9 1.55v5.45c.35.15 1.15 0 1 .6h-3.6v-.41l1.1-.2z" fill="#333"/><path d="m376.66 149.56h-.9l4.15-12.05h.85" fill="#333"/><path d="m385.26 137.56h1.74l-.55 4.25h-.65zm-3.4 0h1.75l-.55 4.25h-.65" fill="#333"/><path d="m388.66 136.86c5 1.4 6.25 11.55 2 14.95a10.13 10.13 0 0 1 -2 1.4v-.75c2.2-1.25 2.9-3.9 2.9-7.45s-.65-6.15-2.9-7.4z" fill="#333"/><path d="m417.32 221.53h-302.32" fill="none"/><path d="m417.32 221.53h-4.82m-4.82 0h-9.68m-4.83 0h-9.64m-4.82 0h-9.64m-4.82 0h-9.64m-4.82 0h-9.64m-4.82 0h-9.64m-4.82 0h-9.64m-4.83 0h-9.65m-4.82 0h-9.64m-4.83 0h-9.64m-4.82 0h-9.6m-4.76 0h-9.55m-4.78 0h-9.51m-4.77 0h-9.55m-4.77 0h-9.54m-4.78 0h-9.54m-4.78 0h-9.54m-4.78 0h-9.54m-4.78 0h-9.54m-4.78 0h-9.54m-4.78 0h-4.79" fill="none" stroke="#333"/><path d="m417.65 221.53h3.17v.5h-3.5v-1h.33zm-303.1 4.64-14.28-4.64 14.27-4.63z" fill="#333"/><path d="m115.05 226.87-16.4-5.34 16.4-5.32zm-13.16-5.34 12.11 3.95v-7.88z" fill="#333"/><path d="m199.21 206.13c0 3.2 2.6 4 5.2 3.15.05 1.25-1.5 1.25-2.75 1.25-2.8 0-4-1.6-4-4.4 0-3.8 3.1-4.9 6.55-4v2.3h-.5c-.25-.75-.2-1.55-1.15-1.75-2.35-.5-3.35 1-3.35 3.45" fill="#333"/><path d="m209.41 201.83c2.6 0 3.8 1.6 3.8 4.35s-1.2 4.35-3.85 4.35-3.75-1.7-3.75-4.35 1.2-4.35 3.8-4.35zm0 8c1.95 0 2.3-1.75 2.3-3.65s-.35-3.65-2.3-3.65-2.2 1.7-2.2 3.65.3 3.6 2.2 3.65" fill="#333"/><path d="m220.21 204.43c.2-1.85-2.1-1.6-3.4-1.25v6.55l1.2.2v.4h-3.7c-.15-.65.65-.45 1-.6v-7c-.35-.15-1.15 0-1-.6h2.4v.65c1.1-.75 3.85-1.5 4.6.1 1.6-1.1 5.2-1.8 5.2 1.45v5.45c.4.15 1.2-.1 1.05.6h-3.75v-.4l1.25-.2v-5.3c.15-2-2.25-1.55-3.6-1.2.35 1.85.05 4.4.15 6.5l1.25.2v.4h-3.86v-.4l1.2-.2z" fill="#333"/><path d="m234.21 204.43c.2-1.85-2.1-1.6-3.4-1.25v6.55l1.2.2v.4h-3.7c-.15-.65.65-.45 1-.6v-7c-.35-.15-1.15 0-1-.6h2.4v.65c1.1-.75 3.85-1.5 4.6.1 1.6-1.1 5.2-1.8 5.2 1.45v5.45c.4.15 1.2-.1 1.05.6h-3.75v-.4l1.25-.2v-5.3c.15-2-2.25-1.55-3.6-1.2.35 1.85.05 4.4.15 6.5l1.25.2v.4h-3.86v-.4l1.2-.2z" fill="#333"/><path d="m243.51 202.18c2.05-.5 5.1-.7 5.1 1.95v5.6c.4.15 1.2-.1 1 .6h-2.25l-.2-.85c-1.15 1.5-5.15 1.5-4.65-1.45-.1-2.5 2.25-2.5 4.6-2.55.2-1.8-.25-3.5-2.1-2.8a6.89 6.89 0 0 0 -.8.3c-.2.35 0 1.15-.75 1zm.5 5.8c0 2.05 2.05 1.65 3.15 1.1v-3c-1.7.05-3.15 0-3.15 1.85" fill="#333"/><path d="m256.11 204.43c.2-1.85-2.05-1.7-3.4-1.3v6.6l1.15.2v.4h-3.6c-.15-.65.65-.45 1-.6v-7c-.35-.15-1.15 0-1-.6h2.35l.1.65c1.55-1.15 4.9-1.45 4.9 1.55v5.45c.35.15 1.15 0 1 .6h-3.61v-.4l1.1-.2z" fill="#333"/><path d="m259.51 206.28c0-3.55 2.3-5.05 5.7-4.25v-3.6l-1.4-.2v-.4h2.85v11.9c.4.15 1.2-.1 1.05.6h-2.35l-.1-.6c-2.4 1.75-5.75.55-5.75-3.45zm3.85-3.7c-1.85 0-2.2 1.65-2.25 3.7 0 1.9.45 3.3 2.25 3.3a4.61 4.61 0 0 0 1.8-.35v-6.5c-.5 0-1.2-.15-1.8-.15" fill="#333"/><path d="m270.61 210.33v-.45l1.9-.25v-10.35a24.94 24.94 0 0 0 -3.5.2l-.25 1.85h-.55v-2.8h10.35v2.8h-.56l-.25-1.85-3.5-.15v10.3l1.85.25v.45z" fill="#333"/><path d="m282.06 201.83c2.6 0 3.8 1.6 3.8 4.35s-1.2 4.35-3.85 4.35-3.75-1.7-3.75-4.35 1.2-4.35 3.8-4.35zm-.05 8c1.95 0 2.3-1.75 2.3-3.65s-.35-3.65-2.3-3.65-2.2 1.7-2.2 3.65.3 3.6 2.2 3.65" fill="#333"/><path d="m289.56 206.33 3.4-3.65c-.35-.15-1 0-.85-.6h2.89c.15.65-.65.45-1 .6l-2.35 2.4 3 4.65c.35.15 1 0 .9.6h-3.4c-.15-.6.45-.45.75-.6l-2.25-3.55-1.1 1.15v2.4c.35.15 1.05 0 .9.6h-3.4v-.4l1.05-.2v-11.3l-1.2-.2v-.4h2.65z" fill="#333"/><path d="m299.76 201.83c2.45 0 3.3 1.65 3.15 4.35h-5.05c-.4 3 1.9 4 4.75 3.15v.5a5.33 5.33 0 0 1 -2.65.7c-2.7 0-3.7-1.65-3.7-4.4s1.1-4.3 3.5-4.3zm1.65 3.65c.6-2.85-2.85-4.1-3.45-1.2a8.3 8.3 0 0 0 -.1 1.2z" fill="#333"/><path d="m309.76 204.43c.2-1.85-2.05-1.7-3.4-1.3v6.6l1.15.2v.4h-3.6c-.15-.65.65-.45 1-.6v-7c-.35-.15-1.15 0-1-.6h2.35l.1.65c1.55-1.15 4.9-1.45 4.9 1.55v5.45c.35.15 1.15 0 1 .6h-3.6v-.4l1.1-.2z" fill="#333"/><path d="m314.56 203.83c.35 2.4 4.3 1.15 4.3 4.2 0 2.8-3.45 2.85-5.6 2.05v-2c1 0 .45 1.45 1.55 1.55 1.75 1 3.85-1.3 2.05-2.5-1.35-.9-3.6-.65-3.6-2.95 0-2.5 2.9-2.6 5-2.05v1.8c-.95 0-.4-1.25-1.4-1.25-1.05-.35-2.5-.05-2.3 1.15" fill="#333"/><path d="m360.5.72h155.3v100h-155.3z" fill="#83bbe5" stroke="#333"/><path d="m401.16 37.5v-.45l8.35-4.1v.9l-7.1 3.4 7.1 3.45v.9" fill="#333"/><path d="m411.31 37.5v-.45l8.35-4.1v.9l-7.1 3.4 7.1 3.45v.9" fill="#333"/><path d="m422.81 39.05c0 3.2 2.6 4 5.2 3.15.05 1.25-1.5 1.25-2.75 1.25-2.8 0-4-1.6-4-4.4 0-3.8 3.1-4.9 6.55-4v2.3h-.5c-.25-.75-.2-1.55-1.15-1.75-2.35-.5-3.35 1-3.35 3.45" fill="#333"/><path d="m431.76 42.65 1.4.2v.4h-4.3v-.4l1.4-.2v-11.3l-1.4-.2v-.4h2.9z" fill="#333"/><path d="m435.11 35.1c2.05-.5 5.1-.7 5.1 1.95v5.6c.4.15 1.2-.1 1.05.6h-2.26l-.2-.85c-1.15 1.5-5.15 1.5-4.65-1.45-.1-2.5 2.25-2.5 4.6-2.55.2-1.8-.25-3.5-2.1-2.8a6.89 6.89 0 0 0 -.8.3c-.2.35 0 1.15-.75 1zm.5 5.8c0 2.05 2.05 1.65 3.15 1.1v-3c-1.7.05-3.15 0-3.15 1.85" fill="#333"/><path d="m443.51 36.75c.35 2.4 4.3 1.15 4.3 4.2 0 2.8-3.45 2.85-5.6 2v-1.95c1 0 .45 1.45 1.55 1.55 1.75 1 3.85-1.3 2.05-2.5-1.35-.9-3.6-.65-3.6-2.95 0-2.5 2.9-2.6 5-2.05v1.8c-.95 0-.4-1.25-1.4-1.25-1.05-.35-2.5-.05-2.3 1.15" fill="#333"/><path d="m450.51 36.75c.35 2.4 4.3 1.15 4.3 4.2 0 2.8-3.45 2.85-5.6 2v-1.95c1 0 .45 1.45 1.55 1.55 1.75 1 3.85-1.3 2.05-2.5-1.35-.9-3.6-.65-3.6-2.95 0-2.5 2.9-2.6 5-2.05v1.8c-.95 0-.4-1.25-1.4-1.25-1.05-.35-2.5-.05-2.3 1.15" fill="#333"/><path d="m456.36 41.6v-.9l7.1-3.45-7.1-3.4v-.85l8.4 4.1v.45" fill="#333"/><path d="m466.51 41.6v-.9l7.1-3.45-7.1-3.4v-.85l8.4 4.1v.45" fill="#333"/><path d="m380.23 64.85v-.45l1.9-.25v-10.35a24.94 24.94 0 0 0 -3.5.2l-.25 1.85h-.55v-2.8h10.35v2.8h-.6l-.25-1.85-3.5-.15v10.3l1.85.25v.45z" fill="#333"/><path d="m390.13 54.85c-1.15 0-1.25-2 0-1.9.65 0 .9.35 1 .95a1 1 0 0 1 -1 .95zm.9 9.4 1.4.2v.4h-4.25v-.4l1.4-.2v-7l-1.2-.2v-.4h2.62z" fill="#333"/><path d="m399.08 59c.2-1.85-2.1-1.6-3.4-1.25v6.55l1.2.2v.4h-3.7c-.15-.65.65-.45 1-.6v-7c-.35-.15-1.15 0-1-.6h2.4l.05.65c1.1-.75 3.85-1.5 4.6.1 1.6-1.1 5.2-1.8 5.2 1.45v5.45c.4.15 1.2-.1 1.05.6h-3.75v-.4l1.25-.2v-5.35c.15-2-2.25-1.55-3.6-1.2.35 1.85.05 4.4.15 6.5l1.25.2v.4h-3.9v-.4l1.2-.2z" fill="#333"/><path d="m411 56.35c2.45 0 3.3 1.65 3.15 4.35h-5.05c-.4 3 1.9 4 4.75 3.15v.5a5.33 5.33 0 0 1 -2.65.7c-2.7 0-3.7-1.65-3.7-4.4s1.08-4.3 3.5-4.3zm1.63 3.65c.6-2.85-2.85-4.1-3.45-1.2a8.3 8.3 0 0 0 -.1 1.2z" fill="#333"/><path d="m418.48 58.3c2.5.1 4.65.15 4.65-2.4 0-2.3-2.4-2-4.65-2zm0 5.75c2.75.2 5.55.3 5.55-2.55 0-2.65-2.9-2.4-5.55-2.4zm7.4-2.6c0 4.6-6.05 3.25-10.65 3.4v-.45l1.55-.25v-10.4l-1.55-.2v-.5c3.85.3 9.65-1.2 9.7 2.8a2.6 2.6 0 0 1 -2.4 2.7c1.8.25 3.35 1 3.35 2.9" fill="#333"/><path d="m431.23 56.35c2.6 0 3.8 1.6 3.8 4.35s-1.2 4.35-3.85 4.35-3.75-1.7-3.75-4.35 1.2-4.35 3.8-4.35zm-.05 8c1.95 0 2.3-1.75 2.3-3.65s-.35-3.65-2.3-3.65-2.2 1.7-2.2 3.65.3 3.6 2.2 3.65" fill="#333"/><path d="m440.23 56.35c2.6 0 3.8 1.6 3.8 4.35s-1.2 4.35-3.85 4.35-3.75-1.7-3.75-4.35 1.2-4.35 3.8-4.35zm-.05 8c1.95 0 2.3-1.75 2.3-3.65s-.35-3.65-2.3-3.65-2.2 1.7-2.2 3.65.3 3.6 2.2 3.65" fill="#333"/><path d="m447.73 60.85 3.4-3.65c-.35-.15-1 0-.85-.6h2.9c.15.65-.65.45-1 .6l-2.35 2.4 3 4.65c.35.15 1.05 0 .9.6h-3.4c-.15-.6.45-.45.75-.6l-2.25-3.55-1.1 1.15v2.4c.35.15 1 0 .9.6h-3.4v-.4l1-.2v-11.25l-1.2-.2v-.4h2.65z" fill="#333"/><path d="m457.48 59.45c2.4.15 3.8-.6 3.8-2.9s-1.4-2.85-3.8-2.7zm5.55-2.9c0 3-2.3 3.9-5.55 3.7v3.9l1.85.25v.45h-4.95v-.45l1.4-.25v-10.4l-1.55-.2v-.5c4 .05 8.9-.7 8.8 3.5" fill="#333"/><path d="m465.33 56.7c2.05-.5 5.1-.7 5.1 1.95v5.6c.4.15 1.2-.1 1.05.6h-2.25l-.23-.85c-1.15 1.5-5.15 1.5-4.65-1.45-.1-2.5 2.25-2.5 4.6-2.55.2-1.8-.25-3.5-2.1-2.8a6.89 6.89 0 0 0 -.8.3c-.2.35 0 1.15-.75 1zm.5 5.8c0 2 2.05 1.65 3.15 1.1v-3c-1.7.05-3.15 0-3.15 1.85" fill="#333"/><path d="m474.53 57.6a6.08 6.08 0 0 1 3-1.25v2.25c-.95 0-.4-1.5-2-.85l-1 .3v6.2l1.45.2v.4h-4v-.4l1.05-.2v-7c-.4-.15-1.2.1-1.05-.6h2.4" fill="#333"/><path d="m479.68 58.35c.35 2.4 4.3 1.15 4.3 4.2 0 2.8-3.45 2.85-5.6 2v-2c1 0 .45 1.45 1.55 1.55 1.75.95 3.85-1.3 2.05-2.5-1.35-.9-3.6-.65-3.6-2.95 0-2.5 2.9-2.6 5-2.05v1.8c-.95 0-.4-1.25-1.4-1.25-1.05-.35-2.5-.05-2.3 1.15" fill="#333"/><path d="m488.83 56.35c2.45 0 3.3 1.65 3.15 4.35h-5.05c-.4 3 1.9 4 4.75 3.15v.5a5.33 5.33 0 0 1 -2.65.7c-2.7 0-3.7-1.65-3.7-4.4s1.1-4.3 3.5-4.3zm1.65 3.65c.6-2.85-2.85-4.1-3.45-1.2a8.3 8.3 0 0 0 -.1 1.2z" fill="#333"/><path d="m495.43 57.6a6.08 6.08 0 0 1 3-1.25v2.25c-.95 0-.4-1.5-2-.85l-1 .3v6.2l1.45.2v.4h-3.95v-.4l1.05-.2v-7c-.4-.15-1.2.1-1.05-.6h2.4" fill="#333"/><path d="m438.15 101.72v308.65" fill="none"/><path d="m438.15 101.72v4.9m0 4.9v9.8m0 4.9v9.78m0 4.9v9.8m0 4.9v9.8m0 4.9v9.8m0 4.9v9.8m0 4.9v9.8m0 4.88v9.8m0 4.9v9.8m0 4.9v9.8m0 4.9v9.8m0 4.9v9.82m0 4.9v9.8m0 4.9v9.8m0 4.9v9.8m0 4.9v9.78m0 4.9v9.8m0 4.9v9.8m0 4.9v9.8m0 4.9v9.8m0 4.9v4.9" fill="none" stroke="#333"/><path d="m438.65 101.74h-1v-.52h1z" fill="#333"/><path d="m438.15 410.37v.5" fill="none" stroke="#333"/><path d="m418.15 161.07h40v60h-40z" fill="#83bbe5" stroke="#333"/><path d="m78.15 101.72v287.15" fill="none"/><path d="m78.15 101.72v5m0 5v10.07m0 5v10.21m0 5v10.08m0 5v10.12m0 5v10.08m0 5v10.07m0 5v10.08m0 5v10.07m0 5v10.08m0 5.05v10.07m0 5v10.3m0 5v10.08m0 5v10.08m0 5v10.07m0 5v10.1m0 5v10.08m0 5v10.07m0 5.05v10.27m0 5v5" fill="none" stroke="#333"/><path d="m78.65 101.74h-1v-.52h1z" fill="#333"/><path d="m78.15 388.87v.5" fill="none" stroke="#333"/><path d="m58.15 88.87h40v320h-40z" fill="#83bbe5" stroke="#333"/><path d="m.5.72h155.3v100h-155.3z" fill="#83bbe5" stroke="#333"/><path d="m17.08 53.9a1 1 0 0 1 1.05 1.1 1 1 0 0 1 -1.05 1 1 1 0 0 1 -1.08-1 1 1 0 0 1 1.08-1.1zm0-6.6a1 1 0 0 1 1.05 1.05 1 1 0 0 1 -1.05 1.1 1 1 0 0 1 -1.1-1.1 1 1 0 0 1 1.1-1.05" fill="#333"/><path d="m28.48 52.35c0 3.95-4.75 4.1-7.7 2.95v-2.7h.6c.05 1.75 1.1 2.6 3 2.6 2.5 0 3.45-2.9 1.65-4.1-2-1.2-5.25-1.05-5.25-4.25 0-3.35 4.3-3.3 7.1-2.65v2.45h-.6l-.28-1.45c-1.55-1.35-6.05-.35-4.45 2.1 1.4 2.15 5.95 1.2 5.95 5.05" fill="#333"/><path d="m35.78 55.1c-1.75 1-4.9 1.4-4.9-1.6v-5.4c-.4-.15-1.2.1-1.05-.6h2.5v5.9c-.15 1.85 2.1 1.6 3.45 1.25v-6.55l-1.25-.2v-.4h2.7v7.65c.4.15 1.2-.1 1.05.6h-2.4" fill="#333"/><path d="m45.63 48.15a3.05 3.05 0 0 1 -2.7 4.85 10.11 10.11 0 0 1 -1.35-.15l-.58 1.15c1.45 1.1 6.5-.7 6.2 2.6-.2 2.25-1.9 2.85-4.4 3-3.2.25-4.65-2.6-2-4a1.61 1.61 0 0 1 -1.2-1.45l1.4-1.5a2.54 2.54 0 0 1 -1.4-2.55c-.1-2.55 2.65-3.25 5-2.6l1.9-1 .35.4zm-2.8 10.85c1.75 0 3.05-.55 3.05-2.1 0-1.75-2.85-.85-4.45-1.05a2.43 2.43 0 0 0 -.85 1.7c0 1.2.95 1.45 2.25 1.45zm-1.65-8.9c0 1.3.35 2.3 1.75 2.2s1.7-.8 1.75-2.2-.3-2.1-1.68-2.1-1.8.85-1.8 2.15" fill="#333"/><path d="m54.63 48.15a3.05 3.05 0 0 1 -2.7 4.85 10.11 10.11 0 0 1 -1.35-.15l-.58 1.15c1.45 1.1 6.5-.7 6.2 2.6-.2 2.25-1.9 2.85-4.4 3-3.2.25-4.65-2.6-2-4a1.61 1.61 0 0 1 -1.2-1.45l1.4-1.5a2.54 2.54 0 0 1 -1.4-2.55c-.1-2.55 2.65-3.25 5-2.6l1.9-1 .35.4zm-2.8 10.85c1.75 0 3.05-.55 3.05-2.1 0-1.75-2.85-.85-4.45-1.05a2.43 2.43 0 0 0 -.85 1.7c0 1.2.95 1.45 2.25 1.45zm-1.65-8.9c0 1.3.35 2.3 1.75 2.2s1.7-.8 1.75-2.2-.3-2.1-1.68-2.1-1.8.85-1.8 2.15" fill="#333"/><path d="m60.78 47.25c2.45 0 3.3 1.65 3.15 4.35h-5c-.4 3 1.9 4 4.75 3.15v.5a5.33 5.33 0 0 1 -2.68.75c-2.7 0-3.7-1.65-3.7-4.4s1.08-4.35 3.48-4.35zm1.65 3.65c.6-2.85-2.85-4.1-3.45-1.2a8.3 8.3 0 0 0 -.1 1.2z" fill="#333"/><path d="m66.58 49.25c.35 2.4 4.3 1.15 4.3 4.2 0 2.8-3.45 2.85-5.6 2v-2c1 0 .45 1.45 1.55 1.55 1.75 1 3.85-1.3 2-2.5-1.35-.9-3.6-.65-3.6-2.95 0-2.5 2.9-2.6 5-2.05v1.8c-1 0-.4-1.25-1.4-1.25-1-.35-2.5-.05-2.3 1.15" fill="#333"/><path d="m74.23 53.85c0 1.25 1.2 1.3 2.2 1v.6c-1.35.8-3.65.75-3.65-1.45v-5.75h-1c-.1-.7.7-.5 1-.75l.9-1.9h.55v1.9h1.9v.75h-1.9z" fill="#333"/><path d="m78.88 45.75c-1.15 0-1.25-2 0-1.9.65 0 .9.35 1 .95a1 1 0 0 1 -1 .95zm.9 9.4 1.4.2v.4h-4.25v-.4l1.4-.2v-7l-1.2-.2v-.4h2.65z" fill="#333"/><path d="m86 47.25c2.6 0 3.8 1.6 3.8 4.35s-1.17 4.4-3.8 4.4-3.75-1.7-3.75-4.35 1.18-4.4 3.75-4.4zm0 8c2 0 2.3-1.75 2.3-3.65s-.37-3.6-2.3-3.6-2.2 1.7-2.2 3.65.3 3.6 2.2 3.65" fill="#333"/><path d="m96.78 49.85c.2-1.85-2-1.7-3.4-1.3v6.6l1.15.2v.4h-3.6c-.15-.65.65-.45 1-.6v-7c-.35-.15-1.15 0-1-.6h2.35l.1.65c1.55-1.15 4.9-1.45 4.9 1.55v5.45c.35.15 1.15 0 1 .6h-3.6v-.4l1.1-.2z" fill="#333"/><path d="m105.08 44.45-1.8.2v10.35a32.79 32.79 0 0 0 5-.2l.55-2.45h.55l-.15 3.4h-9.23v-.45l1.55-.25v-10.4l-1.55-.2v-.45h5z" fill="#333"/><path d="m115 47.25c2.6 0 3.8 1.6 3.8 4.35s-1.22 4.4-3.87 4.4-3.75-1.7-3.75-4.35 1.2-4.4 3.82-4.4zm0 8c1.95 0 2.3-1.75 2.3-3.65s-.35-3.65-2.3-3.65-2.2 1.7-2.2 3.65.3 3.6 2.2 3.65" fill="#333"/><path d="m126.53 48.15a3.05 3.05 0 0 1 -2.7 4.85 10.11 10.11 0 0 1 -1.35-.15l-.55 1.15c1.45 1.1 6.5-.7 6.2 2.6-.2 2.25-1.9 2.85-4.4 3-3.2.25-4.65-2.6-2-4a1.61 1.61 0 0 1 -1.2-1.45l1.4-1.55a2.54 2.54 0 0 1 -1.4-2.55c-.1-2.55 2.65-3.25 5-2.6l1.9-1 .35.4zm-2.8 10.85c1.75 0 3-.55 3-2.1 0-1.75-2.85-.85-4.45-1.05a2.43 2.43 0 0 0 -.85 1.7c.05 1.2 1 1.45 2.3 1.45zm-1.65-8.85c0 1.3.35 2.3 1.75 2.2s1.7-.8 1.75-2.2-.3-2.15-1.7-2.15-1.8.85-1.8 2.15" fill="#333"/><path d="m130.83 45.75c-1.15 0-1.25-2 0-1.9.65 0 .9.35 1 .95a1 1 0 0 1 -1 .95zm.9 9.4 1.4.2v.4h-4.25v-.4l1.4-.2v-7l-1.2-.2v-.4h2.65z" fill="#333"/><path d="m135.73 51.55c0 3.2 2.6 4 5.2 3.15 0 1.25-1.5 1.25-2.75 1.25-2.8 0-4-1.6-4-4.4 0-3.8 3.1-4.9 6.55-4v2.3h-.5c-.25-.75-.2-1.55-1.15-1.75-2.35-.5-3.35 1-3.35 3.45" fill="#333"/><path d="m545.31.5h281.9v410.5h-281.9z" fill="none"/><path d="m573.5.5h-28.2v410.5h28.2" fill="none" stroke="#333"/><path d="m574.43 8.7c-3.1 0-3.9 2.15-3.9 5.3s.8 5.4 3.9 5.4 3.9-2.25 3.9-5.4-.8-5.3-3.9-5.3zm0 11.4c-3.85 0-5.75-2.15-5.75-6.1s1.85-6 5.75-6 5.75 2.1 5.75 6-1.9 6.1-5.75 6.1" fill="#333"/><path d="m583.53 19.2c2.9.6 4.1-.75 4.1-3.65 0-2.6-1.75-3.85-4.1-2.9zm1.8.9a8.93 8.93 0 0 1 -3.25-.65v-11.45l-1.2-.2v-.4h2.65v4.7c2.4-1.65 5.7-.2 5.7 3.45 0 2.85-1.15 4.55-3.85 4.55" fill="#333"/><path d="m592.38 8c1.4 0 1.1 1.9 0 1.9-.5-.1-1-.35-1-1s.4-.85 1-.9zm-2.38 14.8c1.2.75 1.75-.5 1.75-2.1v-8.45l-1.25-.2v-.4h2.7v8.6c.2 2.55-1.4 4.05-3.85 3.3v-1.75c.65-.1.45.65.65 1" fill="#333"/><path d="m599.08 11.4c2.45 0 3.3 1.65 3.15 4.35h-5.05c-.4 3 1.9 4 4.75 3.15v.5a5.33 5.33 0 0 1 -2.65.7c-2.7 0-3.7-1.65-3.7-4.4s1.1-4.3 3.5-4.3zm1.65 3.65c.6-2.85-2.85-4.1-3.45-1.2a8.3 8.3 0 0 0 -.1 1.2z" fill="#333"/><path d="m605.08 15.7c0 3.2 2.6 4 5.2 3.15.05 1.25-1.5 1.25-2.75 1.25-2.8 0-4-1.6-4-4.4 0-3.8 3.1-4.9 6.55-4v2.3h-.5c-.25-.75-.2-1.55-1.15-1.75-2.35-.5-3.35 1.05-3.35 3.45" fill="#333"/><path d="m613.48 18c-.05 1.25 1.2 1.3 2.2 1v.6c-1.35.8-3.65.75-3.65-1.45v-5.75h-1c-.1-.7.7-.5 1-.75l.9-1.9h.55v1.9h1.9v.75h-1.9z" fill="#333"/><path d="m617.83 13.4c.35 2.4 4.3 1.15 4.3 4.2 0 2.8-3.45 2.85-5.6 2v-2c1 0 .45 1.45 1.55 1.55 1.75.95 3.85-1.3 2-2.5-1.35-.9-3.6-.65-3.6-2.95 0-2.5 2.9-2.6 5-2.05v1.8c-.95.05-.4-1.25-1.4-1.25-1-.35-2.5-.05-2.3 1.15" fill="#333"/><path d="m629.63 9.9c-1.15 0-1.25-1.95 0-1.9.65 0 .9.35 1 .95a1 1 0 0 1 -1 .95zm.9 9.4 1.4.2v.4h-4.25v-.4l1.4-.2v-7l-1.2-.2v-.4h2.65z" fill="#333"/><path d="m638.53 14c.2-1.85-2-1.7-3.4-1.3v6.6l1.15.2v.4h-3.6c-.15-.65.65-.45 1-.6v-7c-.35-.15-1.15.05-1-.6h2.32l.1.65c1.55-1.15 4.9-1.45 4.9 1.55v5.4c.35.15 1.15-.05 1 .6h-3.6v-.4l1.1-.2z" fill="#333"/><path d="m654.68 16.5c0 3.95-4.75 4.1-7.7 2.95v-2.7h.6c0 1.75 1.1 2.6 3 2.6 2.5 0 3.45-2.9 1.65-4.1-2-1.2-5.25-1.05-5.25-4.25 0-3.35 4.3-3.3 7.1-2.65v2.45h-.6l-.3-1.45c-1.55-1.35-6-.35-4.45 2.1 1.4 2.15 5.95 1.2 5.95 5.05" fill="#333"/><path d="m662 19.25c-1.75 1.05-4.9 1.4-4.9-1.6v-5.4c-.4-.15-1.2.1-1.05-.6h2.5v5.9c-.15 1.85 2.1 1.6 3.45 1.25v-6.55l-1.25-.2v-.4h2.7v7.65c.4.15 1.2-.1 1.05.6h-2.4" fill="#333"/><path d="m671.83 12.3a3.05 3.05 0 0 1 -2.7 4.85 10.11 10.11 0 0 1 -1.35-.15l-.55 1.15c1.45 1.1 6.5-.7 6.2 2.6-.2 2.25-1.9 2.85-4.4 3.05-3.2.25-4.65-2.6-2-4a1.61 1.61 0 0 1 -1.2-1.45l1.4-1.55a2.54 2.54 0 0 1 -1.4-2.55c-.1-2.55 2.65-3.25 5-2.6l1.9-1 .35.4zm-2.83 10.8c1.75 0 3.05-.55 3.05-2.1 0-1.75-2.85-.85-4.45-1.05a2.43 2.43 0 0 0 -.85 1.7c.03 1.25.98 1.45 2.25 1.45zm-1.65-8.85c0 1.3.35 2.3 1.75 2.2s1.7-.8 1.75-2.2-.3-2.15-1.7-2.15-1.8.85-1.8 2.15" fill="#333"/><path d="m680.83 12.3a3.05 3.05 0 0 1 -2.7 4.85 10.11 10.11 0 0 1 -1.35-.15l-.55 1.15c1.45 1.1 6.5-.7 6.2 2.6-.2 2.25-1.9 2.85-4.4 3.05-3.2.25-4.65-2.6-2-4a1.61 1.61 0 0 1 -1.2-1.45l1.4-1.55a2.54 2.54 0 0 1 -1.4-2.55c-.1-2.55 2.65-3.25 5-2.6l1.9-1 .35.4zm-2.83 10.8c1.75 0 3.05-.55 3.05-2.1 0-1.75-2.85-.85-4.45-1.05a2.43 2.43 0 0 0 -.85 1.7c.03 1.25.98 1.45 2.25 1.45zm-1.65-8.85c0 1.3.35 2.3 1.75 2.2s1.7-.8 1.75-2.2-.3-2.15-1.7-2.15-1.8.85-1.8 2.15" fill="#333"/><path d="m687 11.4c2.45 0 3.3 1.65 3.15 4.35h-5c-.4 3 1.9 4 4.75 3.15v.5a5.33 5.33 0 0 1 -2.65.7c-2.7 0-3.7-1.65-3.7-4.4s1.03-4.3 3.45-4.3zm1.65 3.65c.6-2.85-2.85-4.1-3.45-1.2a8.3 8.3 0 0 0 -.1 1.2z" fill="#333"/><path d="m692.78 13.4c.35 2.4 4.3 1.15 4.3 4.2 0 2.8-3.45 2.85-5.6 2v-2c1 0 .45 1.45 1.55 1.55 1.75.95 3.85-1.3 2.05-2.5-1.35-.9-3.6-.65-3.6-2.95 0-2.5 2.9-2.6 5-2.05v1.8c-1 .05-.4-1.25-1.4-1.25-1.05-.35-2.5-.05-2.3 1.15" fill="#333"/><path d="m700.43 18c0 1.25 1.2 1.3 2.2 1v.6c-1.35.8-3.65.75-3.65-1.45v-5.75h-1.05c-.1-.7.7-.5 1.05-.75l.9-1.9h.55v1.9h1.9v.75h-1.9z" fill="#333"/><path d="m705.08 9.9c-1.15 0-1.25-1.95 0-1.9.65 0 .9.35 1 .95a1 1 0 0 1 -1 .95zm.9 9.4 1.4.2v.4h-4.25v-.4l1.4-.2v-7l-1.2-.2v-.4h2.67z" fill="#333"/><path d="m712.23 11.4c2.6 0 3.8 1.6 3.8 4.35s-1.2 4.35-3.85 4.35-3.75-1.7-3.75-4.35 1.2-4.35 3.8-4.35zm-.05 8c2 0 2.3-1.75 2.3-3.65s-.35-3.65-2.3-3.65-2.2 1.7-2.2 3.65.3 3.6 2.2 3.65" fill="#333"/><path d="m723 14c.2-1.85-2.05-1.7-3.4-1.3v6.6l1.15.2v.4h-3.6c-.15-.65.65-.45 1-.6v-7c-.35-.15-1.15.05-1-.6h2.35l.1.65c1.55-1.15 4.9-1.45 4.9 1.55v5.4c.35.15 1.15-.05 1 .6h-3.6v-.4l1.1-.2z" fill="#333"/><path d="m731.28 8.6-1.8.2v10.35a32.79 32.79 0 0 0 5-.2l.55-2.45h.55l-.15 3.4h-9.25v-.45l1.55-.25v-10.4l-1.55-.2v-.5h5z" fill="#333"/><path d="m741.18 11.4c2.6 0 3.8 1.6 3.8 4.35s-1.2 4.35-3.85 4.35-3.75-1.7-3.75-4.35 1.2-4.35 3.8-4.35zm0 8c2 0 2.3-1.75 2.3-3.65s-.35-3.65-2.3-3.65-2.2 1.7-2.2 3.65.3 3.6 2.2 3.65" fill="#333"/><path d="m752.73 12.3a3.05 3.05 0 0 1 -2.7 4.85 10.11 10.11 0 0 1 -1.35-.15l-.55 1.15c1.45 1.1 6.5-.7 6.2 2.6-.2 2.25-1.9 2.85-4.4 3.05-3.2.25-4.65-2.6-2-4a1.61 1.61 0 0 1 -1.2-1.45l1.4-1.55a2.54 2.54 0 0 1 -1.4-2.55c-.1-2.55 2.65-3.25 5-2.6l1.9-1 .35.4zm-2.8 10.8c1.75 0 3.05-.55 3.05-2.1 0-1.75-2.85-.85-4.45-1.05a2.43 2.43 0 0 0 -.85 1.7c0 1.25.95 1.45 2.25 1.45zm-1.65-8.85c.05 1.3.35 2.3 1.75 2.2s1.7-.8 1.75-2.2-.3-2.15-1.7-2.15-1.8.85-1.8 2.15" fill="#333"/><path d="m757 9.9c-1.15 0-1.25-1.95 0-1.9.65 0 .9.35 1 .95a1 1 0 0 1 -1 .95zm.9 9.4 1.4.2v.4h-4.25v-.4l1.4-.2v-7l-1.2-.2v-.4h2.65z" fill="#333"/><path d="m761.93 15.7c0 3.2 2.6 4 5.2 3.15 0 1.25-1.5 1.25-2.75 1.25-2.8 0-4-1.6-4-4.4 0-3.8 3.1-4.9 6.55-4v2.3h-.5c-.25-.75-.2-1.55-1.15-1.75-2.35-.5-3.35 1.05-3.35 3.45" fill="#333"/><path d="m774.18 13.4c.35 2.4 4.3 1.15 4.3 4.2 0 2.8-3.45 2.85-5.6 2v-2c1 0 .45 1.45 1.55 1.55 1.75.95 3.85-1.3 2.05-2.5-1.35-.9-3.6-.65-3.6-2.95 0-2.5 2.9-2.6 5-2.05v1.8c-1 .05-.4-1.25-1.4-1.25-1.05-.35-2.5-.05-2.3 1.15" fill="#333"/><path d="m781.38 15.7c0 3.2 2.6 4 5.2 3.15 0 1.25-1.5 1.25-2.75 1.25-2.8 0-4-1.6-4-4.4 0-3.8 3.1-4.9 6.55-4v2.3h-.5c-.25-.75-.2-1.55-1.15-1.75-2.35-.5-3.35 1.05-3.35 3.45" fill="#333"/><path d="m791.58 11.4c2.6 0 3.8 1.6 3.8 4.35s-1.2 4.35-3.85 4.35-3.75-1.7-3.75-4.35 1.22-4.35 3.8-4.35zm-.05 8c2 0 2.3-1.75 2.3-3.65s-.35-3.65-2.3-3.65-2.2 1.7-2.2 3.65.3 3.6 2.2 3.65" fill="#333"/><path d="m804.38 15.65c.15 3.35-2.2 5.1-5.55 4.25v3.2l1.45.2v.45h-4v-.45l1-.2v-10.85c-.35-.15-1.1.05-.95-.6h2.3l.05.45a3.77 3.77 0 0 1 2.25-.7c2.5.1 3.35 1.8 3.45 4.25zm-5.5 3.6c2.65.7 4.15-.7 3.9-3.6.35-2.65-1.65-4-3.9-3z" fill="#333"/><path d="m809.28 11.4c2.45 0 3.3 1.65 3.15 4.35h-5c-.4 3 1.9 4 4.75 3.15v.5a5.33 5.33 0 0 1 -2.65.7c-2.7 0-3.7-1.65-3.7-4.4s1.05-4.3 3.45-4.3zm1.65 3.65c.6-2.85-2.85-4.1-3.45-1.2a8.3 8.3 0 0 0 -.1 1.2z" fill="#333"/><path d="m569.53 33.35c2.05-.5 5.1-.7 5.1 1.95v5.6c.4.15 1.2-.1 1 .6h-2.25l-.2-.85c-1.15 1.5-5.15 1.5-4.65-1.45-.1-2.5 2.25-2.5 4.6-2.55.2-1.8-.25-3.5-2.1-2.8a6.89 6.89 0 0 0 -.8.3c-.2.35 0 1.15-.75 1zm.5 5.8c0 2.05 2.05 1.65 3.15 1.1v-3c-1.7.05-3.15 0-3.15 1.85" fill="#333"/><path d="m581 29.7c-1.95-.75-1.75 1.6-1.7 3.55h2.2v.75h-2.2v6.8l1.75.3v.4h-4.45v-.4l1.25-.3v-6.8h-1.45v-.45l1.45-.35c-.3-3 1.15-5 4-4.2v1.8c-.75.1-.6-.7-.85-1.1" fill="#333"/><path d="m584.53 39.6c0 1.25 1.2 1.3 2.2 1v.6c-1.35.8-3.65.75-3.65-1.45v-5.75h-1.08c-.1-.7.7-.5 1.05-.75l.9-1.9h.55v1.9h1.9v.75h-1.9z" fill="#333"/><path d="m591 33c2.45 0 3.3 1.65 3.15 4.35h-5c-.4 3 1.9 4 4.75 3.15v.5a5.33 5.33 0 0 1 -2.65.7c-2.7 0-3.7-1.65-3.7-4.4s1.08-4.3 3.45-4.3zm1.65 3.65c.6-2.85-2.85-4.1-3.45-1.2a8.3 8.3 0 0 0 -.1 1.2z" fill="#333"/><path d="m597.63 34.25a6.08 6.08 0 0 1 3-1.25v2.25c-1 0-.4-1.5-2-.85l-1 .3v6.2l1.45.2v.4h-4v-.4l1-.2v-7c-.4-.15-1.2.1-1-.6h2.4" fill="#333"/><path d="m609.43 33c2.45 0 3.3 1.65 3.15 4.35h-5.05c-.4 3 1.9 4 4.75 3.15v.5a5.33 5.33 0 0 1 -2.65.7c-2.7 0-3.7-1.65-3.7-4.4s1.07-4.3 3.5-4.3zm1.65 3.65c.6-2.85-2.85-4.1-3.45-1.2a8.3 8.3 0 0 0 -.1 1.2z" fill="#333"/><path d="m621 40.9c.35.15 1.15 0 1 .6h-3.75v-.4l1.1-.2-1.9-2.9-2.25 2.9 1.15.2v.4h-3v-.4l.95-.15 2.7-3.55-2.4-3.55c-.35-.15-1.15 0-1-.6h3.75v.4l-1.1.2 1.6 2.4 1.85-2.4-1.15-.2v-.4h2.95v.4l-.95.15-2.3 3" fill="#333"/><path d="m626.38 33c2.45 0 3.3 1.65 3.15 4.35h-5c-.4 3 1.9 4 4.75 3.15v.5a5.33 5.33 0 0 1 -2.65.7c-2.7 0-3.7-1.65-3.7-4.4s1.07-4.3 3.45-4.3zm1.62 3.65c.6-2.85-2.85-4.1-3.45-1.2a8.3 8.3 0 0 0 -.1 1.2z" fill="#333"/><path d="m632.38 37.3c0 3.2 2.6 4 5.2 3.15 0 1.25-1.5 1.25-2.75 1.25-2.8 0-4-1.6-4-4.4 0-3.8 3.1-4.9 6.55-4v2.3h-.5c-.25-.75-.2-1.55-1.15-1.75-2.35-.5-3.35 1-3.35 3.45" fill="#333"/><path d="m644.28 40.85c-1.75 1-4.9 1.4-4.9-1.6v-5.4c-.4-.15-1.2.1-1-.6h2.5v5.9c-.15 1.85 2.1 1.6 3.45 1.25v-6.55l-1.25-.2v-.4h2.7v7.65c.4.15 1.2-.1 1 .6h-2.4" fill="#333"/><path d="m649.78 39.6c0 1.25 1.2 1.3 2.2 1v.6c-1.35.8-3.65.75-3.65-1.45v-5.75h-1.05c-.1-.7.7-.5 1.05-.75l.9-1.9h.55v1.9h1.9v.75h-1.9z" fill="#333"/><path d="m654.43 31.5c-1.15 0-1.25-1.95 0-1.9.65 0 .9.35 1 .95a1 1 0 0 1 -1 .95zm.9 9.4 1.4.2v.4h-4.25v-.4l1.4-.2v-7l-1.2-.2v-.4h2.65z" fill="#333"/><path d="m661.58 33c2.6 0 3.8 1.6 3.8 4.35s-1.2 4.35-3.85 4.35-3.75-1.7-3.75-4.35 1.22-4.35 3.8-4.35zm-.05 8c2 0 2.3-1.75 2.3-3.65s-.35-3.65-2.3-3.65-2.2 1.7-2.2 3.65.3 3.6 2.2 3.65" fill="#333"/><path d="m672.33 35.6c.2-1.85-2.05-1.7-3.4-1.3v6.6l1.15.2v.4h-3.6c-.15-.65.65-.45 1-.6v-7c-.35-.15-1.15 0-1-.6h2.35l.1.65c1.55-1.15 4.9-1.45 4.9 1.55v5.4c.35.15 1.15 0 1 .6h-3.6v-.4l1.1-.2z" fill="#333"/><path d="m557.65 64.22h278.28v134h-278.27z" fill="#fff" stroke="#333"/><path d="m557.65 101.82h278.28m-278.27 59.18h278.28" fill="none" stroke="#333"/><g fill="#333"><path d="m572.34 82.62c0 3.2 2.6 4 5.2 3.15.05 1.23-1.54 1.23-2.75 1.23-2.8 0-4-1.6-4-4.4 0-3.8 3.1-4.9 6.55-4v2.3h-.5c-.25-.75-.2-1.55-1.15-1.75-2.35-.5-3.35 1-3.35 3.45"/><path d="m582.54 78.32c2.6 0 3.8 1.6 3.8 4.35s-1.2 4.33-3.85 4.33-3.75-1.7-3.75-4.35 1.2-4.33 3.8-4.33zm0 8c2 0 2.3-1.75 2.3-3.65s-.35-3.65-2.3-3.65-2.2 1.7-2.2 3.65.3 3.6 2.2 3.65"/><path d="m593.34 80.92c.2-1.85-2.1-1.6-3.4-1.25v6.55l1.2.2v.4h-3.7c-.15-.65.65-.45 1-.6v-7c-.35-.15-1.15 0-1-.6h2.4v.65c1.1-.75 3.85-1.5 4.6.1 1.6-1.1 5.2-1.8 5.2 1.45v5.45c.4.15 1.2-.1 1 .6h-3.64v-.4l1.25-.2v-5.3c.15-2-2.25-1.55-3.6-1.2.35 1.85.05 4.4.15 6.5l1.25.2v.4h-3.9v-.4l1.2-.2z"/><path d="m607.34 80.92c.2-1.85-2.1-1.6-3.4-1.25v6.55l1.2.2v.4h-3.7c-.15-.65.65-.45 1-.6v-7c-.35-.15-1.15 0-1-.6h2.4v.65c1.1-.75 3.85-1.5 4.6.1 1.6-1.1 5.2-1.8 5.2 1.45v5.45c.4.15 1.2-.1 1 .6h-3.64v-.4l1.25-.2v-5.3c.15-2-2.25-1.55-3.6-1.2.35 1.85.05 4.4.15 6.5l1.25.2v.4h-3.9v-.4l1.2-.2z"/><path d="m616.64 78.67c2.05-.5 5.1-.7 5.1 2v5.6c.4.15 1.2-.1 1 .6h-2.25l-.2-.85c-1.15 1.5-5.15 1.5-4.65-1.45-.1-2.5 2.25-2.5 4.6-2.55.2-1.8-.25-3.5-2.1-2.8a6.89 6.89 0 0 0 -.8.3c-.2.35 0 1.15-.75 1zm.5 5.8c0 2 2.05 1.65 3.15 1.1v-2.95c-1.7 0-3.15-.05-3.15 1.85"/><path d="m629.24 80.92c.2-1.85-2-1.7-3.4-1.3v6.6l1.15.2v.4h-3.6c-.15-.65.65-.45 1-.6v-7c-.35-.15-1.15 0-1-.6h2.35l.1.65c1.55-1.15 4.9-1.45 4.9 1.55v5.45c.35.15 1.15 0 1 .6h-3.6v-.4l1.1-.2z"/><path d="m632.64 82.77c0-3.55 2.3-5 5.7-4.25l-.05-3.6-1.4-.2v-.4h2.85v11.9c.4.15 1.2-.1 1 .6h-2.35l-.1-.6c-2.29 1.78-5.65.55-5.65-3.45zm3.85-3.7c-1.85.05-2.2 1.65-2.25 3.7s.45 3.3 2.25 3.3a4.61 4.61 0 0 0 1.8-.35v-6.5c-.5 0-1.2-.15-1.8-.15"/><path d="m643.74 86.82v-.45l1.9-.25v-10.35a24.94 24.94 0 0 0 -3.5.2l-.25 1.85h-.55v-2.82h10.35v2.8h-.6l-.25-1.8-3.5-.15v10.3l1.85.25v.45z"/><path d="m655.19 78.32c2.6 0 3.8 1.6 3.8 4.35s-1.2 4.33-3.85 4.33-3.75-1.7-3.75-4.35 1.2-4.33 3.8-4.33zm-.05 8c2 0 2.3-1.75 2.3-3.65s-.35-3.65-2.3-3.65-2.2 1.7-2.2 3.65.3 3.6 2.2 3.65"/><path d="m662.69 82.82 3.4-3.65c-.35-.15-1 0-.85-.6h2.9c.15.65-.65.45-1 .6l-2.35 2.4 3 4.65c.35.15 1.05 0 .9.6h-3.4c-.15-.6.45-.45.75-.6l-2.25-3.55-1.1 1.15v2.4c.35.15 1 0 .9.6h-3.4v-.4l1-.2v-11.3l-1.2-.2v-.4h2.65z"/><path d="m672.89 78.32c2.45 0 3.3 1.65 3.15 4.35h-5c-.4 3 1.9 4 4.75 3.15v.5a5.33 5.33 0 0 1 -2.65.7c-2.7 0-3.7-1.65-3.7-4.4s1.05-4.3 3.45-4.3zm1.65 3.68c.6-2.85-2.85-4.1-3.45-1.2a8.3 8.3 0 0 0 -.09 1.2z"/><path d="m682.89 80.92c.2-1.85-2-1.7-3.4-1.3v6.6l1.15.2v.4h-3.64c-.15-.65.65-.45 1-.6v-7c-.35-.15-1.15 0-1-.6h2.35l.1.65c1.55-1.15 4.9-1.45 4.9 1.55v5.45c.35.15 1.15 0 1 .6h-3.6v-.4l1.1-.2z"/><path d="m687.69 80.32c.35 2.4 4.3 1.15 4.3 4.2 0 2.8-3.45 2.85-5.6 2v-2c1 0 .45 1.45 1.55 1.55 1.75.95 3.85-1.3 2-2.5-1.35-.9-3.6-.65-3.6-3 0-2.5 2.9-2.6 5-2v1.8c-.95 0-.4-1.25-1.4-1.25-1-.35-2.5 0-2.3 1.15"/><path d="m695.14 85a1 1 0 0 1 1.05 1 1 1 0 0 1 -1.05 1 1 1 0 0 1 -1.1-1 1 1 0 0 1 1.1-1zm0-6.6a1 1 0 0 1 1.05 1 1 1 0 0 1 -1.05 1.1 1 1 0 0 1 -1.1-1.1 1 1 0 0 1 1.1-1"/><path d="m700.24 81.07c0 4.65 4 6.5 7.5 4.35l.35-1.75h.55v2.75a14.54 14.54 0 0 1 -4.15.6c-3.8 0-5.85-2-6.05-6-.25-5.65 4.85-7 10.05-5.7v2.55h-.6l-.25-1.5a6.45 6.45 0 0 0 -3.1-.8c-3.3 0-4.3 2-4.3 5.45"/><path d="m714.14 78.32c2.6 0 3.8 1.6 3.8 4.35s-1.2 4.33-3.85 4.33-3.75-1.7-3.75-4.35 1.2-4.33 3.8-4.33zm0 8c1.95 0 2.3-1.75 2.3-3.65s-.44-3.67-2.35-3.67-2.2 1.7-2.2 3.65.3 3.6 2.2 3.65"/><path d="m724.94 80.92c.2-1.85-2.1-1.6-3.4-1.25v6.55l1.2.2v.4h-3.74c-.15-.65.65-.45 1-.6v-7c-.35-.15-1.15 0-1-.6h2.4v.65c1.1-.75 3.85-1.5 4.6.1 1.6-1.1 5.2-1.8 5.2 1.45v5.45c.4.15 1.2-.1 1.05.6h-3.75v-.4l1.25-.2v-5.3c.15-2-2.25-1.55-3.6-1.2.35 1.85 0 4.4.15 6.5l1.25.2v.4h-3.9v-.4l1.2-.2z"/><path d="m738.94 80.92c.2-1.85-2.1-1.6-3.4-1.25v6.55l1.2.2v.4h-3.74c-.15-.65.65-.45 1-.6v-7c-.35-.15-1.15 0-1-.6h2.4v.65c1.1-.75 3.85-1.5 4.6.1 1.6-1.1 5.2-1.8 5.2 1.45v5.45c.4.15 1.2-.1 1.05.6h-3.75v-.4l1.25-.2v-5.3c.15-2-2.25-1.55-3.6-1.2.35 1.85 0 4.4.15 6.5l1.25.2v.4h-3.9v-.4l1.2-.2z"/><path d="m748.24 78.67c2-.5 5.1-.7 5.1 2v5.6c.4.15 1.2-.1 1 .6h-2.25l-.2-.85c-1.15 1.5-5.15 1.5-4.65-1.45-.1-2.5 2.25-2.5 4.6-2.55.2-1.8-.25-3.5-2.1-2.8a6.89 6.89 0 0 0 -.8.3c-.2.35 0 1.15-.75 1zm.5 5.8c0 2 2 1.65 3.15 1.1v-2.95c-1.7 0-3.15-.05-3.15 1.85"/><path d="m760.84 80.92c.2-1.85-2.05-1.7-3.4-1.3v6.6l1.15.2v.4h-3.59c-.15-.65.65-.45 1-.6v-7c-.35-.15-1.15 0-1-.6h2.35l.1.65c1.55-1.15 4.9-1.45 4.9 1.55v5.45c.35.15 1.15 0 1 .6h-3.6v-.4l1.1-.2z"/><path d="m764.24 82.77c0-3.55 2.3-5 5.7-4.25l-.05-3.6-1.4-.2v-.4h2.85v11.9c.4.15 1.2-.1 1 .6h-2.34l-.1-.6c-2.31 1.78-5.66.55-5.66-3.45zm3.85-3.7c-1.85.05-2.2 1.65-2.25 3.7s.45 3.3 2.25 3.3a4.61 4.61 0 0 0 1.8-.35v-6.5c-.5 0-1.2-.15-1.8-.15"/><path d="m775.34 86.82v-.45l1.9-.25v-10.35a24.94 24.94 0 0 0 -3.5.2l-.25 1.85h-.55v-2.82h10.35v2.8h-.6l-.25-1.8-3.5-.15v10.3l1.85.25v.45z"/><path d="m786.79 78.32c2.6 0 3.8 1.6 3.8 4.35s-1.2 4.33-3.85 4.33-3.74-1.68-3.74-4.33 1.19-4.35 3.79-4.35zm0 8c2 0 2.3-1.75 2.3-3.65s-.35-3.65-2.3-3.65-2.2 1.7-2.2 3.65.3 3.6 2.2 3.65"/><path d="m794.29 82.82 3.4-3.65c-.35-.15-1 0-.85-.6h2.9c.15.65-.65.45-1 .6l-2.35 2.4 3 4.65c.35.15 1.05 0 .9.6h-3.4c-.15-.6.45-.45.75-.6l-2.25-3.55-1.1 1.15v2.4c.35.15 1.05 0 .9.6h-3.4v-.4l1.05-.2v-11.3l-1.2-.2v-.4h2.65z"/><path d="m804.49 78.32c2.45 0 3.3 1.65 3.15 4.35h-5c-.4 3 1.9 4 4.75 3.15v.5a5.33 5.33 0 0 1 -2.65.7c-2.7 0-3.7-1.65-3.7-4.4s1.05-4.3 3.45-4.3zm1.65 3.68c.6-2.85-2.85-4.1-3.45-1.2a8.3 8.3 0 0 0 -.1 1.2z"/><path d="m814.49 80.92c.2-1.85-2-1.7-3.4-1.3v6.6l1.15.2v.4h-3.6c-.15-.65.65-.45 1-.6v-7c-.35-.15-1.15 0-1-.6h2.36l.1.65c1.55-1.15 4.9-1.45 4.9 1.55v5.45c.35.15 1.15 0 1 .6h-3.6v-.4l1.1-.2z"/><path d="m819.29 80.32c.35 2.4 4.3 1.15 4.3 4.2 0 2.8-3.45 2.85-5.6 2v-2c1 0 .45 1.45 1.55 1.55 1.75.95 3.85-1.3 2.05-2.5-1.35-.9-3.6-.65-3.6-3 0-2.5 2.9-2.6 5-2v1.8c-1 0-.4-1.25-1.4-1.25-1.05-.35-2.5 0-2.3 1.15"/><path d="m569.19 88.34h255.95v.88h-255.95z"/><path d="m575.21 119.07v3.75h-1v-3.75h-3.7v-.85h3.7v-3.75h1v3.75h3.7v.85z"/><path d="m586.56 120.42c0 3.2 2.6 4 5.2 3.15 0 1.25-1.5 1.25-2.75 1.25-2.8 0-4-1.6-4-4.4 0-3.8 3.1-4.9 6.55-4v2.3h-.5c-.25-.75-.2-1.55-1.15-1.75-2.35-.5-3.35 1-3.35 3.45"/><path d="m596.76 116.12c2.6 0 3.8 1.6 3.8 4.35s-1.2 4.35-3.85 4.35-3.75-1.7-3.75-4.35 1.2-4.35 3.8-4.35zm0 8c1.95 0 2.3-1.75 2.3-3.65s-.35-3.65-2.3-3.65-2.2 1.7-2.2 3.65.3 3.6 2.2 3.65"/><path d="m607.56 118.72c.2-1.85-2.1-1.6-3.4-1.25v6.53l1.2.2v.4h-3.7c-.15-.65.65-.45 1-.6v-7c-.35-.15-1.15 0-1-.6h2.4l.05.65c1.1-.75 3.85-1.5 4.6.1 1.6-1.1 5.2-1.8 5.2 1.45v5.4c.4.15 1.2-.1 1.05.6h-3.75v-.4l1.25-.2v-5.3c.15-2-2.25-1.55-3.6-1.2.35 1.85 0 4.4.15 6.5l1.25.2v.4h-3.9v-.4l1.2-.2z"/><path d="m621.56 118.72c.2-1.85-2.1-1.6-3.4-1.25v6.53l1.2.2v.4h-3.7c-.15-.65.65-.45 1-.6v-7c-.35-.15-1.15 0-1-.6h2.4l.05.65c1.1-.75 3.85-1.5 4.6.1 1.6-1.1 5.2-1.8 5.2 1.45v5.4c.4.15 1.2-.1 1.05.6h-3.75v-.4l1.25-.2v-5.3c.15-2-2.25-1.55-3.6-1.2.35 1.85 0 4.4.15 6.5l1.25.2v.4h-3.9v-.4l1.2-.2z"/><path d="m630.86 116.47c2-.5 5.1-.7 5.1 2v5.53c.4.15 1.2-.1 1 .6h-2.25l-.2-.85c-1.15 1.5-5.15 1.5-4.65-1.45-.1-2.5 2.25-2.5 4.6-2.55.2-1.8-.25-3.5-2.1-2.8a6.89 6.89 0 0 0 -.8.3c-.2.35 0 1.15-.75 1zm.5 5.8c0 2 2 1.65 3.15 1.1v-3c-1.7 0-3.15 0-3.15 1.85"/><path d="m643.46 118.72c.2-1.85-2.05-1.7-3.4-1.3v6.58l1.15.2v.4h-3.6c-.15-.65.65-.45 1-.6v-7c-.35-.15-1.15 0-1-.6h2.39l.1.65c1.55-1.15 4.9-1.45 4.9 1.55v5.4c.35.15 1.15 0 1 .6h-3.6v-.4l1.1-.2z"/><path d="m646.86 120.57c0-3.55 2.3-5 5.7-4.25v-3.6l-1.4-.2v-.4h2.84v11.88c.4.15 1.2-.1 1 .6h-2.35l-.1-.6c-2.34 1.77-5.69.57-5.69-3.43zm3.85-3.7c-1.85 0-2.2 1.65-2.25 3.7s.45 3.3 2.25 3.3a4.61 4.61 0 0 0 1.8-.35v-6.52c-.5 0-1.2-.15-1.8-.15"/><path d="m671.16 113.52-3.85 11.35h-.5l-3-8.1-3.15 8.1h-.45l-3.9-11.35-1-.2v-.5h4.5v.5l-1.7.2 2.8 8.3 3.15-8.15h.4l3 8.15 2.7-8.3-1.85-.2v-.5h3.9v.5"/><path d="m675.21 116.12c2.6 0 3.8 1.6 3.8 4.35s-1.2 4.35-3.85 4.35-3.75-1.7-3.75-4.35 1.2-4.35 3.8-4.35zm-.05 8c2 0 2.3-1.75 2.3-3.65s-.35-3.65-2.3-3.65-2.2 1.7-2.2 3.65.3 3.6 2.2 3.65"/><path d="m682.56 117.37a6.08 6.08 0 0 1 3-1.25v2.25c-.95 0-.4-1.5-2-.85l-1 .3v6.18l1.45.2v.4h-4v-.4l1.05-.2v-7c-.4-.15-1.2.1-1.05-.6h2.4"/><path d="m686.31 120.57c0-3.55 2.3-5 5.7-4.25v-3.6l-1.4-.2v-.4h2.85v11.88c.4.15 1.2-.1 1.05.6h-2.35l-.1-.6c-2.4 1.77-5.75.57-5.75-3.43zm3.85-3.7c-1.85 0-2.2 1.65-2.25 3.7s.45 3.3 2.25 3.3a4.61 4.61 0 0 0 1.8-.35v-6.52c-.5 0-1.2-.15-1.8-.15"/><path d="m708.41 120v.85h-8.35v-.85zm0-3.65v.9h-8.35v-.9z"/><path d="m718.31 112.82h1.75l-.55 4.25h-.65zm-3.4 0h1.75l-.55 4.25h-.65"/><path d="m721.76 120.57c0-3.55 2.3-5 5.7-4.25l-.05-3.6-1.4-.2v-.4h2.85v11.88c.4.15 1.2-.1 1 .6h-2.35l-.1-.6c-2.3 1.77-5.65.57-5.65-3.43zm3.85-3.7c-1.85 0-2.2 1.65-2.25 3.7s.45 3.3 2.25 3.3a4.61 4.61 0 0 0 1.8-.35v-6.52c-.5 0-1.2-.15-1.8-.15"/><path d="m734.31 116.12c2.45 0 3.3 1.65 3.15 4.35h-5.05c-.4 3 1.9 4 4.75 3.15v.5a5.33 5.33 0 0 1 -2.65.7c-2.7 0-3.7-1.65-3.7-4.4s1.1-4.3 3.5-4.3zm1.65 3.65c.6-2.85-2.85-4.1-3.45-1.2a8.3 8.3 0 0 0 -.1 1.2z"/><path d="m741.31 124 1.4.2v.4h-4.3v-.4l1.4-.2v-11.3l-1.4-.2v-.4h2.9z"/><path d="m747.26 116.12c2.45 0 3.3 1.65 3.15 4.35h-5c-.4 3 1.9 4 4.75 3.15v.5a5.33 5.33 0 0 1 -2.65.7c-2.7 0-3.7-1.65-3.7-4.4s1.05-4.3 3.45-4.3zm1.65 3.65c.6-2.85-2.85-4.1-3.45-1.2a8.3 8.3 0 0 0 -.1 1.2z"/><path d="m753.71 122.72c-.05 1.25 1.2 1.3 2.2 1v.6c-1.35.8-3.65.75-3.65-1.45v-5.75h-1c-.1-.7.7-.5 1-.75l.9-1.9h.55v1.9h1.9v.75h-1.9z"/><path d="m760.21 116.12c2.45 0 3.3 1.65 3.15 4.35h-5.05c-.4 3 1.9 4 4.75 3.15v.5a5.33 5.33 0 0 1 -2.65.7c-2.7 0-3.7-1.65-3.7-4.4s1.1-4.3 3.5-4.3zm1.65 3.65c.6-2.85-2.85-4.1-3.45-1.2a8.3 8.3 0 0 0 -.1 1.2z"/><path d="m772.26 120.37c.15 3.35-2.2 5.1-5.55 4.25v3.2l1.45.2v.45h-4v-.47l1-.2v-10.8c-.35-.15-1.1 0-.95-.6h2.3l.05.45a3.77 3.77 0 0 1 2.25-.7c2.5.07 3.35 1.77 3.45 4.22zm-5.5 3.6c2.65.7 4.15-.7 3.9-3.6.35-2.65-1.65-4-3.9-3z"/><path d="m777.16 116.12c2.45 0 3.3 1.65 3.15 4.35h-5c-.4 3 1.9 4 4.75 3.15v.5a5.33 5.33 0 0 1 -2.65.7c-2.7 0-3.7-1.65-3.7-4.4s1.05-4.3 3.45-4.3zm1.65 3.65c.6-2.85-2.85-4.1-3.45-1.2a8.3 8.3 0 0 0 -.1 1.2z"/><path d="m783.76 117.37a6.08 6.08 0 0 1 3-1.25v2.25c-1 0-.4-1.5-2-.85l-1 .3v6.18l1.45.2v.4h-4v-.4l1-.2v-7c-.4-.15-1.2.1-1-.6h2.4"/><path d="m788.91 118.12c.35 2.4 4.3 1.15 4.3 4.2 0 2.8-3.45 2.85-5.6 2.05v-2c1 0 .45 1.45 1.55 1.55 1.75 1 3.85-1.3 2.05-2.5-1.35-.9-3.6-.65-3.6-3 0-2.5 2.9-2.6 5-2v1.8c-1 0-.4-1.25-1.4-1.25-1.05-.35-2.5 0-2.3 1.15"/><path d="m798.36 116.12c2.6 0 3.8 1.6 3.8 4.35s-1.2 4.35-3.85 4.35-3.75-1.7-3.75-4.35 1.2-4.35 3.8-4.35zm-.05 8c2 0 2.3-1.75 2.3-3.65s-.35-3.65-2.3-3.65-2.2 1.7-2.2 3.65.3 3.6 2.2 3.65"/><path d="m809.11 118.72c.2-1.85-2.05-1.7-3.4-1.3v6.58l1.15.2v.4h-3.6c-.15-.65.65-.45 1-.6v-7c-.35-.15-1.15 0-1-.6h2.35l.1.65c1.55-1.15 4.9-1.45 4.9 1.55v5.4c.35.15 1.15 0 1 .6h-3.61v-.4l1.1-.2z"/><path d="m820.86 112.82h1.75l-.55 4.25h-.65zm-3.4 0h1.75l-.55 4.25h-.66"/><path d="m575.21 140.67v3.75h-1v-3.75h-3.7v-.85h3.7v-3.75h1v3.75h3.7v.85z"/><path d="m585.91 138.07c2.05-.5 5.1-.7 5.1 2v5.6c.4.15 1.2-.1 1 .6h-2.25l-.2-.85c-1.15 1.5-5.15 1.5-4.65-1.45-.1-2.5 2.25-2.5 4.6-2.55.2-1.8-.25-3.5-2.1-2.8a6.89 6.89 0 0 0 -.8.3c-.2.35 0 1.15-.75 1zm.5 5.8c0 2 2.05 1.65 3.15 1.1v-2.97c-1.7 0-3.15-.05-3.15 1.85"/><path d="m595.11 139a6.08 6.08 0 0 1 3-1.25v2.25c-1 .05-.4-1.5-2-.85l-1 .3v6.2l1.45.2v.4h-3.95v-.4l1-.2v-7.05c-.4-.15-1.2.1-1-.6h2.39"/><path d="m604.91 138.62a3.05 3.05 0 0 1 -2.7 4.85 10.11 10.11 0 0 1 -1.35-.15l-.55 1.15c1.45 1.1 6.5-.7 6.2 2.6-.2 2.25-1.9 2.85-4.4 3.05-3.2.25-4.65-2.6-2-4a1.61 1.61 0 0 1 -1.2-1.45l1.4-1.55a2.54 2.54 0 0 1 -1.4-2.55c-.1-2.55 2.65-3.25 5-2.6l1.9-1 .35.4zm-2.8 10.8c1.75 0 3-.55 3-2.1 0-1.75-2.85-.85-4.45-1a2.43 2.43 0 0 0 -.85 1.7c.05 1.2 1 1.4 2.3 1.4zm-1.65-8.85c0 1.3.35 2.3 1.75 2.2s1.7-.8 1.75-2.2-.3-2.15-1.7-2.15-1.8.85-1.8 2.15"/><path d="m613.06 145.57c-1.75 1.05-4.9 1.4-4.9-1.6v-5.4c-.4-.15-1.2.1-1-.6h2.5v5.9c-.15 1.85 2.1 1.6 3.45 1.25v-6.55l-1.25-.2v-.37h2.7v7.65c.4.15 1.2-.1 1 .6h-2.4"/><path d="m622.16 140.32c.2-1.85-2.1-1.6-3.4-1.25v6.55l1.2.2v.4h-3.7c-.15-.65.65-.45 1-.6v-7.05c-.35-.15-1.15.05-1-.6h2.4l.05.65c1.1-.75 3.85-1.5 4.6.1 1.6-1.1 5.2-1.8 5.2 1.45v5.45c.4.15 1.2-.1 1 .6h-3.75v-.4l1.25-.2v-5.3c.15-1.95-2.25-1.55-3.6-1.2.35 1.85 0 4.4.15 6.5l1.25.2v.4h-3.81v-.4l1.2-.2z"/><path d="m634.06 137.72c2.45 0 3.3 1.65 3.15 4.35h-5.05c-.4 3 1.9 4 4.75 3.15v.5a5.33 5.33 0 0 1 -2.65.7c-2.7 0-3.7-1.65-3.7-4.4s1.1-4.3 3.5-4.3zm1.65 3.65c.6-2.85-2.85-4.1-3.45-1.2a8.3 8.3 0 0 0 -.1 1.2z"/><path d="m644.06 140.32c.2-1.85-2-1.7-3.4-1.3v6.6l1.15.2v.4h-3.6c-.15-.65.65-.45 1-.6v-7.05c-.35-.15-1.15.05-1-.6h2.35l.1.65c1.55-1.15 4.9-1.45 4.9 1.55v5.45c.35.15 1.15-.05 1 .6h-3.56v-.4l1.1-.2z"/><path d="m649.51 144.32c0 1.25 1.2 1.3 2.2 1v.6c-1.35.8-3.65.75-3.65-1.45v-5.75h-1c-.1-.7.7-.5 1-.75l.9-1.9h.55v1.93h1.9v.75h-1.9z"/><path d="m653.86 139.72c.35 2.4 4.3 1.15 4.3 4.2 0 2.8-3.45 2.85-5.6 2.05v-2c1 0 .45 1.45 1.55 1.55 1.75.95 3.85-1.3 2-2.5-1.35-.9-3.6-.65-3.6-3 0-2.5 2.9-2.6 5-2v1.8c-.95.05-.4-1.25-1.4-1.25-1-.35-2.5 0-2.3 1.15"/><path d="m672.56 141.62v.85h-8.35v-.85zm0-3.65v.9h-8.35v-.87z"/><path d="m682.46 134.42h1.75l-.55 4.25h-.66zm-3.4 0h1.75l-.55 4.25h-.65"/><path d="m691.51 140.32c.2-1.85-2-1.7-3.4-1.3v6.6l1.15.2v.4h-3.6c-.15-.65.65-.45 1-.6v-7.05c-.35-.15-1.15.05-1-.6h2.34l.1.65c1.55-1.15 4.9-1.45 4.9 1.55v5.45c.35.15 1.15-.05 1 .6h-3.6v-.4l1.1-.2z"/><path d="m695.16 146.42h-.9l4.15-12h.85"/><path d="m703.76 134.42h1.75l-.55 4.25h-.65zm-3.4 0h1.75l-.55 4.25h-.65"/></g></svg>
