<svg id="Capa_1" data-name="Capa 1" xmlns="http://www.w3.org/2000/svg" viewBox="0 0 512 512"><defs><style>.cls-1{fill:gold;}.cls-2{fill:#dfb297;}.cls-3{fill:#fbc4ac;}</style></defs><title>logo</title><path class="cls-1" d="M314.67,6.52C127.86-35-35,127.86,6.52,314.67A251.7,251.7,0,0,0,197.33,505.48C384.14,547,547,384.14,505.48,197.33A251.7,251.7,0,0,0,314.67,6.52ZM256.27,480C132.56,480.15,31.85,379.44,32,255.73,32.15,132.62,132.62,32.15,255.73,32,379.44,31.85,480.15,132.56,480,256.27,479.85,379.38,379.38,479.85,256.27,480Z"/><path class="cls-2" d="M334.16,268.76c-11.35,0-21.23-7.49-22.76-17.77a173.51,173.51,0,0,0-17.72-49.61c-17.78-33.15-43.27-55.4-75.78-66.11-11.91-3.92-18-15.7-13.59-26.3s17.63-16,29.54-12.1c44,14.48,79.23,45,102,88.14,16.74,31.73,21,59.45,21.13,60.61,1.65,11.21-7.22,21.49-19.81,23A25.58,25.58,0,0,1,334.16,268.76Z"/><path class="cls-3" d="M345.17,115.39,318.29,68.32c-5.47-9.58-18.63-13.4-29.4-8.53S273.84,76.39,279.31,86l26.88,47.07a138.78,138.78,0,0,1,18.46,68.59v31.54c0,2.59-3.75,4-5.57,1.77-19.8-23.87-51.09-38-84.55-38a112.83,112.83,0,0,0-63.47,19c-17.52,11.84-30.65,28.58-37.05,47.22-3.55,10.34,2.67,21.78,14.28,25a24.17,24.17,0,0,0,6.43.87c9.43,0,18.14-5.49,20.95-14,7.65-23,31.85-39.12,58.86-39.12,32.82,0,51.45,23.8,51.21,53.08-.24,29.06-19.33,52.29-52,52.29H213.44c-20.26,0-36.75-14.63-36.86-32.64C176.52,298,166.93,289.1,155,289c-12.2-.14-22.14,8.63-22.14,19.47,0,23.31,14.7,46.13,26.47,66.29a392.22,392.22,0,0,0,24.93,36.83c1.59,2.14,10.05,16.11,12.38,16.11H331.29c20.48,0,37.09-14.79,37.09-33v-193A174.5,174.5,0,0,0,345.17,115.39Z"/><path class="cls-1" d="M249.81,290a19.42,19.42,0,0,1,2.55,10.07,21.33,21.33,0,0,1-5.27,14.75q-5.26,5.91-15.22,6.95v10.1h-8.45v-10q-16.59-1.71-20.54-19.28L216,299.18q1.81,11,12,11c3.18,0,5.53-.78,7-2.36a8,8,0,0,0,2.25-5.71,6.27,6.27,0,0,0-2.25-5.24q-2.25-1.8-10-4.54a58.58,58.58,0,0,1-10.9-4.78,18,18,0,0,1-6.37-6.61,19.58,19.58,0,0,1-2.45-9.91,22,22,0,0,1,4.38-13.35q4.37-5.93,13.75-7.25v-7.8h8.45v7.8q14.17,1.71,18.35,16l-11.64,4.77c-2.28-6.55-5.78-9.83-10.54-9.83a7.69,7.69,0,0,0-5.74,2.2,7.28,7.28,0,0,0-2.17,5.33,5.94,5.94,0,0,0,2.09,4.89c1.38,1.14,4.37,2.54,8.94,4.22a79.25,79.25,0,0,1,11.81,5.2A18.45,18.45,0,0,1,249.81,290Z"/></svg>