<svg id="Capa_1" data-name="Capa 1" xmlns="http://www.w3.org/2000/svg" viewBox="0 0 512 512"><defs><style>.cls-1{fill:gold;}.cls-2{fill:#dfb297;}.cls-3{fill:#fbc4ac;}</style></defs><title>logo-alt</title><path class="cls-1" d="M314.67,6.52C127.86-35-35,127.86,6.52,314.67A251.7,251.7,0,0,0,197.33,505.48C384.14,547,547,384.14,505.48,197.33A251.7,251.7,0,0,0,314.67,6.52ZM256.27,480C132.56,480.15,31.85,379.44,32,255.73,32.15,132.62,132.62,32.15,255.73,32,379.44,31.85,480.15,132.56,480,256.27,479.85,379.38,379.38,479.85,256.27,480Z"/><path class="cls-2" d="M193.29,221.24c10.56,4.16,17,14.74,14.66,24.88a173.22,173.22,0,0,0-1.71,52.64c4.38,37.37,19.95,67.41,46.26,89.3,9.64,8,11,21.2,3,29.45s-22.28,8.44-31.92.42C188,388.34,166.36,347.05,161,298.53c-3.93-35.65,2.3-63,2.57-64.14,2.58-11,14.59-17.34,26.85-14.1A27.55,27.55,0,0,1,193.29,221.24Z"/><path class="cls-3" d="M126.81,359.88l7.74,53.65c1.58,10.92,12.42,19.3,24.23,18.72s20.09-9.93,18.51-20.85l-7.74-53.65a138.69,138.69,0,0,1,8-70.58l11.56-29.34c.95-2.42,4.94-2.32,5.83.39,9.67,29.46,33.59,54.1,64.72,66.37a112.76,112.76,0,0,0,66,5.6c20.64-4.59,39-15.35,51.79-30.35,7.09-8.32,5.5-21.24-4.14-28.45a24.11,24.11,0,0,0-5.66-3.15c-8.78-3.46-18.9-1.55-24.62,5.3-15.56,18.62-44,24.71-69.1,14.81-30.53-12-39.14-41-28.17-68.16,10.88-26.95,37.15-41.57,67.51-29.6l18.92,7.46C351,205.47,361,225.13,354.5,241.94c-3.84,9.91,1.82,21.69,12.88,26.19,11.31,4.61,23.77.09,27.75-10,8.55-21.7,3.24-48.32-.32-71.39a395.23,395.23,0,0,0-9.69-43.4c-.7-2.58-3.45-18.68-5.61-19.53L254.23,74.44c-19.06-7.51-39.93.16-46.62,17.14L136.84,271.13A174.34,174.34,0,0,0,126.81,359.88Z"/><path class="cls-1" d="M318.88,240.49a19.46,19.46,0,0,1,2.56,10.08,21.31,21.31,0,0,1-5.28,14.75q-5.27,5.9-15.21,6.95v10.1h-8.46V272.32Q275.91,270.63,272,253l13.08-3.4q1.82,11,12,11c3.18,0,5.54-.79,7-2.36a8,8,0,0,0,2.24-5.71,6.32,6.32,0,0,0-2.24-5.25q-2.25-1.79-10-4.53a59.12,59.12,0,0,1-10.89-4.78,18,18,0,0,1-6.37-6.61,19.59,19.59,0,0,1-2.45-9.92,22,22,0,0,1,4.37-13.35q4.36-5.92,13.75-7.24v-7.8H301v7.8q14.18,1.69,18.34,16l-11.64,4.78q-3.4-9.83-10.54-9.83a7.68,7.68,0,0,0-5.74,2.2,7.27,7.27,0,0,0-2.17,5.32,6,6,0,0,0,2.09,4.9c1.39,1.13,4.38,2.54,8.94,4.22A79.37,79.37,0,0,1,312,233.74,18.53,18.53,0,0,1,318.88,240.49Z"/></svg>